<svg width="17" height="20" viewBox="0 0 17 20" fill="none" xmlns="http://www.w3.org/2000/svg">
<path d="M8.49754 11.9005C6.68083 11.9005 5.19678 10.425 5.19678 8.59979C5.19678 6.77461 6.68083 5.30762 8.49754 5.30762C10.3142 5.30762 11.7983 6.78314 11.7983 8.60832C11.7983 10.4335 10.3142 11.9005 8.49754 11.9005ZM8.49754 6.58697C7.38877 6.58697 6.47613 7.49105 6.47613 8.60832C6.47613 9.72562 7.38024 10.6297 8.49754 10.6297C9.61485 10.6297 10.5189 9.72562 10.5189 8.60832C10.5189 7.49105 9.60632 6.58697 8.49754 6.58697Z" fill="white"/>
<path d="M8.49737 19.2278C7.23507 19.2278 5.96424 18.7501 4.97487 17.8034C2.45881 15.3812 -0.321651 11.5175 0.727419 6.92039C1.67414 2.74969 5.31603 0.881836 8.49737 0.881836H8.5059C11.6872 0.881836 15.3291 2.74969 16.2758 6.92891C17.3164 11.5261 14.5359 15.3812 12.0199 17.8034C11.0305 18.7501 9.75966 19.2278 8.49737 19.2278ZM8.49737 2.16119C6.01541 2.16119 2.82556 3.48319 1.98119 7.20184C1.06005 11.219 3.58464 14.6818 5.87042 16.8738C7.34595 18.2981 9.65732 18.2981 11.1328 16.8738C13.4101 14.6818 15.9347 11.219 15.0306 7.20184C14.1777 3.48319 10.9793 2.16119 8.49737 2.16119Z" fill="white"/>
</svg>
