<svg width="17" height="20" viewBox="0 0 17 20" fill="none" xmlns="http://www.w3.org/2000/svg">
<path d="M8.49754 11.7872C6.68083 11.7872 5.19678 10.3117 5.19678 8.48651C5.19678 6.66133 6.68083 5.19434 8.49754 5.19434C10.3142 5.19434 11.7983 6.66986 11.7983 8.49503C11.7983 10.3202 10.3142 11.7872 8.49754 11.7872ZM8.49754 6.47369C7.38877 6.47369 6.47613 7.37777 6.47613 8.49503C6.47613 9.61234 7.38024 10.5164 8.49754 10.5164C9.61485 10.5164 10.5189 9.61234 10.5189 8.49503C10.5189 7.37777 9.60632 6.47369 8.49754 6.47369Z" fill="white"/>
<path d="M8.49737 19.1145C7.23507 19.1145 5.96424 18.6369 4.97487 17.6901C2.45881 15.2679 -0.321651 11.4042 0.727419 6.8071C1.67414 2.63641 5.31603 0.768555 8.49737 0.768555H8.5059C11.6872 0.768555 15.3291 2.63641 16.2758 6.81563C17.3164 11.4128 14.5359 15.2679 12.0199 17.6901C11.0305 18.6369 9.75966 19.1145 8.49737 19.1145ZM8.49737 2.04791C6.01541 2.04791 2.82556 3.36991 1.98119 7.08856C1.06005 11.1057 3.58464 14.5685 5.87042 16.7605C7.34595 18.1848 9.65732 18.1848 11.1328 16.7605C13.4101 14.5685 15.9347 11.1057 15.0306 7.08856C14.1777 3.36991 10.9793 2.04791 8.49737 2.04791Z" fill="white"/>
</svg>
