<svg width="24" height="25" viewBox="0 0 24 25" fill="none" xmlns="http://www.w3.org/2000/svg">
<g clip-path="url(#clip0_2902_7797)">
<path d="M12.0018 6.40237C8.59683 6.40237 5.84883 9.15037 5.84883 12.5554C5.84883 15.9604 8.59683 18.7084 12.0018 18.7084C15.4068 18.7084 18.1548 15.9604 18.1548 12.5554C18.1548 9.15037 15.4068 6.40237 12.0018 6.40237ZM12.0018 16.5544C9.79983 16.5544 8.00283 14.7574 8.00283 12.5554C8.00283 10.3534 9.79983 8.55637 12.0018 8.55637C14.2038 8.55637 16.0008 10.3534 16.0008 12.5554C16.0008 14.7574 14.2038 16.5544 12.0018 16.5544ZM18.4068 4.71637C17.6118 4.71637 16.9698 5.35837 16.9698 6.15337C16.9698 6.94837 17.6118 7.59037 18.4068 7.59037C19.2018 7.59037 19.8438 6.95137 19.8438 6.15337C19.8441 5.96459 19.8071 5.77762 19.7349 5.60317C19.6628 5.42872 19.557 5.27021 19.4235 5.13673C19.29 5.00324 19.1315 4.8974 18.957 4.82527C18.7826 4.75314 18.5956 4.71613 18.4068 4.71637V4.71637ZM23.9958 12.5554C23.9958 10.8994 24.0108 9.25837 23.9178 7.60537C23.8248 5.68537 23.3868 3.98137 21.9828 2.57737C20.5758 1.17037 18.8748 0.735369 16.9548 0.642369C15.2988 0.549369 13.6578 0.564369 12.0048 0.564369C10.3488 0.564369 8.70783 0.549369 7.05483 0.642369C5.13483 0.735369 3.43083 1.17337 2.02683 2.57737C0.619832 3.98437 0.184832 5.68537 0.0918317 7.60537C-0.00116826 9.26137 0.0138318 10.9024 0.0138318 12.5554C0.0138318 14.2084 -0.00116826 15.8524 0.0918317 17.5054C0.184832 19.4254 0.622832 21.1294 2.02683 22.5334C3.43383 23.9404 5.13483 24.3754 7.05483 24.4684C8.71083 24.5614 10.3518 24.5464 12.0048 24.5464C13.6608 24.5464 15.3018 24.5614 16.9548 24.4684C18.8748 24.3754 20.5788 23.9374 21.9828 22.5334C23.3898 21.1264 23.8248 19.4254 23.9178 17.5054C24.0138 15.8524 23.9958 14.2114 23.9958 12.5554V12.5554ZM21.3558 19.6294C21.1368 20.1754 20.8728 20.5834 20.4498 21.0034C20.0268 21.4264 19.6218 21.6904 19.0758 21.9094C17.4978 22.5364 13.7508 22.3954 12.0018 22.3954C10.2528 22.3954 6.50283 22.5364 4.92483 21.9124C4.37883 21.6934 3.97083 21.4294 3.55083 21.0064C3.12783 20.5834 2.86383 20.1784 2.64483 19.6324C2.02083 18.0514 2.16183 14.3044 2.16183 12.5554C2.16183 10.8064 2.02083 7.05637 2.64483 5.47837C2.86383 4.93237 3.12783 4.52437 3.55083 4.10437C3.97383 3.68437 4.37883 3.41737 4.92483 3.19837C6.50283 2.57437 10.2528 2.71537 12.0018 2.71537C13.7508 2.71537 17.5008 2.57437 19.0788 3.19837C19.6248 3.41737 20.0328 3.68137 20.4528 4.10437C20.8758 4.52737 21.1398 4.93237 21.3588 5.47837C21.9828 7.05637 21.8418 10.8064 21.8418 12.5554C21.8418 14.3044 21.9828 18.0514 21.3558 19.6294Z" fill="white"/>
</g>
<defs>
<clipPath id="clip0_2902_7797">
<rect width="24" height="24" fill="white" transform="translate(0 0.554688)"/>
</clipPath>
</defs>
</svg>
