<svg width="24" height="25" viewBox="0 0 24 25" fill="none" xmlns="http://www.w3.org/2000/svg">
<g clip-path="url(#clip0_2902_2147)">
<path d="M23.04 0.441406H0.96C0.429 0.441406 0 0.870406 0 1.40141V23.4814C0 24.0124 0.429 24.4414 0.96 24.4414H23.04C23.571 24.4414 24 24.0124 24 23.4814V1.40141C24 0.870406 23.571 0.441406 23.04 0.441406ZM20.268 7.44641H18.351C16.848 7.44641 16.557 8.16041 16.557 9.21041V11.5234H20.145L19.677 15.1444H16.557V24.4414H12.816V15.1474H9.687V11.5234H12.816V8.85341C12.816 5.75441 14.709 4.06541 17.475 4.06541C18.801 4.06541 19.938 4.16441 20.271 4.20941V7.44641H20.268Z" fill="white"/>
</g>
<defs>
<clipPath id="clip0_2902_2147">
<rect width="24" height="24" fill="white" transform="translate(0 0.441406)"/>
</clipPath>
</defs>
</svg>
