<svg width="24" height="25" viewBox="0 0 24 25" fill="none" xmlns="http://www.w3.org/2000/svg">
<g clip-path="url(#clip0_2902_2145)">
<path d="M12.0016 6.2886C8.59659 6.2886 5.84859 9.0366 5.84859 12.4416C5.84859 15.8466 8.59659 18.5946 12.0016 18.5946C15.4066 18.5946 18.1546 15.8466 18.1546 12.4416C18.1546 9.0366 15.4066 6.2886 12.0016 6.2886ZM12.0016 16.4406C9.79959 16.4406 8.00259 14.6436 8.00259 12.4416C8.00259 10.2396 9.79959 8.4426 12.0016 8.4426C14.2036 8.4426 16.0006 10.2396 16.0006 12.4416C16.0006 14.6436 14.2036 16.4406 12.0016 16.4406ZM18.4066 4.6026C17.6116 4.6026 16.9696 5.2446 16.9696 6.0396C16.9696 6.8346 17.6116 7.4766 18.4066 7.4766C19.2016 7.4766 19.8436 6.8376 19.8436 6.0396C19.8438 5.85082 19.8068 5.66385 19.7347 5.4894C19.6626 5.31495 19.5567 5.15644 19.4232 5.02296C19.2897 4.88947 19.1312 4.78363 18.9568 4.7115C18.7823 4.63937 18.5954 4.60236 18.4066 4.6026V4.6026ZM23.9956 12.4416C23.9956 10.7856 24.0106 9.1446 23.9176 7.4916C23.8246 5.5716 23.3866 3.8676 21.9826 2.4636C20.5756 1.0566 18.8746 0.621599 16.9546 0.528599C15.2986 0.435599 13.6576 0.450599 12.0046 0.450599C10.3486 0.450599 8.70759 0.435599 7.05459 0.528599C5.13459 0.621599 3.43059 1.0596 2.02659 2.4636C0.619588 3.8706 0.184588 5.5716 0.0915876 7.4916C-0.0014124 9.1476 0.0135876 10.7886 0.0135876 12.4416C0.0135876 14.0946 -0.0014124 15.7386 0.0915876 17.3916C0.184588 19.3116 0.622588 21.0156 2.02659 22.4196C3.43359 23.8266 5.13459 24.2616 7.05459 24.3546C8.71059 24.4476 10.3516 24.4326 12.0046 24.4326C13.6606 24.4326 15.3016 24.4476 16.9546 24.3546C18.8746 24.2616 20.5786 23.8236 21.9826 22.4196C23.3896 21.0126 23.8246 19.3116 23.9176 17.3916C24.0136 15.7386 23.9956 14.0976 23.9956 12.4416V12.4416ZM21.3556 19.5156C21.1366 20.0616 20.8726 20.4696 20.4496 20.8896C20.0266 21.3126 19.6216 21.5766 19.0756 21.7956C17.4976 22.4226 13.7506 22.2816 12.0016 22.2816C10.2526 22.2816 6.50259 22.4226 4.92459 21.7986C4.37859 21.5796 3.97059 21.3156 3.55059 20.8926C3.12759 20.4696 2.86359 20.0646 2.64459 19.5186C2.02059 17.9376 2.16159 14.1906 2.16159 12.4416C2.16159 10.6926 2.02059 6.9426 2.64459 5.3646C2.86359 4.8186 3.12759 4.4106 3.55059 3.9906C3.97359 3.5706 4.37859 3.3036 4.92459 3.0846C6.50259 2.4606 10.2526 2.6016 12.0016 2.6016C13.7506 2.6016 17.5006 2.4606 19.0786 3.0846C19.6246 3.3036 20.0326 3.5676 20.4526 3.9906C20.8756 4.4136 21.1396 4.8186 21.3586 5.3646C21.9826 6.9426 21.8416 10.6926 21.8416 12.4416C21.8416 14.1906 21.9826 17.9376 21.3556 19.5156Z" fill="white"/>
</g>
<defs>
<clipPath id="clip0_2902_2145">
<rect width="24" height="24" fill="white" transform="translate(0 0.441406)"/>
</clipPath>
</defs>
</svg>
