<svg width="24" height="25" viewBox="0 0 24 25" fill="none" xmlns="http://www.w3.org/2000/svg">
<g clip-path="url(#clip0_2902_2245)">
<path d="M12.0016 6.34719C8.59659 6.34719 5.84859 9.09519 5.84859 12.5002C5.84859 15.9052 8.59659 18.6532 12.0016 18.6532C15.4066 18.6532 18.1546 15.9052 18.1546 12.5002C18.1546 9.09519 15.4066 6.34719 12.0016 6.34719ZM12.0016 16.4992C9.79959 16.4992 8.00259 14.7022 8.00259 12.5002C8.00259 10.2982 9.79959 8.50119 12.0016 8.50119C14.2036 8.50119 16.0006 10.2982 16.0006 12.5002C16.0006 14.7022 14.2036 16.4992 12.0016 16.4992ZM18.4066 4.66119C17.6116 4.66119 16.9696 5.30319 16.9696 6.09819C16.9696 6.89319 17.6116 7.53519 18.4066 7.53519C19.2016 7.53519 19.8436 6.89619 19.8436 6.09819C19.8438 5.90942 19.8068 5.72245 19.7347 5.548C19.6626 5.37354 19.5567 5.21504 19.4232 5.08155C19.2897 4.94807 19.1312 4.84223 18.9568 4.7701C18.7823 4.69796 18.5954 4.66096 18.4066 4.66119V4.66119ZM23.9956 12.5002C23.9956 10.8442 24.0106 9.20319 23.9176 7.55019C23.8246 5.63019 23.3866 3.92619 21.9826 2.52219C20.5756 1.11519 18.8746 0.680193 16.9546 0.587193C15.2986 0.494193 13.6576 0.509193 12.0046 0.509193C10.3486 0.509193 8.70759 0.494193 7.05459 0.587193C5.13459 0.680193 3.43059 1.11819 2.02659 2.52219C0.619588 3.92919 0.184588 5.63019 0.0915876 7.55019C-0.0014124 9.20619 0.0135876 10.8472 0.0135876 12.5002C0.0135876 14.1532 -0.0014124 15.7972 0.0915876 17.4502C0.184588 19.3702 0.622588 21.0742 2.02659 22.4782C3.43359 23.8852 5.13459 24.3202 7.05459 24.4132C8.71059 24.5062 10.3516 24.4912 12.0046 24.4912C13.6606 24.4912 15.3016 24.5062 16.9546 24.4132C18.8746 24.3202 20.5786 23.8822 21.9826 22.4782C23.3896 21.0712 23.8246 19.3702 23.9176 17.4502C24.0136 15.7972 23.9956 14.1562 23.9956 12.5002V12.5002ZM21.3556 19.5742C21.1366 20.1202 20.8726 20.5282 20.4496 20.9482C20.0266 21.3712 19.6216 21.6352 19.0756 21.8542C17.4976 22.4812 13.7506 22.3402 12.0016 22.3402C10.2526 22.3402 6.50259 22.4812 4.92459 21.8572C4.37859 21.6382 3.97059 21.3742 3.55059 20.9512C3.12759 20.5282 2.86359 20.1232 2.64459 19.5772C2.02059 17.9962 2.16159 14.2492 2.16159 12.5002C2.16159 10.7512 2.02059 7.00119 2.64459 5.42319C2.86359 4.87719 3.12759 4.46919 3.55059 4.04919C3.97359 3.62919 4.37859 3.36219 4.92459 3.14319C6.50259 2.51919 10.2526 2.66019 12.0016 2.66019C13.7506 2.66019 17.5006 2.51919 19.0786 3.14319C19.6246 3.36219 20.0326 3.62619 20.4526 4.04919C20.8756 4.47219 21.1396 4.87719 21.3586 5.42319C21.9826 7.00119 21.8416 10.7512 21.8416 12.5002C21.8416 14.2492 21.9826 17.9962 21.3556 19.5742Z" fill="white"/>
</g>
<defs>
<clipPath id="clip0_2902_2245">
<rect width="24" height="24" fill="white" transform="translate(0 0.5)"/>
</clipPath>
</defs>
</svg>
