<svg width="24" height="25" viewBox="0 0 24 25" fill="none" xmlns="http://www.w3.org/2000/svg">
<g clip-path="url(#clip0_2902_8186)">
<path d="M12.0016 6.40188C8.59659 6.40188 5.84859 9.14988 5.84859 12.5549C5.84859 15.9599 8.59659 18.7079 12.0016 18.7079C15.4066 18.7079 18.1546 15.9599 18.1546 12.5549C18.1546 9.14988 15.4066 6.40188 12.0016 6.40188ZM12.0016 16.5539C9.79959 16.5539 8.00259 14.7569 8.00259 12.5549C8.00259 10.3529 9.79959 8.55588 12.0016 8.55588C14.2036 8.55588 16.0006 10.3529 16.0006 12.5549C16.0006 14.7569 14.2036 16.5539 12.0016 16.5539ZM18.4066 4.71588C17.6116 4.71588 16.9696 5.35788 16.9696 6.15288C16.9696 6.94788 17.6116 7.58988 18.4066 7.58988C19.2016 7.58988 19.8436 6.95088 19.8436 6.15288C19.8438 5.9641 19.8068 5.77714 19.7347 5.60268C19.6626 5.42823 19.5567 5.26972 19.4232 5.13624C19.2897 5.00275 19.1312 4.89691 18.9568 4.82478C18.7823 4.75265 18.5954 4.71564 18.4066 4.71588V4.71588ZM23.9956 12.5549C23.9956 10.8989 24.0106 9.25788 23.9176 7.60488C23.8246 5.68488 23.3866 3.98088 21.9826 2.57688C20.5756 1.16988 18.8746 0.734881 16.9546 0.641881C15.2986 0.548881 13.6576 0.563881 12.0046 0.563881C10.3486 0.563881 8.70759 0.548881 7.05459 0.641881C5.13459 0.734881 3.43059 1.17288 2.02659 2.57688C0.619588 3.98388 0.184588 5.68488 0.0915876 7.60488C-0.0014124 9.26088 0.0135876 10.9019 0.0135876 12.5549C0.0135876 14.2079 -0.0014124 15.8519 0.0915876 17.5049C0.184588 19.4249 0.622588 21.1289 2.02659 22.5329C3.43359 23.9399 5.13459 24.3749 7.05459 24.4679C8.71059 24.5609 10.3516 24.5459 12.0046 24.5459C13.6606 24.5459 15.3016 24.5609 16.9546 24.4679C18.8746 24.3749 20.5786 23.9369 21.9826 22.5329C23.3896 21.1259 23.8246 19.4249 23.9176 17.5049C24.0136 15.8519 23.9956 14.2109 23.9956 12.5549V12.5549ZM21.3556 19.6289C21.1366 20.1749 20.8726 20.5829 20.4496 21.0029C20.0266 21.4259 19.6216 21.6899 19.0756 21.9089C17.4976 22.5359 13.7506 22.3949 12.0016 22.3949C10.2526 22.3949 6.50259 22.5359 4.92459 21.9119C4.37859 21.6929 3.97059 21.4289 3.55059 21.0059C3.12759 20.5829 2.86359 20.1779 2.64459 19.6319C2.02059 18.0509 2.16159 14.3039 2.16159 12.5549C2.16159 10.8059 2.02059 7.05588 2.64459 5.47788C2.86359 4.93188 3.12759 4.52388 3.55059 4.10388C3.97359 3.68388 4.37859 3.41688 4.92459 3.19788C6.50259 2.57388 10.2526 2.71488 12.0016 2.71488C13.7506 2.71488 17.5006 2.57388 19.0786 3.19788C19.6246 3.41688 20.0326 3.68088 20.4526 4.10388C20.8756 4.52688 21.1396 4.93188 21.3586 5.47788C21.9826 7.05588 21.8416 10.8059 21.8416 12.5549C21.8416 14.3039 21.9826 18.0509 21.3556 19.6289Z" fill="white"/>
</g>
<defs>
<clipPath id="clip0_2902_8186">
<rect width="24" height="24" fill="white" transform="translate(0 0.554688)"/>
</clipPath>
</defs>
</svg>
