<svg width="24" height="25" viewBox="0 0 24 25" fill="none" xmlns="http://www.w3.org/2000/svg">
<g clip-path="url(#clip0_2902_1355)">
<path d="M12.0016 6.34768C8.59659 6.34768 5.84859 9.09568 5.84859 12.5007C5.84859 15.9057 8.59659 18.6537 12.0016 18.6537C15.4066 18.6537 18.1546 15.9057 18.1546 12.5007C18.1546 9.09568 15.4066 6.34768 12.0016 6.34768ZM12.0016 16.4997C9.79959 16.4997 8.00259 14.7027 8.00259 12.5007C8.00259 10.2987 9.79959 8.50168 12.0016 8.50168C14.2036 8.50168 16.0006 10.2987 16.0006 12.5007C16.0006 14.7027 14.2036 16.4997 12.0016 16.4997ZM18.4066 4.66168C17.6116 4.66168 16.9696 5.30368 16.9696 6.09868C16.9696 6.89368 17.6116 7.53568 18.4066 7.53568C19.2016 7.53568 19.8436 6.89668 19.8436 6.09868C19.8438 5.9099 19.8068 5.72294 19.7347 5.54848C19.6626 5.37403 19.5567 5.21552 19.4232 5.08204C19.2897 4.94856 19.1312 4.84272 18.9568 4.77058C18.7823 4.69845 18.5954 4.66144 18.4066 4.66168V4.66168ZM23.9956 12.5007C23.9956 10.8447 24.0106 9.20368 23.9176 7.55068C23.8246 5.63068 23.3866 3.92668 21.9826 2.52268C20.5756 1.11568 18.8746 0.680681 16.9546 0.587681C15.2986 0.494681 13.6576 0.509681 12.0046 0.509681C10.3486 0.509681 8.70759 0.494681 7.05459 0.587681C5.13459 0.680681 3.43059 1.11868 2.02659 2.52268C0.619588 3.92968 0.184588 5.63068 0.0915876 7.55068C-0.0014124 9.20668 0.0135876 10.8477 0.0135876 12.5007C0.0135876 14.1537 -0.0014124 15.7977 0.0915876 17.4507C0.184588 19.3707 0.622588 21.0747 2.02659 22.4787C3.43359 23.8857 5.13459 24.3207 7.05459 24.4137C8.71059 24.5067 10.3516 24.4917 12.0046 24.4917C13.6606 24.4917 15.3016 24.5067 16.9546 24.4137C18.8746 24.3207 20.5786 23.8827 21.9826 22.4787C23.3896 21.0717 23.8246 19.3707 23.9176 17.4507C24.0136 15.7977 23.9956 14.1567 23.9956 12.5007V12.5007ZM21.3556 19.5747C21.1366 20.1207 20.8726 20.5287 20.4496 20.9487C20.0266 21.3717 19.6216 21.6357 19.0756 21.8547C17.4976 22.4817 13.7506 22.3407 12.0016 22.3407C10.2526 22.3407 6.50259 22.4817 4.92459 21.8577C4.37859 21.6387 3.97059 21.3747 3.55059 20.9517C3.12759 20.5287 2.86359 20.1237 2.64459 19.5777C2.02059 17.9967 2.16159 14.2497 2.16159 12.5007C2.16159 10.7517 2.02059 7.00168 2.64459 5.42368C2.86359 4.87768 3.12759 4.46968 3.55059 4.04968C3.97359 3.62968 4.37859 3.36268 4.92459 3.14368C6.50259 2.51968 10.2526 2.66068 12.0016 2.66068C13.7506 2.66068 17.5006 2.51968 19.0786 3.14368C19.6246 3.36268 20.0326 3.62668 20.4526 4.04968C20.8756 4.47268 21.1396 4.87768 21.3586 5.42368C21.9826 7.00168 21.8416 10.7517 21.8416 12.5007C21.8416 14.2497 21.9826 17.9967 21.3556 19.5747Z" fill="white"/>
</g>
<defs>
<clipPath id="clip0_2902_1355">
<rect width="24" height="24" fill="white" transform="translate(0 0.5)"/>
</clipPath>
</defs>
</svg>
