<svg width="24" height="25" viewBox="0 0 24 25" fill="none" xmlns="http://www.w3.org/2000/svg">
<g clip-path="url(#clip0_2902_8890)">
<path d="M12.0016 6.40237C8.59659 6.40237 5.84859 9.15037 5.84859 12.5554C5.84859 15.9604 8.59659 18.7084 12.0016 18.7084C15.4066 18.7084 18.1546 15.9604 18.1546 12.5554C18.1546 9.15037 15.4066 6.40237 12.0016 6.40237ZM12.0016 16.5544C9.79959 16.5544 8.00259 14.7574 8.00259 12.5554C8.00259 10.3534 9.79959 8.55637 12.0016 8.55637C14.2036 8.55637 16.0006 10.3534 16.0006 12.5554C16.0006 14.7574 14.2036 16.5544 12.0016 16.5544ZM18.4066 4.71637C17.6116 4.71637 16.9696 5.35837 16.9696 6.15337C16.9696 6.94837 17.6116 7.59037 18.4066 7.59037C19.2016 7.59037 19.8436 6.95137 19.8436 6.15337C19.8438 5.96459 19.8068 5.77762 19.7347 5.60317C19.6626 5.42872 19.5567 5.27021 19.4232 5.13673C19.2897 5.00324 19.1312 4.8974 18.9568 4.82527C18.7823 4.75314 18.5954 4.71613 18.4066 4.71637V4.71637ZM23.9956 12.5554C23.9956 10.8994 24.0106 9.25837 23.9176 7.60537C23.8246 5.68537 23.3866 3.98137 21.9826 2.57737C20.5756 1.17037 18.8746 0.735369 16.9546 0.642369C15.2986 0.549369 13.6576 0.564369 12.0046 0.564369C10.3486 0.564369 8.70759 0.549369 7.05459 0.642369C5.13459 0.735369 3.43059 1.17337 2.02659 2.57737C0.619588 3.98437 0.184588 5.68537 0.0915876 7.60537C-0.0014124 9.26137 0.0135876 10.9024 0.0135876 12.5554C0.0135876 14.2084 -0.0014124 15.8524 0.0915876 17.5054C0.184588 19.4254 0.622588 21.1294 2.02659 22.5334C3.43359 23.9404 5.13459 24.3754 7.05459 24.4684C8.71059 24.5614 10.3516 24.5464 12.0046 24.5464C13.6606 24.5464 15.3016 24.5614 16.9546 24.4684C18.8746 24.3754 20.5786 23.9374 21.9826 22.5334C23.3896 21.1264 23.8246 19.4254 23.9176 17.5054C24.0136 15.8524 23.9956 14.2114 23.9956 12.5554V12.5554ZM21.3556 19.6294C21.1366 20.1754 20.8726 20.5834 20.4496 21.0034C20.0266 21.4264 19.6216 21.6904 19.0756 21.9094C17.4976 22.5364 13.7506 22.3954 12.0016 22.3954C10.2526 22.3954 6.50259 22.5364 4.92459 21.9124C4.37859 21.6934 3.97059 21.4294 3.55059 21.0064C3.12759 20.5834 2.86359 20.1784 2.64459 19.6324C2.02059 18.0514 2.16159 14.3044 2.16159 12.5554C2.16159 10.8064 2.02059 7.05637 2.64459 5.47837C2.86359 4.93237 3.12759 4.52437 3.55059 4.10437C3.97359 3.68437 4.37859 3.41737 4.92459 3.19837C6.50259 2.57437 10.2526 2.71537 12.0016 2.71537C13.7506 2.71537 17.5006 2.57437 19.0786 3.19837C19.6246 3.41737 20.0326 3.68137 20.4526 4.10437C20.8756 4.52737 21.1396 4.93237 21.3586 5.47837C21.9826 7.05637 21.8416 10.8064 21.8416 12.5554C21.8416 14.3044 21.9826 18.0514 21.3556 19.6294Z" fill="white"/>
</g>
<defs>
<clipPath id="clip0_2902_8890">
<rect width="24" height="24" fill="white" transform="translate(0 0.554688)"/>
</clipPath>
</defs>
</svg>
