<svg width="24" height="25" viewBox="0 0 24 25" fill="none" xmlns="http://www.w3.org/2000/svg">
<g clip-path="url(#clip0_2902_7038)">
<path d="M12.0018 6.40188C8.59683 6.40188 5.84883 9.14988 5.84883 12.5549C5.84883 15.9599 8.59683 18.7079 12.0018 18.7079C15.4068 18.7079 18.1548 15.9599 18.1548 12.5549C18.1548 9.14988 15.4068 6.40188 12.0018 6.40188ZM12.0018 16.5539C9.79983 16.5539 8.00283 14.7569 8.00283 12.5549C8.00283 10.3529 9.79983 8.55588 12.0018 8.55588C14.2038 8.55588 16.0008 10.3529 16.0008 12.5549C16.0008 14.7569 14.2038 16.5539 12.0018 16.5539ZM18.4068 4.71588C17.6118 4.71588 16.9698 5.35788 16.9698 6.15288C16.9698 6.94788 17.6118 7.58988 18.4068 7.58988C19.2018 7.58988 19.8438 6.95088 19.8438 6.15288C19.8441 5.9641 19.8071 5.77714 19.7349 5.60268C19.6628 5.42823 19.557 5.26972 19.4235 5.13624C19.29 5.00275 19.1315 4.89691 18.957 4.82478C18.7826 4.75265 18.5956 4.71564 18.4068 4.71588V4.71588ZM23.9958 12.5549C23.9958 10.8989 24.0108 9.25788 23.9178 7.60488C23.8248 5.68488 23.3868 3.98088 21.9828 2.57688C20.5758 1.16988 18.8748 0.734881 16.9548 0.641881C15.2988 0.548881 13.6578 0.563881 12.0048 0.563881C10.3488 0.563881 8.70783 0.548881 7.05483 0.641881C5.13483 0.734881 3.43083 1.17288 2.02683 2.57688C0.619832 3.98388 0.184832 5.68488 0.0918317 7.60488C-0.00116826 9.26088 0.0138318 10.9019 0.0138318 12.5549C0.0138318 14.2079 -0.00116826 15.8519 0.0918317 17.5049C0.184832 19.4249 0.622832 21.1289 2.02683 22.5329C3.43383 23.9399 5.13483 24.3749 7.05483 24.4679C8.71083 24.5609 10.3518 24.5459 12.0048 24.5459C13.6608 24.5459 15.3018 24.5609 16.9548 24.4679C18.8748 24.3749 20.5788 23.9369 21.9828 22.5329C23.3898 21.1259 23.8248 19.4249 23.9178 17.5049C24.0138 15.8519 23.9958 14.2109 23.9958 12.5549V12.5549ZM21.3558 19.6289C21.1368 20.1749 20.8728 20.5829 20.4498 21.0029C20.0268 21.4259 19.6218 21.6899 19.0758 21.9089C17.4978 22.5359 13.7508 22.3949 12.0018 22.3949C10.2528 22.3949 6.50283 22.5359 4.92483 21.9119C4.37883 21.6929 3.97083 21.4289 3.55083 21.0059C3.12783 20.5829 2.86383 20.1779 2.64483 19.6319C2.02083 18.0509 2.16183 14.3039 2.16183 12.5549C2.16183 10.8059 2.02083 7.05588 2.64483 5.47788C2.86383 4.93188 3.12783 4.52388 3.55083 4.10388C3.97383 3.68388 4.37883 3.41688 4.92483 3.19788C6.50283 2.57388 10.2528 2.71488 12.0018 2.71488C13.7508 2.71488 17.5008 2.57388 19.0788 3.19788C19.6248 3.41688 20.0328 3.68088 20.4528 4.10388C20.8758 4.52688 21.1398 4.93188 21.3588 5.47788C21.9828 7.05588 21.8418 10.8059 21.8418 12.5549C21.8418 14.3039 21.9828 18.0509 21.3558 19.6289Z" fill="white"/>
</g>
<defs>
<clipPath id="clip0_2902_7038">
<rect width="24" height="24" fill="white" transform="translate(0 0.554688)"/>
</clipPath>
</defs>
</svg>
