<svg width="22" height="20" viewBox="0 0 22 20" fill="none" xmlns="http://www.w3.org/2000/svg">
<path fill-rule="evenodd" clip-rule="evenodd" d="M21.6947 10.0581C21.6947 4.70069 17.057 0.356689 11.3372 0.356689C5.61747 0.356689 0.979706 4.70069 0.979706 10.0581C0.979706 14.9002 4.76667 18.9138 9.71886 19.6422V12.8633H7.08833V10.0581H9.71886V7.9208C9.71886 5.4898 11.2656 4.14589 13.6311 4.14589C14.7645 4.14589 15.95 4.33559 15.95 4.33559V6.72327H14.6433C13.3574 6.72327 12.9551 7.4708 12.9551 8.23913V10.0581H15.8275L15.3688 12.8633H12.9556V19.6431C17.9078 18.9151 21.6947 14.9015 21.6947 10.0581V10.0581Z" fill="white"/>
</svg>
