<svg width="22" height="20" viewBox="0 0 22 20" fill="none" xmlns="http://www.w3.org/2000/svg">
<path fill-rule="evenodd" clip-rule="evenodd" d="M21.6948 10.0581C21.6948 4.70069 17.057 0.356689 11.3373 0.356689C5.6175 0.356689 0.979736 4.70069 0.979736 10.0581C0.979736 14.9002 4.7667 18.9138 9.71889 19.6422V12.8633H7.08836V10.0581H9.71889V7.9208C9.71889 5.4898 11.2656 4.14589 13.6312 4.14589C14.7645 4.14589 15.9501 4.33559 15.9501 4.33559V6.72327H14.6433C13.3574 6.72327 12.9552 7.4708 12.9552 8.23913V10.0581H15.8275L15.3688 12.8633H12.9556V19.6431C17.9078 18.9151 21.6948 14.9015 21.6948 10.0581V10.0581Z" fill="white"/>
</svg>
