<svg width="22" height="20" viewBox="0 0 22 20" fill="none" xmlns="http://www.w3.org/2000/svg">
<path fill-rule="evenodd" clip-rule="evenodd" d="M21.6945 10.0581C21.6945 4.70069 17.0568 0.356689 11.337 0.356689C5.61726 0.356689 0.979492 4.70069 0.979492 10.0581C0.979492 14.9002 4.76646 18.9138 9.71865 19.6422V12.8633H7.08812V10.0581H9.71865V7.9208C9.71865 5.4898 11.2653 4.14589 13.6309 4.14589C14.7642 4.14589 15.9498 4.33559 15.9498 4.33559V6.72327H14.6431C13.3572 6.72327 12.9549 7.4708 12.9549 8.23913V10.0581H15.8273L15.3686 12.8633H12.9554V19.6431C17.9076 18.9151 21.6945 14.9015 21.6945 10.0581V10.0581Z" fill="white"/>
</svg>
