<svg width="524" height="336" viewBox="0 0 524 336" fill="none" xmlns="http://www.w3.org/2000/svg">
<path fill-rule="evenodd" clip-rule="evenodd" d="M163.817 214.986H10.9207C5.89437 214.986 1.81971 218.285 1.81971 222.355V313.733C1.81971 317.803 5.89437 321.102 10.9207 321.102H163.817C168.844 321.102 172.918 317.803 172.918 313.733V222.355C172.918 218.285 168.844 214.986 163.817 214.986ZM10.9207 213.512C4.8891 213.512 -0.000488281 217.471 -0.000488281 222.355V313.733C-0.000488281 318.617 4.8891 322.576 10.9207 322.576H163.817C169.849 322.576 174.739 318.617 174.739 313.733V222.355C174.739 217.471 169.849 213.512 163.817 213.512H10.9207Z" fill="url(#paint0_linear_2902_2373)"/>
<path d="M14.1274 231.147C14.1274 229.524 15.5508 228.208 17.3067 228.208H135.292C137.048 228.208 138.471 229.524 138.471 231.147V231.147C138.471 232.771 137.048 234.087 135.292 234.087H17.3067C15.5508 234.087 14.1274 232.771 14.1274 231.147V231.147Z" fill="url(#paint1_linear_2902_2373)"/>
<path d="M14.1274 245.843C14.1274 244.219 15.5508 242.903 17.3067 242.903H55.4577C57.2135 242.903 58.6369 244.219 58.6369 245.843V245.843C58.6369 247.466 57.2135 248.782 55.4577 248.782H17.3067C15.5508 248.782 14.1274 247.466 14.1274 245.843V245.843Z" fill="url(#paint2_linear_2902_2373)"/>
<path d="M64.292 245.843C64.292 244.219 65.7154 242.903 67.4712 242.903H82.3077C84.0636 242.903 85.487 244.219 85.487 245.843V245.843C85.487 247.466 84.0636 248.782 82.3077 248.782H67.4712C65.7154 248.782 64.292 247.466 64.292 245.843V245.843Z" fill="url(#paint3_linear_2902_2373)"/>
<path d="M14.1274 304.627C14.1274 303.003 15.5508 301.688 17.3067 301.688H55.4577C57.2135 301.688 58.6369 303.003 58.6369 304.627V304.627C58.6369 306.25 57.2135 307.566 55.4577 307.566H17.3067C15.5508 307.566 14.1274 306.25 14.1274 304.627V304.627Z" fill="url(#paint4_linear_2902_2373)"/>
<path d="M64.292 304.627C64.292 303.003 65.7154 301.688 67.4712 301.688H82.3077C84.0636 301.688 85.487 303.003 85.487 304.627V304.627C85.487 306.25 84.0636 307.566 82.3077 307.566H67.4712C65.7154 307.566 64.292 306.25 64.292 304.627V304.627Z" fill="url(#paint5_linear_2902_2373)"/>
<path d="M39.563 275.235C39.563 273.612 40.9864 272.296 42.7422 272.296H53.3397C55.0956 272.296 56.519 273.612 56.519 275.235V275.235C56.519 276.859 55.0956 278.175 53.3397 278.175H42.7422C40.9864 278.175 39.563 276.859 39.563 275.235V275.235Z" fill="url(#paint6_linear_2902_2373)"/>
<path d="M62.8774 275.235C62.8774 273.612 64.3008 272.296 66.0567 272.296H111.273C113.029 272.296 114.452 273.612 114.452 275.235V275.235C114.452 276.859 113.029 278.175 111.273 278.175H66.0567C64.3008 278.175 62.8774 276.859 62.8774 275.235V275.235Z" fill="url(#paint7_linear_2902_2373)"/>
<path d="M14.1274 275.235C14.1274 273.612 15.5508 272.296 17.3067 272.296H32.1432C33.899 272.296 35.3224 273.612 35.3224 275.235V275.235C35.3224 276.859 33.899 278.175 32.1432 278.175H17.3067C15.5508 278.175 14.1274 276.859 14.1274 275.235V275.235Z" fill="url(#paint8_linear_2902_2373)"/>
<path d="M14.1274 260.539C14.1274 258.916 15.5508 257.6 17.3067 257.6H68.8812C70.637 257.6 72.0604 258.916 72.0604 260.539V260.539C72.0604 262.162 70.637 263.478 68.8812 263.478H17.3067C15.5508 263.478 14.1274 262.162 14.1274 260.539V260.539Z" fill="url(#paint9_linear_2902_2373)"/>
<path d="M77.0054 260.539C77.0054 258.916 78.4288 257.6 80.1846 257.6H104.206C105.961 257.6 107.385 258.916 107.385 260.539V260.539C107.385 262.162 105.961 263.478 104.206 263.478H80.1846C78.4288 263.478 77.0054 262.162 77.0054 260.539V260.539Z" fill="url(#paint10_linear_2902_2373)"/>
<path d="M14.1274 289.932C14.1274 288.309 15.5508 286.993 17.3067 286.993H68.8812C70.637 286.993 72.0604 288.309 72.0604 289.932V289.932C72.0604 291.555 70.637 292.871 68.8812 292.871H17.3067C15.5508 292.871 14.1274 291.555 14.1274 289.932V289.932Z" fill="url(#paint11_linear_2902_2373)"/>
<path d="M72.7334 14.265C72.7334 6.55437 79.4945 0.303711 87.8348 0.303711H482.062C490.402 0.303711 497.163 6.55438 497.163 14.265V282.468C497.163 290.179 490.402 296.429 482.062 296.429H87.8348C79.4945 296.429 72.7334 290.179 72.7334 282.468V14.265Z" fill="#1B4071"/>
<path fill-rule="evenodd" clip-rule="evenodd" d="M481.842 1.77332H87.6156C80.1532 1.77332 74.1038 7.36602 74.1038 14.265V282.468C74.1038 289.367 80.1532 294.96 87.6156 294.96H481.842C489.305 294.96 495.354 289.367 495.354 282.468V14.265C495.354 7.36602 489.305 1.77332 481.842 1.77332ZM87.6156 0.303711C79.2753 0.303711 72.5142 6.55437 72.5142 14.265V282.468C72.5142 290.179 79.2753 296.429 87.6156 296.429H481.842C490.183 296.429 496.944 290.179 496.944 282.468V14.265C496.944 6.55438 490.183 0.303711 481.842 0.303711H87.6156Z" fill="url(#paint12_linear_2902_2373)"/>
<path d="M82.0503 27.8591C82.0503 19.5398 89.3452 12.7957 98.3439 12.7957H464.752C473.751 12.7957 481.046 19.5398 481.046 27.8591V27.8591C481.046 36.1784 473.751 42.9226 464.752 42.9226H98.3439C89.3452 42.9226 82.0503 36.1784 82.0503 27.8591V27.8591Z" fill="url(#paint13_linear_2902_2373)"/>
<path fill-rule="evenodd" clip-rule="evenodd" d="M469.833 59.9997H316.936C311.91 59.9997 307.835 63.299 307.835 67.3689V158.747C307.835 162.817 311.91 166.116 316.936 166.116H469.833C474.859 166.116 478.934 162.817 478.934 158.747V67.3689C478.934 63.299 474.859 59.9997 469.833 59.9997ZM316.936 58.5259C310.904 58.5259 306.015 62.485 306.015 67.3689V158.747C306.015 163.631 310.904 167.59 316.936 167.59H469.833C475.864 167.59 480.754 163.631 480.754 158.747V67.3689C480.754 62.485 475.864 58.5259 469.833 58.5259H316.936Z" fill="url(#paint14_linear_2902_2373)"/>
<path d="M320.145 76.1616C320.145 74.5383 321.568 73.2224 323.324 73.2224H441.309C443.065 73.2224 444.488 74.5383 444.488 76.1616V76.1616C444.488 77.7849 443.065 79.1008 441.309 79.1008H323.324C321.568 79.1008 320.145 77.7849 320.145 76.1616V76.1616Z" fill="#1B4071"/>
<path d="M320.145 90.8564C320.145 89.2332 321.568 87.9172 323.324 87.9172H361.475C363.231 87.9172 364.654 89.2332 364.654 90.8564V90.8564C364.654 92.4797 363.231 93.7957 361.475 93.7957H323.324C321.568 93.7957 320.145 92.4797 320.145 90.8564V90.8564Z" fill="url(#paint15_linear_2902_2373)"/>
<path d="M370.301 90.8564C370.301 89.2332 371.724 87.9172 373.48 87.9172H388.317C390.072 87.9172 391.496 89.2332 391.496 90.8564V90.8564C391.496 92.4797 390.072 93.7957 388.317 93.7957H373.48C371.724 93.7957 370.301 92.4797 370.301 90.8564V90.8564Z" fill="url(#paint16_linear_2902_2373)"/>
<path d="M320.145 149.641C320.145 148.018 321.568 146.702 323.324 146.702H361.475C363.231 146.702 364.654 148.018 364.654 149.641V149.641C364.654 151.264 363.231 152.58 361.475 152.58H323.324C321.568 152.58 320.145 151.264 320.145 149.641V149.641Z" fill="#1B4071"/>
<path d="M370.301 149.641C370.301 148.018 371.724 146.702 373.48 146.702H388.317C390.072 146.702 391.496 148.018 391.496 149.641V149.641C391.496 151.264 390.072 152.58 388.317 152.58H373.48C371.724 152.58 370.301 151.264 370.301 149.641V149.641Z" fill="url(#paint17_linear_2902_2373)"/>
<path d="M345.578 120.25C345.578 118.626 347.002 117.31 348.757 117.31H359.355C361.111 117.31 362.534 118.626 362.534 120.25V120.25C362.534 121.873 361.111 123.189 359.355 123.189H348.757C347.002 123.189 345.578 121.873 345.578 120.25V120.25Z" fill="url(#paint18_linear_2902_2373)"/>
<path d="M368.895 120.25C368.895 118.626 370.318 117.31 372.074 117.31H417.29C419.046 117.31 420.469 118.626 420.469 120.25V120.25C420.469 121.873 419.046 123.189 417.29 123.189H372.074C370.318 123.189 368.895 121.873 368.895 120.25V120.25Z" fill="url(#paint19_linear_2902_2373)"/>
<path d="M320.145 120.25C320.145 118.626 321.568 117.31 323.324 117.31H338.16C339.916 117.31 341.34 118.626 341.34 120.25V120.25C341.34 121.873 339.916 123.189 338.16 123.189H323.324C321.568 123.189 320.145 121.873 320.145 120.25V120.25Z" fill="url(#paint20_linear_2902_2373)"/>
<path d="M320.145 105.553C320.145 103.93 321.568 102.614 323.324 102.614H374.898C376.654 102.614 378.078 103.93 378.078 105.553V105.553C378.078 107.176 376.654 108.492 374.898 108.492H323.324C321.568 108.492 320.145 107.176 320.145 105.553V105.553Z" fill="url(#paint21_linear_2902_2373)"/>
<path d="M383.022 105.553C383.022 103.93 384.446 102.614 386.202 102.614H410.223C411.979 102.614 413.402 103.93 413.402 105.553V105.553C413.402 107.176 411.979 108.492 410.223 108.492H386.202C384.446 108.492 383.022 107.176 383.022 105.553V105.553Z" fill="url(#paint22_linear_2902_2373)"/>
<path d="M320.145 134.946C320.145 133.323 321.568 132.007 323.324 132.007H374.898C376.654 132.007 378.078 133.323 378.078 134.946V134.946C378.078 136.569 376.654 137.885 374.898 137.885H323.324C321.568 137.885 320.145 136.569 320.145 134.946V134.946Z" fill="url(#paint23_linear_2902_2373)"/>
<path d="M111.178 28.0244C111.178 30.8071 108.737 33.0629 105.726 33.0629C102.716 33.0629 100.275 30.8071 100.275 28.0244C100.275 25.2417 102.716 22.9858 105.726 22.9858C108.737 22.9858 111.178 25.2417 111.178 28.0244Z" fill="#FED280"/>
<path d="M130.261 28.0244C130.261 30.8071 127.821 33.0629 124.81 33.0629C121.799 33.0629 119.358 30.8071 119.358 28.0244C119.358 25.2417 121.799 22.9858 124.81 22.9858C127.821 22.9858 130.261 25.2417 130.261 28.0244Z" fill="#8CFEE3" fill-opacity="0.9"/>
<path d="M149.34 28.0244C149.34 30.8071 146.899 33.0629 143.889 33.0629C140.878 33.0629 138.437 30.8071 138.437 28.0244C138.437 25.2417 140.878 22.9858 143.889 22.9858C146.899 22.9858 149.34 25.2417 149.34 28.0244Z" fill="#FF8DA9" fill-opacity="0.9"/>
<rect x="91.3608" y="58.5259" width="201.349" height="109.064" rx="13" fill="url(#paint24_linear_2902_2373)"/>
<rect x="91.3608" y="179.891" width="389.393" height="96.7637" rx="13" fill="url(#paint25_linear_2902_2373)"/>
<rect x="105.549" y="66.7266" width="55.881" height="44.2817" rx="6" fill="url(#paint26_linear_2902_2373)"/>
<rect x="168.525" y="66.7266" width="110.875" height="44.2817" rx="6" fill="url(#paint27_linear_2902_2373)"/>
<rect x="168.525" y="115.928" width="51.446" height="44.2817" rx="6" fill="url(#paint28_linear_2902_2373)"/>
<rect x="224.409" y="115.928" width="51.446" height="44.2817" rx="6" fill="url(#paint29_linear_2902_2373)"/>
<rect x="105.549" y="115.928" width="55.881" height="6.56025" rx="3.28012" fill="#303262" fill-opacity="0.5"/>
<rect x="105.549" y="141.349" width="55.881" height="6.56025" rx="3.28012" fill="#303262" fill-opacity="0.5"/>
<rect x="105.549" y="128.229" width="55.881" height="6.56025" rx="3.28012" fill="#303262" fill-opacity="0.5"/>
<rect x="105.549" y="153.65" width="55.881" height="6.56025" rx="3.28012" fill="#303262" fill-opacity="0.5"/>
<path fill-rule="evenodd" clip-rule="evenodd" d="M472.554 303.982C463.087 303.982 455.412 296.887 455.412 288.135C455.412 279.382 463.087 272.287 472.554 272.287C482.021 272.287 489.696 279.382 489.696 288.135C489.696 296.887 482.021 303.982 472.554 303.982ZM524 295.303V280.966L511.777 278.094C510.881 275.094 509.593 272.245 507.967 269.596L514.415 259.572L503.449 249.434L492.607 255.396C489.741 253.892 486.659 252.702 483.414 251.873L480.308 240.573H464.8L461.694 251.873C458.449 252.702 455.366 253.892 452.501 255.396L441.659 249.434L430.693 259.572L437.141 269.596C435.515 272.245 434.227 275.094 433.331 278.094L421.108 280.966V295.303L433.331 298.175C434.227 301.175 435.515 304.024 437.141 306.674L430.693 316.697L441.659 326.835L452.501 320.873C455.366 322.377 458.449 323.568 461.694 324.396L464.8 335.696H480.308L483.414 324.396C486.659 323.568 489.741 322.377 492.607 320.873L503.449 326.835L514.415 316.697L507.967 306.674C509.593 304.024 510.881 301.175 511.777 298.175L524 295.303Z" fill="#FCD980"/>
<defs>
<linearGradient id="paint0_linear_2902_2373" x1="87.3691" y1="213.512" x2="149.692" y2="493.611" gradientUnits="userSpaceOnUse">
<stop stop-color="white" stop-opacity="0.17"/>
<stop offset="1" stop-opacity="0"/>
</linearGradient>
<linearGradient id="paint1_linear_2902_2373" x1="76.2994" y1="228.208" x2="83.0204" y2="264.004" gradientUnits="userSpaceOnUse">
<stop stop-color="white" stop-opacity="0.56"/>
<stop offset="1" stop-color="#C4C4C4" stop-opacity="0"/>
</linearGradient>
<linearGradient id="paint2_linear_2902_2373" x1="36.3822" y1="242.903" x2="51.626" y2="271.965" gradientUnits="userSpaceOnUse">
<stop stop-color="#F9C746" stop-opacity="0.52"/>
<stop offset="1" stop-color="#C4C4C4" stop-opacity="0"/>
</linearGradient>
<linearGradient id="paint3_linear_2902_2373" x1="74.8895" y1="242.903" x2="93.3322" y2="259.646" gradientUnits="userSpaceOnUse">
<stop stop-color="#84EBE5" stop-opacity="0.62"/>
<stop offset="1" stop-color="#C4C4C4" stop-opacity="0"/>
</linearGradient>
<linearGradient id="paint4_linear_2902_2373" x1="36.3822" y1="301.687" x2="51.626" y2="330.75" gradientUnits="userSpaceOnUse">
<stop stop-color="white" stop-opacity="0.56"/>
<stop offset="1" stop-color="#C4C4C4" stop-opacity="0"/>
</linearGradient>
<linearGradient id="paint5_linear_2902_2373" x1="74.8895" y1="301.687" x2="93.3322" y2="318.431" gradientUnits="userSpaceOnUse">
<stop stop-color="#F47D9E"/>
<stop offset="1" stop-color="#C4C4C4" stop-opacity="0"/>
</linearGradient>
<linearGradient id="paint6_linear_2902_2373" x1="48.041" y1="272.296" x2="65.6611" y2="285.093" gradientUnits="userSpaceOnUse">
<stop stop-color="#F2C87D"/>
<stop offset="1" stop-color="#C4C4C4" stop-opacity="0"/>
</linearGradient>
<linearGradient id="paint7_linear_2902_2373" x1="88.6647" y1="272.296" x2="102.587" y2="303.052" gradientUnits="userSpaceOnUse">
<stop stop-color="white" stop-opacity="0.62"/>
<stop offset="1" stop-color="#C4C4C4" stop-opacity="0"/>
</linearGradient>
<linearGradient id="paint8_linear_2902_2373" x1="19.7794" y1="270.827" x2="52.2045" y2="275.779" gradientUnits="userSpaceOnUse">
<stop stop-color="#F37D9D"/>
<stop offset="1" stop-color="#C4C4C4" stop-opacity="0"/>
</linearGradient>
<linearGradient id="paint9_linear_2902_2373" x1="43.0939" y1="257.6" x2="55.9414" y2="289.48" gradientUnits="userSpaceOnUse">
<stop stop-color="white" stop-opacity="0.58"/>
<stop offset="1" stop-color="#C4C4C4" stop-opacity="0"/>
</linearGradient>
<linearGradient id="paint10_linear_2902_2373" x1="92.1951" y1="257.6" x2="110.1" y2="280.898" gradientUnits="userSpaceOnUse">
<stop stop-color="white" stop-opacity="0.45"/>
<stop offset="1" stop-color="#C4C4C4" stop-opacity="0"/>
</linearGradient>
<linearGradient id="paint11_linear_2902_2373" x1="43.0939" y1="286.993" x2="55.9414" y2="318.873" gradientUnits="userSpaceOnUse">
<stop stop-color="#70D1E7"/>
<stop offset="1" stop-color="#C4C4C4" stop-opacity="0"/>
</linearGradient>
<linearGradient id="paint12_linear_2902_2373" x1="284.729" y1="0.303722" x2="568.792" y2="221.969" gradientUnits="userSpaceOnUse">
<stop stop-color="white" stop-opacity="0.17"/>
<stop offset="1" stop-opacity="0"/>
</linearGradient>
<linearGradient id="paint13_linear_2902_2373" x1="281.548" y1="12.7956" x2="333.803" y2="187.047" gradientUnits="userSpaceOnUse">
<stop stop-color="white" stop-opacity="0.15"/>
<stop offset="1" stop-color="#C4C4C4" stop-opacity="0"/>
</linearGradient>
<linearGradient id="paint14_linear_2902_2373" x1="393.384" y1="58.5259" x2="455.707" y2="338.625" gradientUnits="userSpaceOnUse">
<stop stop-color="white" stop-opacity="0.17"/>
<stop offset="1" stop-opacity="0"/>
</linearGradient>
<linearGradient id="paint15_linear_2902_2373" x1="342.399" y1="87.9172" x2="357.643" y2="116.979" gradientUnits="userSpaceOnUse">
<stop stop-color="#F9C746" stop-opacity="0.52"/>
<stop offset="1" stop-color="#C4C4C4" stop-opacity="0"/>
</linearGradient>
<linearGradient id="paint16_linear_2902_2373" x1="380.898" y1="87.9172" x2="399.341" y2="104.66" gradientUnits="userSpaceOnUse">
<stop stop-color="#84EBE5" stop-opacity="0.62"/>
<stop offset="1" stop-color="#C4C4C4" stop-opacity="0"/>
</linearGradient>
<linearGradient id="paint17_linear_2902_2373" x1="380.898" y1="146.702" x2="399.341" y2="163.445" gradientUnits="userSpaceOnUse">
<stop stop-color="#F47D9E"/>
<stop offset="1" stop-color="#C4C4C4" stop-opacity="0"/>
</linearGradient>
<linearGradient id="paint18_linear_2902_2373" x1="354.056" y1="117.31" x2="371.676" y2="130.107" gradientUnits="userSpaceOnUse">
<stop stop-color="#F2C87D"/>
<stop offset="1" stop-color="#C4C4C4" stop-opacity="0"/>
</linearGradient>
<linearGradient id="paint19_linear_2902_2373" x1="394.682" y1="117.31" x2="408.604" y2="148.066" gradientUnits="userSpaceOnUse">
<stop stop-color="white" stop-opacity="0.62"/>
<stop offset="1" stop-color="#C4C4C4" stop-opacity="0"/>
</linearGradient>
<linearGradient id="paint20_linear_2902_2373" x1="325.797" y1="115.841" x2="358.222" y2="120.793" gradientUnits="userSpaceOnUse">
<stop stop-color="#F37D9D"/>
<stop offset="1" stop-color="#C4C4C4" stop-opacity="0"/>
</linearGradient>
<linearGradient id="paint21_linear_2902_2373" x1="349.111" y1="102.614" x2="361.959" y2="134.494" gradientUnits="userSpaceOnUse">
<stop stop-color="white" stop-opacity="0.58"/>
<stop offset="1" stop-color="#C4C4C4" stop-opacity="0"/>
</linearGradient>
<linearGradient id="paint22_linear_2902_2373" x1="398.212" y1="102.614" x2="416.117" y2="125.912" gradientUnits="userSpaceOnUse">
<stop stop-color="white" stop-opacity="0.45"/>
<stop offset="1" stop-color="#C4C4C4" stop-opacity="0"/>
</linearGradient>
<linearGradient id="paint23_linear_2902_2373" x1="349.111" y1="132.007" x2="361.959" y2="163.887" gradientUnits="userSpaceOnUse">
<stop stop-color="#70D1E7"/>
<stop offset="1" stop-color="#C4C4C4" stop-opacity="0"/>
</linearGradient>
<linearGradient id="paint24_linear_2902_2373" x1="145.535" y1="14.0147" x2="196.848" y2="219.051" gradientUnits="userSpaceOnUse">
<stop stop-color="white" stop-opacity="0.31"/>
<stop offset="1" stop-color="white" stop-opacity="0"/>
</linearGradient>
<linearGradient id="paint25_linear_2902_2373" x1="145.468" y1="-48.078" x2="53.4191" y2="276.059" gradientUnits="userSpaceOnUse">
<stop stop-color="white" stop-opacity="0.31"/>
<stop offset="1" stop-color="white" stop-opacity="0"/>
</linearGradient>
<linearGradient id="paint26_linear_2902_2373" x1="120.585" y1="48.6543" x2="149.144" y2="126.66" gradientUnits="userSpaceOnUse">
<stop stop-color="white" stop-opacity="0.31"/>
<stop offset="1" stop-color="white" stop-opacity="0"/>
</linearGradient>
<linearGradient id="paint27_linear_2902_2373" x1="198.357" y1="48.6543" x2="214.143" y2="134.203" gradientUnits="userSpaceOnUse">
<stop stop-color="white" stop-opacity="0.31"/>
<stop offset="1" stop-color="white" stop-opacity="0"/>
</linearGradient>
<linearGradient id="paint28_linear_2902_2373" x1="182.367" y1="97.856" x2="212.743" y2="174.238" gradientUnits="userSpaceOnUse">
<stop stop-color="white" stop-opacity="0.31"/>
<stop offset="1" stop-color="white" stop-opacity="0"/>
</linearGradient>
<linearGradient id="paint29_linear_2902_2373" x1="238.251" y1="97.856" x2="268.627" y2="174.238" gradientUnits="userSpaceOnUse">
<stop stop-color="white" stop-opacity="0.31"/>
<stop offset="1" stop-color="white" stop-opacity="0"/>
</linearGradient>
</defs>
</svg>
