<svg width="90" height="91" viewBox="0 0 90 91" fill="none" xmlns="http://www.w3.org/2000/svg">
<g clip-path="url(#clip0_2902_1134)">
<g clip-path="url(#clip1_2902_1134)">
<path d="M46.1911 42.9402C54.5304 42.9402 61.0166 36.22 61.0166 27.9724C61.0166 19.7248 54.2216 13.3101 45.8822 13.3101C37.5428 13.3101 31.0566 20.0303 31.0566 27.9724C31.0566 36.22 37.8517 42.9402 46.1911 42.9402ZM45.8822 19.4194C46.1911 19.4194 46.1911 19.4194 45.8822 19.4194C50.824 19.4194 54.8393 23.3904 54.8393 28.2779C54.8393 33.1653 50.824 36.8309 45.8822 36.8309C40.9403 36.8309 37.234 32.8599 37.234 28.2779C37.234 23.3904 41.2492 19.4194 45.8822 19.4194V19.4194Z" fill="white"/>
<path d="M91.9026 41.1069C86.0341 35.914 78.3125 33.1648 70.282 33.4703H67.811C67.1933 35.914 66.2667 38.0522 65.0312 39.885C66.8844 39.5796 68.4288 39.5796 70.282 39.5796C76.1504 39.2741 82.0189 41.1069 86.6519 44.467V66.4605H92.8292V42.0233L91.9026 41.1069Z" fill="white"/>
<path d="M63.1796 13.9198C64.7239 10.2542 69.048 8.42143 73.0633 9.94876C76.7697 11.4761 78.6229 15.7526 77.0786 19.7237C75.8431 22.4728 73.0633 24.3056 70.2835 24.3056C69.6658 24.3056 68.7392 24.3056 68.1214 24.0002C68.4303 25.5275 68.4303 27.0548 68.4303 28.2767V30.1095C69.048 30.1095 69.6658 30.4149 70.2835 30.4149C78.0052 30.4149 84.1825 24.3056 84.1825 16.9745C84.1825 9.33783 78.0051 3.22852 70.5924 3.22852C65.6505 3.22852 61.3264 5.67224 58.8555 9.94876C60.3998 10.8652 61.9441 12.087 63.1796 13.9198V13.9198Z" fill="white"/>
<path d="M27.9678 40.1907C26.7324 38.3579 25.8058 36.2197 25.188 33.776H22.7171C14.6866 33.4705 6.96497 36.2197 1.09652 41.1071L0.169922 42.0235V66.4608H6.34723V44.4672C11.2891 41.1071 16.8487 39.2743 22.7171 39.5798C24.5703 39.5798 26.4235 39.8853 27.9678 40.1907Z" fill="white"/>
<path d="M22.7162 30.1107C23.334 30.1107 23.9517 30.1107 24.5694 29.8052V27.9724C24.5694 26.4451 24.5694 24.9178 24.8783 23.6959C24.2606 24.0014 23.334 24.0014 22.7162 24.0014C18.701 24.0014 15.3035 20.6412 15.3035 16.6702C15.3035 12.6991 18.701 9.33902 22.7162 9.33902C25.8049 9.33902 28.5847 11.1718 29.8201 13.921C31.0556 12.3937 32.9088 10.8664 34.4531 9.64449C30.4379 3.22971 22.0985 1.09145 15.6123 5.06251C9.12615 9.03356 6.96409 17.2811 10.9793 23.6959C13.4503 27.667 17.7744 30.1107 22.7162 30.1107V30.1107Z" fill="white"/>
<path d="M71.5184 59.4349L70.9006 58.5185C64.7233 51.7982 56.0751 47.8272 46.8091 48.1326C37.5432 47.8272 28.5861 51.7982 22.4087 58.5185L21.791 59.4349V82.6503C21.791 85.3995 23.9531 87.8432 27.0417 87.8432H66.5765C69.3563 87.8432 71.8272 85.3995 71.8272 82.6503V59.4349H71.5184ZM65.3411 81.7339H27.9683V61.5731C32.9102 56.6857 39.7052 54.242 46.8091 54.242C53.6042 53.9365 60.3992 56.6857 65.3411 61.5731V81.7339Z" fill="white"/>
</g>
</g>
<defs>
<clipPath id="clip0_2902_1134">
<rect width="90" height="90" fill="white" transform="translate(0 0.945312)"/>
</clipPath>
<clipPath id="clip1_2902_1134">
<rect width="93" height="85" fill="white" transform="translate(0 2.94531)"/>
</clipPath>
</defs>
</svg>
