<svg width="90" height="91" viewBox="0 0 90 91" fill="none" xmlns="http://www.w3.org/2000/svg">
<g clip-path="url(#clip0_2902_1164)">
<path d="M28.685 63.6504C27.2367 62.1956 27.9917 62.6058 24.4984 61.6666C22.9134 61.2397 21.52 60.4194 20.26 59.4367L12.6984 78.0594C11.9667 79.8625 13.3334 81.8212 15.27 81.7475L24.0517 81.411L30.0917 87.8195C31.425 89.2324 33.765 88.7921 34.4967 86.9891L43.1717 65.6242C41.365 66.6353 39.36 67.228 37.2867 67.228C34.0367 67.228 30.9834 65.9573 28.685 63.6504V63.6504ZM76.2984 78.0594L68.7367 59.4367C67.4767 60.421 66.0834 61.2397 64.4984 61.6666C60.9867 62.6108 61.7567 62.1989 60.3117 63.6504C58.0134 65.9573 54.9584 67.228 51.7084 67.228C49.635 67.228 47.63 66.6337 45.8234 65.6242L54.4984 86.9891C55.23 88.7921 57.5717 89.2324 58.9034 87.8195L64.945 81.411L73.7267 81.7475C75.6634 81.8212 77.03 79.8608 76.2984 78.0594V78.0594ZM56.3317 59.8619C58.8784 57.2587 59.1701 57.483 62.7967 56.4902C65.1117 55.8558 66.9217 54.0059 67.5417 51.6387C68.7884 46.8842 68.465 47.4584 71.8667 43.9796C73.5617 42.2469 74.2234 39.7207 73.6034 37.3535C72.3584 32.6024 72.3567 33.2654 73.6034 28.5092C74.2234 26.142 73.5617 23.6158 71.8667 21.8831C68.465 18.4043 68.7884 18.9769 67.5417 14.2241C66.9217 11.8569 65.1117 10.007 62.7967 9.37251C58.1501 8.09852 58.71 8.43166 55.305 4.9512C53.61 3.2185 51.1384 2.54048 48.8234 3.17497C44.1784 4.44729 44.8267 4.44896 40.1734 3.17497C37.8584 2.54048 35.3867 3.21682 33.6917 4.9512C30.29 8.42999 30.85 8.09852 26.2017 9.37251C23.8867 10.007 22.0767 11.8569 21.4567 14.2241C20.2117 18.9769 20.5334 18.4043 17.1317 21.8831C15.4367 23.6158 14.7734 26.142 15.395 28.5092C16.64 33.257 16.6417 32.594 15.395 37.3519C14.775 39.719 15.4367 42.2453 17.1317 43.9796C20.5334 47.4584 20.21 46.8842 21.4567 51.6387C22.0767 54.0059 23.8867 55.8558 26.2017 56.4902C29.9317 57.5114 30.21 57.3507 32.665 59.8619C34.87 62.1169 38.305 62.5204 40.955 60.8362C42.0147 60.1605 43.244 59.8016 44.4992 59.8016C45.7544 59.8016 46.9837 60.1605 48.0434 60.8362C50.6917 62.5204 54.1267 62.1169 56.3317 59.8619ZM28.775 32.3998C28.775 23.5221 35.815 16.3251 44.4984 16.3251C53.1817 16.3251 60.2217 23.5221 60.2217 32.3998C60.2217 41.2776 53.1817 48.4746 44.4984 48.4746C35.815 48.4746 28.775 41.2776 28.775 32.3998V32.3998Z" fill="white"/>
</g>
<defs>
<clipPath id="clip0_2902_1164">
<rect width="64" height="85.7143" fill="white" transform="translate(12.5 2.94531)"/>
</clipPath>
</defs>
</svg>
