<svg width="24" height="24" viewBox="0 0 24 24" fill="none" xmlns="http://www.w3.org/2000/svg">
<path d="M5.75418 2.34009C3.98119 2.34009 2.53418 3.78709 2.53418 5.56009V18.4401C2.53418 20.2131 3.98119 21.6601 5.75418 21.6601H18.6342C20.4072 21.6601 21.8542 20.2131 21.8542 18.4401V5.56009C21.8542 3.78709 20.4072 2.34009 18.6342 2.34009H5.75418ZM5.75418 3.26009H18.6342C19.9101 3.26009 20.9342 4.2842 20.9342 5.56009V18.4401C20.9342 19.716 19.9101 20.7401 18.6342 20.7401H5.75418C4.47829 20.7401 3.45418 19.716 3.45418 18.4401V5.56009C3.45418 4.2842 4.47829 3.26009 5.75418 3.26009ZM6.71371 6.48009L10.9561 12.5077L6.67418 17.5201H7.82418L11.4754 13.2453L14.4834 17.5201H18.1346L13.4771 10.9022L17.2542 6.48009H16.1042L12.9579 10.1646L10.365 6.48009H6.71371ZM8.47465 7.40009H9.8843L16.3737 16.6001H14.9641L8.47465 7.40009Z" fill="#333333"/>
</svg>
