<svg width="44" height="44" viewBox="0 0 44 44" fill="none" xmlns="http://www.w3.org/2000/svg">
<circle cx="21.8535" cy="22" r="21.7676" fill="#2B83C1"/>
<path d="M18.9908 22.2865C19.742 23.8377 20.9963 25.0889 22.5495 25.8361C22.6641 25.8903 22.7908 25.9138 22.9172 25.9042C23.0436 25.8946 23.1653 25.8522 23.2704 25.7813L25.5516 24.2574C25.6524 24.1891 25.7689 24.1474 25.8902 24.1362C26.0114 24.125 26.1336 24.1448 26.2451 24.1936L30.5156 26.0277C30.6616 26.0884 30.7835 26.1955 30.8626 26.3323C30.9418 26.4692 30.9737 26.6283 30.9536 26.7851C30.8183 27.8415 30.3026 28.8124 29.5031 29.5161C28.7037 30.2199 27.6752 30.6082 26.6101 30.6084C23.3188 30.6084 20.1623 29.3009 17.835 26.9736C15.5077 24.6463 14.2002 21.4898 14.2002 18.1985C14.2004 17.1334 14.5887 16.1049 15.2925 15.3055C15.9962 14.506 16.9671 13.9903 18.0235 13.855C18.1804 13.8349 18.3394 13.8668 18.4763 13.946C18.6131 14.0251 18.7202 14.147 18.7809 14.293L20.615 18.5726C20.6627 18.6824 20.6827 18.8023 20.6731 18.9216C20.6636 19.041 20.6248 19.1561 20.5603 19.257L19.0364 21.5747C18.9686 21.6795 18.9288 21.8 18.9208 21.9246C18.9128 22.0492 18.9369 22.1738 18.9908 22.2865V22.2865Z" stroke="white" stroke-linecap="round" stroke-linejoin="round"/>
</svg>
