<svg width="45" height="44" viewBox="0 0 45 44" fill="none" xmlns="http://www.w3.org/2000/svg">
<circle cx="22.2925" cy="22" r="21.7676" fill="#2B83C1"/>
<path d="M19.4298 22.2865C20.1809 23.8377 21.4353 25.0889 22.9885 25.8361C23.1031 25.8903 23.2298 25.9138 23.3562 25.9042C23.4826 25.8946 23.6043 25.8522 23.7094 25.7813L25.9906 24.2574C26.0914 24.1891 26.2079 24.1474 26.3291 24.1362C26.4504 24.125 26.5725 24.1448 26.6841 24.1936L30.9546 26.0277C31.1005 26.0884 31.2225 26.1955 31.3016 26.3323C31.3807 26.4692 31.4127 26.6283 31.3926 26.7851C31.2572 27.8415 30.7416 28.8124 29.9421 29.5161C29.1426 30.2199 28.1142 30.6082 27.0491 30.6084C23.7578 30.6084 20.6013 29.3009 18.2739 26.9736C15.9466 24.6463 14.6392 21.4898 14.6392 18.1985C14.6394 17.1334 15.0277 16.1049 15.7314 15.3055C16.4352 14.506 17.4061 13.9903 18.4625 13.855C18.6193 13.8349 18.7784 13.8668 18.9152 13.946C19.0521 14.0251 19.1591 14.147 19.2199 14.293L21.054 18.5726C21.1017 18.6824 21.1216 18.8023 21.1121 18.9216C21.1026 19.041 21.0638 19.1561 20.9993 19.257L19.4754 21.5747C19.4075 21.6795 19.3677 21.8 19.3597 21.9246C19.3517 22.0492 19.3759 22.1738 19.4298 22.2865V22.2865Z" stroke="white" stroke-linecap="round" stroke-linejoin="round"/>
</svg>
