<svg width="30" height="31" viewBox="0 0 30 31" fill="none" xmlns="http://www.w3.org/2000/svg">
<path d="M6.5999 2.95508C4.2873 2.95508 2.3999 4.84248 2.3999 7.15508V23.9551C2.3999 26.2677 4.2873 28.1551 6.5999 28.1551H23.3999C25.7125 28.1551 27.5999 26.2677 27.5999 23.9551V7.15508C27.5999 4.84248 25.7125 2.95508 23.3999 2.95508H6.5999ZM6.5999 4.15508H23.3999C25.0641 4.15508 26.3999 5.49088 26.3999 7.15508V23.9551C26.3999 25.6193 25.0641 26.9551 23.3999 26.9551H6.5999C4.9357 26.9551 3.5999 25.6193 3.5999 23.9551V7.15508C3.5999 5.49088 4.9357 4.15508 6.5999 4.15508ZM7.85147 8.35508L13.3851 16.2172L7.7999 22.7551H9.2999L14.0624 17.1793L17.9858 22.7551H22.7483L16.6733 14.123L21.5999 8.35508H20.0999L15.996 13.1609L12.614 8.35508H7.85147ZM10.1483 9.55508H11.987L20.4515 21.5551H18.6128L10.1483 9.55508Z" fill="white"/>
</svg>
