<svg width="45" height="45" viewBox="0 0 45 45" fill="none" xmlns="http://www.w3.org/2000/svg">
<circle cx="22.6311" cy="22.5" r="21.7676" fill="#2B83C1"/>
<path d="M19.7683 22.7865C20.5194 24.3377 21.7738 25.5889 23.327 26.3361C23.4416 26.3903 23.5683 26.4138 23.6947 26.4042C23.8211 26.3946 23.9428 26.3522 24.0479 26.2813L26.3291 24.7574C26.4299 24.6891 26.5464 24.6474 26.6676 24.6362C26.7889 24.625 26.911 24.6448 27.0226 24.6936L31.2931 26.5277C31.439 26.5884 31.561 26.6955 31.6401 26.8323C31.7193 26.9692 31.7512 27.1283 31.7311 27.2851C31.5957 28.3415 31.0801 29.3124 30.2806 30.0161C29.4811 30.7199 28.4527 31.1082 27.3876 31.1084C24.0963 31.1084 20.9398 29.8009 18.6124 27.4736C16.2851 25.1463 14.9777 21.9898 14.9777 18.6985C14.9779 17.6334 15.3662 16.6049 16.0699 15.8055C16.7737 15.006 17.7446 14.4903 18.801 14.355C18.9578 14.3349 19.1169 14.3668 19.2537 14.446C19.3906 14.5251 19.4976 14.647 19.5584 14.793L21.3925 19.0726C21.4402 19.1824 21.4602 19.3023 21.4506 19.4216C21.4411 19.541 21.4023 19.6561 21.3378 19.757L19.8139 22.0747C19.746 22.1795 19.7062 22.3 19.6982 22.4246C19.6902 22.5492 19.7144 22.6738 19.7683 22.7865V22.7865Z" stroke="white" stroke-linecap="round" stroke-linejoin="round"/>
</svg>
