<svg width="17" height="18" viewBox="0 0 17 18" fill="none" xmlns="http://www.w3.org/2000/svg">
<path d="M5.24519 8.99577C5.95159 10.4545 7.13116 11.6311 8.59173 12.3337C8.69947 12.3847 8.81863 12.4068 8.93749 12.3978C9.05636 12.3888 9.17082 12.3489 9.26962 12.2822L11.4148 10.8492C11.5096 10.785 11.6191 10.7457 11.7332 10.7352C11.8472 10.7247 11.9621 10.7433 12.067 10.7892L16.0828 12.5139C16.2201 12.5711 16.3347 12.6717 16.4092 12.8004C16.4836 12.9291 16.5136 13.0787 16.4947 13.2261C16.3674 14.2196 15.8825 15.1326 15.1307 15.7944C14.3789 16.4561 13.4118 16.8213 12.4102 16.8215C9.31514 16.8215 6.34684 15.592 4.15829 13.4035C1.96975 11.2149 0.740234 8.24661 0.740234 5.15154C0.74046 4.14998 1.10562 3.18282 1.76739 2.43103C2.42915 1.67923 3.34218 1.19433 4.33562 1.06705C4.48307 1.04811 4.63266 1.07816 4.76135 1.15259C4.89005 1.22701 4.99071 1.34168 5.04783 1.47893L6.77258 5.50336C6.81744 5.60663 6.8362 5.71934 6.82722 5.83157C6.81824 5.9438 6.7818 6.0521 6.7211 6.14692L5.28809 8.32646C5.2243 8.42504 5.18685 8.53834 5.17934 8.65552C5.17183 8.7727 5.1945 8.88985 5.24519 8.99577V8.99577Z" stroke="white" stroke-linecap="round" stroke-linejoin="round"/>
</svg>
