<svg width="30" height="31" viewBox="0 0 30 31" fill="none" xmlns="http://www.w3.org/2000/svg">
<path d="M6.60039 2.8999C4.28779 2.8999 2.40039 4.7873 2.40039 7.0999V23.8999C2.40039 26.2125 4.28779 28.0999 6.60039 28.0999H23.4004C25.713 28.0999 27.6004 26.2125 27.6004 23.8999V7.0999C27.6004 4.7873 25.713 2.8999 23.4004 2.8999H6.60039ZM6.60039 4.0999H23.4004C25.0646 4.0999 26.4004 5.4357 26.4004 7.0999V23.8999C26.4004 25.5641 25.0646 26.8999 23.4004 26.8999H6.60039C4.93619 26.8999 3.60039 25.5641 3.60039 23.8999V7.0999C3.60039 5.4357 4.93619 4.0999 6.60039 4.0999ZM7.85195 8.2999L13.3855 16.162L7.80039 22.6999H9.30039L14.0629 17.1241L17.9863 22.6999H22.7488L16.6738 14.0679L21.6004 8.2999H20.1004L15.9965 13.1058L12.6145 8.2999H7.85195ZM10.1488 9.4999H11.9875L20.452 21.4999H18.6133L10.1488 9.4999Z" fill="white"/>
</svg>
