<svg width="30" height="31" viewBox="0 0 30 31" fill="none" xmlns="http://www.w3.org/2000/svg">
<path d="M6.5999 2.95459C4.2873 2.95459 2.3999 4.84199 2.3999 7.15459V23.9546C2.3999 26.2672 4.2873 28.1546 6.5999 28.1546H23.3999C25.7125 28.1546 27.5999 26.2672 27.5999 23.9546V7.15459C27.5999 4.84199 25.7125 2.95459 23.3999 2.95459H6.5999ZM6.5999 4.15459H23.3999C25.0641 4.15459 26.3999 5.49039 26.3999 7.15459V23.9546C26.3999 25.6188 25.0641 26.9546 23.3999 26.9546H6.5999C4.9357 26.9546 3.5999 25.6188 3.5999 23.9546V7.15459C3.5999 5.49039 4.9357 4.15459 6.5999 4.15459ZM7.85147 8.35459L13.3851 16.2167L7.7999 22.7546H9.2999L14.0624 17.1788L17.9858 22.7546H22.7483L16.6733 14.1226L21.5999 8.35459H20.0999L15.996 13.1604L12.614 8.35459H7.85147ZM10.1483 9.55459H11.987L20.4515 21.5546H18.6128L10.1483 9.55459Z" fill="white"/>
</svg>
