<svg width="30" height="31" viewBox="0 0 30 31" fill="none" xmlns="http://www.w3.org/2000/svg">
<path d="M6.5999 2.8999C4.2873 2.8999 2.3999 4.7873 2.3999 7.0999V23.8999C2.3999 26.2125 4.2873 28.0999 6.5999 28.0999H23.3999C25.7125 28.0999 27.5999 26.2125 27.5999 23.8999V7.0999C27.5999 4.7873 25.7125 2.8999 23.3999 2.8999H6.5999ZM6.5999 4.0999H23.3999C25.0641 4.0999 26.3999 5.4357 26.3999 7.0999V23.8999C26.3999 25.5641 25.0641 26.8999 23.3999 26.8999H6.5999C4.9357 26.8999 3.5999 25.5641 3.5999 23.8999V7.0999C3.5999 5.4357 4.9357 4.0999 6.5999 4.0999ZM7.85147 8.2999L13.3851 16.162L7.7999 22.6999H9.2999L14.0624 17.1241L17.9858 22.6999H22.7483L16.6733 14.0679L21.5999 8.2999H20.0999L15.996 13.1058L12.614 8.2999H7.85147ZM10.1483 9.4999H11.987L20.4515 21.4999H18.6128L10.1483 9.4999Z" fill="white"/>
</svg>
