<svg width="17" height="18" viewBox="0 0 17 18" fill="none" xmlns="http://www.w3.org/2000/svg">
<path d="M5.24495 9.10905C5.95134 10.5678 7.13092 11.7444 8.59149 12.447C8.69922 12.498 8.81839 12.5201 8.93725 12.5111C9.05611 12.5021 9.17058 12.4622 9.26937 12.3955L11.4146 10.9625C11.5094 10.8982 11.6189 10.859 11.7329 10.8485C11.847 10.838 11.9618 10.8566 12.0667 10.9025L16.0826 12.6272C16.2198 12.6843 16.3345 12.785 16.4089 12.9137C16.4833 13.0424 16.5134 13.192 16.4945 13.3394C16.3672 14.3329 15.8823 15.2459 15.1305 15.9077C14.3787 16.5694 13.4115 16.9346 12.41 16.9348C9.3149 16.9348 6.34659 15.7053 4.15805 13.5167C1.9695 11.3282 0.73999 8.3599 0.73999 5.26482C0.740216 4.26326 1.10538 3.2961 1.76714 2.54431C2.42891 1.79252 3.34193 1.30761 4.33537 1.18033C4.48283 1.16139 4.63242 1.19145 4.76111 1.26587C4.8898 1.3403 4.99046 1.45496 5.04759 1.59221L6.77234 5.61664C6.81719 5.71991 6.83596 5.83262 6.82698 5.94485C6.818 6.05708 6.78155 6.16538 6.72086 6.2602L5.28785 8.43975C5.22405 8.53832 5.18661 8.65162 5.1791 8.7688C5.17158 8.88598 5.19426 9.00313 5.24495 9.10905V9.10905Z" stroke="white" stroke-linecap="round" stroke-linejoin="round"/>
</svg>
