<svg width="30" height="31" viewBox="0 0 30 31" fill="none" xmlns="http://www.w3.org/2000/svg">
<path d="M6.60039 2.95508C4.28779 2.95508 2.40039 4.84248 2.40039 7.15508V23.9551C2.40039 26.2677 4.28779 28.1551 6.60039 28.1551H23.4004C25.713 28.1551 27.6004 26.2677 27.6004 23.9551V7.15508C27.6004 4.84248 25.713 2.95508 23.4004 2.95508H6.60039ZM6.60039 4.15508H23.4004C25.0646 4.15508 26.4004 5.49088 26.4004 7.15508V23.9551C26.4004 25.6193 25.0646 26.9551 23.4004 26.9551H6.60039C4.93619 26.9551 3.60039 25.6193 3.60039 23.9551V7.15508C3.60039 5.49088 4.93619 4.15508 6.60039 4.15508ZM7.85195 8.35508L13.3855 16.2172L7.80039 22.7551H9.30039L14.0629 17.1793L17.9863 22.7551H22.7488L16.6738 14.123L21.6004 8.35508H20.1004L15.9965 13.1609L12.6145 8.35508H7.85195ZM10.1488 9.55508H11.9875L20.452 21.5551H18.6133L10.1488 9.55508Z" fill="white"/>
</svg>
