<svg width="32" height="28" viewBox="0 0 32 28" fill="none" xmlns="http://www.w3.org/2000/svg">
<path d="M16 10.9145C19.003 10.9145 21.4374 8.48002 21.4374 5.477C21.4374 2.47398 19.003 0.0395508 16 0.0395508C12.9969 0.0395508 10.5625 2.47398 10.5625 5.477C10.5625 8.48002 12.9969 10.9145 16 10.9145Z" fill="white"/>
<path d="M27 10.9145C28.8984 10.9145 30.4374 9.37548 30.4374 7.47702C30.4374 5.57856 28.8984 4.03955 27 4.03955C25.1015 4.03955 23.5625 5.57856 23.5625 7.47702C23.5625 9.37548 25.1015 10.9145 27 10.9145Z" fill="white"/>
<path d="M4.99997 10.9145C6.89843 10.9145 8.43744 9.37548 8.43744 7.47702C8.43744 5.57856 6.89843 4.03955 4.99997 4.03955C3.10151 4.03955 1.5625 5.57856 1.5625 7.47702C1.5625 9.37548 3.10151 10.9145 4.99997 10.9145Z" fill="white"/>
<path d="M8.3868 14.001C7.03369 12.8924 5.80826 13.0391 4.24371 13.0391C1.90373 13.0391 0 14.9316 0 17.2572V24.0828C0 25.0928 0.824368 25.914 1.83811 25.914C6.21469 25.914 5.68745 25.9932 5.68745 25.7253C5.68745 20.8887 5.11458 17.3418 8.3868 14.001V14.001Z" fill="white"/>
<path d="M17.4882 13.0645C14.7555 12.8365 12.3802 13.0671 10.3314 14.7582C6.90288 17.5044 7.56268 21.2021 7.56268 25.7256C7.56268 26.9224 8.53642 27.9143 9.75141 27.9143C22.9439 27.9143 23.469 28.3399 24.2513 26.6075C24.5078 26.0216 24.4375 26.2078 24.4375 20.6032C24.4375 16.1516 20.583 13.0645 17.4882 13.0645V13.0645Z" fill="white"/>
<path d="M27.7564 13.04C26.1833 13.04 24.9646 12.8947 23.6133 14.0018C26.8611 17.3178 26.3126 20.6227 26.3126 25.7261C26.3126 25.9957 25.8749 25.9148 30.0963 25.9148C31.1463 25.9148 32.0001 25.0642 32.0001 24.0186V17.2581C32.0001 14.9324 30.0963 13.04 27.7564 13.04Z" fill="white"/>
</svg>
