<svg width="20" height="20" viewBox="0 0 20 20" fill="none" xmlns="http://www.w3.org/2000/svg">
<path d="M3.33333 3.33325V2.33325H2.33333V3.33325H3.33333ZM16.6667 3.33325H17.6667V2.33325H16.6667V3.33325ZM5.12623 9.29281C4.7357 9.68334 4.7357 10.3165 5.12623 10.707C5.51675 11.0976 6.14992 11.0975 6.54044 10.707L5.12623 9.29281ZM8.33333 7.49992L9.04044 6.79281C8.8529 6.60528 8.59855 6.49992 8.33333 6.49992C8.06812 6.49992 7.81376 6.60528 7.62623 6.79281L8.33333 7.49992ZM10.8333 9.99992L10.1262 10.707C10.3138 10.8946 10.5681 10.9999 10.8333 10.9999C11.0985 10.9999 11.3529 10.8946 11.5404 10.707L10.8333 9.99992ZM14.8738 7.37369C15.2643 6.98317 15.2643 6.35 14.8738 5.95948C14.4832 5.56895 13.8501 5.56895 13.4596 5.95948L14.8738 7.37369ZM5.95956 16.7928C5.56904 17.1833 5.56904 17.8165 5.95956 18.207C6.35008 18.5976 6.98325 18.5976 7.37377 18.207L5.95956 16.7928ZM10 14.1666L10.7071 13.4595C10.5196 13.2719 10.2652 13.1666 10 13.1666C9.73478 13.1666 9.48043 13.2719 9.29289 13.4595L10 14.1666ZM12.6262 18.207C13.0168 18.5976 13.6499 18.5976 14.0404 18.207C14.431 17.8165 14.431 17.1833 14.0404 16.7928L12.6262 18.207ZM2.5 2.33325C1.94772 2.33325 1.5 2.78097 1.5 3.33325C1.5 3.88554 1.94772 4.33325 2.5 4.33325V2.33325ZM17.5 4.33325C18.0523 4.33325 18.5 3.88554 18.5 3.33325C18.5 2.78097 18.0523 2.33325 17.5 2.33325V4.33325ZM3.33333 4.33325H16.6667V2.33325H3.33333V4.33325ZM15.6667 3.33325V13.3333H17.6667V3.33325H15.6667ZM15.8333 13.1666H4.16667V15.1666H15.8333V13.1666ZM4.33333 13.3333V3.33325H2.33333V13.3333H4.33333ZM4.16667 13.1666C4.25871 13.1666 4.33333 13.2412 4.33333 13.3333H2.33333C2.33333 14.3458 3.15414 15.1666 4.16667 15.1666V13.1666ZM15.6667 13.3333C15.6667 13.2412 15.7413 13.1666 15.8333 13.1666V15.1666C16.8459 15.1666 17.6667 14.3458 17.6667 13.3333H15.6667ZM6.54044 10.707L9.04044 8.20703L7.62623 6.79281L5.12623 9.29281L6.54044 10.707ZM7.62623 8.20703L10.1262 10.707L11.5404 9.29281L9.04044 6.79281L7.62623 8.20703ZM11.5404 10.707L14.8738 7.37369L13.4596 5.95948L10.1262 9.29281L11.5404 10.707ZM7.37377 18.207L10.7071 14.8737L9.29289 13.4595L5.95956 16.7928L7.37377 18.207ZM9.29289 14.8737L12.6262 18.207L14.0404 16.7928L10.7071 13.4595L9.29289 14.8737ZM2.5 4.33325H17.5V2.33325H2.5V4.33325Z" fill="#111B29"/>
</svg>
