<svg width="17" height="18" viewBox="0 0 17 18" fill="none" xmlns="http://www.w3.org/2000/svg">
<path d="M5.24519 9.05437C5.95159 10.5131 7.13116 11.6897 8.59173 12.3923C8.69947 12.4433 8.81863 12.4654 8.93749 12.4564C9.05636 12.4474 9.17082 12.4075 9.26962 12.3408L11.4148 10.9078C11.5096 10.8435 11.6191 10.8043 11.7332 10.7938C11.8472 10.7833 11.9621 10.8019 12.067 10.8478L16.0828 12.5725C16.2201 12.6296 16.3347 12.7303 16.4092 12.859C16.4836 12.9877 16.5136 13.1373 16.4947 13.2847C16.3674 14.2782 15.8825 15.1912 15.1307 15.853C14.3789 16.5147 13.4118 16.8799 12.4102 16.8801C9.31514 16.8801 6.34684 15.6506 4.15829 13.4621C1.96975 11.2735 0.740234 8.30521 0.740234 5.21014C0.74046 4.20857 1.10562 3.24141 1.76739 2.48962C2.42915 1.73783 3.34218 1.25292 4.33562 1.12564C4.48307 1.1067 4.63266 1.13676 4.76135 1.21118C4.89005 1.28561 4.99071 1.40027 5.04783 1.53752L6.77258 5.56195C6.81744 5.66522 6.8362 5.77794 6.82722 5.89016C6.81824 6.00239 6.7818 6.11069 6.7211 6.20552L5.28809 8.38506C5.2243 8.48364 5.18685 8.59693 5.17934 8.71412C5.17183 8.8313 5.1945 8.94845 5.24519 9.05437V9.05437Z" stroke="white" stroke-linecap="round" stroke-linejoin="round"/>
</svg>
