<svg width="19" height="18" viewBox="0 0 19 18" fill="none" xmlns="http://www.w3.org/2000/svg">
<path d="M5.7906 9.05769C6.54178 10.6089 7.79615 11.8601 9.34933 12.6073C9.4639 12.6615 9.59062 12.685 9.71702 12.6754C9.84342 12.6658 9.96514 12.6235 10.0702 12.5525L12.3514 11.0287C12.4522 10.9603 12.5687 10.9186 12.69 10.9074C12.8112 10.8963 12.9334 10.916 13.0449 10.9648L17.3154 12.7989C17.4614 12.8597 17.5833 12.9667 17.6624 13.1036C17.7416 13.2404 17.7736 13.3995 17.7534 13.5563C17.6181 14.6127 17.1024 15.5836 16.3029 16.2874C15.5035 16.9911 14.475 17.3794 13.4099 17.3796C10.1186 17.3796 6.9621 16.0722 4.63479 13.7449C2.30747 11.4175 1 8.26103 1 4.96971C1.00024 3.90465 1.38855 2.87616 2.09228 2.0767C2.79601 1.27724 3.76692 0.761589 4.82335 0.626237C4.98016 0.606095 5.13923 0.638057 5.27608 0.717201C5.41294 0.796345 5.51998 0.918282 5.58072 1.06423L7.41484 5.34384C7.46254 5.45365 7.48249 5.57352 7.47294 5.69286C7.46339 5.81221 7.42464 5.92737 7.36009 6.02821L5.83622 8.34595C5.76838 8.45078 5.72856 8.57126 5.72057 8.69587C5.71259 8.82048 5.7367 8.94506 5.7906 9.05769V9.05769Z" stroke="white" stroke-linecap="round" stroke-linejoin="round"/>
</svg>
