<svg width="45" height="45" viewBox="0 0 45 45" fill="none" xmlns="http://www.w3.org/2000/svg">
<circle cx="22.631" cy="22.5" r="21.7676" fill="#2B83C1"/>
<path d="M19.7682 22.7865C20.5193 24.3377 21.7737 25.5889 23.3269 26.3361C23.4415 26.3903 23.5682 26.4138 23.6946 26.4042C23.821 26.3946 23.9427 26.3522 24.0478 26.2813L26.329 24.7574C26.4298 24.6891 26.5462 24.6474 26.6675 24.6362C26.7888 24.625 26.9109 24.6448 27.0225 24.6936L31.293 26.5277C31.4389 26.5884 31.5609 26.6955 31.64 26.8323C31.7191 26.9692 31.7511 27.1283 31.731 27.2851C31.5956 28.3415 31.08 29.3124 30.2805 30.0161C29.481 30.7199 28.4526 31.1082 27.3875 31.1084C24.0962 31.1084 20.9397 29.8009 18.6123 27.4736C16.285 25.1463 14.9776 21.9898 14.9776 18.6985C14.9778 17.6334 15.3661 16.6049 16.0698 15.8055C16.7736 15.006 17.7445 14.4903 18.8009 14.355C18.9577 14.3349 19.1168 14.3668 19.2536 14.446C19.3905 14.5251 19.4975 14.647 19.5583 14.793L21.3924 19.0726C21.4401 19.1824 21.46 19.3023 21.4505 19.4216C21.4409 19.541 21.4022 19.6561 21.3376 19.757L19.8138 22.0747C19.7459 22.1795 19.7061 22.3 19.6981 22.4246C19.6901 22.5492 19.7143 22.6738 19.7682 22.7865V22.7865Z" stroke="white" stroke-linecap="round" stroke-linejoin="round"/>
</svg>
