<svg width="24" height="24" viewBox="0 0 24 24" fill="none" xmlns="http://www.w3.org/2000/svg">
<path d="M5.75491 2.34009C3.98192 2.34009 2.53491 3.78709 2.53491 5.56009V18.4401C2.53491 20.2131 3.98192 21.6601 5.75491 21.6601H18.6349C20.4079 21.6601 21.8549 20.2131 21.8549 18.4401V5.56009C21.8549 3.78709 20.4079 2.34009 18.6349 2.34009H5.75491ZM5.75491 3.26009H18.6349C19.9108 3.26009 20.9349 4.2842 20.9349 5.56009V18.4401C20.9349 19.716 19.9108 20.7401 18.6349 20.7401H5.75491C4.47903 20.7401 3.45491 19.716 3.45491 18.4401V5.56009C3.45491 4.2842 4.47903 3.26009 5.75491 3.26009ZM6.71444 6.48009L10.9569 12.5077L6.67491 17.5201H7.82491L11.4762 13.2453L14.4841 17.5201H18.1354L13.4779 10.9022L17.2549 6.48009H16.1049L12.9586 10.1646L10.3657 6.48009H6.71444ZM8.47538 7.40009H9.88503L16.3744 16.6001H14.9648L8.47538 7.40009Z" fill="white"/>
</svg>
