<svg width="30" height="31" viewBox="0 0 30 31" fill="none" xmlns="http://www.w3.org/2000/svg">
<path d="M6.5999 2.84131C4.2873 2.84131 2.3999 4.72871 2.3999 7.04131V23.8413C2.3999 26.1539 4.2873 28.0413 6.5999 28.0413H23.3999C25.7125 28.0413 27.5999 26.1539 27.5999 23.8413V7.04131C27.5999 4.72871 25.7125 2.84131 23.3999 2.84131H6.5999ZM6.5999 4.04131H23.3999C25.0641 4.04131 26.3999 5.37711 26.3999 7.04131V23.8413C26.3999 25.5055 25.0641 26.8413 23.3999 26.8413H6.5999C4.9357 26.8413 3.5999 25.5055 3.5999 23.8413V7.04131C3.5999 5.37711 4.9357 4.04131 6.5999 4.04131ZM7.85147 8.24131L13.3851 16.1034L7.7999 22.6413H9.2999L14.0624 17.0655L17.9858 22.6413H22.7483L16.6733 14.0093L21.5999 8.24131H20.0999L15.996 13.0472L12.614 8.24131H7.85147ZM10.1483 9.44131H11.987L20.4515 21.4413H18.6128L10.1483 9.44131Z" fill="white"/>
</svg>
