<svg width="24" height="24" viewBox="0 0 24 24" fill="none" xmlns="http://www.w3.org/2000/svg">
<path d="M5.75467 2.34009C3.98167 2.34009 2.53467 3.78709 2.53467 5.56009V18.4401C2.53467 20.2131 3.98167 21.6601 5.75467 21.6601H18.6347C20.4077 21.6601 21.8547 20.2131 21.8547 18.4401V5.56009C21.8547 3.78709 20.4077 2.34009 18.6347 2.34009H5.75467ZM5.75467 3.26009H18.6347C19.9106 3.26009 20.9347 4.2842 20.9347 5.56009V18.4401C20.9347 19.716 19.9106 20.7401 18.6347 20.7401H5.75467C4.47878 20.7401 3.45467 19.716 3.45467 18.4401V5.56009C3.45467 4.2842 4.47878 3.26009 5.75467 3.26009ZM6.7142 6.48009L10.9566 12.5077L6.67467 17.5201H7.82467L11.4759 13.2453L14.4839 17.5201H18.1351L13.4776 10.9022L17.2547 6.48009H16.1047L12.9583 10.1646L10.3654 6.48009H6.7142ZM8.47514 7.40009H9.88478L16.3742 16.6001H14.9646L8.47514 7.40009Z" fill="white"/>
</svg>
