<svg width="30" height="31" viewBox="0 0 30 31" fill="none" xmlns="http://www.w3.org/2000/svg">
<path d="M6.60039 2.90039C4.28779 2.90039 2.40039 4.78779 2.40039 7.10039V23.9004C2.40039 26.213 4.28779 28.1004 6.60039 28.1004H23.4004C25.713 28.1004 27.6004 26.213 27.6004 23.9004V7.10039C27.6004 4.78779 25.713 2.90039 23.4004 2.90039H6.60039ZM6.60039 4.10039H23.4004C25.0646 4.10039 26.4004 5.43619 26.4004 7.10039V23.9004C26.4004 25.5646 25.0646 26.9004 23.4004 26.9004H6.60039C4.93619 26.9004 3.60039 25.5646 3.60039 23.9004V7.10039C3.60039 5.43619 4.93619 4.10039 6.60039 4.10039ZM7.85195 8.30039L13.3855 16.1625L7.80039 22.7004H9.30039L14.0629 17.1246L17.9863 22.7004H22.7488L16.6738 14.0684L21.6004 8.30039H20.1004L15.9965 13.1063L12.6145 8.30039H7.85195ZM10.1488 9.50039H11.9875L20.452 21.5004H18.6133L10.1488 9.50039Z" fill="white"/>
</svg>
