<svg width="17" height="18" viewBox="0 0 17 18" fill="none" xmlns="http://www.w3.org/2000/svg">
<path d="M5.24519 9.10905C5.95159 10.5678 7.13116 11.7444 8.59173 12.447C8.69947 12.498 8.81863 12.5201 8.93749 12.5111C9.05636 12.5021 9.17082 12.4622 9.26962 12.3955L11.4148 10.9625C11.5096 10.8982 11.6191 10.859 11.7332 10.8485C11.8472 10.838 11.9621 10.8566 12.067 10.9025L16.0828 12.6272C16.2201 12.6843 16.3347 12.785 16.4092 12.9137C16.4836 13.0424 16.5136 13.192 16.4947 13.3394C16.3674 14.3329 15.8825 15.2459 15.1307 15.9077C14.3789 16.5694 13.4118 16.9346 12.4102 16.9348C9.31514 16.9348 6.34684 15.7053 4.15829 13.5167C1.96975 11.3282 0.740234 8.3599 0.740234 5.26482C0.74046 4.26326 1.10562 3.2961 1.76739 2.54431C2.42915 1.79252 3.34218 1.30761 4.33562 1.18033C4.48307 1.16139 4.63266 1.19145 4.76135 1.26587C4.89005 1.3403 4.99071 1.45496 5.04783 1.59221L6.77258 5.61664C6.81744 5.71991 6.8362 5.83262 6.82722 5.94485C6.81824 6.05708 6.7818 6.16538 6.7211 6.2602L5.28809 8.43975C5.2243 8.53832 5.18685 8.65162 5.17934 8.7688C5.17183 8.88598 5.1945 9.00313 5.24519 9.10905V9.10905Z" stroke="white" stroke-linecap="round" stroke-linejoin="round"/>
</svg>
