<svg width="30" height="31" viewBox="0 0 30 31" fill="none" xmlns="http://www.w3.org/2000/svg">
<path d="M6.60002 2.95459C4.28742 2.95459 2.40002 4.84199 2.40002 7.15459V23.9546C2.40002 26.2672 4.28742 28.1546 6.60002 28.1546H23.4C25.7126 28.1546 27.6 26.2672 27.6 23.9546V7.15459C27.6 4.84199 25.7126 2.95459 23.4 2.95459H6.60002ZM6.60002 4.15459H23.4C25.0642 4.15459 26.4 5.49039 26.4 7.15459V23.9546C26.4 25.6188 25.0642 26.9546 23.4 26.9546H6.60002C4.93582 26.9546 3.60002 25.6188 3.60002 23.9546V7.15459C3.60002 5.49039 4.93582 4.15459 6.60002 4.15459ZM7.85159 8.35459L13.3852 16.2167L7.80002 22.7546H9.30002L14.0625 17.1788L17.986 22.7546H22.7485L16.6735 14.1226L21.6 8.35459H20.1L15.9961 13.1604L12.6141 8.35459H7.85159ZM10.1485 9.55459H11.9871L20.4516 21.5546H18.6129L10.1485 9.55459Z" fill="white"/>
</svg>
