<svg width="20" height="21" viewBox="0 0 20 21" fill="none" xmlns="http://www.w3.org/2000/svg">
<path d="M7.49935 4.66667H5.83268C4.91221 4.66667 4.16602 5.41286 4.16602 6.33333V16.3333C4.16602 17.2538 4.91221 18 5.83268 18H14.166C15.0865 18 15.8327 17.2538 15.8327 16.3333V6.33333C15.8327 5.41286 15.0865 4.66667 14.166 4.66667H12.4993M7.49935 4.66667C7.49935 5.58714 8.24554 6.33333 9.16602 6.33333H10.8327C11.7532 6.33333 12.4993 5.58714 12.4993 4.66667M7.49935 4.66667C7.49935 3.74619 8.24554 3 9.16602 3H10.8327C11.7532 3 12.4993 3.74619 12.4993 4.66667M9.99935 10.5H12.4993M9.99935 13.8333H12.4993M7.49935 10.5H7.50768M7.49935 13.8333H7.50768" stroke="#111B29" stroke-width="2" stroke-linecap="round"/>
</svg>
