<svg width="45" height="44" viewBox="0 0 45 44" fill="none" xmlns="http://www.w3.org/2000/svg">
<circle cx="22.293" cy="22" r="21.7676" fill="#2B83C1"/>
<path d="M19.4302 22.2865C20.1814 23.8377 21.4358 25.0889 22.989 25.8361C23.1035 25.8903 23.2303 25.9138 23.3567 25.9042C23.4831 25.8946 23.6048 25.8522 23.7098 25.7813L25.9911 24.2574C26.0919 24.1891 26.2083 24.1474 26.3296 24.1362C26.4509 24.125 26.573 24.1448 26.6846 24.1936L30.9551 26.0277C31.101 26.0884 31.2229 26.1955 31.3021 26.3323C31.3812 26.4692 31.4132 26.6283 31.3931 26.7851C31.2577 27.8415 30.7421 28.8124 29.9426 29.5161C29.1431 30.2199 28.1146 30.6082 27.0496 30.6084C23.7583 30.6084 20.6017 29.3009 18.2744 26.9736C15.9471 24.6463 14.6396 21.4898 14.6396 18.1985C14.6399 17.1334 15.0282 16.1049 15.7319 15.3055C16.4357 14.506 17.4066 13.9903 18.463 13.855C18.6198 13.8349 18.7789 13.8668 18.9157 13.946C19.0526 14.0251 19.1596 14.147 19.2204 14.293L21.0545 18.5726C21.1022 18.6824 21.1221 18.8023 21.1126 18.9216C21.103 19.041 21.0643 19.1561 20.9997 19.257L19.4759 21.5747C19.408 21.6795 19.3682 21.8 19.3602 21.9246C19.3522 22.0492 19.3763 22.1738 19.4302 22.2865V22.2865Z" stroke="white" stroke-linecap="round" stroke-linejoin="round"/>
</svg>
