<svg width="32" height="28" viewBox="0 0 32 28" fill="none" xmlns="http://www.w3.org/2000/svg">
<path d="M15.9997 10.9145C19.0027 10.9145 21.4372 8.48002 21.4372 5.477C21.4372 2.47398 19.0027 0.0395508 15.9997 0.0395508C12.9967 0.0395508 10.5623 2.47398 10.5623 5.477C10.5623 8.48002 12.9967 10.9145 15.9997 10.9145Z" fill="white"/>
<path d="M26.9998 10.9145C28.8983 10.9145 30.4373 9.37548 30.4373 7.47702C30.4373 5.57856 28.8983 4.03955 26.9998 4.03955C25.1014 4.03955 23.5624 5.57856 23.5624 7.47702C23.5624 9.37548 25.1014 10.9145 26.9998 10.9145Z" fill="white"/>
<path d="M4.99985 10.9145C6.89831 10.9145 8.43732 9.37548 8.43732 7.47702C8.43732 5.57856 6.89831 4.03955 4.99985 4.03955C3.10139 4.03955 1.56238 5.57856 1.56238 7.47702C1.56238 9.37548 3.10139 10.9145 4.99985 10.9145Z" fill="white"/>
<path d="M8.38668 14.001C7.03357 12.8924 5.80814 13.0391 4.24359 13.0391C1.90361 13.0391 -0.00012207 14.9316 -0.00012207 17.2572V24.0828C-0.00012207 25.0928 0.824246 25.914 1.83799 25.914C6.21457 25.914 5.68733 25.9932 5.68733 25.7253C5.68733 20.8887 5.11446 17.3418 8.38668 14.001V14.001Z" fill="white"/>
<path d="M17.4881 13.0645C14.7554 12.8365 12.3801 13.0671 10.3313 14.7582C6.90275 17.5044 7.56256 21.2021 7.56256 25.7256C7.56256 26.9224 8.5363 27.9143 9.75129 27.9143C22.9438 27.9143 23.4689 28.3399 24.2512 26.6075C24.5077 26.0216 24.4374 26.2078 24.4374 20.6032C24.4374 16.1516 20.5829 13.0645 17.4881 13.0645V13.0645Z" fill="white"/>
<path d="M27.7562 13.04C26.1831 13.04 24.9645 12.8947 23.6132 14.0018C26.8609 17.3178 26.3125 20.6227 26.3125 25.7261C26.3125 25.9957 25.8748 25.9148 30.0962 25.9148C31.1462 25.9148 32 25.0642 32 24.0186V17.2581C32 14.9324 30.0962 13.04 27.7562 13.04Z" fill="white"/>
</svg>
