<svg width="18" height="18" viewBox="0 0 18 18" fill="none" xmlns="http://www.w3.org/2000/svg">
<path d="M12.7355 1.79078C13.7281 1.79363 14.6792 2.17433 15.3811 2.84973C16.0829 3.52513 16.4786 4.44035 16.4815 5.3955V12.6042C16.4786 13.5593 16.0829 14.4745 15.3811 15.1499C14.6792 15.8253 13.7281 16.206 12.7355 16.2089H5.24421C4.25161 16.206 3.30052 15.8253 2.59864 15.1499C1.89676 14.4745 1.50114 13.5593 1.49818 12.6042V5.3955C1.50114 4.44035 1.89676 3.52513 2.59864 2.84973C3.30052 2.17433 4.25161 1.79363 5.24421 1.79078H12.7355V1.79078ZM12.7355 0.349121H5.24421C2.35984 0.349121 0 2.61993 0 5.3955V12.6042C0 15.3797 2.35984 17.6505 5.24421 17.6505H12.7355C15.6199 17.6505 17.9797 15.3797 17.9797 12.6042V5.3955C17.9797 2.61993 15.6199 0.349121 12.7355 0.349121V0.349121Z" fill="white"/>
<path d="M13.8592 5.39583C13.637 5.39583 13.4197 5.33241 13.2349 5.21359C13.0501 5.09478 12.9061 4.92589 12.821 4.7283C12.736 4.53072 12.7137 4.31329 12.7571 4.10354C12.8005 3.89378 12.9075 3.7011 13.0646 3.54987C13.2218 3.39864 13.422 3.29566 13.64 3.25393C13.858 3.21221 14.0839 3.23362 14.2893 3.31547C14.4946 3.39731 14.6701 3.53591 14.7936 3.71373C14.9171 3.89156 14.983 4.10063 14.983 4.31449C14.9833 4.45658 14.9544 4.59733 14.8981 4.72867C14.8417 4.86 14.7589 4.97933 14.6545 5.0798C14.5501 5.18027 14.4261 5.25991 14.2896 5.31414C14.1532 5.36838 14.0069 5.39614 13.8592 5.39583V5.39583ZM8.98986 6.11647C9.58256 6.11647 10.162 6.28559 10.6548 6.60246C11.1476 6.91932 11.5317 7.3697 11.7585 7.89662C11.9853 8.42355 12.0447 9.00337 11.929 9.56275C11.8134 10.1221 11.528 10.636 11.1089 11.0393C10.6898 11.4425 10.1558 11.7172 9.5745 11.8285C8.99319 11.9397 8.39064 11.8826 7.84306 11.6644C7.29547 11.4461 6.82744 11.0765 6.49815 10.6023C6.16887 10.128 5.99311 9.57051 5.99311 9.00017C5.99396 8.23561 6.30996 7.50261 6.87178 6.96199C7.43359 6.42137 8.19534 6.11729 8.98986 6.11647V6.11647ZM8.98986 4.67481C8.10085 4.67481 7.2318 4.92849 6.49262 5.40377C5.75343 5.87904 5.1773 6.55457 4.83709 7.34493C4.49688 8.13528 4.40787 9.00497 4.5813 9.844C4.75474 10.683 5.18284 11.4537 5.81147 12.0587C6.4401 12.6636 7.24102 13.0755 8.11295 13.2424C8.98488 13.4093 9.88866 13.3237 10.71 12.9963C11.5313 12.6689 12.2333 12.1145 12.7273 11.4032C13.2212 10.6919 13.4848 9.85564 13.4848 9.00017C13.4848 7.85301 13.0112 6.75284 12.1683 5.94168C11.3253 5.13052 10.182 4.67481 8.98986 4.67481V4.67481Z" fill="white"/>
</svg>
