<svg width="18" height="18" viewBox="0 0 18 18" fill="none" xmlns="http://www.w3.org/2000/svg">
<path d="M12.7355 1.79102C13.7281 1.79387 14.6792 2.17457 15.3811 2.84997C16.0829 3.52537 16.4786 4.44059 16.4815 5.39574V12.6044C16.4786 13.5596 16.0829 14.4748 15.3811 15.1502C14.6792 15.8256 13.7281 16.2063 12.7355 16.2091H5.24421C4.25161 16.2063 3.30052 15.8256 2.59864 15.1502C1.89676 14.4748 1.50114 13.5596 1.49818 12.6044V5.39574C1.50114 4.44059 1.89676 3.52537 2.59864 2.84997C3.30052 2.17457 4.25161 1.79387 5.24421 1.79102H12.7355V1.79102ZM12.7355 0.349365H5.24421C2.35984 0.349365 0 2.62018 0 5.39574V12.6044C0 15.38 2.35984 17.6508 5.24421 17.6508H12.7355C15.6199 17.6508 17.9797 15.38 17.9797 12.6044V5.39574C17.9797 2.62018 15.6199 0.349365 12.7355 0.349365V0.349365Z" fill="white"/>
<path d="M13.8592 5.39608C13.637 5.39608 13.4197 5.33266 13.2349 5.21384C13.0501 5.09502 12.9061 4.92614 12.821 4.72855C12.736 4.53096 12.7137 4.31354 12.7571 4.10378C12.8005 3.89402 12.9075 3.70134 13.0646 3.55012C13.2218 3.39889 13.422 3.2959 13.64 3.25418C13.858 3.21245 14.0839 3.23387 14.2893 3.31571C14.4946 3.39755 14.6701 3.53615 14.7936 3.71398C14.9171 3.8918 14.983 4.10087 14.983 4.31474C14.9833 4.45683 14.9544 4.59758 14.8981 4.72891C14.8417 4.86024 14.7589 4.97957 14.6545 5.08004C14.5501 5.18051 14.4261 5.26015 14.2896 5.31439C14.1532 5.36862 14.0069 5.39638 13.8592 5.39608V5.39608ZM8.98986 6.11671C9.58256 6.11671 10.162 6.28584 10.6548 6.6027C11.1476 6.91957 11.5317 7.36994 11.7585 7.89687C11.9853 8.4238 12.0447 9.00361 11.929 9.56299C11.8134 10.1224 11.528 10.6362 11.1089 11.0395C10.6898 11.4428 10.1558 11.7174 9.5745 11.8287C8.99319 11.94 8.39064 11.8829 7.84306 11.6646C7.29547 11.4463 6.82744 11.0767 6.49815 10.6025C6.16887 10.1283 5.99311 9.57075 5.99311 9.00041C5.99396 8.23586 6.30996 7.50285 6.87178 6.96223C7.43359 6.42161 8.19534 6.11753 8.98986 6.11671V6.11671ZM8.98986 4.67506C8.10085 4.67506 7.2318 4.92873 6.49262 5.40401C5.75343 5.87929 5.1773 6.55481 4.83709 7.34517C4.49688 8.13553 4.40787 9.00521 4.5813 9.84425C4.75474 10.6833 5.18284 11.454 5.81147 12.0589C6.4401 12.6638 7.24102 13.0758 8.11295 13.2427C8.98488 13.4096 9.88866 13.3239 10.71 12.9965C11.5313 12.6691 12.2333 12.1148 12.7273 11.4035C13.2212 10.6922 13.4848 9.85589 13.4848 9.00041C13.4848 7.85326 13.0112 6.75309 12.1683 5.94192C11.3253 5.13076 10.182 4.67506 8.98986 4.67506V4.67506Z" fill="white"/>
</svg>
