<svg width="19" height="20" viewBox="0 0 19 20" fill="none" xmlns="http://www.w3.org/2000/svg">
<path d="M17.2972 0.977051H2.23665C1.41371 0.977051 0.694702 1.56918 0.694702 2.38245V17.4764C0.694702 18.2941 1.41371 19.0228 2.23665 19.0228H17.2928C18.1201 19.0228 18.7405 18.2893 18.7405 17.4764V2.38245C18.7453 1.56918 18.1201 0.977051 17.2972 0.977051ZM6.28849 16.0191H3.70327V7.98106H6.28849V16.0191ZM5.0853 6.75895H5.06677C4.23941 6.75895 3.70367 6.14305 3.70367 5.37208C3.70367 4.58701 4.25351 3.98562 5.0994 3.98562C5.9453 3.98562 6.4629 4.58258 6.48143 5.37208C6.48103 6.14305 5.9453 6.75895 5.0853 6.75895ZM15.7367 16.0191H13.1515V11.6241C13.1515 10.5711 12.7753 9.8517 11.84 9.8517C11.1254 9.8517 10.7025 10.3351 10.5143 10.806C10.4438 10.9751 10.4249 11.2055 10.4249 11.4408V16.0191H7.8397V7.98106H10.4249V9.09966C10.8011 8.56393 11.3888 7.79295 12.7564 7.79295C14.4534 7.79295 15.7371 8.91155 15.7371 11.3232L15.7367 16.0191Z" fill="white"/>
</svg>
