<svg width="25" height="25" viewBox="0 0 25 25" fill="none" xmlns="http://www.w3.org/2000/svg">
<path d="M22.5405 0.25H2.09343C0.97617 0.25 0 1.05391 0 2.15804V22.6505C0 23.7607 0.97617 24.75 2.09343 24.75H22.5345C23.6578 24.75 24.5 23.7541 24.5 22.6505V2.15804C24.5065 1.05391 23.6578 0.25 22.5405 0.25ZM7.59444 20.6719H4.0846V9.75905H7.59444V20.6719ZM5.96093 8.09984H5.93577C4.81249 8.09984 4.08515 7.26366 4.08515 6.21695C4.08515 5.15109 4.83163 4.33461 5.98007 4.33461C7.1285 4.33461 7.83124 5.14507 7.85639 6.21695C7.85585 7.26366 7.1285 8.09984 5.96093 8.09984ZM20.4219 20.6719H16.9121V14.705C16.9121 13.2755 16.4013 12.2987 15.1315 12.2987C14.1613 12.2987 13.5871 12.955 13.3317 13.5943C13.236 13.824 13.2103 14.1368 13.2103 14.4562V20.6719H9.70045V9.75905H13.2103V11.2777C13.7211 10.5504 14.519 9.50366 16.3756 9.50366C18.6796 9.50366 20.4225 11.0223 20.4225 14.2965L20.4219 20.6719Z" fill="white"/>
</svg>
