<svg width="19" height="20" viewBox="0 0 19 20" fill="none" xmlns="http://www.w3.org/2000/svg">
<path d="M17.1822 0.977051H2.12166C1.29872 0.977051 0.579712 1.56918 0.579712 2.38245V17.4764C0.579712 18.2941 1.29872 19.0228 2.12166 19.0228H17.1778C18.0052 19.0228 18.6255 18.2893 18.6255 17.4764V2.38245C18.6303 1.56918 18.0052 0.977051 17.1822 0.977051ZM6.1735 16.0191H3.58828V7.98106H6.1735V16.0191ZM4.97031 6.75895H4.95178C4.12442 6.75895 3.58868 6.14305 3.58868 5.37208C3.58868 4.58701 4.13851 3.98562 4.98441 3.98562C5.83031 3.98562 6.34791 4.58258 6.36644 5.37208C6.36604 6.14305 5.83031 6.75895 4.97031 6.75895ZM15.6217 16.0191H13.0365V11.6241C13.0365 10.5711 12.6603 9.8517 11.725 9.8517C11.0104 9.8517 10.5875 10.3351 10.3993 10.806C10.3289 10.9751 10.3099 11.2055 10.3099 11.4408V16.0191H7.72471V7.98106H10.3099V9.09966C10.6861 8.56393 11.2738 7.79295 12.6414 7.79295C14.3384 7.79295 15.6221 8.91155 15.6221 11.3232L15.6217 16.0191Z" fill="white"/>
</svg>
