<svg width="25" height="25" viewBox="0 0 25 25" fill="none" xmlns="http://www.w3.org/2000/svg">
<path d="M22.5405 0.191406H2.09343C0.97617 0.191406 0 0.995312 0 2.09945V22.5919C0 23.7021 0.97617 24.6914 2.09343 24.6914H22.5345C23.6578 24.6914 24.5 23.6955 24.5 22.5919V2.09945C24.5065 0.995312 23.6578 0.191406 22.5405 0.191406ZM7.59444 20.6133H4.0846V9.70046H7.59444V20.6133ZM5.96093 8.04124H5.93577C4.81249 8.04124 4.08515 7.20507 4.08515 6.15835C4.08515 5.0925 4.83163 4.27601 5.98007 4.27601C7.1285 4.27601 7.83124 5.08648 7.85639 6.15835C7.85585 7.20507 7.1285 8.04124 5.96093 8.04124ZM20.4219 20.6133H16.9121V14.6464C16.9121 13.2169 16.4013 12.2401 15.1315 12.2401C14.1613 12.2401 13.5871 12.8964 13.3317 13.5357C13.236 13.7654 13.2103 14.0782 13.2103 14.3976V20.6133H9.70045V9.70046H13.2103V11.2191C13.7211 10.4918 14.519 9.44507 16.3756 9.44507C18.6796 9.44507 20.4225 10.9637 20.4225 14.2379L20.4219 20.6133Z" fill="white"/>
</svg>
