<svg width="25" height="25" viewBox="0 0 25 25" fill="none" xmlns="http://www.w3.org/2000/svg">
<path d="M22.5405 0.304688H2.09343C0.97617 0.304688 0 1.10859 0 2.21273V22.7052C0 23.8154 0.97617 24.8047 2.09343 24.8047H22.5345C23.6578 24.8047 24.5 23.8088 24.5 22.7052V2.21273C24.5065 1.10859 23.6578 0.304688 22.5405 0.304688ZM7.59444 20.7266H4.0846V9.81374H7.59444V20.7266ZM5.96093 8.15452H5.93577C4.81249 8.15452 4.08515 7.31835 4.08515 6.27163C4.08515 5.20578 4.83163 4.38929 5.98007 4.38929C7.1285 4.38929 7.83124 5.19976 7.85639 6.27163C7.85585 7.31835 7.1285 8.15452 5.96093 8.15452ZM20.4219 20.7266H16.9121V14.7597C16.9121 13.3301 16.4013 12.3534 15.1315 12.3534C14.1613 12.3534 13.5871 13.0097 13.3317 13.649C13.236 13.8787 13.2103 14.1915 13.2103 14.5108V20.7266H9.70045V9.81374H13.2103V11.3324C13.7211 10.6051 14.519 9.55835 16.3756 9.55835C18.6796 9.55835 20.4225 11.077 20.4225 14.3512L20.4219 20.7266Z" fill="white"/>
</svg>
