<svg width="630" height="612" viewBox="0 0 630 612" fill="none" xmlns="http://www.w3.org/2000/svg">
<path d="M193.877 172.517C193.877 172.517 144.159 219.629 153.646 284.993C163.132 350.357 221.306 400.837 267.09 442.84C312.873 484.844 377.866 490.612 424.752 458.465C471.638 426.319 446.31 385.665 472.801 327.707C499.293 269.749 516.566 257.471 502.352 197.494C488.138 137.517 403.05 99.6237 318.353 115.475C233.656 131.327 193.877 172.517 193.877 172.517Z" fill="#1B4071"/>
<path opacity="0.7" d="M193.877 172.517C193.877 172.517 144.159 219.629 153.646 284.993C163.132 350.357 221.306 400.837 267.09 442.84C312.873 484.844 377.866 490.612 424.752 458.465C471.638 426.319 446.31 385.665 472.801 327.707C499.293 269.749 516.566 257.471 502.352 197.494C488.138 137.517 403.05 99.6237 318.353 115.475C233.656 131.327 193.877 172.517 193.877 172.517Z" fill="white"/>
<path d="M408.107 162.443H333.721L334.473 151.597H408.859L408.107 162.443Z" fill="#CCCCCC"/>
<path d="M408.107 177.636H333.721L334.473 166.79H408.859L408.107 177.636Z" fill="#CCCCCC"/>
<path d="M408.107 192.839H333.721L334.473 181.982H408.859L408.107 192.839Z" fill="#CCCCCC"/>
<path d="M408.107 208.031H333.721L334.473 197.175H408.859L408.107 208.031Z" fill="#CCCCCC"/>
<path d="M408.107 223.224H333.721L334.473 212.367H408.859L408.107 223.224Z" fill="#CCCCCC"/>
<path d="M408.107 238.416H333.721L334.473 227.57H408.859L408.107 238.416Z" fill="#CCCCCC"/>
<path d="M408.107 253.609H333.721L334.473 242.763H408.859L408.107 253.609Z" fill="#CCCCCC"/>
<path d="M408.107 268.811H333.721L334.473 257.955H408.859L408.107 268.811Z" fill="#CCCCCC"/>
<path d="M408.107 284.004H333.721L334.473 273.148H408.859L408.107 284.004Z" fill="#CCCCCC"/>
<path d="M408.107 299.197H333.721L334.473 288.34H408.859L408.107 299.197Z" fill="#CCCCCC"/>
<path d="M408.107 314.389H333.721L334.473 303.533H408.859L408.107 314.389Z" fill="#CCCCCC"/>
<path d="M486.768 162.443H412.372L413.123 151.597H487.52L486.768 162.443Z" fill="#CCCCCC"/>
<path d="M486.768 177.636H412.372L413.123 166.79H487.52L486.768 177.636Z" fill="#CCCCCC"/>
<path d="M486.768 192.839H412.372L413.123 181.982H487.52L486.768 192.839Z" fill="#CCCCCC"/>
<path d="M486.768 208.031H412.372L413.123 197.175H487.52L486.768 208.031Z" fill="#CCCCCC"/>
<path d="M486.768 223.224H412.372L413.123 212.367H487.52L486.768 223.224Z" fill="#CCCCCC"/>
<path d="M486.768 238.416H412.372L413.123 227.57H487.52L486.768 238.416Z" fill="#CCCCCC"/>
<path d="M486.768 253.609H412.372L413.123 242.763H487.52L486.768 253.609Z" fill="#CCCCCC"/>
<path d="M486.768 268.811H412.372L413.123 257.955H487.52L486.768 268.811Z" fill="#CCCCCC"/>
<path d="M486.768 284.004H412.372L413.123 273.148H487.52L486.768 284.004Z" fill="#CCCCCC"/>
<path d="M486.768 299.197H412.372L413.123 288.34H487.52L486.768 299.197Z" fill="#CCCCCC"/>
<path d="M486.768 314.389H412.372L413.123 303.533H487.52L486.768 314.389Z" fill="#CCCCCC"/>
<path d="M323.287 151H169.59V282.861H323.287V151Z" fill="#1B4071"/>
<path d="M315.593 157.592H177.274V276.269H315.593V157.592Z" fill="white"/>
<mask id="mask0_2902_8259" style="mask-type:luminance" maskUnits="userSpaceOnUse" x="177" y="157" width="139" height="120">
<path d="M315.593 157.592H177.274V276.269H315.593V157.592Z" fill="white"/>
</mask>
<g mask="url(#mask0_2902_8259)">
<path d="M315.593 193.57C290.718 211.265 255.09 223.007 213.757 241.455C200.732 247.174 188.476 254.503 177.274 263.27V276.279H315.593V193.57Z" fill="#1B4071"/>
<path d="M315.592 157.592H260.086C253.906 162.876 246.603 168.778 237.972 175.102C206.382 198.267 220.07 221.452 257.985 204.581C277.441 195.939 299.102 175.926 315.592 158.488V157.592Z" fill="#1B4071"/>
<path d="M201.17 170.9C201.17 161.228 189.129 168.84 177.325 178.563V202.984C188.81 191.716 201.17 179.552 201.17 170.9Z" fill="#1B4071"/>
<path d="M212.706 209.339C212.706 211.527 212.057 213.666 210.842 215.485C209.626 217.304 207.898 218.722 205.877 219.559C203.856 220.397 201.631 220.616 199.486 220.189C197.34 219.762 195.369 218.709 193.822 217.161C192.275 215.614 191.221 213.643 190.794 211.497C190.367 209.352 190.586 207.127 191.424 205.106C192.261 203.085 193.679 201.357 195.498 200.141C197.317 198.926 199.456 198.277 201.644 198.277C204.578 198.277 207.391 199.443 209.466 201.517C211.54 203.592 212.706 206.405 212.706 209.339Z" fill="#1B4071"/>
<path opacity="0.75" d="M315.593 193.57C290.718 211.265 255.09 223.007 213.757 241.455C200.732 247.174 188.476 254.503 177.274 263.27V276.279H315.593V193.57Z" fill="white"/>
<path opacity="0.75" d="M315.592 157.592H260.086C253.906 162.876 246.603 168.778 237.972 175.102C206.382 198.267 220.07 221.452 257.985 204.581C277.441 195.939 299.102 175.926 315.592 158.488V157.592Z" fill="white"/>
<g opacity="0.75">
<path d="M201.17 170.9C201.17 161.228 189.129 168.84 177.325 178.563V202.984C188.81 191.716 201.17 179.552 201.17 170.9Z" fill="white"/>
</g>
<path opacity="0.75" d="M212.706 209.339C212.706 211.527 212.057 213.666 210.842 215.485C209.626 217.304 207.898 218.722 205.877 219.559C203.856 220.397 201.631 220.616 199.486 220.189C197.34 219.762 195.369 218.709 193.822 217.161C192.275 215.614 191.221 213.643 190.794 211.497C190.367 209.352 190.586 207.127 191.424 205.106C192.261 203.085 193.679 201.357 195.498 200.141C197.317 198.926 199.456 198.277 201.644 198.277C204.578 198.277 207.391 199.443 209.466 201.517C211.54 203.592 212.706 206.405 212.706 209.339Z" fill="white"/>
</g>
<path d="M291.687 244.617C291.687 247.534 290.821 250.387 289.2 252.812C287.579 255.238 285.275 257.129 282.579 258.245C279.883 259.361 276.917 259.652 274.056 259.082C271.194 258.512 268.566 257.106 266.504 255.043C264.442 252.979 263.038 250.35 262.47 247.488C261.902 244.626 262.195 241.66 263.313 238.965C264.431 236.27 266.323 233.967 268.75 232.348C271.177 230.728 274.03 229.865 276.947 229.867C278.884 229.867 280.801 230.249 282.59 230.99C284.379 231.731 286.005 232.818 287.373 234.188C288.742 235.558 289.828 237.184 290.568 238.973C291.308 240.763 291.688 242.68 291.687 244.617Z" fill="white"/>
<path d="M499.602 422.796C496.929 425.897 495.124 429.649 494.37 433.673L483.874 439.554V411.744L484.08 412.023L500.797 399.786C502.909 400.116 511.025 401.043 518.42 397.057C527.011 392.432 533.283 376.591 533.283 376.591C533.283 376.591 512.807 374.273 505.875 382.863C500.251 389.826 500.056 396.573 500.189 398.869L483.874 410.807V390.259C486.93 388.836 489.631 386.751 491.781 384.156C493.931 381.56 495.477 378.518 496.306 375.252C499.273 363.695 483.431 340.922 483.431 340.922C483.431 340.922 466.951 364.364 470.216 376.251C473.018 386.314 480.516 389.507 482.772 390.248V434.796L471.03 424.98C471.298 422.632 471.514 415.288 464.974 407.933C457.043 399.014 435.917 399.693 435.917 399.693C435.917 399.693 444.827 417.523 452.397 423.466C459.031 428.616 468.187 426.556 470.392 425.928L482.752 436.228V449.772H464.366L471.875 496.699H494.401L501.93 449.782H483.874V440.821L495.41 434.353C498.212 435.136 506.05 436.743 513.466 433.035C522.736 428.41 530.307 418.501 530.307 418.501C530.307 418.501 508.193 412.888 499.602 422.796Z" fill="#1B4071"/>
<path opacity="0.5" d="M499.602 422.796C496.929 425.897 495.124 429.649 494.37 433.673L483.874 439.554V411.744L484.08 412.023L500.797 399.786C502.909 400.116 511.025 401.043 518.42 397.057C527.011 392.432 533.283 376.591 533.283 376.591C533.283 376.591 512.807 374.273 505.875 382.863C500.251 389.826 500.056 396.573 500.189 398.869L483.874 410.807V390.259C486.93 388.836 489.631 386.751 491.781 384.156C493.931 381.56 495.477 378.518 496.306 375.252C499.273 363.695 483.431 340.922 483.431 340.922C483.431 340.922 466.951 364.364 470.216 376.251C473.018 386.314 480.516 389.507 482.772 390.248V434.796L471.03 424.98C471.298 422.632 471.514 415.288 464.974 407.933C457.043 399.014 435.917 399.693 435.917 399.693C435.917 399.693 444.827 417.523 452.397 423.466C459.031 428.616 468.187 426.556 470.392 425.928L482.752 436.228V449.772H464.366L471.875 496.699H494.401L501.93 449.782H483.874V440.821L495.41 434.353C498.212 435.136 506.05 436.743 513.466 433.035C522.736 428.41 530.307 418.501 530.307 418.501C530.307 418.501 508.193 412.888 499.602 422.796Z" fill="white"/>
<path d="M478.786 281.017L448.473 281.274C448.473 281.274 446.413 281.017 445.97 282.521C445.97 282.521 440.707 295.808 440.46 300.566C440.212 305.325 441.49 304.573 439.43 310.866C437.37 317.16 431.663 331.909 428.409 343.94C424.031 360.1 422.888 377.26 422.61 393.946C422.61 396.624 420.962 419.696 425.133 419.696C428.594 419.696 460.493 423.929 460.874 417.78C462.409 393.266 457.98 369.319 466.488 345.485C469.794 336.215 473.584 326.45 476.396 316.768C479.208 307.086 479.692 297.013 481.546 287.104C482.793 280.265 478.786 281.017 478.786 281.017Z" fill="#263238"/>
<path d="M481.763 284.024C481.464 280.522 478.786 281.017 478.786 281.017L448.473 281.274C448.473 281.274 446.413 281.017 445.97 282.521C445.97 282.521 440.707 295.808 440.46 300.566C440.385 301.824 440.42 303.085 440.563 304.336L441.201 305.366C441.201 305.366 442.231 314.131 454.231 314.636C466.23 315.141 473.028 309.62 475.531 304.336C478.034 299.052 479.043 290.555 481.042 285.539C481.256 285.022 481.497 284.517 481.763 284.024Z" fill="#1B4071"/>
<path d="M474.728 293.81C472.668 301.133 473.914 303.162 471.885 315.769C469.856 328.376 462.532 342.549 459.679 355.62C456.826 368.691 458.062 414.577 458.464 416.616C458.623 417.697 458.682 418.79 458.639 419.882C460.009 419.367 460.833 418.666 460.895 417.708C462.429 393.194 458 369.247 466.508 345.413C469.815 336.143 473.605 326.378 476.417 316.696C479.229 307.014 479.713 296.941 481.567 287.032C482.339 282.912 481.124 281.563 480.063 281.161C477.759 285.136 475.967 289.386 474.728 293.81Z" fill="#1B4071"/>
<path d="M416.172 478.828L415.966 478.664V450.359H420.034V432.468H404.996V450.359H409.055V479.148L373.066 490.622V493.465C373.066 494.328 373.409 495.156 374.02 495.766C374.63 496.377 375.458 496.719 376.321 496.719C377.184 496.719 378.012 496.377 378.623 495.766C379.233 495.156 379.576 494.328 379.576 493.465V493.063L409.673 489.561V493.877C409.673 494.631 409.972 495.354 410.505 495.887C411.038 496.42 411.761 496.719 412.515 496.719C413.269 496.719 413.992 496.42 414.526 495.887C415.059 495.354 415.358 494.631 415.358 493.877V489.417L446.67 493.063V493.465C446.67 494.328 447.013 495.156 447.623 495.766C448.234 496.377 449.062 496.719 449.925 496.719C450.788 496.719 451.616 496.377 452.226 495.766C452.837 495.156 453.18 494.328 453.18 493.465V490.622L416.172 478.828Z" fill="#263238"/>
<path d="M459.082 415.02H369.709C367.433 415.02 365.589 416.864 365.589 419.14V431.654C365.589 433.93 367.433 435.774 369.709 435.774H459.082C461.357 435.774 463.202 433.93 463.202 431.654V419.14C463.202 416.864 461.357 415.02 459.082 415.02Z" fill="#263238"/>
<path d="M107.275 281.017L137.588 281.274C137.588 281.274 139.648 281.017 140.101 282.521C140.101 282.521 145.364 295.808 145.612 300.566C145.859 305.325 144.582 304.573 146.642 310.866C148.702 317.16 154.408 331.909 157.663 343.94C162.05 360.1 163.183 377.26 163.462 393.946C163.462 396.624 165.11 419.696 160.938 419.696C157.488 419.696 125.588 423.929 125.197 417.78C123.673 393.266 128.091 369.319 119.584 345.485C116.277 336.215 112.487 326.45 109.685 316.768C106.884 307.086 106.389 297.013 104.535 287.104C103.32 280.265 107.275 281.017 107.275 281.017Z" fill="#263238"/>
<path d="M104.35 284.024C104.648 280.522 107.316 281.017 107.316 281.017L137.629 281.274C137.629 281.274 139.689 281.017 140.142 282.521C140.142 282.521 145.405 295.808 145.653 300.566C145.72 301.824 145.682 303.085 145.539 304.336L144.901 305.366C144.901 305.366 143.871 314.131 131.871 314.636C119.872 315.141 113.043 309.62 110.53 304.326C108.016 299.032 107.028 290.544 105.019 285.528C104.825 285.014 104.602 284.512 104.35 284.024Z" fill="#1B4071"/>
<path d="M111.333 293.81C113.393 301.133 112.147 303.162 114.176 315.769C116.205 328.376 123.539 342.549 126.382 355.62C129.224 368.691 128.04 414.577 127.597 416.616C127.443 417.698 127.384 418.79 127.422 419.882C126.062 419.367 125.228 418.666 125.166 417.708C123.642 393.194 128.06 369.247 119.553 345.413C116.246 336.143 112.456 326.378 109.654 316.696C106.853 307.014 106.358 296.941 104.504 287.032C103.742 282.912 104.958 281.563 106.008 281.161C108.313 285.134 110.103 289.384 111.333 293.81Z" fill="#1B4071"/>
<path d="M169.889 478.828L170.095 478.664V450.359H165.975V432.468H181.023V450.359H176.954V479.148L212.943 490.622V493.465C212.943 494.328 212.6 495.156 211.989 495.766C211.379 496.377 210.551 496.719 209.688 496.719C208.825 496.719 207.997 496.377 207.386 495.766C206.776 495.156 206.433 494.328 206.433 493.465V493.063L176.45 489.561V493.877C176.406 494.602 176.087 495.284 175.558 495.782C175.028 496.281 174.329 496.558 173.602 496.558C172.875 496.558 172.175 496.281 171.646 495.782C171.117 495.284 170.797 494.602 170.754 493.877V489.417L139.37 493.063V493.465C139.395 493.907 139.329 494.349 139.177 494.765C139.025 495.181 138.79 495.562 138.485 495.883C138.181 496.205 137.814 496.462 137.408 496.637C137.001 496.812 136.563 496.902 136.12 496.902C135.677 496.902 135.239 496.812 134.832 496.637C134.426 496.462 134.059 496.205 133.755 495.883C133.451 495.562 133.215 495.181 133.063 494.765C132.911 494.349 132.845 493.907 132.87 493.465V490.622L169.889 478.828Z" fill="#263238"/>
<path d="M126.979 435.764H216.352C218.628 435.764 220.472 433.92 220.472 431.644V419.13C220.472 416.854 218.628 415.01 216.352 415.01H126.979C124.704 415.01 122.859 416.854 122.859 419.13V431.644C122.859 433.92 124.704 435.764 126.979 435.764Z" fill="#263238"/>
<path d="M441.16 356.732H196.432V497.389H441.16V356.732Z" fill="#CCCCCC"/>
<path d="M440.975 360.111H196.556V364.004H440.975V360.111Z" fill="#263238"/>
<path d="M442.973 354.425H190.983V360.574H442.973V354.425Z" fill="#CCCCCC"/>
<path d="M261.59 342.209C261.59 342.209 264.474 355.095 264.309 358.689C264.145 362.284 257.357 371.914 257.182 369.71C257.239 367.842 257.645 366.002 258.377 364.282C258.377 364.282 255.997 367.506 255.153 367.372C254.308 367.238 255.833 362.789 255.833 362.789C255.833 362.789 253.288 365.333 252.434 364.849C251.579 364.365 254.298 360.605 254.298 360.605C254.298 360.605 251.208 363.829 251.084 362.809C250.961 361.79 253.793 357.556 253.793 357.556C253.793 357.556 250.909 351.448 250.703 348.904C250.722 347.127 251.314 345.404 252.392 343.991L261.59 342.209Z" fill="white"/>
<mask id="mask1_2902_8259" style="mask-type:luminance" maskUnits="userSpaceOnUse" x="250" y="342" width="15" height="29">
<path d="M261.59 342.209C261.59 342.209 264.474 355.095 264.309 358.689C264.145 362.284 257.357 371.914 257.182 369.71C257.239 367.842 257.645 366.002 258.377 364.282C258.377 364.282 255.997 367.506 255.153 367.372C254.308 367.238 255.833 362.789 255.833 362.789C255.833 362.789 253.288 365.333 252.434 364.849C251.579 364.365 254.298 360.605 254.298 360.605C254.298 360.605 251.208 363.829 251.084 362.809C250.961 361.79 253.793 357.556 253.793 357.556C253.793 357.556 250.909 351.448 250.703 348.904C250.722 347.127 251.314 345.404 252.392 343.991L261.59 342.209Z" fill="white"/>
</mask>
<g mask="url(#mask1_2902_8259)">
<path d="M261.59 342.209C261.59 342.209 264.474 355.095 264.309 358.689C264.145 362.284 257.357 371.914 257.182 369.71C257.239 367.842 257.645 366.002 258.377 364.282C258.377 364.282 255.997 367.506 255.153 367.372C254.308 367.238 255.833 362.789 255.833 362.789C255.833 362.789 253.288 365.333 252.434 364.849C251.579 364.365 254.298 360.605 254.298 360.605C254.298 360.605 251.208 363.829 251.084 362.809C250.961 361.79 253.793 357.556 253.793 357.556C253.793 357.556 250.909 351.448 250.703 348.904C250.722 347.127 251.314 345.404 252.392 343.991L261.59 342.209Z" fill="#D9D9D9"/>
</g>
<path d="M261.59 342.209C261.59 342.209 264.474 355.095 264.309 358.689C264.145 362.284 257.357 371.914 257.182 369.71C257.239 367.842 257.645 366.002 258.377 364.282C258.377 364.282 255.997 367.506 255.153 367.372C254.308 367.238 255.833 362.789 255.833 362.789C255.833 362.789 253.288 365.333 252.434 364.849C251.579 364.365 254.298 360.605 254.298 360.605C254.298 360.605 251.208 363.829 251.084 362.809C250.961 361.79 253.793 357.556 253.793 357.556C253.793 357.556 250.909 351.448 250.703 348.904C250.722 347.127 251.314 345.404 252.392 343.991L261.59 342.209Z" stroke="#263238" stroke-linecap="round" stroke-linejoin="round"/>
<path d="M260.91 342.209C260.91 342.209 262.97 351.201 262.785 353.745C262.6 356.289 260.066 363.747 258.201 362.387C256.337 361.027 259.386 355.949 259.386 355.949C259.386 355.949 254.154 352.272 252.949 348.822C251.743 345.371 252.434 343.909 252.434 343.909L260.91 342.209Z" fill="white"/>
<mask id="mask2_2902_8259" style="mask-type:luminance" maskUnits="userSpaceOnUse" x="252" y="342" width="11" height="21">
<path d="M260.91 342.209C260.91 342.209 262.97 351.201 262.785 353.745C262.6 356.289 260.066 363.747 258.201 362.387C256.337 361.027 259.386 355.949 259.386 355.949C259.386 355.949 254.154 352.272 252.949 348.822C251.743 345.371 252.434 343.909 252.434 343.909L260.91 342.209Z" fill="white"/>
</mask>
<g mask="url(#mask2_2902_8259)">
<path d="M260.91 342.209C260.91 342.209 262.97 351.201 262.785 353.745C262.6 356.289 260.066 363.747 258.201 362.387C256.337 361.027 259.386 355.949 259.386 355.949C259.386 355.949 254.154 352.272 252.949 348.822C251.743 345.371 252.434 343.909 252.434 343.909L260.91 342.209Z" fill="#D9D9D9"/>
</g>
<path d="M260.91 342.209C260.91 342.209 262.97 351.201 262.785 353.745C262.6 356.289 260.066 363.747 258.201 362.387C256.337 361.027 259.386 355.949 259.386 355.949C259.386 355.949 254.154 352.272 252.949 348.822C251.743 345.371 252.434 343.909 252.434 343.909L260.91 342.209Z" stroke="#263238" stroke-linecap="round" stroke-linejoin="round"/>
<path d="M254.699 300.072L261.92 343.075L251.743 345.371L241.567 312.216L254.699 300.072Z" fill="#263238" stroke="#263238" stroke-linecap="round" stroke-linejoin="round"/>
<path d="M251.743 321.084C251.743 321.084 252.403 372.295 253.381 386.087C254.36 399.879 250.755 418.264 247.479 423.517C244.204 428.77 229.743 461.627 230.402 463.574C231.061 465.521 234.017 471.454 234.017 473.091V479.982C234.017 479.982 250.425 490.818 251.743 490.818C253.062 490.818 254.7 493.444 251.414 495.422C248.128 497.399 211.357 497.389 209.719 496.071C208.639 495.101 207.845 493.854 207.423 492.466C207.423 492.466 202.169 494.433 202.499 489.509C202.829 484.586 208.731 463.574 208.731 463.574C208.731 463.574 205.126 440.584 206.434 425.814C207.742 411.044 212.346 393.307 212.346 389.702C212.346 386.097 207.752 362.119 207.093 358.184C206.434 354.25 196.917 343.074 201.181 334.216C205.445 325.358 208.731 311.227 210.049 310.248C211.367 309.27 229.094 308.6 236.314 310.248C243.534 311.896 251.414 311.886 251.743 321.084Z" fill="#263238" stroke="#263238" stroke-linecap="round" stroke-linejoin="round"/>
<path d="M219.195 217.857C219.195 217.857 213.582 222.884 212.614 224.625C211.645 226.365 199.862 243.165 199.666 255.174C199.471 267.184 208.38 303.502 208.38 303.502L194.99 337.564L198.863 339.109L202.726 334.855V341.241C202.726 341.241 207.175 345.299 218.773 349.162C230.371 353.024 245.265 348.585 245.265 348.585L249.704 320.322V348.204L254.926 344.723L255.348 298.29C255.348 298.29 259.602 273.354 259.602 266.36C259.602 259.366 247.809 237.52 242.587 231.175C237.364 224.831 228.661 219.578 226.107 217.641C223.552 215.705 219.195 217.857 219.195 217.857Z" fill="#263238"/>
<mask id="mask3_2902_8259" style="mask-type:luminance" maskUnits="userSpaceOnUse" x="194" y="216" width="66" height="135">
<path d="M219.195 217.857C219.195 217.857 213.582 222.884 212.614 224.625C211.645 226.365 199.862 243.165 199.666 255.174C199.471 267.184 208.38 303.502 208.38 303.502L194.99 337.564L198.863 339.109L202.726 334.855V341.241C202.726 341.241 207.175 345.299 218.773 349.162C230.371 353.024 245.265 348.585 245.265 348.585L249.704 320.322V348.204L254.926 344.723L255.348 298.29C255.348 298.29 259.602 273.354 259.602 266.36C259.602 259.366 247.809 237.52 242.587 231.175C237.364 224.831 228.661 219.578 226.107 217.641C223.552 215.705 219.195 217.857 219.195 217.857Z" fill="white"/>
</mask>
<g mask="url(#mask3_2902_8259)">
<path opacity="0.17" d="M219.195 217.857C219.195 217.857 213.582 222.884 212.614 224.625C211.645 226.365 199.862 243.165 199.666 255.174C199.471 267.184 208.38 303.502 208.38 303.502L194.99 337.564L198.863 339.109L202.726 334.855V341.241C202.726 341.241 207.175 345.299 218.773 349.162C230.371 353.024 245.265 348.585 245.265 348.585L249.704 320.322V348.204L254.926 344.723L255.348 298.29C255.348 298.29 259.602 273.354 259.602 266.36C259.602 259.366 247.809 237.52 242.587 231.175C237.364 224.831 228.661 219.578 226.107 217.641C223.552 215.705 219.195 217.857 219.195 217.857Z" fill="white"/>
<path d="M202.674 259.027C202.674 259.027 209.698 264.002 214.375 265.753" stroke="#263238" stroke-linecap="round" stroke-linejoin="round"/>
<path d="M204.724 264.3C204.724 264.3 212.624 266.36 216.713 266.36" stroke="#263238" stroke-linecap="round" stroke-linejoin="round"/>
<path d="M216.136 311.083L238.364 313.72L236.901 318.396L216.425 316.058" stroke="#263238" stroke-linecap="round" stroke-linejoin="round"/>
</g>
<path d="M219.195 217.857C219.195 217.857 213.582 222.884 212.614 224.625C211.645 226.365 199.862 243.165 199.666 255.174C199.471 267.184 208.38 303.502 208.38 303.502L194.99 337.564L198.863 339.109L202.726 334.855V341.241C202.726 341.241 207.175 345.299 218.773 349.162C230.371 353.024 245.265 348.585 245.265 348.585L249.704 320.322V348.204L254.926 344.723L255.348 298.29C255.348 298.29 259.602 273.354 259.602 266.36C259.602 259.366 247.809 237.52 242.587 231.175C237.364 224.831 228.661 219.578 226.107 217.641C223.552 215.705 219.195 217.857 219.195 217.857Z" stroke="#263238" stroke-linecap="round" stroke-linejoin="round"/>
<path d="M218.031 218.98L239.496 242.186L252.062 266.164C252.062 266.164 249.354 248.376 247.036 243.504C244.719 238.632 234.274 226.561 233.1 223.852C231.926 221.143 218.031 218.98 218.031 218.98Z" fill="white" stroke="#263238" stroke-linecap="round" stroke-linejoin="round"/>
<path d="M246.119 254.855L252.063 266.185C252.063 266.185 250.219 254.062 248.262 247.109L247.036 243.556C245.391 240.669 243.524 237.914 241.454 235.316L238.085 234.646L239.497 242.227L243.843 245.781L246.119 254.855Z" fill="#263238" stroke="#263238" stroke-linecap="round" stroke-linejoin="round"/>
<path d="M240.393 227.725L241.505 229.012L244.997 233.132L247.057 243.597L238.106 234.667C238.106 234.667 239.28 229.28 240.393 227.725Z" fill="white" stroke="#263238" stroke-linecap="round" stroke-linejoin="round"/>
<path d="M250.518 184.599C250.518 184.599 255.214 188.204 255.801 191.685C256.389 195.167 254.638 199.039 254.833 200.389C255.029 201.738 258.5 204.838 258.315 206.383C258.129 207.928 255.225 208.505 255.225 208.505C255.225 208.505 252.073 219.979 251.3 221.895C250.528 223.811 246.655 223.244 243.761 222.863L238.539 238.313L221.317 218.053L224.026 209.926C224.026 209.926 216.682 201.038 216.095 191.562C215.508 182.086 223.058 175.514 233.883 174.165C244.708 172.816 253.803 178.027 254.957 180.159C256.11 182.292 250.518 184.599 250.518 184.599Z" fill="white"/>
<mask id="mask4_2902_8259" style="mask-type:luminance" maskUnits="userSpaceOnUse" x="216" y="173" width="43" height="66">
<path d="M250.518 184.599C250.518 184.599 255.214 188.204 255.801 191.685C256.389 195.167 254.638 199.039 254.833 200.389C255.029 201.738 258.5 204.838 258.315 206.383C258.129 207.928 255.225 208.505 255.225 208.505C255.225 208.505 252.073 219.979 251.3 221.895C250.528 223.811 246.655 223.244 243.761 222.863L238.539 238.313L221.317 218.053L224.026 209.926C224.026 209.926 216.682 201.038 216.095 191.562C215.508 182.086 223.058 175.514 233.883 174.165C244.708 172.816 253.803 178.027 254.957 180.159C256.11 182.292 250.518 184.599 250.518 184.599Z" fill="white"/>
</mask>
<g mask="url(#mask4_2902_8259)">
<path d="M250.518 184.599C250.518 184.599 255.214 188.204 255.801 191.685C256.389 195.167 254.638 199.039 254.833 200.389C255.029 201.738 258.5 204.838 258.315 206.383C258.129 207.928 255.225 208.505 255.225 208.505C255.225 208.505 252.073 219.979 251.3 221.895C250.528 223.811 246.655 223.244 243.761 222.863L238.539 238.313L221.317 218.053L224.026 209.926C224.026 209.926 216.682 201.038 216.095 191.562C215.508 182.086 223.058 175.514 233.883 174.165C244.708 172.816 253.803 178.027 254.957 180.159C256.11 182.292 250.518 184.599 250.518 184.599Z" fill="#D9D9D9"/>
<path d="M230.453 228.827C233.358 228.24 238.229 227.23 242.617 226.242L243.75 222.884C246.16 223.203 249.25 223.656 250.651 222.678C247.355 221.318 239.198 218.939 237.529 215.88C235.469 212.079 242.679 201.017 242.679 195.486C242.679 189.955 235.768 183.734 235.768 183.734C232.441 180.571 226.374 179.614 220.987 179.614C219.292 181.094 217.964 182.949 217.109 185.032C216.255 187.115 215.897 189.368 216.064 191.613C216.651 201.089 223.995 209.978 223.995 209.978L221.286 218.105L230.453 228.827Z" fill="#B8B8B8"/>
</g>
<path d="M250.518 184.599C250.518 184.599 255.214 188.204 255.801 191.685C256.389 195.167 254.638 199.039 254.833 200.389C255.029 201.738 258.5 204.838 258.315 206.383C258.129 207.928 255.225 208.505 255.225 208.505C255.225 208.505 252.073 219.979 251.3 221.895C250.528 223.811 246.655 223.244 243.761 222.863L238.539 238.313L221.317 218.053L224.026 209.926C224.026 209.926 216.682 201.038 216.095 191.562C215.508 182.086 223.058 175.514 233.883 174.165C244.708 172.816 253.803 178.027 254.957 180.159C256.11 182.292 250.518 184.599 250.518 184.599Z" stroke="#263238" stroke-linecap="round" stroke-linejoin="round"/>
<path d="M250.518 184.599C250.518 184.599 256.121 182.281 254.957 180.159C253.793 178.038 244.708 172.805 233.883 174.165C223.058 175.524 215.518 182.085 216.095 191.561C216.672 201.037 224.026 209.926 224.026 209.926L223.614 211.162C227.621 213.119 231.761 209.926 231.761 209.926C231.005 210.308 230.148 210.438 229.312 210.299C228.477 210.161 227.708 209.759 227.116 209.154C224.798 207.032 224.603 200.265 227.507 199.678C230.412 199.091 232.338 200.265 232.338 202.387C232.338 204.509 232.915 203.159 234.47 202.964C236.025 202.768 234.656 198.133 235.624 197.36C237.189 196.392 238.564 195.146 239.682 193.683C241.423 191.366 236.396 189.44 235.819 187.308C235.243 185.175 250.518 184.599 250.518 184.599Z" fill="#263238" stroke="#263238" stroke-linecap="round" stroke-linejoin="round"/>
<path d="M251.898 199.698L248.313 200.893H251.558" stroke="#263238" stroke-linecap="round" stroke-linejoin="round"/>
<path d="M253.268 196.114C253.268 196.114 251.733 193.9 250.023 194.919C248.313 195.939 248.148 196.629 248.148 196.629" stroke="#263238" stroke-linecap="round" stroke-linejoin="round"/>
<path d="M249.58 211.646C250.628 212.363 251.909 212.657 253.164 212.47" stroke="#263238" stroke-linecap="round" stroke-linejoin="round"/>
<path d="M220.544 214.376L242.195 235.645L240.269 244.73L217.259 219.979L220.544 214.376Z" fill="white" stroke="#263238" stroke-linecap="round" stroke-linejoin="round"/>
<path d="M303.717 295.695C303.717 295.695 296.095 291.163 294.859 291.575C293.623 291.987 281.675 300.639 282.499 302.699C283.323 304.759 289.709 307.437 293.417 308.879C297.125 310.321 304.747 307.231 304.747 307.231L303.717 295.695Z" fill="white" stroke="#263238" stroke-linecap="round" stroke-linejoin="round"/>
<path d="M281.51 294.046C281.51 294.046 288.102 290.338 289.132 290.338C290.162 290.338 296.136 295.694 296.136 295.694L293.664 299.402C293.664 299.402 301.492 303.316 300.668 304.758C299.844 306.2 296.754 308.466 293.458 308.878C290.162 309.29 280.892 303.316 280.892 303.316L281.51 294.046Z" fill="white"/>
<mask id="mask5_2902_8259" style="mask-type:luminance" maskUnits="userSpaceOnUse" x="280" y="290" width="21" height="19">
<path d="M281.51 294.046C281.51 294.046 288.102 290.338 289.132 290.338C290.162 290.338 296.136 295.694 296.136 295.694L293.664 299.402C293.664 299.402 301.492 303.316 300.668 304.758C299.844 306.2 296.754 308.466 293.458 308.878C290.162 309.29 280.892 303.316 280.892 303.316L281.51 294.046Z" fill="white"/>
</mask>
<g mask="url(#mask5_2902_8259)">
<path d="M281.51 294.046C281.51 294.046 288.102 290.338 289.132 290.338C290.162 290.338 296.136 295.694 296.136 295.694L293.664 299.402C293.664 299.402 301.492 303.316 300.668 304.758C299.844 306.2 296.754 308.466 293.458 308.878C290.162 309.29 280.892 303.316 280.892 303.316L281.51 294.046Z" fill="#D9D9D9"/>
</g>
<path d="M281.51 294.046C281.51 294.046 288.102 290.338 289.132 290.338C290.162 290.338 296.136 295.694 296.136 295.694L293.664 299.402C293.664 299.402 301.492 303.316 300.668 304.758C299.844 306.2 296.754 308.466 293.458 308.878C290.162 309.29 280.892 303.316 280.892 303.316L281.51 294.046Z" stroke="#263238" stroke-linecap="round" stroke-linejoin="round"/>
<path d="M276.937 292.398L282.705 293.428L280.851 303.316L275.907 301.668L276.937 292.398Z" fill="white" stroke="#263238" stroke-linecap="round" stroke-linejoin="round"/>
<path d="M209.997 234.925C209.997 234.925 204.435 245.637 203.817 250.993C203.199 256.349 225.859 298.991 227.507 300.433C229.155 301.875 277.349 303.317 277.349 303.317L279.409 292.811L238.209 281.069L224.201 238.015" fill="#263238"/>
<mask id="mask6_2902_8259" style="mask-type:luminance" maskUnits="userSpaceOnUse" x="203" y="234" width="77" height="70">
<path d="M209.997 234.925C209.997 234.925 204.435 245.637 203.817 250.993C203.199 256.349 225.859 298.991 227.507 300.433C229.155 301.875 277.349 303.317 277.349 303.317L279.409 292.811L238.209 281.069L224.201 238.015" fill="white"/>
</mask>
<g mask="url(#mask6_2902_8259)">
<path opacity="0.17" d="M209.997 234.925C209.997 234.925 204.435 245.637 203.817 250.993C203.199 256.349 225.859 298.991 227.507 300.433C229.155 301.875 277.349 303.317 277.349 303.317L279.409 292.811L238.209 281.069L224.201 238.015" fill="white"/>
</g>
<path d="M209.997 234.925C209.997 234.925 204.435 245.637 203.817 250.993C203.199 256.349 225.859 298.991 227.507 300.433C229.155 301.875 277.349 303.317 277.349 303.317L279.409 292.811L238.209 281.069L224.201 238.015" stroke="#263238" stroke-linecap="round" stroke-linejoin="round"/>
<path d="M296.507 292.604C296.507 292.604 293.623 290.132 292.593 293.016C291.563 295.9 285.177 302.904 288.061 303.11C290.945 303.316 296.301 297.342 296.301 297.342" fill="white"/>
<path d="M296.507 292.604C296.507 292.604 293.623 290.132 292.593 293.016C291.563 295.9 285.177 302.904 288.061 303.11C290.945 303.316 296.301 297.342 296.301 297.342" stroke="#263238" stroke-linecap="round" stroke-linejoin="round"/>
<path d="M283.735 304.141C283.735 304.141 282.993 307.612 284.765 309.085C286.011 310.115 286.712 307.231 286.413 305.171C286.114 303.111 284.353 302.493 283.735 304.141Z" fill="white" stroke="#263238" stroke-linecap="round" stroke-linejoin="round"/>
<path d="M286.66 304.965C286.66 304.965 285.919 308.436 287.69 309.909C288.937 310.939 289.637 308.055 289.338 305.995C289.04 303.935 287.237 303.317 286.66 304.965Z" fill="white" stroke="#263238" stroke-linecap="round" stroke-linejoin="round"/>
<path d="M289.503 306.2C289.503 306.2 288.762 309.672 290.533 311.144C291.779 312.174 292.48 309.29 292.181 307.23C291.882 305.17 290.121 304.552 289.503 306.2Z" fill="white" stroke="#263238" stroke-linecap="round" stroke-linejoin="round"/>
<path d="M292.356 307.879C292.356 307.879 291.676 310.217 293.304 311.206C294.447 311.907 295.096 309.96 294.818 308.569C294.54 307.179 292.923 306.767 292.356 307.879Z" fill="white" stroke="#263238" stroke-linecap="round" stroke-linejoin="round"/>
<path d="M303.717 295.695L304.335 308.879L308.867 307.643L307.837 295.489L303.717 295.695Z" stroke="#263238" stroke-linecap="round" stroke-linejoin="round"/>
<path d="M306.807 294.458L308.867 310.114L343.269 306.406L344.093 286.012L306.807 294.458Z" fill="#263238" stroke="#263238" stroke-linecap="round" stroke-linejoin="round"/>
<path d="M246.49 356.866C246.49 356.866 240.249 398.561 240.249 412.682C240.249 426.803 230.731 450.442 230.402 463.574" stroke="white" stroke-linecap="round" stroke-linejoin="round"/>
<path d="M209.719 496.05C211.357 497.368 248.128 497.368 251.414 495.401C254.699 493.434 253.051 490.797 251.743 490.797C250.435 490.797 234.017 479.961 234.017 479.961C234.017 479.961 225.149 486.862 220.225 488.5C215.302 490.138 207.422 490.467 207.422 490.467V492.445C207.845 493.834 208.639 495.081 209.719 496.05Z" fill="white" stroke="#263238" stroke-linecap="round" stroke-linejoin="round"/>
<path d="M251.414 495.422C253.144 494.392 253.474 493.156 253.268 492.239C248.439 493.194 243.533 493.707 238.611 493.774C228.692 494.042 213.088 493.434 207.711 493.207C208.156 494.314 208.863 495.297 209.771 496.071C211.357 497.389 248.128 497.389 251.414 495.422Z" fill="white" stroke="#263238" stroke-linecap="round" stroke-linejoin="round"/>
<path d="M206.465 492.723L207.423 490.488L208.731 463.574C208.731 463.574 202.818 484.586 202.499 489.51C202.252 493.094 204.971 493.022 206.465 492.723Z" fill="#263238" stroke="#263238" stroke-linecap="round" stroke-linejoin="round"/>
<path d="M348.264 348.657C348.264 348.657 344.989 397.582 348.264 417.276C351.54 436.969 359.79 471.124 361.067 475.388C361.872 477.934 362.221 480.601 362.097 483.268L380.483 485.894C380.483 485.894 374.9 421.22 374.9 413.671C374.9 406.121 381.142 349.646 381.142 349.646L348.264 348.657Z" fill="#263238" stroke="#263238" stroke-linecap="round" stroke-linejoin="round"/>
<path d="M362.056 483.268C362.056 483.268 342.033 491.806 339.726 493.444C337.419 495.082 344.659 497.389 353.517 497.389C362.375 497.389 371.254 496.359 371.254 496.359L374.859 494.392L375.189 496.689H384.706C384.706 496.689 386.354 488.809 385.736 486.842C385.268 485.496 384.721 484.179 384.098 482.897L362.056 483.268Z" fill="#263238" stroke="#263238" stroke-linecap="round" stroke-linejoin="round"/>
<path d="M345.309 344.722C345.309 344.722 346.957 391.67 350.891 408.418C354.826 425.165 361.727 465.871 361.727 470.135C361.752 472.573 361.423 475.002 360.748 477.345L359.43 481.63C359.655 482.653 360.001 483.645 360.46 484.586C360.46 484.586 368.988 486.553 374.571 486.553C378.06 486.522 381.528 485.999 384.871 484.998C384.871 484.998 385.046 474.698 385.376 469.806C385.705 464.913 384.067 433.364 384.067 425.814C384.067 418.264 382.09 413.99 382.09 404.802C382.09 395.615 380.452 370.987 380.782 367.043C381.111 363.098 385.705 358.803 386.694 353.91C387.683 349.018 388.661 343.734 388.661 343.734L345.309 344.722Z" fill="#263238" stroke="#263238" stroke-linecap="round" stroke-linejoin="round"/>
<path d="M349.243 394.08C349.243 394.08 358.42 457.744 360.717 461.761C362.088 464.325 362.455 467.306 361.747 470.125" stroke="white" stroke-linecap="round" stroke-linejoin="round"/>
<path d="M337.429 307.622C337.429 307.622 336.203 320.178 336.203 329.777C336.203 335.133 336.152 342.137 336.1 347.205C336.086 349.29 336.797 351.316 338.113 352.934C339.428 354.552 341.266 355.662 343.31 356.073C345.467 356.547 347.664 356.813 349.871 356.866L342.157 309.095C342.157 309.095 338.665 303.193 337.429 307.622Z" fill="#263238" stroke="#263238" stroke-linecap="round" stroke-linejoin="round"/>
<path d="M373.881 222.07C375.761 223.06 377.478 224.335 378.969 225.85C380.283 227.578 381.448 229.415 382.45 231.34C382.45 231.34 396.407 247.429 396.736 249.066C397.066 250.704 388.857 302.42 388.857 302.42L398.209 351.335C398.209 351.335 383.109 359.709 371.615 360.203C363.529 360.554 351.365 357.968 344.835 356.403C343.535 356.095 342.366 355.386 341.491 354.377C340.617 353.367 340.082 352.109 339.963 350.779C339.324 343.898 338.129 330.179 337.429 317.191C336.625 302.101 338.912 272.21 340.519 261.704C342.126 251.198 347.255 236.923 351.19 231.01C355.124 225.098 365.97 218.98 373.881 222.07Z" fill="#263238" stroke="#263238" stroke-linecap="round" stroke-linejoin="round"/>
<path d="M382.45 231.34C381.457 229.441 380.306 227.629 379.01 225.922C377.519 224.407 375.803 223.132 373.922 222.142C367.371 219.557 358.801 223.306 353.826 228.044C353.167 229.507 347.976 241.352 345.514 251.034C342.888 261.334 343.217 274.353 343.217 274.353C343.217 274.353 351.921 263.188 363.735 250.055C369.634 243.491 376.077 237.437 382.996 231.958L382.45 231.34Z" fill="#263238"/>
<mask id="mask7_2902_8259" style="mask-type:luminance" maskUnits="userSpaceOnUse" x="343" y="221" width="40" height="54">
<path d="M382.45 231.34C381.457 229.441 380.306 227.629 379.01 225.922C377.519 224.407 375.803 223.132 373.922 222.142C367.371 219.557 358.801 223.306 353.826 228.044C353.167 229.507 347.976 241.352 345.514 251.034C342.888 261.334 343.217 274.353 343.217 274.353C343.217 274.353 351.921 263.188 363.735 250.055C369.634 243.491 376.077 237.437 382.996 231.958L382.45 231.34Z" fill="white"/>
</mask>
<g mask="url(#mask7_2902_8259)">
<path opacity="0.17" d="M382.45 231.34C381.457 229.441 380.306 227.629 379.01 225.922C377.519 224.407 375.803 223.132 373.922 222.142C367.371 219.557 358.801 223.306 353.826 228.044C353.167 229.507 347.976 241.352 345.514 251.034C342.888 261.334 343.217 274.353 343.217 274.353C343.217 274.353 351.921 263.188 363.735 250.055C369.634 243.491 376.077 237.437 382.996 231.958L382.45 231.34Z" fill="white"/>
</g>
<path d="M382.45 231.34C381.457 229.441 380.306 227.629 379.01 225.922C377.519 224.407 375.803 223.132 373.922 222.142C367.371 219.557 358.801 223.306 353.826 228.044C353.167 229.507 347.976 241.352 345.514 251.034C342.888 261.334 343.217 274.353 343.217 274.353C343.217 274.353 351.921 263.188 363.735 250.055C369.634 243.491 376.077 237.437 382.996 231.958L382.45 231.34Z" stroke="#263238" stroke-linecap="round" stroke-linejoin="round"/>
<path d="M352.704 235.594C352.704 235.594 348.265 249.509 346.915 253.444C345.566 257.379 345.432 263.548 345.432 263.548C345.432 263.548 362.056 238.674 366.115 234.492C370.173 230.31 375.477 223.78 375.477 223.78L371.903 222.75L352.704 235.594Z" fill="white" stroke="#263238" stroke-linecap="round" stroke-linejoin="round"/>
<path d="M353.929 230.547C353.929 230.547 351.962 236.335 351.962 236.727C351.962 237.118 351.468 242.639 351.468 242.639L358.482 233.153L353.929 230.547Z" fill="white" stroke="#263238" stroke-linecap="round" stroke-linejoin="round"/>
<path d="M371.779 218.98L352.58 234.615L355.536 243.226L375.23 223.162L371.779 218.98Z" fill="white" stroke="#263238" stroke-linecap="round" stroke-linejoin="round"/>
<path d="M369.297 342.992C369.297 342.992 366.568 349.78 365.754 352.005C364.94 354.229 365.352 362.943 365.455 363.86C365.558 364.777 367.176 364.972 367.176 364.972C367.176 364.972 367.68 371.956 368.288 372.182C368.92 372.34 369.564 372.44 370.214 372.481C370.214 372.481 371.326 376.035 372.748 375.726C373.175 375.595 373.555 375.344 373.842 375.002C374.129 374.66 374.311 374.243 374.365 373.799C374.832 373.843 375.302 373.764 375.729 373.568C376.156 373.373 376.524 373.069 376.796 372.687C377.374 371.836 377.852 370.92 378.217 369.958C378.217 369.958 380.648 368.742 380.844 367.826C381.039 366.909 381.657 363.706 381.657 363.706C381.657 363.706 382.368 363.499 382.368 361.378C382.368 359.256 380.751 346.185 380.751 346.185L369.297 342.992Z" fill="white" stroke="#263238" stroke-linecap="round" stroke-linejoin="round"/>
<path d="M367.175 364.972L367.474 358.813" stroke="#263238" stroke-linecap="round" stroke-linejoin="round"/>
<path d="M370.214 372.46L370.873 363.345" stroke="#263238" stroke-linecap="round" stroke-linejoin="round"/>
<path d="M374.365 373.779L374.839 363.911" stroke="#263238" stroke-linecap="round" stroke-linejoin="round"/>
<path d="M378.217 369.937L378.804 363.067" stroke="#263238" stroke-linecap="round" stroke-linejoin="round"/>
<path d="M389.31 244.586L396.695 249.015L394.233 300.072L381.101 348.328L368.627 345.052L372.562 306.942L370.595 268.533C370.595 268.533 373.386 259.583 379.782 254.659" fill="#263238"/>
<path d="M389.31 244.586L396.695 249.015L394.233 300.072L381.101 348.328L368.627 345.052L372.562 306.942L370.595 268.533C370.595 268.533 373.386 259.583 379.782 254.659" stroke="#263238" stroke-linecap="round" stroke-linejoin="round"/>
<path d="M374.117 253.207C374.117 253.207 370.76 261.735 370.595 268.554" stroke="white" stroke-linecap="round" stroke-linejoin="round"/>
<path d="M376.919 257.265C376.919 257.265 371.172 266.648 371.172 270.892C371.172 275.136 372.686 310.547 372.686 310.547L368.751 341.117" stroke="white" stroke-linecap="round" stroke-linejoin="round"/>
<path d="M341.25 187.699C341.25 187.699 337.305 198.905 337.676 200.512C338.047 202.119 338.418 204.57 338.418 204.57C338.418 204.57 332.237 212.203 333 213.068C333.762 213.933 337.181 214.912 337.181 214.912C337.181 214.912 340.014 226.736 341.126 227.838C342.239 228.94 349.129 226.489 349.129 226.489L356.515 235.841L371.656 221.318L369.812 213.686C369.812 213.686 377.815 199.647 377.691 192.993C377.568 186.339 363.91 177.481 354.176 177.605C344.443 177.729 335.338 181.303 337.181 183.888C338.267 185.419 339.651 186.715 341.25 187.699Z" fill="white"/>
<mask id="mask8_2902_8259" style="mask-type:luminance" maskUnits="userSpaceOnUse" x="332" y="177" width="46" height="59">
<path d="M341.25 187.699C341.25 187.699 337.305 198.905 337.676 200.512C338.047 202.119 338.418 204.57 338.418 204.57C338.418 204.57 332.237 212.203 333 213.068C333.762 213.933 337.181 214.912 337.181 214.912C337.181 214.912 340.014 226.736 341.126 227.838C342.239 228.94 349.129 226.489 349.129 226.489L356.515 235.841L371.656 221.318L369.812 213.686C369.812 213.686 377.815 199.647 377.691 192.993C377.568 186.339 363.91 177.481 354.176 177.605C344.443 177.729 335.338 181.303 337.181 183.888C338.267 185.419 339.651 186.715 341.25 187.699Z" fill="white"/>
</mask>
<g mask="url(#mask8_2902_8259)">
<path d="M372.912 185.299C371.036 185.573 369.204 186.092 367.463 186.844L352.951 192.725C352.951 192.725 346.039 198.596 346.771 203.087C347.502 207.578 353.682 213.799 352.302 218.29C350.921 222.781 342.28 227.622 342.28 227.622L344.989 227.725C347.049 227.241 349.17 226.489 349.17 226.489L350.303 227.92L364.291 228.425L371.697 221.318L369.853 213.686C369.853 213.686 377.856 199.647 377.732 192.993C377.65 190.542 375.755 187.792 372.912 185.299Z" fill="#B8B8B8"/>
</g>
<path d="M341.25 187.699C341.25 187.699 337.305 198.905 337.676 200.512C338.047 202.119 338.418 204.57 338.418 204.57C338.418 204.57 332.237 212.203 333 213.068C333.762 213.933 337.181 214.912 337.181 214.912C337.181 214.912 340.014 226.736 341.126 227.838C342.239 228.94 349.129 226.489 349.129 226.489L356.515 235.841L371.656 221.318L369.812 213.686C369.812 213.686 377.815 199.647 377.691 192.993C377.568 186.339 363.91 177.481 354.176 177.605C344.443 177.729 335.338 181.303 337.181 183.888C338.267 185.419 339.651 186.715 341.25 187.699Z" stroke="#263238" stroke-linecap="round" stroke-linejoin="round"/>
<path d="M369.812 213.686C369.812 213.686 377.815 199.647 377.692 192.993C377.568 186.339 363.91 177.481 354.177 177.605C344.443 177.729 335.338 181.303 337.182 183.888C338.268 185.419 339.651 186.715 341.25 187.699C341.25 187.699 347.286 190.532 347.286 191.273C347.286 192.015 343.712 195.949 344.948 197.68C346.184 199.41 352.086 201.491 352.086 201.491C352.086 201.491 351.056 204.818 352.58 205.188C354.105 205.559 354.795 204.076 355.773 203.128C356.752 202.181 360.213 200.78 360.707 204.972C360.998 207.979 360.209 210.991 358.482 213.47C357.998 213.83 364.765 218.393 367.752 217.033C368.525 216.683 369.431 216.22 370.337 215.736L369.812 213.686Z" fill="#263238" stroke="#263238" stroke-linecap="round" stroke-linejoin="round"/>
<path d="M340.262 207.65C340.74 207.65 341.127 206.161 341.127 204.323C341.127 202.486 340.74 200.996 340.262 200.996C339.784 200.996 339.396 202.486 339.396 204.323C339.396 206.161 339.784 207.65 340.262 207.65Z" stroke="#263238" stroke-linecap="round" stroke-linejoin="round"/>
<path d="M341.25 202.974L355.773 203.097" stroke="#263238" stroke-linecap="round" stroke-linejoin="round"/>
<path d="M338.861 198.967C338.861 198.967 340.241 196.763 341.621 199.513" stroke="#263238" stroke-linecap="round" stroke-linejoin="round"/>
<path d="M338.583 216.92C340.076 216.311 341.466 215.474 342.703 214.438" stroke="#263238" stroke-linecap="round" stroke-linejoin="round"/>
<path d="M112.868 497.389H518.245" stroke="#263238" stroke-width="2" stroke-miterlimit="10"/>
</svg>
