<svg width="630" height="612" viewBox="0 0 630 612" fill="none" xmlns="http://www.w3.org/2000/svg">
<path d="M537.655 525.818C537.655 525.971 437.281 526.084 313.484 526.084C189.687 526.084 89.293 525.971 89.293 525.818C89.293 525.664 189.646 525.551 313.484 525.551C437.322 525.551 537.655 525.674 537.655 525.818Z" fill="#263238"/>
<path d="M238.166 116.054L193.278 97.3091L146.872 109.98C140.911 112.237 135.73 113.479 135.401 118.66L133.791 144.464C132.592 162.673 136.671 180.841 145.538 196.79C154.565 213.208 168.369 226.494 185.121 234.885C204.051 230.289 218.877 215.751 228.213 203.079C239 188.383 245.31 170.881 246.384 152.682L247.81 129.505C248.272 122.107 244.414 118.239 238.166 116.054Z" fill="#455A64"/>
<g opacity="0.3">
<path d="M185.634 225.015L185.47 224.933C171.098 217.526 159.344 205.887 151.797 191.588C144.262 177.556 140.821 161.69 141.865 145.798L143.271 123.339C143.548 119.009 147.303 117.593 151.653 115.951C152.197 115.746 152.761 115.541 153.325 115.315L192.847 104.152L193.021 104.224L230.983 120.466C237.068 122.641 239.827 126.622 239.458 132.665L238.186 152.857C237.24 168.73 231.85 184.018 222.632 196.975C216.537 205.48 203.661 220.419 185.839 224.892L185.634 225.015ZM192.816 105.281L153.654 116.331L152.012 116.957C147.826 118.527 144.522 119.768 144.297 123.441L142.891 145.9C141.858 161.6 145.256 177.275 152.7 191.137C160.118 205.195 171.656 216.651 185.768 223.969C203.21 219.516 215.799 204.854 221.79 196.492C230.913 183.687 236.246 168.572 237.18 152.877L238.442 132.685C238.791 127.094 236.308 123.544 230.635 121.512L192.816 105.281Z" fill="white"/>
</g>
<path d="M201.024 149.81L201.363 146.639C201.876 140.904 197.31 135.784 191.164 135.24C185.019 134.697 179.612 138.924 179.068 144.649L178.729 147.871C177.281 147.9 175.893 148.452 174.82 149.425C173.747 150.398 173.062 151.726 172.891 153.165L171.188 171.879C171.145 172.673 171.259 173.468 171.524 174.219C171.789 174.969 172.198 175.66 172.73 176.251C173.262 176.843 173.905 177.324 174.623 177.667C175.341 178.01 176.119 178.208 176.913 178.25L197.7 180.097C199.296 180.294 200.905 179.85 202.173 178.861C203.441 177.872 204.264 176.419 204.461 174.824L206.165 156.099C206.252 154.597 205.772 153.118 204.82 151.953C203.868 150.788 202.513 150.023 201.024 149.81ZM191.103 168.945L185.665 168.462L186.845 164.871C186.401 164.566 186.045 164.149 185.813 163.663C185.581 163.177 185.48 162.638 185.521 162.101C185.653 161.266 186.096 160.512 186.762 159.991C187.428 159.471 188.267 159.222 189.109 159.297C189.951 159.371 190.733 159.762 191.298 160.392C191.862 161.021 192.167 161.841 192.149 162.686C192.095 163.204 191.911 163.699 191.613 164.127C191.315 164.554 190.914 164.898 190.446 165.128C190.703 166.585 191.103 168.945 191.103 168.945ZM198.623 149.574L181.181 148.014L181.52 144.875C181.805 142.641 182.961 140.611 184.737 139.227C186.513 137.843 188.765 137.217 191 137.487C195.812 137.908 199.403 141.92 198.993 146.414L198.623 149.574Z" fill="white"/>
<g opacity="0.1">
<path d="M152.279 171.13C149.201 171.304 146.8 129.064 150.904 123.862C155.008 118.66 192.621 110.524 192.621 110.524C192.621 110.524 190.805 149.368 189.81 151.872C188.815 154.375 152.279 171.13 152.279 171.13Z" fill="white"/>
</g>
<g opacity="0.1">
<path d="M154.957 177.511L188.61 162.357C188.61 162.357 185.819 216.653 184.68 215.709C171.219 206.19 160.876 192.899 154.957 177.511Z" fill="white"/>
</g>
<path d="M151.13 170.042C150.956 169.454 150.822 168.854 150.73 168.247C150.494 167.077 150.217 165.384 149.919 163.281C148.408 152.305 148.318 141.181 149.652 130.182C149.919 128.069 150.176 126.376 150.391 125.206C150.465 124.594 150.592 123.99 150.771 123.4C150.789 123.561 150.789 123.722 150.771 123.883L150.617 125.237C150.463 126.407 150.268 128.11 150.053 130.223C149.501 135.708 149.241 141.219 149.273 146.732C149.326 152.245 149.669 157.752 150.299 163.23C150.545 165.333 150.771 167.036 150.945 168.206C151.007 168.75 151.068 169.232 151.12 169.56C151.148 169.719 151.151 169.882 151.13 170.042Z" fill="white"/>
<path d="M536.68 258.175L414.443 287.006C413.868 287.142 413.272 287.163 412.689 287.068C412.107 286.973 411.548 286.765 411.046 286.454C410.544 286.143 410.108 285.737 409.763 285.258C409.418 284.778 409.171 284.236 409.036 283.661L369.083 114.002C368.812 112.841 369.012 111.621 369.639 110.607C370.266 109.594 371.269 108.87 372.428 108.595L494.666 79.8053C495.24 79.6696 495.836 79.6485 496.419 79.7432C497.002 79.8379 497.56 80.0466 498.062 80.3572C498.564 80.6678 499 81.0743 499.345 81.5536C499.69 82.0328 499.937 82.5753 500.073 83.15L540.025 252.768C540.296 253.929 540.097 255.149 539.47 256.163C538.843 257.176 537.84 257.9 536.68 258.175Z" fill="#EBEBEB"/>
<path d="M528.76 256.226L406.532 284.954C405.957 285.091 405.361 285.113 404.778 285.019C404.195 284.925 403.636 284.717 403.133 284.406C402.631 284.095 402.195 283.688 401.85 283.208C401.505 282.728 401.259 282.185 401.125 281.609L361.173 112.022C361.037 111.447 361.016 110.851 361.111 110.268C361.205 109.686 361.414 109.127 361.725 108.625C362.035 108.123 362.442 107.687 362.921 107.342C363.4 106.997 363.943 106.75 364.517 106.615L486.755 77.8251C487.329 77.6895 487.924 77.6686 488.506 77.7634C489.088 77.8582 489.646 78.067 490.148 78.3777C490.649 78.6884 491.084 79.0949 491.428 79.5741C491.772 80.0532 492.018 80.5955 492.152 81.1699L532.104 250.788C532.246 251.365 532.272 251.964 532.18 252.551C532.088 253.138 531.88 253.701 531.569 254.207C531.258 254.712 530.849 255.152 530.367 255.498C529.885 255.845 529.338 256.092 528.76 256.226Z" fill="white"/>
<path d="M528.76 256.226C529.283 256.089 529.78 255.864 530.227 255.559C530.773 255.185 531.228 254.695 531.561 254.123C532.029 253.331 532.237 252.412 532.156 251.496C531.294 247.392 529.775 241.431 527.97 233.705C524.307 218.233 519.002 195.867 512.456 168.226L501.776 122.979C499.861 114.854 497.877 106.454 495.825 97.7809C494.806 93.4512 493.78 89.0599 492.747 84.6071C492.111 82.4525 492.152 79.8259 490.131 78.6358C489.194 78.0351 488.061 77.8217 486.971 78.0407L483.554 78.841L364.589 106.871C363.653 107.091 362.819 107.623 362.226 108.38C361.632 109.138 361.315 110.075 361.327 111.037C361.368 111.69 361.482 112.337 361.665 112.966C362.288 115.585 362.903 118.198 363.512 120.804L367.175 136.328C369.589 146.588 371.983 156.704 374.357 166.677L387.849 224.051C392.148 242.334 396.231 259.704 400.058 275.966C400.54 278.018 400.992 280.07 401.495 281.989C401.806 282.916 402.426 283.707 403.252 284.23C404.078 284.753 405.059 284.976 406.029 284.862C409.908 284.02 413.786 283.056 417.551 282.194L439.262 277.064L504.772 261.674L522.583 257.57L527.221 256.544L528.801 256.195C528.801 256.195 528.277 256.339 527.231 256.595L522.614 257.714L504.813 261.951L439.303 277.464L417.603 282.594C413.817 283.466 410.021 284.421 406.029 285.293C404.961 285.409 403.884 285.159 402.976 284.583C402.068 284.007 401.383 283.139 401.033 282.122C400.51 280.07 400.079 278.111 399.586 276.069C395.749 259.807 391.645 242.437 387.336 224.164C383.027 205.891 378.492 186.694 373.803 166.79C371.464 156.851 369.07 146.738 366.621 136.451C365.41 131.314 364.193 126.14 362.968 120.927L361.121 113.089C360.92 112.422 360.799 111.733 360.762 111.037C360.756 110.328 360.911 109.626 361.214 108.985C361.52 108.335 361.969 107.763 362.527 107.31C363.084 106.857 363.737 106.535 364.435 106.369L483.41 78.3587L486.837 77.5585C488.052 77.3086 489.317 77.5482 490.356 78.2254C491.394 78.8968 492.13 79.9454 492.408 81.1495C492.675 82.2678 492.932 83.3861 493.198 84.5045C494.245 88.9573 495.271 93.3486 496.276 97.6783C498.328 106.338 500.302 114.737 502.196 122.877C506.013 139.139 509.573 154.283 512.816 168.113C519.29 195.764 524.533 218.141 528.206 233.623C529.981 241.37 531.458 247.351 532.31 251.455C532.388 252.391 532.169 253.329 531.684 254.133C531.338 254.708 530.868 255.199 530.309 255.569C529.969 255.797 529.6 255.976 529.211 256.103L528.76 256.226Z" fill="#263238"/>
<path d="M420.239 125.514C419.81 125.697 419.363 125.838 418.906 125.934L415.233 126.889C412.155 127.668 407.804 128.715 403.044 129.833C398.283 130.951 393.943 131.947 390.814 132.634L387.089 133.424C386.64 133.546 386.179 133.618 385.715 133.64C386.147 133.462 386.593 133.322 387.048 133.219L390.721 132.265C393.799 131.485 398.15 130.438 402.921 129.32C407.692 128.202 412.011 127.207 415.14 126.519L418.865 125.729C419.314 125.607 419.775 125.535 420.239 125.514Z" fill="#263238"/>
<path d="M484.724 125.985C484.724 126.129 463.404 131.28 437.025 137.487C410.647 143.694 389.244 148.619 389.203 148.496C389.162 148.373 410.523 143.202 436.902 136.994C463.28 130.787 484.683 125.842 484.724 125.985Z" fill="#263238"/>
<path d="M488.407 141.642C488.407 141.786 467.087 146.936 440.719 153.144C414.35 159.351 392.928 164.286 392.897 164.142C392.866 163.999 414.207 158.838 440.595 152.631C466.984 146.423 488.376 141.499 488.407 141.642Z" fill="#263238"/>
<path d="M491.906 156.478C491.906 156.622 470.585 161.772 444.207 167.98C417.828 174.187 396.426 179.112 396.385 178.968C396.344 178.824 417.705 173.674 444.084 167.467C470.462 161.259 491.875 156.335 491.906 156.478Z" fill="#263238"/>
<path d="M495.589 172.094C495.589 172.238 474.269 177.389 447.9 183.606C421.532 189.824 400.109 194.779 400.079 194.666C400.048 194.553 421.399 189.372 447.777 183.155C474.156 176.937 495.558 171.992 495.589 172.094Z" fill="#263238"/>
<path d="M499.088 186.971C499.088 187.115 477.768 192.265 451.389 198.483C425.011 204.701 403.608 209.615 403.567 209.471C403.526 209.328 424.887 204.167 451.266 197.96C477.644 191.752 499.057 186.828 499.088 186.971Z" fill="#263238"/>
<path d="M502.771 202.628C502.771 202.772 481.451 207.922 455.083 214.14C428.714 220.357 407.292 225.272 407.261 225.128C407.23 224.985 428.581 219.834 454.96 213.617C481.338 207.399 502.74 202.484 502.771 202.628Z" fill="#263238"/>
<path d="M506.27 217.464C506.27 217.608 484.949 222.758 458.571 228.976C432.192 235.193 410.79 240.108 410.749 239.964C410.708 239.821 432.069 234.67 458.448 228.452C484.826 222.235 506.239 217.32 506.27 217.464Z" fill="#263238"/>
<path d="M509.666 231.889C509.666 232.033 488.345 237.183 461.967 243.391C435.588 249.598 414.186 254.523 414.145 254.379C414.104 254.236 435.465 249.044 461.844 242.888C488.222 236.732 509.635 231.746 509.666 231.889Z" fill="#263238"/>
<path d="M466.071 501.276C466.071 501.276 462.419 476.2 462.726 461.611C463.034 447.021 462.726 430.615 462.726 430.615H464.409C464.409 430.615 463.27 459.569 464.512 477.031C465.753 494.494 469.006 501.276 469.006 501.276H466.092" fill="#263238"/>
<path d="M476.926 402.4C476.67 401.507 476.134 400.72 475.398 400.153C474.827 399.882 474.203 399.742 473.571 399.742C472.939 399.742 472.316 399.882 471.745 400.153C466.666 401.949 462.162 411.439 460.11 416.395L466.851 439.11C479.019 427.855 481.133 413.04 476.926 402.4Z" fill="#455A64"/>
<path d="M475.008 401.077C474.982 401.179 474.948 401.278 474.905 401.374C474.823 401.59 474.71 401.867 474.577 402.195C474.279 402.913 473.869 403.95 473.376 405.273C472.35 407.848 471.119 411.429 469.98 415.533C468.841 419.637 468.082 423.341 467.6 426.06C467.364 427.425 467.179 428.533 467.066 429.292L466.923 430.174C466.916 430.28 466.892 430.384 466.851 430.482C466.839 430.376 466.839 430.27 466.851 430.164C466.851 429.938 466.902 429.641 466.943 429.282C467.025 428.512 467.169 427.404 467.384 426.029C468.529 418.895 470.47 411.913 473.171 405.212C473.684 403.929 474.135 402.903 474.454 402.195C474.607 401.867 474.741 401.6 474.833 401.385C474.925 401.169 474.997 401.067 475.008 401.077Z" fill="#263238"/>
<path d="M463.855 444.59C460.785 442.847 458.217 440.343 456.398 437.318C454.579 434.293 453.571 430.85 453.472 427.322C453.226 422.274 454.775 417.329 456.55 412.599C456.664 412.187 456.913 411.825 457.258 411.573C457.544 411.465 457.853 411.433 458.155 411.48C458.457 411.527 458.741 411.651 458.982 411.84C463.578 414.456 466.358 419.442 467.836 424.511C468.891 427.878 469.241 431.427 468.862 434.935C468.278 438.621 466.522 442.02 463.855 444.631" fill="#455A64"/>
<path d="M463.855 444.589C463.846 444.487 463.846 444.384 463.855 444.281V443.409C463.855 442.66 463.855 441.563 463.763 440.208C463.583 436.689 463.193 433.184 462.593 429.712C461.885 425.608 461.033 422.007 460.408 419.37L459.669 416.292L459.474 415.441C459.445 415.344 459.428 415.244 459.423 415.143C459.467 415.235 459.502 415.331 459.525 415.43L459.771 416.261C459.977 416.99 460.264 418.047 460.603 419.339C461.28 421.966 462.162 425.608 462.86 429.692C463.472 433.171 463.839 436.688 463.958 440.218C463.958 441.583 463.958 442.681 463.958 443.43C463.958 443.789 463.958 444.076 463.958 444.302C463.936 444.402 463.901 444.498 463.855 444.589Z" fill="#263238"/>
<g opacity="0.3">
<path d="M463.855 444.59C460.785 442.847 458.217 440.343 456.398 437.318C454.579 434.293 453.571 430.85 453.472 427.322C453.226 422.274 454.775 417.329 456.55 412.599C456.664 412.187 456.913 411.825 457.258 411.573C457.544 411.465 457.853 411.433 458.155 411.48C458.457 411.527 458.741 411.651 458.982 411.84C463.578 414.456 466.358 419.442 467.836 424.511C468.891 427.878 469.241 431.427 468.862 434.935C468.278 438.621 466.522 442.02 463.855 444.631" fill="black"/>
</g>
<path d="M470.986 482.972C477.203 484.347 482.333 488.728 488.325 490.862C492.296 492.278 496.79 492.77 499.96 495.551C499.201 493.632 497.395 492.35 495.64 491.252C490.699 488.169 485.427 485.654 479.922 483.752C477.101 482.777 474.043 481.966 471.16 482.726" fill="#455A64"/>
<path d="M461.998 488.502C454.21 488.369 446.002 481.741 438.256 481.32C446.362 478.704 457.986 480.848 461.998 488.502Z" fill="#455A64"/>
<path d="M465.035 469.809C469.052 468.494 473.333 468.205 477.491 468.967C481.628 469.731 485.694 470.836 489.649 472.271C489.249 469.562 487.063 467.531 485.001 465.735C483.499 464.332 481.867 463.075 480.127 461.98C478.37 460.888 476.338 460.315 474.269 460.328C473.028 460.412 471.816 460.743 470.706 461.304C469.596 461.864 468.609 462.642 467.805 463.591C466.235 465.31 465.263 467.491 465.035 469.809Z" fill="#455A64"/>
<path d="M449.05 461.21C444.145 457.024 436.738 457.435 430.274 457.578C440.631 462.515 450.399 468.603 459.392 475.728C459.659 471.173 455.247 466.556 449.05 461.21Z" fill="#455A64"/>
<g opacity="0.3">
<path d="M449.05 461.21C444.145 457.024 436.738 457.435 430.274 457.578C440.631 462.515 450.399 468.603 459.392 475.728C459.659 471.173 455.247 466.556 449.05 461.21Z" fill="black"/>
</g>
<path d="M467.241 455.434C469.635 453.777 472.157 452.313 474.782 451.053C477.367 449.884 479.768 447.975 482.261 446.662C485.493 444.907 488.294 442.476 491.259 440.311C494.224 438.146 497.487 436.207 501.119 435.602C498.13 435.072 495.059 435.251 492.152 436.125C489.257 437 486.434 438.098 483.708 439.408C479.881 441.132 475.992 442.896 472.863 445.697C469.734 448.498 466.912 451.248 467.241 455.434Z" fill="#455A64"/>
<path d="M488.181 488.502L487.935 488.389L487.258 488.041C486.673 487.723 485.832 487.261 484.775 486.727C484.241 486.45 483.667 486.163 483.031 485.865C482.395 485.568 481.728 485.25 480.979 484.942C479.432 484.251 477.829 483.691 476.187 483.27C474.557 482.817 472.841 482.775 471.191 483.147C470.468 483.3 469.758 483.509 469.067 483.772C467.608 484.376 466.293 485.282 465.209 486.43C464.758 486.912 464.542 487.209 464.522 487.189C464.56 487.108 464.608 487.032 464.665 486.963C464.811 486.753 464.969 486.551 465.137 486.358C465.748 485.637 466.46 485.008 467.251 484.491C467.798 484.128 468.378 483.818 468.985 483.567C469.68 483.284 470.397 483.057 471.129 482.89C472.822 482.497 474.586 482.535 476.259 483.003C477.918 483.425 479.535 483.995 481.092 484.706C481.81 485.024 482.487 485.342 483.144 485.66C483.8 485.978 484.354 486.266 484.867 486.553C485.893 487.117 486.755 487.579 487.319 487.948L487.976 488.338C488.12 488.441 488.192 488.492 488.181 488.502Z" fill="#263238"/>
<path d="M456.191 484.634C456.355 484.669 456.516 484.717 456.673 484.778C457.108 484.937 457.533 485.122 457.945 485.332C460.685 486.723 462.95 488.898 464.45 491.58C464.674 491.986 464.876 492.404 465.055 492.832C465.13 492.985 465.185 493.147 465.219 493.314C465.219 493.314 464.881 492.668 464.276 491.683C462.712 489.103 460.497 486.98 457.853 485.527C456.837 484.952 456.17 484.686 456.191 484.634Z" fill="#263238"/>
<path d="M438.954 460.821C439.068 460.839 439.178 460.874 439.282 460.923L440.216 461.252L441.693 461.795C442.268 462.011 442.894 462.329 443.602 462.637C447.255 464.327 450.664 466.502 453.739 469.101C455.417 470.543 456.997 472.096 458.468 473.748C459.802 475.298 460.941 476.744 461.823 478.006C462.706 479.268 463.383 480.315 463.875 481.084C464.101 481.423 464.276 481.7 464.409 481.915C464.477 482.009 464.535 482.108 464.583 482.213C464.583 482.213 464.501 482.131 464.368 481.946C464.235 481.761 464.029 481.495 463.793 481.146C463.301 480.438 462.603 479.402 461.69 478.16C460.777 476.919 459.638 475.482 458.304 473.964C456.833 472.324 455.257 470.782 453.585 469.347C450.525 466.765 447.15 464.582 443.54 462.852C442.842 462.534 442.227 462.206 441.663 461.98L440.216 461.395L439.292 461.016C439.172 460.964 439.059 460.899 438.954 460.821Z" fill="#263238"/>
<path d="M476.731 465.438C476.52 465.431 476.311 465.403 476.105 465.356L475.387 465.222C475.11 465.171 474.782 465.171 474.433 465.13C473.004 464.998 471.563 465.187 470.216 465.682C468.869 466.177 467.649 466.967 466.646 467.993C466.052 468.579 465.525 469.229 465.076 469.932C464.687 470.591 464.344 471.277 464.05 471.984C464.072 471.776 464.124 471.572 464.204 471.378C464.403 470.842 464.654 470.327 464.953 469.839C465.38 469.092 465.9 468.403 466.502 467.787C467.518 466.718 468.77 465.901 470.157 465.4C471.545 464.9 473.03 464.73 474.494 464.904C474.854 464.956 475.182 464.966 475.459 465.038L476.167 465.222C476.362 465.275 476.551 465.347 476.731 465.438Z" fill="#263238"/>
<path d="M484.559 441.152C484.467 441.221 484.367 441.279 484.262 441.327L483.39 441.799C482.631 442.209 481.543 442.825 480.23 443.584C478.916 444.343 477.367 445.349 475.715 446.529C473.918 447.787 472.233 449.198 470.678 450.745C469.88 451.541 469.19 452.438 468.626 453.413C468.113 454.398 467.63 455.342 467.179 456.245C466.374 457.852 465.652 459.499 465.014 461.18C464.603 462.314 464.261 463.472 463.988 464.648C463.783 465.479 463.711 465.951 463.68 465.941C463.674 465.828 463.674 465.715 463.68 465.602C463.68 465.376 463.762 465.048 463.845 464.576C464.09 463.386 464.415 462.213 464.819 461.067C465.434 459.37 466.143 457.709 466.943 456.091C467.384 455.178 467.866 454.234 468.369 453.249C468.933 452.251 469.622 451.331 470.421 450.509C472.004 448.949 473.72 447.531 475.551 446.272C477.224 445.102 478.783 444.148 480.117 443.379C481.451 442.609 482.559 442.045 483.328 441.665L484.221 441.234C484.329 441.19 484.443 441.163 484.559 441.152Z" fill="#263238"/>
<path d="M462.716 464.73C462.639 464.518 462.587 464.297 462.562 464.073C462.47 463.591 462.357 462.996 462.223 462.278C461.494 458.316 460.249 454.466 458.52 450.828C458.222 450.161 457.966 449.607 457.76 449.165C457.654 448.964 457.571 448.75 457.514 448.529C457.64 448.718 457.757 448.913 457.863 449.114C458.068 449.494 458.355 450.048 458.694 450.745C459.604 452.553 460.379 454.425 461.013 456.347C461.627 458.276 462.093 460.248 462.408 462.247C462.531 463.006 462.624 463.632 462.665 464.063C462.707 464.283 462.724 464.506 462.716 464.73Z" fill="#263238"/>
<path d="M462.152 447.062C461.904 444.115 461.041 441.252 459.618 438.659C457.7 435.085 455.021 431.975 451.769 429.55C448.518 427.124 444.774 425.443 440.801 424.624L458.243 450.581L460.49 455.219C461.9 452.747 462.482 449.889 462.152 447.062Z" fill="#455A64"/>
<path d="M487.135 498.177H446.628V505.359H487.135V498.177Z" fill="#1B4071"/>
<path d="M449.655 503.933L453.102 526.208H479.994L484.108 503.933H449.655Z" fill="#1B4071"/>
<path d="M487.114 505.37C487.114 505.442 477.983 505.503 466.707 505.503C455.431 505.503 446.3 505.442 446.3 505.37C446.3 505.298 455.442 505.226 466.707 505.226C477.973 505.226 487.114 505.288 487.114 505.37Z" fill="#263238"/>
<path d="M435.896 249.126C435.946 228.755 430.525 208.744 420.198 191.183C409.872 173.623 395.02 159.157 377.194 149.298C359.367 139.438 339.22 134.546 318.857 135.133C298.494 135.72 278.662 141.764 261.433 152.634C244.203 163.503 230.209 178.8 220.911 196.926C211.613 215.052 207.353 235.342 208.576 255.677C209.799 276.011 216.459 295.645 227.862 312.526C239.264 329.407 254.991 342.917 273.398 351.644C273.398 365.126 273.327 380.372 273.327 380.372L373.033 380.639C373.033 380.639 373.669 364.531 373.936 350.156C392.554 340.641 408.188 326.176 419.119 308.352C430.05 290.528 435.855 270.035 435.896 249.126Z" fill="#1B4071"/>
<g opacity="0.1">
<path d="M435.937 249.044C436.026 225.11 428.53 201.763 414.525 182.354C427.863 220.562 422.835 264.885 400.889 298.949C377.579 335.125 341.73 362.007 294.267 362.007C312.038 376.094 335.482 373.57 358.115 372.369C363.184 372.102 368.375 371.805 373.403 371.179C373.598 365.29 373.834 357.431 373.967 350.023C392.578 340.512 408.209 326.055 419.141 308.241C430.073 290.427 435.885 269.945 435.937 249.044Z" fill="black"/>
</g>
<g opacity="0.3">
<path d="M288.676 169.714C287.331 166.441 283.72 164.05 279.442 162.758C273.255 160.988 266.621 161.725 260.974 164.81C244.27 173.592 234.769 184.201 228.891 203.049C226.89 209.43 225.884 219.978 229.003 226.246C229.745 227.824 230.805 229.231 232.117 230.379C233.429 231.526 234.964 232.39 236.627 232.915C245.419 235.491 252.417 226.965 255.166 218.808C257.721 211.205 258.655 202.618 264.072 196.708C268.535 191.834 275.204 189.762 280.765 186.191C286.326 182.621 291.179 175.829 288.676 169.714Z" fill="white"/>
</g>
<g opacity="0.3">
<path d="M321.682 155.381C318.388 149.625 310.068 147.224 305.204 149.399C303.206 150.358 301.452 151.759 300.075 153.496C298.697 155.232 297.732 157.259 297.253 159.423C296.751 162.046 297.045 164.76 298.096 167.215C299.147 169.67 300.908 171.755 303.152 173.202C305.452 174.562 308.122 175.161 310.783 174.914C313.443 174.667 315.957 173.587 317.968 171.827C321.867 168.206 324.319 160.008 321.682 155.381Z" fill="white"/>
</g>
<path d="M300.977 445.287C303.403 446.901 305.59 448.849 307.472 451.074C308.105 451.869 308.911 452.51 309.828 452.949C310.745 453.388 311.749 453.614 312.766 453.608H332.824C333.934 453.615 335.028 453.35 336.01 452.834C336.992 452.319 337.833 451.57 338.457 450.653C339.924 448.478 342.561 445.892 345.321 445.338L300.977 445.287Z" fill="#455A64"/>
<path d="M279.359 389.37C279.359 389.781 283.956 421.176 285.71 433.109C286.036 435.542 286.963 437.857 288.406 439.843C289.85 441.83 291.765 443.426 293.98 444.487C295.77 445.307 297.715 445.738 299.684 445.749L343.566 445.831C343.566 445.831 355.037 445.831 357.653 436.751C360.413 427.189 365.656 389.555 365.656 389.555L279.359 389.37Z" fill="#263238"/>
<path d="M360.465 432.565L284.017 432.688C283.441 432.688 282.887 432.459 282.479 432.051C282.071 431.643 281.842 431.09 281.842 430.513V430.277C281.841 429.992 281.896 429.709 282.004 429.445C282.112 429.181 282.272 428.941 282.473 428.739C282.674 428.537 282.913 428.377 283.176 428.267C283.44 428.158 283.722 428.102 284.007 428.102L360.465 427.968C361.042 427.968 361.595 428.197 362.003 428.605C362.411 429.013 362.64 429.566 362.64 430.143V430.379C362.64 430.957 362.411 431.511 362.003 431.921C361.596 432.331 361.042 432.562 360.465 432.565Z" fill="#E0E0E0"/>
<path d="M360.465 432.565C361.02 432.507 361.541 432.265 361.942 431.877C362.17 431.636 362.34 431.346 362.441 431.03C362.543 430.714 362.572 430.38 362.527 430.051C362.5 429.607 362.329 429.183 362.041 428.845C361.752 428.506 361.361 428.27 360.927 428.173C356.823 428.112 350.605 428.245 343.064 428.266L284.018 428.471C283.718 428.472 283.423 428.547 283.16 428.69C282.896 428.834 282.673 429.04 282.509 429.292C282.343 429.539 282.244 429.825 282.222 430.123C282.188 430.429 282.212 430.739 282.294 431.036C282.379 431.32 282.533 431.578 282.742 431.788C282.952 431.997 283.21 432.152 283.494 432.236C284.154 432.323 284.82 432.351 285.485 432.318H309.462H336.005L353.909 432.411L358.772 432.462H360.034C360.177 432.437 360.322 432.437 360.465 432.462H360.034H358.772L353.909 432.544L336.005 432.688L309.462 432.811L293.785 432.862H285.485H284.459C284.072 432.887 283.684 432.849 283.31 432.749C282.911 432.629 282.548 432.413 282.253 432.12C281.957 431.826 281.739 431.465 281.617 431.067C281.508 430.676 281.473 430.269 281.514 429.866C281.564 429.229 281.852 428.635 282.323 428.203C282.793 427.771 283.41 427.533 284.048 427.537H343.095C350.667 427.588 356.741 427.537 361.029 427.681C361.514 427.803 361.946 428.079 362.261 428.467C362.575 428.856 362.755 429.336 362.773 429.835C362.813 430.19 362.771 430.548 362.652 430.884C362.533 431.22 362.34 431.524 362.086 431.775C361.899 432.027 361.655 432.231 361.372 432.368C361.09 432.506 360.779 432.573 360.465 432.565Z" fill="#263238"/>
<path d="M362.106 422.684L282.417 422.818C282.132 422.819 281.849 422.764 281.585 422.656C281.321 422.548 281.082 422.388 280.879 422.187C280.677 421.986 280.517 421.747 280.407 421.484C280.298 421.22 280.242 420.938 280.242 420.653V420.386C280.24 420.101 280.295 419.818 280.404 419.555C280.512 419.291 280.671 419.051 280.872 418.849C281.073 418.647 281.312 418.486 281.576 418.377C281.839 418.267 282.121 418.211 282.407 418.211L362.096 418.078C362.673 418.08 363.226 418.31 363.635 418.717C364.044 419.124 364.276 419.676 364.281 420.253V420.489C364.284 420.776 364.23 421.061 364.122 421.327C364.014 421.594 363.854 421.836 363.652 422.04C363.449 422.244 363.209 422.406 362.943 422.517C362.678 422.627 362.394 422.684 362.106 422.684Z" fill="#E0E0E0"/>
<path d="M362.106 422.684C362.685 422.637 363.226 422.378 363.625 421.956C363.852 421.696 364.016 421.389 364.107 421.057C364.198 420.724 364.212 420.376 364.148 420.037C364.089 419.58 363.877 419.157 363.548 418.835C363.218 418.513 362.79 418.311 362.332 418.262L343.762 418.396L282.417 418.601C282.105 418.602 281.798 418.684 281.527 418.839C281.255 418.993 281.028 419.215 280.868 419.483C280.706 419.746 280.618 420.047 280.611 420.355C280.581 420.675 280.623 420.998 280.734 421.299C280.844 421.587 281.026 421.841 281.263 422.038C281.501 422.234 281.785 422.365 282.089 422.417C282.684 422.479 283.515 422.417 284.212 422.417H309.124H336.692L355.294 422.5L360.342 422.561H361.655H362.106C361.957 422.585 361.804 422.585 361.655 422.561H360.342L355.294 422.643L336.703 422.787L309.124 422.91H292.831H284.212C283.463 422.91 282.817 422.91 281.955 422.91C281.529 422.834 281.13 422.649 280.796 422.375C280.462 422.1 280.204 421.743 280.047 421.34C279.901 420.943 279.841 420.52 279.872 420.099C279.889 419.435 280.164 418.805 280.64 418.343C281.116 417.88 281.754 417.623 282.417 417.626H343.751C351.61 417.626 357.941 417.626 362.363 417.729C362.889 417.782 363.38 418.016 363.754 418.39C364.128 418.764 364.361 419.255 364.415 419.781C364.47 420.148 364.441 420.524 364.331 420.879C364.221 421.235 364.032 421.56 363.779 421.833C363.6 422.11 363.351 422.334 363.057 422.484C362.764 422.633 362.436 422.702 362.106 422.684Z" fill="#263238"/>
<path d="M363.153 412.814L281.401 412.958C281.116 412.958 280.833 412.902 280.569 412.792C280.305 412.683 280.065 412.523 279.863 412.321C279.661 412.119 279.501 411.879 279.392 411.615C279.282 411.351 279.226 411.068 279.226 410.783V410.547C279.226 409.971 279.453 409.418 279.859 409.009C280.264 408.599 280.815 408.367 281.391 408.361L363.153 408.228C363.73 408.228 364.283 408.457 364.691 408.865C365.099 409.273 365.328 409.826 365.328 410.403V410.639C365.329 410.925 365.274 411.209 365.165 411.473C365.056 411.738 364.896 411.978 364.694 412.18C364.492 412.382 364.251 412.543 363.987 412.651C363.722 412.76 363.439 412.816 363.153 412.814Z" fill="#E0E0E0"/>
<path d="M363.153 412.814C363.479 412.796 363.796 412.706 364.084 412.552C364.371 412.398 364.621 412.183 364.817 411.922C365.012 411.661 365.148 411.36 365.215 411.041C365.282 410.722 365.279 410.392 365.205 410.075C365.123 409.61 364.883 409.188 364.526 408.88C364.169 408.572 363.717 408.396 363.245 408.382L344.213 408.525L281.412 408.741C281.174 408.741 280.938 408.788 280.718 408.879C280.498 408.971 280.299 409.105 280.131 409.273C279.963 409.442 279.83 409.642 279.74 409.863C279.65 410.083 279.604 410.319 279.606 410.557C279.579 410.886 279.632 411.217 279.76 411.521C279.894 411.803 280.099 412.046 280.354 412.225C280.609 412.405 280.906 412.516 281.217 412.547C281.884 412.547 282.694 412.547 283.423 412.547H308.919H337.154L356.186 412.629L361.368 412.691H362.712C362.862 412.677 363.013 412.677 363.163 412.691C363.014 412.715 362.861 412.715 362.712 412.691H361.368L356.186 412.763L337.154 412.917L308.919 413.04H292.246H283.423C282.663 413.04 281.966 413.04 281.135 413.04C280.692 412.993 280.27 412.831 279.91 412.57C279.55 412.309 279.265 411.958 279.083 411.552C278.911 411.155 278.834 410.723 278.857 410.29C278.854 409.954 278.918 409.621 279.045 409.31C279.171 408.999 279.358 408.716 279.595 408.478C279.831 408.239 280.113 408.05 280.423 407.921C280.733 407.792 281.065 407.725 281.401 407.725H344.254L363.297 407.817C363.828 407.84 364.334 408.047 364.729 408.403C365.125 408.759 365.383 409.241 365.462 409.767C365.567 410.194 365.559 410.641 365.438 411.064C365.318 411.487 365.089 411.871 364.774 412.178C364.572 412.403 364.32 412.578 364.039 412.688C363.758 412.799 363.454 412.842 363.153 412.814Z" fill="#263238"/>
<path d="M364.836 402.944L279.76 403.088C279.471 403.091 279.184 403.036 278.916 402.926C278.649 402.817 278.405 402.655 278.201 402.451C277.997 402.246 277.835 402.003 277.726 401.736C277.616 401.468 277.561 401.181 277.564 400.892V400.656C277.564 400.079 277.793 399.526 278.201 399.118C278.609 398.71 279.162 398.481 279.739 398.481L364.805 398.337C365.382 398.337 365.935 398.567 366.343 398.974C366.751 399.382 366.98 399.936 366.98 400.513V400.748C366.984 401.034 366.932 401.317 366.826 401.582C366.72 401.847 366.563 402.088 366.364 402.292C366.165 402.496 365.927 402.659 365.665 402.771C365.403 402.882 365.121 402.941 364.836 402.944Z" fill="#E0E0E0"/>
<path d="M364.836 402.944C365.172 402.924 365.5 402.829 365.794 402.664C366.088 402.499 366.341 402.27 366.534 401.994C366.727 401.717 366.854 401.4 366.906 401.067C366.959 400.734 366.935 400.394 366.836 400.071C366.722 399.59 366.438 399.166 366.037 398.878C365.635 398.59 365.143 398.456 364.651 398.501L344.911 398.655L279.76 398.871C279.424 398.878 279.098 398.978 278.815 399.159C278.533 399.34 278.306 399.595 278.159 399.897C278.014 400.198 277.939 400.527 277.939 400.861C277.939 401.195 278.014 401.525 278.159 401.826C278.314 402.114 278.546 402.354 278.828 402.521C279.11 402.687 279.432 402.773 279.76 402.769H308.539H337.831L357.571 402.852L362.937 402.913H364.343H364.815C364.658 402.93 364.5 402.93 364.343 402.913H362.937L357.571 402.985L337.831 403.139L308.539 403.272H291.241H282.089H279.76C279.3 403.272 278.848 403.15 278.451 402.917C278.054 402.684 277.727 402.35 277.502 401.949C277.291 401.544 277.185 401.092 277.195 400.635C277.175 400.18 277.274 399.728 277.482 399.322C277.696 398.908 278.02 398.561 278.418 398.319C278.816 398.076 279.273 397.948 279.739 397.947H344.89L364.63 398.029C365.18 397.996 365.723 398.16 366.163 398.491C366.603 398.822 366.91 399.298 367.031 399.835C367.124 400.219 367.126 400.619 367.037 401.004C366.948 401.389 366.77 401.747 366.518 402.051C366.2 402.411 365.77 402.653 365.297 402.739C365.159 402.838 365.002 402.908 364.836 402.944Z" fill="#263238"/>
<path d="M268.33 362.294C268.33 363.104 270.105 382.301 271.018 392.161C271.184 393.945 271.752 395.669 272.679 397.203C273.607 398.736 274.87 400.04 276.374 401.015L280.847 403.919L365.697 404.083L370.12 401.231C371.643 400.249 372.922 398.931 373.857 397.378C374.793 395.826 375.36 394.08 375.516 392.274L378.092 362.52L268.33 362.294Z" fill="#1B4071"/>
<g opacity="0.3">
<path d="M286.86 432.493C295.068 434.36 303.173 434.545 312.151 434.545C319.394 434.545 326.515 434.74 334.353 434.596C340.119 434.483 345.424 434.206 351.169 433.97C354.073 433.847 357.264 433.119 357.849 432.534L286.86 432.493Z" fill="black"/>
</g>
<g opacity="0.3">
<path d="M283.853 422.582C292.656 424.449 301.439 424.634 311.114 424.634C318.922 424.634 326.576 424.828 335.061 424.634C341.217 424.531 346.983 424.254 353.18 424.018C356.309 423.895 359.747 423.166 360.362 422.582H283.853Z" fill="black"/>
</g>
<g opacity="0.3">
<path d="M283.874 412.783C292.677 414.651 301.459 414.835 311.135 414.835C318.942 414.835 326.596 415.03 335.071 414.835C341.289 414.733 347.004 414.456 353.19 414.22C356.33 414.096 359.767 413.368 360.372 412.783H283.874Z" fill="black"/>
</g>
<g opacity="0.3">
<path d="M283.884 402.944C292.697 404.812 301.48 404.996 311.145 404.996C318.963 404.996 326.617 405.191 335.092 404.996C341.299 404.894 347.024 404.617 353.211 404.381C356.35 404.258 359.788 403.529 360.393 402.944H283.884Z" fill="black"/>
</g>
<g opacity="0.3">
<path d="M268.33 362.294C268.33 363.104 270.105 382.301 271.018 392.161C271.184 393.945 271.752 395.669 272.679 397.203C273.607 398.736 274.87 400.04 276.374 401.015L280.847 403.919L365.697 404.083L370.12 401.231C371.643 400.249 372.922 398.931 373.857 397.378C374.793 395.826 375.36 394.08 375.516 392.274L378.092 362.52L268.33 362.294Z" fill="black"/>
</g>
<path d="M373.454 396.347C373.454 396.552 350.759 396.685 322.77 396.624C294.78 396.562 272.075 396.367 272.075 396.162C272.075 395.957 294.77 395.834 322.77 395.885C350.769 395.936 373.454 396.152 373.454 396.347Z" fill="#263238"/>
<path d="M377.507 361.904C377.507 362.13 352.883 362.366 322.472 362.427C292.061 362.489 267.407 362.355 267.396 362.13C267.386 361.904 292.02 361.668 322.441 361.606C352.862 361.545 377.507 361.709 377.507 361.904Z" fill="#263238"/>
<path d="M262.523 335.515C262.523 335.515 262.42 335.515 262.236 335.331L261.425 334.746C260.727 334.212 259.66 333.473 258.347 332.406C254.676 329.452 251.213 326.246 247.984 322.813C245.932 320.648 243.798 318.166 241.603 315.416C239.301 312.469 237.151 309.408 235.159 306.243C225.95 291.695 220.454 275.108 219.154 257.939C218.815 253.999 218.795 250.244 218.836 246.735C218.877 243.226 219.174 239.954 219.544 236.988C220.092 232.306 220.966 227.667 222.16 223.107C222.55 221.486 222.971 220.254 223.186 219.413L223.484 218.459C223.555 218.243 223.596 218.131 223.596 218.141C223.59 218.252 223.569 218.363 223.535 218.469L223.289 219.495C223.083 220.347 222.694 221.547 222.345 223.209C221.245 227.78 220.439 232.417 219.934 237.091C219.595 240.046 219.4 243.247 219.308 246.797C219.215 250.347 219.308 254.03 219.657 257.95C221.02 275.029 226.49 291.527 235.601 306.038C237.653 309.383 239.869 312.41 241.972 315.2C244.075 317.991 246.24 320.433 248.282 322.598C251.49 326.047 254.917 329.285 258.542 332.294C259.794 333.391 260.85 334.151 261.517 334.715L262.297 335.341L262.523 335.515Z" fill="#263238"/>
<path d="M325.878 309.116C314.515 309.116 303.406 305.746 293.958 299.433C284.509 293.12 277.145 284.146 272.796 273.648C268.447 263.149 267.309 251.596 269.526 240.451C271.743 229.306 277.215 219.068 285.251 211.033C293.286 202.997 303.524 197.525 314.669 195.308C325.815 193.091 337.367 194.229 347.866 198.578C358.365 202.926 367.338 210.291 373.651 219.739C379.965 229.188 383.334 240.296 383.334 251.66C383.334 266.898 377.281 281.513 366.506 292.288C355.731 303.063 341.117 309.116 325.878 309.116ZM325.878 205.88C316.818 205.88 307.961 208.567 300.427 213.601C292.894 218.634 287.022 225.789 283.555 234.16C280.087 242.531 279.18 251.742 280.948 260.628C282.715 269.515 287.078 277.677 293.485 284.084C299.892 290.491 308.055 294.854 316.941 296.622C325.828 298.389 335.039 297.482 343.409 294.015C351.78 290.547 358.935 284.676 363.969 277.142C369.003 269.609 371.689 260.751 371.689 251.691C371.676 239.545 366.845 227.901 358.257 219.313C349.668 210.724 338.024 205.894 325.878 205.88Z" fill="#1B4071"/>
<path d="M310.622 276.859C305.705 274.387 301.578 270.588 298.71 265.891C295.908 261.059 294.433 255.573 294.433 249.988C294.433 244.403 295.908 238.917 298.71 234.085C301.58 229.387 305.706 225.585 310.622 223.107C315.953 220.403 321.861 219.033 327.838 219.116C333.6 218.985 339.297 220.345 344.377 223.066C348.961 225.577 352.573 229.55 354.637 234.352L341.176 241.616C338.057 236.144 333.567 233.408 327.705 233.408C325.618 233.339 323.54 233.7 321.599 234.468C319.657 235.236 317.894 236.394 316.419 237.871C313.457 240.839 311.973 244.885 311.966 250.008C311.959 255.132 313.443 259.177 316.419 262.146C317.895 263.622 319.658 264.778 321.599 265.544C323.541 266.31 325.619 266.669 327.705 266.599C333.635 266.599 338.125 263.863 341.176 258.391L354.648 265.747C352.529 270.475 348.927 274.383 344.388 276.879C339.315 279.631 333.607 281.001 327.838 280.85C321.861 280.936 315.952 279.566 310.622 276.859Z" fill="#1B4071"/>
<g opacity="0.5">
<path d="M325.878 309.116C314.515 309.116 303.406 305.746 293.958 299.433C284.509 293.12 277.145 284.146 272.796 273.648C268.447 263.149 267.309 251.596 269.526 240.451C271.743 229.306 277.215 219.068 285.251 211.033C293.286 202.997 303.524 197.525 314.669 195.308C325.815 193.091 337.367 194.229 347.866 198.578C358.365 202.926 367.338 210.291 373.651 219.739C379.965 229.188 383.334 240.296 383.334 251.66C383.334 266.898 377.281 281.513 366.506 292.288C355.731 303.063 341.117 309.116 325.878 309.116ZM325.878 205.88C316.818 205.88 307.961 208.567 300.427 213.601C292.894 218.634 287.022 225.789 283.555 234.16C280.087 242.531 279.18 251.742 280.948 260.628C282.715 269.515 287.078 277.677 293.485 284.084C299.892 290.491 308.055 294.854 316.941 296.622C325.828 298.389 335.039 297.482 343.409 294.015C351.78 290.547 358.935 284.676 363.969 277.142C369.003 269.609 371.689 260.751 371.689 251.691C371.676 239.545 366.845 227.901 358.257 219.313C349.668 210.724 338.024 205.894 325.878 205.88Z" fill="black"/>
<path d="M310.622 276.859C305.705 274.387 301.578 270.588 298.71 265.891C295.908 261.059 294.433 255.573 294.433 249.988C294.433 244.403 295.908 238.917 298.71 234.085C301.58 229.387 305.706 225.585 310.622 223.107C315.953 220.403 321.861 219.033 327.838 219.116C333.6 218.985 339.297 220.345 344.377 223.066C348.961 225.577 352.573 229.55 354.637 234.352L341.176 241.616C338.057 236.144 333.567 233.408 327.705 233.408C325.618 233.339 323.54 233.7 321.599 234.468C319.657 235.236 317.894 236.394 316.419 237.871C313.457 240.839 311.973 244.885 311.966 250.008C311.959 255.132 313.443 259.177 316.419 262.146C317.895 263.622 319.658 264.778 321.599 265.544C323.541 266.31 325.619 266.669 327.705 266.599C333.635 266.599 338.125 263.863 341.176 258.391L354.648 265.747C352.529 270.475 348.927 274.383 344.388 276.879C339.315 279.631 333.607 281.001 327.838 280.85C321.861 280.936 315.952 279.566 310.622 276.859Z" fill="black"/>
</g>
<path d="M488.253 329.728L477.449 328.908L482.189 266.209C482.415 263.315 479.111 255.231 477.121 253.107C457.309 231.838 433.28 245.689 431.71 266.332L427.268 325.111L416.474 324.301L420.845 266.486C422.312 246.992 438.687 231.509 458.202 232.279C463.034 232.472 467.778 233.636 472.151 235.702C476.524 237.767 480.436 240.691 483.655 244.301C486.874 247.91 489.333 252.131 490.886 256.711C492.439 261.291 493.055 266.136 492.696 270.959L488.253 329.728Z" fill="#E0E0E0"/>
<path d="M488.253 329.729C488.253 329.729 488.253 329.318 488.325 328.549C488.397 327.779 488.458 326.63 488.561 325.132C488.776 322.136 489.094 317.724 489.505 312.061C489.915 306.397 490.428 299.451 491.013 291.407C491.307 287.386 491.622 283.09 491.957 278.521C492.213 273.965 492.983 269.143 492.367 264.095C491.759 258.818 489.959 253.749 487.104 249.27C486.724 248.695 486.365 248.1 485.975 247.525L484.683 245.863C483.793 244.753 482.84 243.695 481.83 242.693C481.348 242.17 480.804 241.739 480.23 241.257C479.701 240.759 479.142 240.293 478.557 239.861C477.389 238.963 476.162 238.144 474.884 237.409C472.28 235.873 469.496 234.667 466.594 233.818L464.337 233.305L463.208 233.038L462.049 232.884L459.72 232.597C458.94 232.525 458.15 232.546 457.36 232.515C450.816 232.398 444.367 234.096 438.728 237.419C432.792 240.904 427.986 246.027 424.887 252.173C423.323 255.344 422.211 258.718 421.584 262.197C421.06 265.716 420.906 269.379 420.558 272.991C419.46 287.58 418.321 302.683 417.151 318.135C416.997 320.187 416.833 322.239 416.679 324.291L416.454 324.014L427.247 324.835L426.98 325.06C427.863 313.374 428.735 301.934 429.576 290.823C430 285.262 430.414 279.79 430.818 274.407C431.023 271.712 431.228 269.041 431.433 266.394C431.658 263.746 432.263 261.144 433.229 258.668C435.226 253.873 438.637 249.8 443.006 246.992C443.523 246.618 444.06 246.276 444.617 245.966L446.29 245.114C447.424 244.607 448.593 244.182 449.788 243.842C450.97 243.502 452.173 243.241 453.39 243.062C453.995 242.98 454.611 242.96 455.206 242.908L456.088 242.888H456.991C459.377 242.896 461.75 243.241 464.039 243.914C466.263 244.596 468.387 245.565 470.36 246.797C475.953 250.408 479.937 256.039 481.481 262.515C481.923 264.537 482.126 266.603 482.087 268.671C482.087 269.174 482.087 269.697 482.087 270.18C482.087 270.662 482.015 271.205 481.974 271.657C481.902 272.683 481.82 273.606 481.748 274.571C481.605 276.5 481.461 278.398 481.317 280.255C480.743 287.663 480.219 294.485 479.747 300.631C478.783 312.943 478.034 322.536 477.531 328.928L477.47 328.846L485.606 329.503L487.596 329.667L488.263 329.739H487.627L485.647 329.616L477.439 329.031H477.357V328.959C477.829 322.557 478.527 312.943 479.409 300.652C479.86 294.496 480.373 287.683 480.917 280.265C481.061 278.408 481.194 276.52 481.338 274.591C481.41 273.627 481.492 272.652 481.564 271.667C481.564 271.175 481.635 270.641 481.666 270.19C481.697 269.738 481.666 269.164 481.666 268.702C481.697 266.675 481.494 264.65 481.061 262.669C480.564 260.635 479.823 258.668 478.855 256.811C476.819 252.902 473.794 249.595 470.083 247.218C468.141 246.012 466.051 245.064 463.865 244.396C461.617 243.728 459.285 243.383 456.94 243.37H456.047L455.154 243.442C454.559 243.493 453.964 243.514 453.369 243.596C450.964 243.959 448.62 244.649 446.402 245.648L444.751 246.489C444.197 246.756 443.725 247.136 443.171 247.454C438.893 250.235 435.564 254.254 433.629 258.976C432.684 261.406 432.09 263.959 431.864 266.558C431.669 269.205 431.464 271.883 431.259 274.571C430.859 279.957 430.438 285.436 430.028 290.987C429.186 302.098 428.324 313.559 427.442 325.224V325.481H427.186L416.392 324.66H416.135V324.404C416.289 322.352 416.443 320.3 416.607 318.248C417.777 302.776 418.916 287.673 420.024 273.104C420.332 269.451 420.475 265.84 421.05 262.259C422.222 255.172 425.492 248.6 430.438 243.391C432.812 240.918 435.507 238.775 438.451 237.019C444.163 233.658 450.693 231.943 457.319 232.064C458.119 232.064 458.92 232.064 459.71 232.146L462.418 232.495L463.896 232.761L466.143 233.285L467.169 233.572C469.929 234.406 472.578 235.571 475.059 237.04C476.346 237.79 477.583 238.622 478.763 239.533C479.354 239.968 479.919 240.437 480.455 240.939C480.999 241.431 481.584 241.882 482.077 242.406C483.099 243.416 484.058 244.489 484.949 245.617L486.252 247.289C486.652 247.874 487.012 248.48 487.391 249.064C490.268 253.595 492.075 258.721 492.675 264.054C493.291 269.184 492.501 274.017 492.234 278.582C491.967 283.148 491.547 287.468 491.208 291.5C490.572 299.554 490.038 306.5 489.587 312.174C489.135 317.847 488.797 322.218 488.561 325.214C488.438 326.692 488.345 327.82 488.284 328.59C488.222 329.359 488.253 329.729 488.253 329.729Z" fill="#263238"/>
<path d="M406.511 287.353L504.464 295.189C504.968 295.229 505.459 295.368 505.909 295.598C506.359 295.828 506.759 296.145 507.087 296.53C507.415 296.915 507.664 297.36 507.819 297.841C507.975 298.322 508.034 298.829 507.994 299.333L501.944 374.959C501.907 375.418 501.781 375.864 501.571 376.273C501.362 376.682 501.075 377.046 500.725 377.344C500.375 377.642 499.97 377.869 499.533 378.01C499.095 378.151 498.634 378.205 498.176 378.169L399.875 370.305L406.511 287.353Z" fill="#455A64"/>
<g opacity="0.3">
<path d="M406.702 285.137L503.988 292.486C504.541 292.528 505.081 292.678 505.576 292.928C506.072 293.179 506.513 293.525 506.875 293.945C507.237 294.366 507.512 294.855 507.685 295.382C507.858 295.909 507.926 296.466 507.884 297.019L502.242 371.705C502.165 372.73 501.683 373.683 500.903 374.353C500.123 375.024 499.109 375.357 498.083 375.28L400.45 367.904L406.702 285.137Z" fill="black"/>
</g>
<path d="M406.172 285.028L492.029 291.514C493.13 291.597 494.154 292.115 494.874 292.952C495.594 293.79 495.952 294.88 495.869 295.981L490.32 369.439C490.217 370.796 489.58 372.056 488.548 372.943C487.516 373.83 486.175 374.27 484.818 374.168L400.065 367.766C398.926 367.68 397.867 367.144 397.122 366.278C396.377 365.411 396.007 364.284 396.093 363.144L401.704 288.868C401.787 287.766 402.305 286.743 403.143 286.023C403.98 285.303 405.07 284.945 406.172 285.028Z" fill="#455A64"/>
<g opacity="0.3">
<path d="M459.587 323.357C459.704 321.811 459.509 320.257 459.014 318.787C458.519 317.317 457.734 315.962 456.705 314.801C455.677 313.64 454.425 312.698 453.026 312.03C451.626 311.362 450.107 310.982 448.557 310.912C445.575 310.812 442.667 311.853 440.425 313.822C438.184 315.791 436.777 318.54 436.491 321.51C436.286 324.034 436.915 326.555 438.281 328.686C439.647 330.817 441.675 332.442 444.053 333.309L435.312 348.699L455.195 350.567L450.353 333.802C452.821 333.307 455.059 332.019 456.727 330.133C458.394 328.247 459.398 325.867 459.587 323.357Z" fill="black"/>
</g>
<path d="M490.551 366.818C490.418 366.818 491.454 352.393 492.87 334.633C494.286 316.873 495.558 302.478 495.692 302.488C495.825 302.499 494.799 316.914 493.383 334.674C491.967 352.434 490.695 366.829 490.551 366.818Z" fill="#263238"/>
<path d="M474.207 292.721C474.207 292.854 461.505 292.177 445.859 291.202C430.212 290.227 417.521 289.324 417.531 289.15C417.541 288.976 430.233 289.684 445.889 290.658C461.546 291.633 474.217 292.577 474.207 292.721Z" fill="white"/>
<path d="M435.64 327.8C435.461 327.574 435.319 327.321 435.219 327.051C434.897 326.327 434.656 325.57 434.501 324.794C433.937 322.215 434.174 319.525 435.181 317.084C436.187 314.644 437.915 312.569 440.134 311.138C440.794 310.702 441.499 310.337 442.237 310.05C442.498 309.924 442.779 309.844 443.068 309.814C443.068 309.906 441.929 310.296 440.339 311.435C438.241 312.898 436.609 314.933 435.636 317.298C434.663 319.663 434.39 322.258 434.85 324.773C435.178 326.661 435.732 327.769 435.64 327.8Z" fill="white"/>
<path d="M439.795 333.628C439.713 333.74 439.056 333.402 438.318 332.879C437.579 332.355 437.056 331.853 437.138 331.729C437.22 331.606 437.887 331.945 438.615 332.468C439.344 332.991 439.877 333.515 439.795 333.628Z" fill="white"/>
<path d="M455.801 235.018C455.801 235.018 455.103 235.018 453.841 235.141C452.061 235.255 450.294 235.516 448.557 235.921C442.795 237.203 437.516 240.097 433.338 244.267C429.159 248.436 426.253 253.708 424.959 259.468C424.551 261.201 424.287 262.965 424.169 264.741C424.087 266.003 424.077 266.701 424.036 266.701C423.99 266.538 423.973 266.368 423.984 266.198C423.984 265.86 423.984 265.367 423.984 264.731C424.03 262.933 424.247 261.143 424.631 259.386C425.849 253.518 428.76 248.136 433.003 243.904C437.246 239.672 442.635 236.776 448.506 235.572C450.263 235.193 452.053 234.984 453.851 234.946C454.487 234.946 454.98 234.946 455.318 234.946C455.482 234.944 455.645 234.968 455.801 235.018Z" fill="white"/>
<path d="M422.938 275.597C422.772 274.595 422.772 273.572 422.938 272.57C422.94 271.553 423.114 270.544 423.451 269.584C423.622 270.586 423.622 271.61 423.451 272.611C423.448 273.628 423.275 274.637 422.938 275.597Z" fill="white"/>
<path d="M184.434 440.137H252.683C254.011 440.137 255.285 440.664 256.224 441.603C257.163 442.542 257.69 443.816 257.69 445.144V522.042C257.69 523.37 257.163 524.644 256.224 525.583C255.285 526.522 254.011 527.049 252.683 527.049H184.434C180.812 527.049 177.339 525.61 174.778 523.049C172.217 520.488 170.778 517.015 170.778 513.393V453.783C170.781 450.162 172.221 446.692 174.781 444.133C177.342 441.574 180.814 440.137 184.434 440.137Z" fill="#1B4071"/>
<g opacity="0.3">
<path d="M184.434 440.137H252.683C254.011 440.137 255.285 440.664 256.224 441.603C257.163 442.542 257.69 443.816 257.69 445.144V522.042C257.69 523.37 257.163 524.644 256.224 525.583C255.285 526.522 254.011 527.049 252.683 527.049H184.434C180.812 527.049 177.339 525.61 174.778 523.049C172.217 520.488 170.778 517.015 170.778 513.393V453.783C170.781 450.162 172.221 446.692 174.781 444.133C177.342 441.574 180.814 440.137 184.434 440.137Z" fill="black"/>
</g>
<path d="M237.93 440.137H159.328C157.033 440.137 155.172 441.997 155.172 444.292V522.894C155.172 525.189 157.033 527.049 159.328 527.049H237.93C240.224 527.049 242.085 525.189 242.085 522.894V444.292C242.085 441.997 240.224 440.137 237.93 440.137Z" fill="#1B4071"/>
<path d="M197.3 507.73L171.629 486.881L178.914 477.924L196.12 491.899L221.77 463.807L230.286 471.584L197.3 507.73Z" fill="white"/>
<path d="M228.911 228.319C229.563 227.703 230.349 227.246 231.207 226.984C232.065 226.722 232.972 226.663 233.856 226.811C234.547 227.052 235.3 227.052 235.99 226.811C236.452 226.564 236.709 226.072 237.068 225.692C237.349 225.414 237.683 225.195 238.05 225.048C238.417 224.901 238.811 224.83 239.206 224.839C239.602 224.847 239.991 224.935 240.352 225.098C240.713 225.261 241.037 225.494 241.305 225.785C241.522 226.112 241.788 226.403 242.095 226.647C243.47 227.447 245.173 224.882 246.507 225.703C245.861 225.914 245.295 226.319 244.886 226.862C244.689 227.138 244.591 227.471 244.606 227.81C244.62 228.148 244.748 228.472 244.968 228.729C246.23 229.95 248.518 227.467 249.934 228.493C250.693 229.047 250.744 230.402 251.647 230.668C252.007 230.73 252.375 230.73 252.735 230.668C253.35 230.653 253.948 230.872 254.408 231.282C254.867 231.692 255.153 232.261 255.207 232.874C255.207 233.9 254.674 235.173 255.423 235.901C255.687 236.091 255.988 236.221 256.307 236.283C256.626 236.345 256.954 236.337 257.27 236.26C257.21 237.221 256.929 238.155 256.449 238.989C257.245 239.55 257.796 240.395 257.987 241.349C258.178 242.304 257.994 243.296 257.475 244.119C258.304 244.759 259.001 245.553 259.527 246.459C259.786 246.919 259.911 247.442 259.889 247.969C259.868 248.496 259.7 249.007 259.404 249.444C259.231 249.612 259.086 249.806 258.973 250.019C258.901 250.267 258.901 250.53 258.973 250.778C259.237 251.743 259.392 252.734 259.435 253.733C259.353 254.759 258.562 255.785 257.578 255.652C257.355 255.573 257.112 255.573 256.89 255.652C256.818 255.702 256.758 255.768 256.714 255.844C256.67 255.92 256.642 256.005 256.634 256.093C256.516 256.803 256.516 257.527 256.634 258.237C256.761 258.95 256.61 259.684 256.213 260.289C256.108 260.432 255.974 260.55 255.819 260.636C255.664 260.722 255.492 260.773 255.315 260.786C255.139 260.798 254.961 260.772 254.796 260.71C254.63 260.647 254.48 260.549 254.356 260.422C254.592 261.551 254.818 262.669 255.054 263.798C255.171 264.117 255.207 264.461 255.159 264.797C255.11 265.134 254.979 265.454 254.777 265.727C254.12 266.332 253.012 265.727 252.571 264.998C252.129 264.27 252.047 263.275 251.545 262.516C251.324 262.222 251.135 261.905 250.98 261.572C250.888 261.305 250.867 260.977 250.652 260.782C250.221 260.392 249.503 260.987 249.544 261.561C249.659 262.133 249.941 262.658 250.354 263.07C250.553 263.281 250.686 263.546 250.737 263.832C250.789 264.118 250.755 264.413 250.642 264.68C250.488 264.906 250.221 265.05 250.067 265.296C249.554 266.117 250.755 266.999 250.857 267.964C250.836 268.323 250.732 268.673 250.555 268.986C250.377 269.299 250.129 269.567 249.831 269.769C249.185 270.354 247.964 270.795 247.615 269.985C247.547 269.69 247.496 269.392 247.461 269.092C247.317 268.767 247.095 268.481 246.815 268.261C246.191 267.634 245.763 266.839 245.584 265.973C246.271 266.917 246.989 268.148 246.415 269.174C246.126 269.565 245.78 269.911 245.389 270.2C244.691 270.857 244.229 271.739 243.542 272.406C243.227 272.77 242.804 273.023 242.335 273.128C241.866 273.233 241.376 273.185 240.936 272.991C241.061 273.462 241.022 273.962 240.827 274.408C240.631 274.855 240.29 275.222 239.859 275.449C239.428 275.676 238.932 275.751 238.453 275.66C237.974 275.57 237.54 275.32 237.222 274.951C237.047 274.756 236.904 274.509 236.657 274.407C236.383 274.325 236.09 274.325 235.816 274.407C234.962 274.504 234.097 274.364 233.317 274.002C232.537 273.64 231.871 273.07 231.394 272.355L232.266 272.088C230.568 271.92 228.934 271.354 227.495 270.436C226.141 269.41 225.33 267.461 226.131 265.963C226.479 265.306 227.157 264.66 226.88 263.911C226.715 263.429 226.192 263.193 225.72 262.998L219.821 260.597C218.832 260.289 217.945 259.718 217.256 258.945C217.095 258.747 216.975 258.519 216.903 258.275C216.83 258.031 216.807 257.774 216.834 257.521C216.86 257.267 216.937 257.022 217.058 256.798C217.18 256.574 217.345 256.376 217.543 256.216C217.126 255.26 216.442 254.444 215.573 253.866C214.609 253.22 213.46 252.892 212.495 252.286C211.967 252.035 211.521 251.637 211.21 251.141C210.899 250.645 210.736 250.071 210.741 249.485C210.864 248.326 212.516 247.505 213.275 248.387C213.193 246.633 210.084 246.335 209.899 244.622C209.756 243.206 211.592 242.57 212.577 241.544C212.413 241.041 211.921 240.703 211.746 240.21C211.366 239.184 212.464 238.21 213.49 237.789C214.516 237.368 215.737 236.937 216.035 235.87C216.332 234.803 215.45 233.5 216.035 232.556C216.22 232.306 216.492 232.134 216.797 232.073C217.103 232.012 217.42 232.067 217.687 232.228C218.59 230.258 222.314 231.961 223.504 230.176C223.614 230.04 223.669 229.868 223.658 229.694C223.641 229.546 223.581 229.406 223.484 229.294C223.006 228.777 222.468 228.319 221.883 227.929C221.59 227.731 221.366 227.447 221.243 227.116C221.12 226.785 221.103 226.423 221.196 226.082C221.483 225.436 222.724 225.518 222.673 226.216C222.867 226.08 223.089 225.99 223.323 225.953C223.557 225.916 223.796 225.933 224.023 226.002C224.249 226.071 224.457 226.191 224.63 226.353C224.803 226.514 224.938 226.713 225.023 226.934C225.305 226.691 225.66 226.549 226.033 226.533C226.405 226.516 226.772 226.625 227.075 226.841C227.679 227.315 228.163 227.922 228.49 228.616" fill="#263238"/>
<path d="M237.375 251.096C236.832 248.182 234.749 245.781 232.44 243.914C231.511 243.078 230.391 242.482 229.178 242.18C228.569 242.043 227.934 242.088 227.35 242.309C226.767 242.529 226.261 242.916 225.895 243.422L226.018 245.474C225.669 248.757 228.141 251.63 229.28 254.708C229.773 256.062 230.163 257.673 231.466 258.278C232.176 258.551 232.962 258.551 233.672 258.278C236.524 257.385 237.93 253.969 237.375 251.096Z" fill="#455A64"/>
<path d="M237.293 266.291C238.219 265.043 238.676 263.509 238.584 261.958C238.492 260.406 237.857 258.937 236.791 257.806C238.022 256.298 237.611 253.938 236.391 252.42C235.06 250.992 233.421 249.887 231.599 249.188C231.051 246.974 229.676 245.054 227.756 243.823C225.837 242.592 223.518 242.144 221.278 242.57C219 239.154 214.096 238.569 210.135 239.677C209.195 240.022 208.21 240.229 207.211 240.293C206.476 240.229 205.747 240.119 205.026 239.964C201.024 239.39 197.023 242.17 195.422 245.874C195.207 246.487 194.914 247.069 194.55 247.608C193.956 248.211 193.287 248.735 192.56 249.167C191.828 249.725 191.225 250.435 190.793 251.248C190.36 252.061 190.109 252.958 190.056 253.877C189.974 255.426 190.457 257.088 189.79 258.494C189.355 259.139 188.954 259.807 188.589 260.495C187.82 262.629 190.169 264.834 189.708 267.051C189.615 267.502 189.41 267.923 189.277 268.364C189.012 269.283 189.089 270.267 189.492 271.134C189.899 271.738 190.188 272.413 190.344 273.125C190.299 273.674 190.181 274.216 189.995 274.735C189.718 276.059 192.519 281.199 193.658 281.917L227.864 282.574C229.161 282.297 230.339 281.624 231.236 280.648C232.133 279.672 232.705 278.441 232.871 277.126C232.862 276.683 232.975 276.246 233.2 275.864C233.473 275.606 233.793 275.404 234.144 275.269C236.36 274.11 236.657 271.083 236.452 268.59C236.397 268.25 236.397 267.903 236.452 267.564C236.647 267.089 236.932 266.656 237.293 266.291Z" fill="#263238"/>
<path d="M227.547 266.24C227.545 262.949 226.657 259.72 224.976 256.891C223.295 254.062 220.883 251.738 217.994 250.162C215.262 248.858 212.298 248.112 209.273 247.967C206.478 247.673 203.658 248.234 201.189 249.578C199.301 249.998 192.324 256.257 191.893 263.121C191.421 270.744 191.144 280.07 192.047 285.754C193.873 297.194 202.635 298.651 202.635 298.651L202.235 307.711L208.617 319.541L225.033 302.786L227.547 266.24Z" fill="#FFBF9D"/>
<path d="M209.15 284.031C209.106 283.619 208.958 283.225 208.721 282.885C208.485 282.544 208.166 282.269 207.795 282.085C207.425 281.9 207.013 281.811 206.599 281.826C206.185 281.842 205.782 281.961 205.426 282.173C204.932 282.51 204.539 282.973 204.288 283.515C204.036 284.057 203.937 284.657 204 285.251C204.23 285.606 204.532 285.909 204.885 286.142C205.238 286.375 205.635 286.533 206.052 286.606H206.452C207.123 286.63 207.78 286.407 208.299 285.98C208.58 285.742 208.803 285.442 208.951 285.104C209.099 284.766 209.167 284.399 209.15 284.031Z" fill="#FF9A6C"/>
<path d="M195.895 272.068C195.894 272.45 196.041 272.818 196.305 273.095C196.568 273.372 196.928 273.537 197.31 273.555C197.497 273.569 197.685 273.546 197.863 273.487C198.041 273.428 198.205 273.334 198.346 273.211C198.487 273.088 198.603 272.938 198.686 272.77C198.769 272.602 198.817 272.419 198.829 272.232C198.829 271.849 198.683 271.482 198.419 271.205C198.155 270.927 197.795 270.763 197.413 270.744C197.226 270.73 197.038 270.753 196.861 270.813C196.683 270.872 196.519 270.966 196.377 271.089C196.236 271.212 196.121 271.362 196.038 271.53C195.955 271.698 195.906 271.881 195.895 272.068Z" fill="#263238"/>
<path d="M194.458 267.512C194.632 267.707 195.751 266.886 197.321 266.886C198.89 266.886 200.06 267.676 200.234 267.492C200.409 267.307 200.132 267.061 199.629 266.691C198.943 266.222 198.131 265.971 197.3 265.973C196.479 265.972 195.678 266.231 195.012 266.712C194.55 267.071 194.386 267.42 194.458 267.512Z" fill="#263238"/>
<path d="M203.692 279.968C202.863 279.706 202.005 279.551 201.137 279.506C200.727 279.506 200.347 279.383 200.275 279.106C200.245 278.69 200.341 278.275 200.553 277.916C200.922 276.941 201.322 275.915 201.743 274.838C203.395 270.467 204.585 266.866 204.41 266.804C204.236 266.742 202.748 270.231 201.096 274.602C200.696 275.679 200.317 276.705 199.957 277.68C199.705 278.166 199.632 278.725 199.752 279.26C199.812 279.4 199.901 279.525 200.015 279.626C200.128 279.727 200.263 279.802 200.409 279.844C200.634 279.904 200.864 279.938 201.096 279.947C201.957 280.065 202.829 280.072 203.692 279.968Z" fill="#263238"/>
<path d="M202.666 298.651C208.053 298.724 213.355 297.303 217.984 294.547C217.984 294.547 213.942 302.755 202.492 301.729L202.666 298.651Z" fill="#FF9A6C"/>
<path d="M208.36 281.055C208.104 281.055 208.104 282.759 206.637 283.969C205.17 285.18 203.353 284.995 203.333 285.241C203.312 285.488 203.743 285.57 204.513 285.59C205.516 285.607 206.494 285.269 207.273 284.636C208.017 284.021 208.495 283.143 208.607 282.184C208.668 281.466 208.484 281.045 208.36 281.055Z" fill="#263238"/>
<path d="M195.104 261.592C195.371 261.972 196.582 261.715 197.998 261.838C199.414 261.961 200.583 262.32 200.891 261.972C201.024 261.807 200.891 261.428 200.378 261.038C199.709 260.556 198.914 260.278 198.09 260.238C197.272 260.162 196.45 260.333 195.73 260.73C195.197 261.048 194.992 261.407 195.104 261.592Z" fill="#263238"/>
<path d="M213.798 272.899C213.785 273.28 213.625 273.641 213.351 273.907C213.078 274.173 212.712 274.322 212.331 274.325C212.145 274.332 211.959 274.301 211.784 274.236C211.61 274.17 211.45 274.07 211.315 273.942C211.179 273.814 211.07 273.661 210.995 273.49C210.919 273.32 210.878 273.136 210.874 272.95C210.885 272.567 211.044 272.203 211.317 271.935C211.591 271.667 211.958 271.516 212.341 271.514C212.529 271.505 212.716 271.535 212.892 271.601C213.068 271.666 213.228 271.767 213.364 271.896C213.5 272.026 213.609 272.181 213.683 272.353C213.758 272.525 213.797 272.711 213.798 272.899Z" fill="#263238"/>
<path d="M216.076 268.118C215.881 268.302 214.803 267.44 213.223 267.379C211.643 267.317 210.464 268.077 210.299 267.871C210.135 267.666 210.412 267.451 210.935 267.102C211.633 266.65 212.455 266.427 213.285 266.466C214.105 266.496 214.895 266.783 215.542 267.286C216.004 267.676 216.168 268.035 216.076 268.118Z" fill="#263238"/>
<path d="M216.517 262.823C216.189 263.172 214.988 262.751 213.531 262.679C212.075 262.608 210.813 262.823 210.546 262.433C210.423 262.249 210.638 261.9 211.192 261.582C211.948 261.198 212.794 261.024 213.64 261.078C214.487 261.132 215.303 261.412 216.004 261.889C216.507 262.279 216.661 262.649 216.517 262.823Z" fill="#263238"/>
<path d="M225.659 277.074C225.659 276.223 226.685 274.212 227.485 274.089C229.732 273.73 233.785 273.914 233.826 279.619C233.826 287.416 226.038 285.857 226.018 285.641C225.997 285.426 225.659 280.019 225.659 277.074Z" fill="#FFBF9D"/>
<path d="M228.152 282.779C228.152 282.779 228.285 282.872 228.521 282.974C228.85 283.109 229.218 283.109 229.547 282.974C230.057 282.647 230.468 282.189 230.737 281.647C231.006 281.104 231.123 280.5 231.076 279.896C231.096 279.229 230.963 278.565 230.686 277.957C230.61 277.716 230.477 277.497 230.299 277.318C230.12 277.14 229.901 277.007 229.66 276.931C229.503 276.89 229.337 276.905 229.191 276.975C229.044 277.044 228.927 277.163 228.86 277.311C228.757 277.526 228.809 277.68 228.767 277.69C228.726 277.701 228.593 277.567 228.655 277.239C228.696 277.046 228.805 276.875 228.962 276.757C229.176 276.593 229.444 276.519 229.711 276.551C230.032 276.613 230.331 276.755 230.581 276.966C230.831 277.176 231.022 277.446 231.138 277.752C231.473 278.423 231.639 279.166 231.62 279.917C231.62 281.486 230.789 282.995 229.66 283.302C229.451 283.363 229.231 283.376 229.016 283.341C228.801 283.305 228.597 283.222 228.419 283.097C228.162 282.964 228.121 282.79 228.152 282.779Z" fill="#FF9A6C"/>
<path d="M190.118 263.223C190.885 262.834 191.525 262.234 191.964 261.495C192.404 260.756 192.625 259.907 192.601 259.048C193.627 259.355 194.704 258.022 195.31 257.108C195.915 256.195 196.674 255.744 196.623 254.656C196.592 254.444 196.621 254.228 196.705 254.03C196.859 253.723 197.228 253.63 197.557 253.528C198.388 253.259 199.139 252.786 199.739 252.151C200.34 251.516 200.771 250.741 200.994 249.896C202.673 250.636 204.511 250.94 206.339 250.778C206.744 251.374 207.294 251.856 207.938 252.179C208.581 252.502 209.297 252.656 210.016 252.625C210.735 252.594 211.435 252.38 212.048 252.003C212.662 251.626 213.169 251.098 213.521 250.47C213.784 250.946 214.147 251.358 214.584 251.681C215.022 252.003 215.524 252.227 216.055 252.338C217.118 252.555 218.207 252.614 219.287 252.512C219.084 253.57 219.27 254.666 219.811 255.597C220.352 256.529 221.212 257.233 222.232 257.58C222.509 257.663 222.827 257.755 222.95 258.011C223.03 258.306 222.989 258.619 222.837 258.883C222.689 259.332 222.632 259.806 222.67 260.276C222.709 260.747 222.842 261.205 223.061 261.624C223.28 262.042 223.581 262.412 223.947 262.712C224.312 263.011 224.734 263.234 225.187 263.367C224.893 263.631 224.662 263.958 224.512 264.324C224.362 264.689 224.296 265.084 224.32 265.478C224.344 265.873 224.456 266.257 224.649 266.602C224.842 266.947 225.11 267.244 225.433 267.471C225.71 267.635 226.079 267.84 226.038 268.169C226.012 268.295 225.952 268.412 225.864 268.507C225.218 269.232 224.791 270.125 224.633 271.083C224.582 271.558 224.713 272.034 225.001 272.415C225.289 272.797 225.711 273.054 226.182 273.135C225.903 273.335 225.669 273.591 225.492 273.886C225.316 274.18 225.202 274.508 225.156 274.848C225.156 275.525 225.833 276.213 226.469 275.966C227.927 275.674 229.369 275.308 230.789 274.869C232.995 271.873 230.224 268.569 229.999 264.855C229.708 261.129 228.556 257.522 226.634 254.318C225.879 252.946 224.948 251.68 223.863 250.552C222.559 249.341 221.12 248.284 219.575 247.403C217.668 246.074 215.558 245.066 213.326 244.417C209.109 243.391 204.739 244.95 200.819 246.766C199.301 247.403 197.876 248.241 196.582 249.26C195.124 250.587 193.914 252.165 193.011 253.918C191.526 256.353 190.565 259.072 190.19 261.9" fill="#263238"/>
<path d="M188.589 260.494C188.682 260.195 188.824 259.914 189.01 259.663C189.174 259.407 189.41 259.099 189.626 258.709C189.874 258.263 190.024 257.77 190.067 257.262C190.122 256.617 190.122 255.968 190.067 255.323C189.981 254.554 190.002 253.778 190.128 253.015C190.392 251.645 191.09 250.396 192.119 249.454C192.505 249.119 192.917 248.814 193.35 248.541C193.801 248.268 194.204 247.921 194.54 247.515C194.849 247.06 195.097 246.567 195.279 246.048C195.732 244.943 196.374 243.926 197.177 243.042C198.028 242.083 199.056 241.295 200.204 240.723C200.801 240.418 201.431 240.18 202.081 240.015C202.753 239.852 203.442 239.777 204.133 239.789C204.482 239.789 204.831 239.841 205.159 239.871C205.488 239.902 205.857 240.005 206.185 240.066C206.862 240.205 207.56 240.205 208.237 240.066C208.945 239.933 209.622 239.677 210.351 239.502C211.815 239.115 213.335 238.979 214.845 239.102C215.619 239.166 216.386 239.307 217.133 239.523C218.676 239.963 220.045 240.87 221.052 242.118L221.339 242.508H221.216C223.488 242.076 225.839 242.53 227.785 243.779C229.732 245.027 231.126 246.974 231.681 249.218L231.62 249.136C232.558 249.563 233.469 250.046 234.349 250.583C235.21 251.126 235.964 251.821 236.575 252.635C237.155 253.425 237.51 254.358 237.601 255.333C237.699 256.276 237.431 257.22 236.852 257.97V257.837C237.902 258.922 238.534 260.343 238.638 261.848C238.77 263.19 238.487 264.54 237.827 265.716C237.673 265.986 237.498 266.243 237.304 266.486C237.119 266.722 236.924 266.948 236.77 267.184C236.614 267.412 236.518 267.677 236.493 267.953C236.468 268.219 236.468 268.487 236.493 268.753C236.574 269.742 236.543 270.737 236.401 271.719C236.293 272.51 236.031 273.274 235.631 273.965C235.335 274.48 234.915 274.914 234.411 275.227C234.01 275.494 233.651 275.597 233.456 275.74C233.355 275.813 233.259 275.891 233.169 275.976C233.239 275.873 233.33 275.786 233.436 275.72C233.641 275.566 233.99 275.453 234.38 275.186C234.862 274.858 235.265 274.427 235.56 273.924C235.941 273.235 236.188 272.479 236.288 271.698C236.424 270.726 236.444 269.741 236.35 268.764C236.324 268.487 236.324 268.209 236.35 267.933C236.379 267.635 236.481 267.35 236.647 267.102C236.813 266.854 236.995 266.618 237.191 266.394C237.37 266.154 237.535 265.904 237.683 265.645C238.322 264.491 238.594 263.171 238.463 261.859C238.35 260.399 237.734 259.025 236.719 257.97L236.657 257.909L236.709 257.847C237.254 257.133 237.504 256.237 237.406 255.344C237.307 254.407 236.952 253.516 236.38 252.768C235.777 251.995 235.04 251.335 234.205 250.819C233.331 250.291 232.427 249.814 231.497 249.393V249.331C230.947 247.149 229.586 245.259 227.691 244.047C225.796 242.834 223.509 242.39 221.298 242.806H221.226L221.175 242.734L220.898 242.365C219.92 241.153 218.59 240.275 217.092 239.851C216.361 239.641 215.612 239.5 214.855 239.43C214.107 239.369 213.356 239.369 212.608 239.43C211.873 239.494 211.146 239.621 210.433 239.81C209.725 239.984 209.038 240.231 208.319 240.374C207.958 240.448 207.59 240.486 207.222 240.487C206.877 240.47 206.534 240.429 206.196 240.364C205.836 240.302 205.498 240.22 205.17 240.169C204.841 240.118 204.492 240.087 204.144 240.087C203.474 240.076 202.805 240.148 202.153 240.302C201.519 240.467 200.903 240.697 200.317 240.99C199.19 241.55 198.18 242.32 197.341 243.257C196.552 244.124 195.917 245.12 195.464 246.202C195.276 246.737 195.017 247.244 194.694 247.71C194.342 248.117 193.926 248.463 193.463 248.736C193.036 249.005 192.628 249.304 192.242 249.629C191.889 249.953 191.573 250.314 191.298 250.706C190.795 251.424 190.446 252.238 190.272 253.097C190.144 253.852 190.116 254.622 190.19 255.385C190.246 256.03 190.246 256.679 190.19 257.324C190.139 257.847 189.978 258.354 189.718 258.811C189.492 259.201 189.246 259.499 189.082 259.745C188.948 259.934 188.828 260.133 188.723 260.34L188.589 260.494Z" fill="#455A64"/>
<path d="M217.615 240.836C217.615 240.836 217.41 240.723 217.03 240.539C216.499 240.274 215.926 240.104 215.337 240.036C214.464 239.925 213.578 240.053 212.772 240.405C211.796 240.826 210.977 241.544 210.433 242.457C210.267 242.734 210.136 243.031 210.043 243.34C209.994 243.473 209.974 243.614 209.983 243.755C209.992 243.897 210.03 244.035 210.094 244.16L210.289 244.427L209.971 244.335C209.161 244.111 208.295 244.214 207.56 244.622C206.975 244.945 206.51 245.449 206.237 246.058C206.05 246.461 205.945 246.897 205.929 247.341C205.939 247.505 205.939 247.669 205.929 247.833C205.923 247.793 205.923 247.751 205.929 247.71C205.919 247.587 205.919 247.464 205.929 247.341C205.912 246.879 206 246.42 206.185 245.997C206.454 245.346 206.93 244.801 207.54 244.448C208.321 244.004 209.247 243.886 210.115 244.119L209.992 244.294C209.9 244.141 209.845 243.969 209.829 243.791C209.813 243.614 209.837 243.435 209.899 243.268C209.996 242.94 210.133 242.626 210.31 242.334C210.87 241.358 211.73 240.588 212.762 240.138C213.608 239.789 214.534 239.675 215.44 239.81C216.043 239.896 216.624 240.094 217.153 240.395C217.3 240.474 217.44 240.563 217.574 240.662L217.615 240.836Z" fill="#455A64"/>
<path d="M230.245 249.834C230.245 249.834 230.163 249.947 229.978 250.111C229.706 250.343 229.41 250.546 229.096 250.716C228.616 250.983 228.084 251.141 227.536 251.178C226.839 251.235 226.147 251.026 225.597 250.593H225.772L225.546 250.922C225.464 251.024 225.371 251.117 225.279 251.219C224.786 251.722 224.189 252.112 223.53 252.36C222.87 252.608 222.165 252.709 221.462 252.656C221.044 252.622 220.633 252.529 220.241 252.379C220.095 252.327 219.957 252.254 219.831 252.163C220.363 252.339 220.914 252.449 221.473 252.491C222.079 252.515 222.685 252.425 223.258 252.225C223.956 251.988 224.589 251.591 225.105 251.065L225.361 250.768L225.577 250.47L225.659 250.368L225.751 250.45C226.256 250.843 226.887 251.04 227.526 251.004C228.046 250.975 228.556 250.842 229.024 250.614C229.814 250.183 230.224 249.793 230.245 249.834Z" fill="#455A64"/>
<path d="M234.349 257.067C234.349 257.067 234.349 257.119 234.349 257.211C234.309 257.345 234.251 257.473 234.174 257.591C233.875 258.018 233.423 258.315 232.912 258.422C232.162 258.557 231.389 258.472 230.686 258.175C230.286 258.032 229.875 257.888 229.455 257.693C229.005 257.479 228.643 257.117 228.429 256.667V256.544L228.603 256.595C227.909 257.173 227.131 257.64 226.295 257.98C225.598 258.257 224.837 258.332 224.099 258.196C223.603 258.118 223.138 257.905 222.755 257.58C222.652 257.493 222.555 257.397 222.468 257.293C222.468 257.221 222.386 257.18 222.396 257.18C222.406 257.18 222.529 257.314 222.806 257.509C223.2 257.788 223.653 257.97 224.13 258.042C224.825 258.13 225.532 258.038 226.182 257.775C226.993 257.432 227.75 256.973 228.429 256.411L228.562 256.308L228.613 256.462V256.575C228.832 256.962 229.17 257.268 229.578 257.447C229.978 257.632 230.388 257.786 230.778 257.929C231.442 258.222 232.173 258.325 232.892 258.227C233.37 258.131 233.802 257.874 234.113 257.498C234.207 257.363 234.286 257.219 234.349 257.067Z" fill="#455A64"/>
<path d="M242.762 229.242C242.762 229.242 242.629 229.242 242.393 229.304C242.054 229.405 241.752 229.601 241.521 229.868C241.164 230.284 240.958 230.808 240.936 231.356C240.919 232.074 241.016 232.791 241.223 233.48V233.613H241.09C240.125 233.587 239.178 233.875 238.391 234.434C237.947 234.74 237.581 235.147 237.322 235.621C237.064 236.095 236.921 236.623 236.904 237.163C236.882 237.653 236.972 238.142 237.168 238.591C237.363 239.041 237.659 239.44 238.032 239.759L238.299 239.964H237.96C237.405 239.964 236.857 240.08 236.348 240.302C235.84 240.524 235.383 240.849 235.006 241.257C234.403 241.914 234.041 242.757 233.98 243.647C233.947 244.234 234.038 244.821 234.246 245.371C234.39 245.761 234.513 245.945 234.493 245.956C234.472 245.966 234.493 245.956 234.4 245.822C234.309 245.691 234.233 245.55 234.174 245.402C233.865 244.699 233.763 243.923 233.881 243.165C233.999 242.406 234.333 241.698 234.841 241.123C235.231 240.692 235.705 240.346 236.235 240.108C236.765 239.869 237.338 239.743 237.919 239.738L237.848 239.943C237.443 239.603 237.121 239.175 236.908 238.691C236.694 238.207 236.595 237.681 236.616 237.153C236.634 236.565 236.796 235.991 237.088 235.48C237.366 234.992 237.747 234.572 238.207 234.249C239.037 233.668 240.036 233.376 241.049 233.418L240.946 233.541C240.751 232.83 240.665 232.093 240.69 231.356C240.728 230.775 240.963 230.225 241.356 229.796C241.606 229.521 241.937 229.334 242.3 229.263C242.396 229.249 242.492 229.249 242.588 229.263L242.762 229.242Z" fill="#455A64"/>
<path d="M256.644 246.171L256.521 246.243C256.394 246.308 256.264 246.366 256.131 246.418C255.628 246.614 255.099 246.735 254.561 246.777C253.732 246.838 252.899 246.737 252.109 246.479C251.092 246.151 250.184 245.551 249.482 244.745H249.657C249.287 245.381 248.78 245.926 248.173 246.341C247.566 246.756 246.874 247.031 246.148 247.146C245.368 247.252 244.575 247.111 243.879 246.743C243.183 246.375 242.621 245.799 242.27 245.094H242.465C242.275 245.609 241.953 246.066 241.531 246.418C241.15 246.732 240.716 246.976 240.248 247.136C239.481 247.385 238.67 247.469 237.868 247.382C237.354 247.33 236.844 247.248 236.339 247.136C236.157 247.102 235.978 247.05 235.806 246.982L236.35 247.064C236.709 247.115 237.222 247.208 237.878 247.249C238.659 247.314 239.444 247.22 240.187 246.972C240.649 246.813 241.072 246.557 241.426 246.221C241.78 245.884 242.057 245.476 242.239 245.022L242.331 244.766L242.444 245.012C242.776 245.674 243.306 246.216 243.961 246.562C244.616 246.908 245.363 247.041 246.097 246.941C246.789 246.832 247.449 246.572 248.029 246.178C248.61 245.784 249.095 245.267 249.452 244.663L249.534 244.53L249.626 244.653C250.305 245.429 251.175 246.012 252.15 246.346C252.914 246.611 253.723 246.726 254.53 246.684C255.257 246.622 255.97 246.449 256.644 246.171Z" fill="#455A64"/>
<path d="M248.446 257.56C248.446 257.56 248.446 257.621 248.354 257.703C248.233 257.816 248.077 257.885 247.913 257.898C247.323 257.944 246.732 257.845 246.189 257.611C245.373 257.274 244.682 256.694 244.209 255.949C243.645 255.028 243.444 253.931 243.644 252.871L243.819 253.004C242.847 253.474 241.751 253.622 240.69 253.425C239.831 253.27 239.02 252.919 238.32 252.399C237.852 252.054 237.435 251.647 237.078 251.188C236.936 251.029 236.818 250.849 236.729 250.655C237.222 251.259 237.787 251.8 238.412 252.266C239.103 252.746 239.891 253.069 240.72 253.21C241.735 253.387 242.78 253.24 243.706 252.789L243.922 252.686V252.922C243.728 253.935 243.915 254.983 244.445 255.867C244.886 256.586 245.538 257.152 246.312 257.488C246.826 257.726 247.387 257.845 247.954 257.837C248.146 257.807 248.321 257.709 248.446 257.56Z" fill="#455A64"/>
<path d="M225.72 229.489C225.455 230.261 225.334 231.074 225.361 231.89C225.41 232.765 225.667 233.616 226.11 234.373C226.555 235.093 227.162 235.698 227.884 236.14C228.606 236.582 229.422 236.848 230.265 236.917H230.368V237.05C230.114 237.866 230.013 238.722 230.07 239.574C230.123 240.252 230.272 240.919 230.512 241.555C230.604 241.793 230.71 242.026 230.83 242.252C230.87 242.333 230.927 242.403 230.998 242.458C231.069 242.513 231.152 242.552 231.24 242.57C231.297 242.579 231.356 242.574 231.411 242.556C231.466 242.538 231.516 242.508 231.558 242.468C231.609 242.468 231.62 242.375 231.63 242.375C231.64 242.375 231.63 242.427 231.63 242.498C231.588 242.549 231.534 242.589 231.474 242.614C231.413 242.639 231.347 242.649 231.281 242.642C231.177 242.633 231.076 242.598 230.989 242.541C230.901 242.484 230.829 242.406 230.778 242.314C230.636 242.09 230.516 241.853 230.419 241.606C230.14 240.954 229.97 240.261 229.917 239.554C229.837 238.679 229.928 237.798 230.183 236.958L230.286 237.102C229.643 237.058 229.014 236.898 228.429 236.63C227.496 236.223 226.7 235.558 226.134 234.712C225.568 233.866 225.257 232.876 225.238 231.859C225.216 231.251 225.3 230.643 225.484 230.063C225.537 229.906 225.598 229.752 225.669 229.602C225.696 229.526 225.713 229.489 225.72 229.489Z" fill="#455A64"/>
<path d="M231.055 274.376V273.135L218.569 269.113C214.116 267.205 207.765 268.313 204.03 270.611L200.788 270.693C197.084 267.769 190.836 267.174 185.983 269.287L186.106 269.811C186.106 269.811 186.106 269.923 186.106 270.026L186.209 270.498C186.866 273.361 187.635 276.408 188.405 277.218C188.928 277.772 190.672 278.07 192.088 278.244C192.632 278.306 193.114 278.347 193.483 278.367C193.853 278.388 197.7 278.634 198.357 278.049C199.013 277.465 200.265 272.786 200.614 271.37L203.938 271.298C204.328 272.417 204.964 277.454 206.606 278.408C208.247 279.363 215.183 279.106 215.973 277.936C217.137 275.592 218.125 273.164 218.928 270.672L219 270.539L231.055 274.376ZM198.069 277.516C197.372 278.07 189.81 277.68 188.907 276.736C188.004 275.792 187.225 271.842 186.855 270.293V270.231C191.175 268.59 196.807 269.113 200.029 271.596C199.403 274.027 198.48 277.157 198.069 277.516ZM215.594 277.516C215.101 278.255 208.647 278.839 206.996 277.803C205.857 277.095 205.251 273.607 204.738 271.647C208.381 269.472 214.609 268.569 218.559 270.518C217.782 272.935 216.79 275.277 215.594 277.516Z" fill="#263238"/>
<g opacity="0.3">
<path d="M205.406 272.016C205.406 272.016 206.083 276.9 207.458 277.146C208.832 277.393 210.536 269.964 210.536 269.964C210.536 269.964 206.288 270.816 205.406 272.016Z" fill="white"/>
</g>
<g opacity="0.3">
<path d="M187.409 270.457C187.409 270.457 188.097 275.997 189.461 276.223C190.826 276.448 193.699 269.687 193.699 269.687C193.699 269.687 188.302 269.256 187.409 270.457Z" fill="white"/>
</g>
<path d="M265.088 289.91C265.088 289.91 262.595 286.38 261.076 286.935C259.558 287.489 257.639 289.181 257.547 290.495C257.455 291.808 257.978 292.916 258.573 292.783C259.357 292.381 260.082 291.873 260.727 291.275L263.118 293.819L262.718 297.492L260.779 298.857L259.24 296.528L259.342 293.655C259.342 293.655 257.762 292.629 257.29 295.009C256.818 297.389 256.459 301.535 258.993 303.217C261.309 304.602 263.707 305.842 266.175 306.931L276.271 304.664L277.072 292.28C277.072 292.28 280.581 287.571 280.611 285.847C280.642 284.123 280.15 278.901 280.15 278.901C279.982 278.796 279.792 278.733 279.595 278.717C279.399 278.701 279.201 278.732 279.019 278.809C278.837 278.885 278.676 279.004 278.549 279.156C278.423 279.308 278.335 279.488 278.293 279.681C277.905 281.593 277.696 283.537 277.667 285.488L274.712 289.253L274.024 274.304C274.024 274.304 271.788 273.278 271.408 276.695C271.028 280.112 271.223 288.453 270.813 288.504C270.403 288.556 269.151 288.73 269.1 286.996C269.048 285.262 266.668 272.191 266.668 272.191C266.668 272.191 263.805 273.217 264.37 275.997C264.934 278.778 266.022 287.458 266.063 288.114C266.104 288.771 265.088 289.91 265.088 289.91Z" fill="#FFBF9D"/>
<path d="M269.695 302.068C269.623 302.068 269.418 301.688 268.966 301.134C268.39 300.409 267.671 299.808 266.854 299.371C266.037 298.933 265.139 298.667 264.216 298.59C263.821 298.598 263.426 298.571 263.036 298.508C263.404 298.323 263.817 298.248 264.226 298.292C265.223 298.279 266.207 298.519 267.086 298.989C267.965 299.459 268.711 300.144 269.253 300.98C269.654 301.586 269.746 302.047 269.695 302.068Z" fill="#FF9A6C"/>
<path d="M264.657 306.726L268.084 329.226L253.494 315.888C250.392 313.202 246.915 310.983 243.172 309.301H242.721L241.521 335.895C247.892 340.933 253.781 343.488 260.943 348.464C264.367 350.66 267.943 352.611 271.644 354.302C275.461 356.22 281.545 357.297 285.639 352.66C291.353 346.176 287.301 337.27 283.935 326.753C280.201 315.067 277.584 303.638 277.584 303.638L264.657 306.726Z" fill="#455A64"/>
<path d="M271.408 339.24C270.556 337.638 269.898 335.94 269.448 334.182C268.843 332.47 268.44 330.693 268.248 328.888C268.917 330.559 269.476 332.273 269.92 334.018C270.523 335.726 271.02 337.47 271.408 339.24Z" fill="#263238"/>
<path d="M155.255 507.484L159.574 520.175C159.574 520.175 141.321 534.016 142.235 537.884L182.013 525.869L175.477 500.763L155.255 507.484Z" fill="#263238"/>
<path d="M182.013 525.869L181.161 522.596L143.158 535.39C143.158 535.39 141.619 536.704 142.194 537.884L182.013 525.869Z" fill="#455A64"/>
<path d="M158.887 520.165C158.948 520.36 159.913 520.165 161.092 520.483C162.272 520.801 162.991 521.509 163.144 521.355C163.298 521.201 162.662 520.185 161.277 519.806C159.892 519.426 158.794 520 158.887 520.165Z" fill="#455A64"/>
<path d="M155.234 523.15C155.234 523.356 156.188 523.427 157.101 524.053C158.015 524.679 158.456 525.479 158.651 525.418C158.846 525.356 158.651 524.217 157.491 523.458C156.332 522.699 155.183 522.986 155.234 523.15Z" fill="#455A64"/>
<path d="M154.372 528.855C154.567 528.855 154.547 527.829 153.726 526.885C152.905 525.941 151.869 525.859 151.838 526.002C151.807 526.146 152.536 526.587 153.192 527.357C153.849 528.126 154.177 528.896 154.372 528.855Z" fill="#455A64"/>
<path d="M157.82 515.373C157.953 515.527 158.764 514.983 159.872 514.727C160.98 514.47 161.924 514.562 162.006 514.357C162.088 514.152 161.031 513.721 159.707 514.039C158.384 514.357 157.676 515.25 157.82 515.373Z" fill="#455A64"/>
<path d="M150.525 512.111L126.999 438.916C126.999 438.916 128.127 426.953 130.487 423.259C132.847 419.566 200.614 400.267 200.614 400.267C200.614 400.267 217.81 396.87 228.993 401.446C240.177 406.022 251.504 411.552 250.047 419.473C249.804 420.68 249.461 421.864 249.021 423.013C246.872 428.542 243.078 433.277 238.152 436.58C233.225 439.883 227.403 441.594 221.473 441.481L212.598 442.107L167.177 448.837C166.698 448.908 166.239 449.079 165.83 449.339C165.422 449.598 165.072 449.941 164.804 450.344C164.536 450.748 164.356 451.203 164.275 451.68C164.194 452.158 164.214 452.647 164.335 453.116L176.872 502.23C176.872 502.23 160.662 509.371 150.525 512.111Z" fill="#263238"/>
<path d="M129.82 473.738L127.009 488C127.009 488 104.56 492.637 103.719 496.526L144.759 502.784L149.673 477.309L129.82 473.738Z" fill="#263238"/>
<path d="M144.738 502.774L145.138 499.429L105.606 494.679C105.606 494.679 103.657 495.192 103.667 496.515L144.738 502.774Z" fill="#455A64"/>
<path d="M126.321 487.682C126.321 487.877 127.286 488.123 128.178 488.923C129.071 489.723 129.461 490.637 129.656 490.585C129.851 490.534 129.728 489.334 128.63 488.39C127.532 487.446 126.301 487.487 126.321 487.682Z" fill="#455A64"/>
<path d="M121.745 488.8C121.663 488.985 122.484 489.467 123.038 490.411C123.592 491.355 123.644 492.299 123.849 492.319C124.054 492.34 124.351 491.221 123.644 490.052C122.936 488.882 121.776 488.615 121.745 488.8Z" fill="#455A64"/>
<path d="M118.534 493.581C118.708 493.653 119.139 492.699 118.791 491.529C118.442 490.359 117.57 489.775 117.457 489.929C117.344 490.082 117.836 490.76 118.113 491.724C118.39 492.688 118.308 493.54 118.534 493.581Z" fill="#455A64"/>
<path d="M127.419 482.89C127.481 483.085 128.445 482.952 129.563 483.198C130.682 483.444 131.513 483.947 131.615 483.783C131.718 483.618 131 482.757 129.676 482.51C128.353 482.264 127.347 482.716 127.419 482.89Z" fill="#455A64"/>
<path d="M143.158 391.207C143.158 391.207 131.872 389.832 130.087 402.082C128.302 414.333 123.254 475.872 123.254 475.872L150.001 480.735L157.625 416.487L200.614 400.266C200.614 400.266 150.781 389.945 143.158 391.207Z" fill="#263238"/>
<path d="M190.056 381.819C190.056 381.819 182.874 395.557 184.106 397.752C185.337 399.948 202.666 409.541 202.666 409.541L246.23 428.378C249.541 422.89 251.372 416.636 251.545 410.229C252.006 399.117 237.037 379.818 237.037 379.818L190.056 381.819Z" fill="#263238"/>
<path d="M237.889 402.76C237.465 402.674 237.053 402.543 236.657 402.37L233.374 401.159C229.785 399.779 226.094 398.682 222.334 397.876C218.574 397.095 214.704 396.984 210.905 397.547C209.344 397.848 207.799 398.228 206.278 398.686C206.644 398.461 207.037 398.282 207.447 398.153C208.55 397.74 209.686 397.424 210.843 397.209C214.681 396.531 218.613 396.594 222.427 397.394C226.217 398.188 229.924 399.338 233.497 400.831C234.872 401.385 235.97 401.857 236.729 402.195C237.134 402.342 237.523 402.531 237.889 402.76Z" fill="#455A64"/>
<path d="M232.051 392.335C230.766 392.202 229.474 392.14 228.183 392.15C226.982 392.15 225.556 392.304 223.976 392.427C222.396 392.551 220.652 392.694 218.846 392.951C215.749 393.317 212.754 394.29 210.033 395.813C208.956 396.51 207.928 397.277 206.955 398.112C207.134 397.806 207.363 397.532 207.632 397.301C208.317 396.63 209.07 396.032 209.879 395.516C212.599 393.862 215.643 392.813 218.805 392.438C220.631 392.161 222.386 392.038 223.935 391.945C225.484 391.853 226.951 391.761 228.172 391.771C229.129 391.767 230.083 391.849 231.025 392.017C231.381 392.067 231.728 392.175 232.051 392.335Z" fill="#455A64"/>
<path d="M149.027 480.551C149.17 480.551 148.329 485.578 147.149 491.714C145.969 497.849 144.882 502.805 144.738 502.774C144.594 502.743 145.436 497.747 146.616 491.611C147.796 485.476 148.883 480.53 149.027 480.551Z" fill="#455A64"/>
<path d="M203.897 399.753C203.897 399.753 203.836 399.753 203.692 399.856L203.056 400.123L200.594 401.087L191.36 404.668L159.184 416.908L159.338 416.713C158.384 423.464 157.348 430.831 156.26 438.485C153.972 454.48 151.859 469.214 150.196 480.756V480.982H149.981L130.487 477.35L125.131 476.324L123.736 476.036C123.576 476.013 123.418 475.975 123.264 475.924L123.746 475.975L125.162 476.201L130.528 477.124L150.022 480.571L149.776 480.756C151.407 469.193 153.48 454.46 155.737 438.454C156.824 430.8 157.881 423.444 158.815 416.693V416.539L158.948 416.487L191.175 404.422L200.491 400.985L202.974 400.092L203.692 399.866L203.897 399.753Z" fill="#455A64"/>
<path d="M249.523 314.821C249.523 314.821 246.887 310.543 244.106 309.291L228.316 305.341L225.977 298.979L209.427 306.603L206.616 315.242V306.962L201.681 303.155L199.085 305.915L191.277 307.834V307.906C190.806 308.039 180.576 311.22 178.381 319.725C174.81 333.494 163.575 373.334 163.575 373.334L140.08 391.104L151.263 396.788C151.263 396.788 172.563 390.694 177.939 384.086C182.187 378.833 187.112 365.434 188.712 358.785C188.712 360.468 188.128 363.535 187.912 368.594C187.584 376.176 183.901 385.01 188.825 385.184C193.75 385.358 241.377 385.43 241.377 385.43C241.377 385.43 245.481 385.83 243.378 372.985C242.341 366.665 249.523 314.821 249.523 314.821Z" fill="#455A64"/>
<path d="M198.48 306.818C198.971 307.653 199.39 308.529 199.732 309.435C200.47 311.056 201.394 313.374 202.584 315.786L202.666 315.95H202.235C203.333 313.528 204.072 311.22 204.677 309.578C204.945 308.672 205.288 307.79 205.703 306.941C205.557 307.874 205.323 308.792 205.005 309.681C204.376 311.884 203.601 314.044 202.687 316.145L202.481 316.596L202.245 316.175L202.143 315.991C200.922 313.498 200.091 311.199 199.403 309.537C199.017 308.66 198.708 307.75 198.48 306.818Z" fill="#263238"/>
<path d="M226.172 305.474C225.888 305.758 225.571 306.006 225.228 306.213L222.529 308.08C220.241 309.64 217.061 311.753 213.542 314.082L209.355 316.76L209.007 316.986V316.596C208.801 313.682 208.648 311.189 208.555 309.414C208.555 308.603 208.494 307.916 208.463 307.362C208.434 307.113 208.434 306.862 208.463 306.613C208.542 306.852 208.587 307.1 208.596 307.352C208.658 307.916 208.74 308.593 208.822 309.404C208.996 311.168 209.212 313.662 209.448 316.586L209.089 316.411L213.254 313.651C216.784 311.333 219.995 309.25 222.334 307.772L225.115 306.028C225.45 305.813 225.804 305.628 226.172 305.474Z" fill="#263238"/>
<path d="M187.881 381.819C187.799 381.691 187.727 381.557 187.666 381.419C187.504 381.018 187.384 380.602 187.307 380.177C187.028 378.595 186.88 376.992 186.866 375.386C186.866 373.334 186.866 370.871 186.999 368.101C187.132 365.331 187.225 362.233 187.358 358.929L187.42 359.093C185.529 357.132 184.037 354.821 183.028 352.291C182.233 350.327 181.758 348.249 181.623 346.135C181.518 344.18 181.645 342.221 182.002 340.297C182.685 337.07 183.559 333.888 184.619 330.765C185.296 328.66 185.858 326.519 186.301 324.353C186.599 322.824 186.671 321.952 186.722 321.962C186.747 322.17 186.747 322.38 186.722 322.588C186.68 323.19 186.608 323.789 186.507 324.383C186.14 326.573 185.63 328.735 184.978 330.857C183.962 333.975 183.119 337.147 182.454 340.358C182.118 342.25 182.001 344.175 182.105 346.094C182.25 348.154 182.717 350.18 183.49 352.096C184.474 354.573 185.93 356.834 187.779 358.754L187.84 358.826V358.929C187.686 362.233 187.543 365.321 187.409 368.101C187.276 370.882 187.163 373.324 187.173 375.365C187.159 376.957 187.258 378.548 187.471 380.126C187.562 380.7 187.7 381.266 187.881 381.819Z" fill="#263238"/>
<path d="M202.02 381.624C201.971 381.401 201.944 381.175 201.937 380.947L201.814 379.008C201.702 377.335 201.599 374.904 201.507 371.887C201.322 365.865 201.291 357.523 201.691 348.351C202.091 339.178 202.871 330.857 203.579 324.876C203.928 321.88 204.256 319.469 204.513 317.796C204.636 317.006 204.728 316.36 204.81 315.878C204.839 315.653 204.884 315.43 204.944 315.211C204.971 315.436 204.971 315.663 204.944 315.888C204.882 316.381 204.821 317.017 204.728 317.817C204.544 319.551 204.277 321.921 203.959 324.907C203.333 330.898 202.625 339.189 202.225 348.371C201.825 357.554 201.794 365.813 201.886 371.877C201.948 374.842 201.999 377.263 202.04 379.008C202.04 379.808 202.04 380.454 202.04 380.947C202.055 381.173 202.049 381.399 202.02 381.624Z" fill="#263238"/>
<path d="M229.753 356.661C229.753 356.661 229.527 356.805 229.086 357C228.457 357.273 227.809 357.499 227.146 357.677C222.73 358.895 218.045 358.713 213.737 357.154C213.093 356.923 212.466 356.648 211.859 356.333C211.428 356.107 211.202 355.964 211.223 355.933C211.243 355.902 212.249 356.312 213.85 356.836C218.124 358.194 222.687 358.371 227.054 357.349C228.727 356.959 229.722 356.579 229.753 356.661Z" fill="#263238"/>
<path d="M240.023 328.559C240.023 328.559 239.776 328.344 239.438 327.872C238.971 327.206 238.565 326.498 238.227 325.758C237.08 323.295 236.589 320.577 236.801 317.868C236.997 315.127 238.186 312.552 240.146 310.625C240.754 310.062 241.485 309.648 242.28 309.414C242.566 309.312 242.87 309.27 243.172 309.291C242.142 309.618 241.196 310.168 240.402 310.902C238.606 312.821 237.519 315.298 237.324 317.92C237.127 320.542 237.549 323.175 238.555 325.604C239.345 327.472 240.094 328.508 240.023 328.559Z" fill="#263238"/>
<path d="M122.371 347.591L178.606 350.382C180.433 350.464 182.146 351.408 182.341 353.224L186.783 394.49L215.768 395.69C216 395.685 216.23 395.727 216.444 395.815C216.659 395.902 216.853 396.032 217.015 396.198C217.177 396.363 217.304 396.56 217.387 396.776C217.47 396.992 217.508 397.223 217.498 397.455C217.488 397.686 217.431 397.913 217.33 398.121C217.229 398.33 217.086 398.515 216.91 398.666C216.735 398.817 216.53 398.931 216.309 398.999C216.088 399.068 215.855 399.091 215.624 399.066L187.153 397.886L181.746 397.66L123.069 395.229L118.534 351.644C118.482 351.117 118.544 350.586 118.715 350.085C118.887 349.584 119.164 349.126 119.528 348.742C119.891 348.358 120.334 348.056 120.824 347.858C121.315 347.659 121.842 347.568 122.371 347.591Z" fill="#E0E0E0"/>
<path d="M122.371 347.591C122.073 347.563 121.772 347.58 121.479 347.643C120.726 347.786 120.036 348.159 119.503 348.71C118.97 349.261 118.621 349.963 118.503 350.721C118.451 351.499 118.489 352.28 118.616 353.05C118.78 354.712 118.965 356.63 119.191 358.795C120.063 367.434 121.335 379.9 122.895 395.229V395.372H123.048L212.834 399.148L215.255 399.25C215.691 399.309 216.135 399.245 216.538 399.066C216.844 398.912 217.103 398.679 217.289 398.391C217.475 398.103 217.58 397.77 217.593 397.428C217.607 397.085 217.529 396.745 217.366 396.443C217.204 396.141 216.964 395.888 216.671 395.711C216.285 395.501 215.848 395.401 215.409 395.423L214.219 395.372L204.821 394.982L186.773 394.233L186.989 394.438C185.378 379.654 183.911 365.875 182.546 353.501C182.522 352.677 182.18 351.893 181.592 351.316C180.999 350.781 180.266 350.425 179.478 350.29C178.727 350.187 177.97 350.129 177.211 350.115L175.005 350.013L166.541 349.602L151.489 348.884L130.066 347.858L124.331 347.612L122.853 347.561H122.351L122.853 347.612L124.331 347.704L130.056 348.022L151.479 349.151L166.52 349.92L174.995 350.351L177.201 350.464C177.939 350.48 178.675 350.538 179.407 350.639C180.126 350.765 180.794 351.093 181.335 351.582C181.861 352.1 182.159 352.805 182.167 353.542L186.548 394.48V394.664H186.742L204.78 395.423L214.188 395.813L215.378 395.865C215.735 395.835 216.093 395.914 216.404 396.09C216.628 396.225 216.812 396.417 216.937 396.647C217.061 396.878 217.121 397.137 217.11 397.398C217.1 397.659 217.019 397.913 216.877 398.133C216.735 398.352 216.536 398.529 216.302 398.645C215.98 398.788 215.624 398.837 215.276 398.789L212.864 398.686L123.069 395.013L123.233 395.167C121.612 379.89 120.299 367.434 119.375 358.826C119.15 356.658 118.944 354.743 118.76 353.08C118.632 352.325 118.588 351.558 118.626 350.792C118.712 350.163 118.963 349.568 119.355 349.069C119.884 348.382 120.641 347.905 121.489 347.725C122.063 347.54 122.371 347.622 122.371 347.591Z" fill="#263238"/>
<path d="M152.956 372.164C152.927 372.862 152.692 373.535 152.28 374.099C151.868 374.663 151.298 375.092 150.643 375.332C149.987 375.572 149.275 375.612 148.596 375.447C147.918 375.282 147.304 374.92 146.831 374.405C146.359 373.891 146.049 373.249 145.942 372.559C145.835 371.869 145.935 371.162 146.229 370.529C146.524 369.896 146.999 369.365 147.596 369.002C148.192 368.639 148.883 368.461 149.581 368.491C150.044 368.509 150.499 368.619 150.919 368.814C151.34 369.009 151.718 369.285 152.032 369.626C152.345 369.967 152.588 370.367 152.747 370.803C152.906 371.238 152.977 371.701 152.956 372.164Z" fill="white"/>
<path d="M184.383 397.394C184.301 397.394 182.946 386.887 181.305 373.909C179.663 360.93 178.483 350.393 178.555 350.382C178.627 350.372 179.992 360.889 181.633 373.878C183.275 386.867 184.465 397.383 184.383 397.394Z" fill="#263238"/>
</svg>
