<svg width="630" height="612" viewBox="0 0 630 612" fill="none" xmlns="http://www.w3.org/2000/svg">
<path d="M439.754 130.89L446.321 134.676C446.28 134.387 446.259 134.095 446.259 133.804V131.906C446.259 128.52 448.639 127.155 451.563 128.828C452.831 129.608 453.91 130.659 454.724 131.906C455.206 127.648 458.54 126.068 462.593 128.407C464.902 129.912 466.823 131.941 468.201 134.328C469.579 136.715 470.375 139.393 470.524 142.145V144.987C470.555 146.125 470.327 147.254 469.857 148.291L475.305 151.43C476.165 151.993 476.88 152.751 477.392 153.643C477.904 154.534 478.198 155.534 478.25 156.56C478.25 158.438 476.926 159.197 475.305 158.253L439.754 137.733C438.895 137.17 438.182 136.412 437.672 135.52C437.162 134.629 436.87 133.629 436.82 132.603C436.82 130.705 438.133 129.946 439.754 130.89Z" fill="#EBEBEB"/>
<path d="M411.683 150.004L416.638 152.857C416.606 152.639 416.589 152.42 416.587 152.2V150.774C416.587 148.219 418.383 147.183 420.599 148.455C421.545 149.045 422.357 149.828 422.979 150.753C423.338 147.542 425.862 146.352 428.92 148.117C430.662 149.253 432.112 150.785 433.151 152.587C434.191 154.39 434.79 156.412 434.901 158.489V160.634C434.925 161.489 434.753 162.338 434.398 163.117L438.502 165.487C439.147 165.91 439.684 166.478 440.069 167.147C440.454 167.815 440.676 168.564 440.719 169.334C440.719 170.75 439.693 171.325 438.502 170.617L411.672 155.124C411.026 154.705 410.488 154.139 410.103 153.472C409.718 152.805 409.496 152.056 409.456 151.287C409.467 149.871 410.452 149.296 411.683 150.004Z" fill="#EBEBEB"/>
<path d="M138.52 456.07C137.874 456.419 125.788 459.856 121.314 453.936C116.841 448.016 124.269 438.813 120.063 435.417C115.856 432.021 104.108 435.417 101.277 428.286C98.4449 421.155 106.838 418.026 102.118 410.844C99.1425 406.309 90.8319 403.806 91.2116 399.558C91.7656 393.402 103.123 391.719 113.055 398.337C122.987 404.955 127.604 399.527 130.764 399.086C133.924 398.645 140.706 399.62 140.48 410.68C140.254 421.74 138.52 456.07 138.52 456.07Z" fill="#455A64"/>
<path d="M139.321 440.341C139.165 440.341 139.014 440.285 138.895 440.183C138.777 440.082 138.699 439.942 138.674 439.787C135.217 418.795 110.818 401.713 98.1267 398.05C97.9602 397.997 97.8203 397.883 97.7362 397.73C97.6521 397.577 97.6302 397.398 97.6753 397.229C97.6999 397.146 97.7408 397.069 97.7955 397.001C97.8501 396.934 97.9176 396.879 97.9939 396.838C98.0701 396.797 98.1538 396.771 98.24 396.762C98.3262 396.754 98.4132 396.763 98.4961 396.788C111.465 400.533 136.458 418.036 139.977 439.572C140.004 439.745 139.962 439.921 139.86 440.063C139.759 440.205 139.605 440.301 139.433 440.331L139.321 440.341Z" fill="white"/>
<path d="M110.552 422.766C110.438 422.767 110.326 422.737 110.228 422.682C110.129 422.626 110.046 422.545 109.987 422.448C109.9 422.298 109.874 422.119 109.917 421.951C109.959 421.782 110.065 421.637 110.213 421.545C110.613 421.309 120.001 415.82 129.245 418.385C129.329 418.408 129.408 418.447 129.476 418.5C129.545 418.553 129.602 418.619 129.645 418.694C129.688 418.77 129.716 418.853 129.726 418.939C129.737 419.025 129.73 419.112 129.707 419.196C129.686 419.28 129.648 419.36 129.595 419.429C129.542 419.498 129.476 419.556 129.4 419.599C129.324 419.643 129.241 419.67 129.154 419.68C129.068 419.69 128.98 419.682 128.896 419.657C120.196 417.246 110.983 422.623 110.89 422.674C110.788 422.735 110.671 422.767 110.552 422.766Z" fill="white"/>
<path d="M492.1 400.338L488.92 398.84C488.92 398.84 487.894 387.359 488.92 379.695C490.972 365.423 500.934 353.121 509.809 351.675C521.239 349.817 519.207 360.334 512.672 364.879C502.258 372.164 494.152 383.173 492.1 400.338Z" fill="white"/>
<g opacity="0.1">
<path d="M492.1 400.338L488.92 398.84C488.92 398.84 487.894 387.359 488.92 379.695C490.972 365.423 500.934 353.121 509.809 351.675C521.239 349.817 519.207 360.334 512.672 364.879C502.258 372.164 494.152 383.173 492.1 400.338Z" fill="black"/>
</g>
<path d="M490.89 395.762H490.972C491.116 395.735 491.243 395.651 491.326 395.53C491.409 395.409 491.44 395.26 491.413 395.116C489.197 383.388 498.852 361.647 511.769 355.471C511.905 355.407 512.01 355.292 512.061 355.15C512.112 355.009 512.105 354.853 512.041 354.717C511.977 354.581 511.862 354.476 511.72 354.425C511.579 354.374 511.423 354.381 511.287 354.445C497.949 360.806 488.038 383.173 490.315 395.3C490.338 395.434 490.409 395.555 490.515 395.641C490.621 395.726 490.754 395.769 490.89 395.762Z" fill="white"/>
<path d="M488.92 398.84C488.684 397.137 488.581 394.654 488.551 394.038C488.418 391.876 488.736 389.71 489.484 387.677C490.467 384.991 492.339 382.721 494.789 381.244C496.123 380.474 497.682 379.92 498.544 378.648C499.169 377.476 499.503 376.17 499.519 374.842C499.785 372.697 500.452 370.43 502.176 369.116C503.9 367.803 506.28 367.772 508.332 367.998C511.41 368.326 514.293 368.737 517.166 367.331C519.461 366.112 521.833 365.043 524.266 364.13C527.344 363.104 534.228 361.565 535.675 365.885C535.839 366.481 535.868 367.106 535.76 367.715C535.651 368.324 535.409 368.901 535.049 369.404C534.321 370.405 533.45 371.293 532.463 372.041L527.651 376.042C527.078 376.463 526.581 376.98 526.184 377.571C525.251 379.171 525.918 381.192 525.712 383.029C525.582 383.963 525.25 384.858 524.74 385.652C524.23 386.446 523.553 387.119 522.757 387.625C521.153 388.63 519.267 389.087 517.381 388.928C514.868 388.754 510.764 386.825 509.225 389.79C508.798 390.801 508.548 391.876 508.486 392.971C508.425 394.07 508.071 395.133 507.46 396.049C506.434 397.301 504.72 397.66 503.12 397.824C500.878 397.864 498.651 398.209 496.502 398.85C495.64 399.189 495.097 400.286 494.594 401.015C493.024 400.492 491.3 399.866 488.92 398.84Z" fill="white"/>
<path d="M490.325 397.978C490.248 397.998 490.167 397.998 490.089 397.978C489.962 397.926 489.86 397.825 489.807 397.698C489.753 397.572 489.751 397.429 489.802 397.301C496.266 381.244 516.889 369.742 529.18 365.926C529.245 365.905 529.314 365.898 529.382 365.905C529.45 365.911 529.516 365.931 529.577 365.964C529.637 365.996 529.69 366.041 529.733 366.094C529.776 366.147 529.808 366.209 529.826 366.275C529.865 366.405 529.852 366.546 529.788 366.666C529.725 366.787 529.617 366.879 529.488 366.921C517.391 370.676 497.097 381.962 490.767 397.701C490.723 397.781 490.659 397.848 490.582 397.897C490.505 397.945 490.416 397.973 490.325 397.978Z" fill="white"/>
<path d="M344.09 369.291C344.197 371.287 344.775 373.23 345.775 374.961C346.775 376.692 348.17 378.163 349.846 379.253C350.82 379.894 351.999 380.143 353.149 379.951C352.964 380.143 352.754 380.309 352.523 380.444L353.909 379.654L353.98 379.602L354.186 379.469C354.278 379.402 354.364 379.326 354.442 379.243L354.596 379.089C354.596 379.038 354.688 378.987 354.729 378.925C354.921 378.658 355.079 378.368 355.201 378.063L355.304 377.786C355.308 377.739 355.308 377.69 355.304 377.643C355.329 377.562 355.35 377.48 355.365 377.396C355.472 376.925 355.524 376.443 355.519 375.96C355.411 373.966 354.835 372.026 353.836 370.297C352.838 368.568 351.446 367.098 349.774 366.008C349.001 365.52 348.112 365.247 347.198 365.218H346.839L346.511 365.279L346.316 365.331H346.193C346.111 365.352 346.032 365.383 345.957 365.423L345.742 365.536L344.541 366.223C344.736 366.124 344.943 366.052 345.157 366.008C344.386 366.921 344.003 368.099 344.09 369.291Z" fill="white"/>
<path d="M224.653 435.488L232.769 449.586L234.144 448.785L352.523 380.444C352.754 380.309 352.965 380.143 353.149 379.951C353.893 379.045 354.26 377.888 354.175 376.719C354.064 374.723 353.486 372.782 352.486 371.051C351.486 369.321 350.093 367.85 348.419 366.757C347.644 366.275 346.756 366.006 345.844 365.977C345.599 365.973 345.354 366.001 345.116 366.059C344.902 366.103 344.695 366.175 344.5 366.274L344.398 366.326L224.653 435.488Z" fill="#EBEBEB"/>
<path d="M228.726 435.889C225.546 434.052 222.97 435.54 222.97 439.203C223.078 441.199 223.656 443.142 224.656 444.873C225.656 446.604 227.051 448.075 228.726 449.165C231.897 451.002 234.472 449.514 234.472 445.841C234.364 443.847 233.787 441.907 232.789 440.178C231.791 438.449 230.399 436.979 228.726 435.889Z" fill="white"/>
<path d="M216.363 444.435C216.403 444.374 216.451 444.318 216.507 444.271L223.843 436.196L223.904 436.135L224.038 435.991L224.109 435.909C225.135 434.883 226.818 434.821 228.706 435.909C230.378 437 231.77 438.469 232.769 440.198C233.767 441.927 234.343 443.867 234.451 445.861C234.451 447.995 233.579 449.38 232.235 449.822H232.153C232.015 449.862 231.875 449.893 231.733 449.914H231.64L221.011 452.233C220.363 452.341 219.699 452.198 219.154 451.832C218.196 451.211 217.399 450.372 216.827 449.385C216.254 448.397 215.923 447.288 215.86 446.148C215.826 445.536 216.004 444.931 216.363 444.435Z" fill="#E0E0E0"/>
<path d="M310.396 392.068L310.591 391.955C310.813 391.881 311.049 391.859 311.281 391.893C311.513 391.927 311.733 392.015 311.925 392.15C312.521 392.537 313.018 393.059 313.375 393.674C313.731 394.289 313.938 394.98 313.977 395.69C313.995 395.918 313.961 396.148 313.878 396.361C313.794 396.575 313.663 396.766 313.494 396.921L313.238 397.065L225.854 447.513L220.108 444.189L310.396 392.068Z" fill="#455A64"/>
<path d="M233.959 442.814L225.843 447.503L220.098 444.179L231.086 437.828C232.381 439.272 233.359 440.97 233.959 442.814Z" fill="#37474F"/>
<path d="M213.47 448.262L220.108 440.906L220.282 440.711C221.021 439.972 222.211 439.91 223.566 440.711C224.757 441.476 225.75 442.513 226.463 443.737C227.176 444.96 227.59 446.335 227.67 447.749C227.67 449.247 227.064 450.222 226.12 450.54H226.059L225.792 450.601L216.004 452.756C215.646 452.801 215.284 452.721 214.978 452.53C214.44 452.177 213.992 451.703 213.672 451.145C213.351 450.587 213.166 449.961 213.131 449.319C213.1 448.936 213.222 448.556 213.47 448.262Z" fill="white"/>
<path opacity="0.1" d="M213.47 448.262L220.108 440.906L220.282 440.711C221.021 439.972 222.211 439.91 223.566 440.711C224.757 441.476 225.75 442.513 226.463 443.737C227.176 444.96 227.59 446.335 227.67 447.749C227.67 449.247 227.064 450.222 226.12 450.54H226.059L225.792 450.601L216.004 452.756C215.646 452.801 215.284 452.721 214.978 452.53C214.44 452.177 213.992 451.703 213.672 451.145C213.351 450.587 213.166 449.961 213.131 449.319C213.1 448.936 213.222 448.556 213.47 448.262Z" fill="black"/>
<path d="M213.1 449.319C213.135 449.962 213.32 450.587 213.641 451.145C213.962 451.703 214.409 452.177 214.947 452.53C215.252 452.724 215.616 452.801 215.973 452.746L220.898 451.669C221.678 451.505 222.191 450.776 222.191 449.617C222.137 448.589 221.841 447.589 221.327 446.698C220.814 445.806 220.097 445.049 219.236 444.487C218.899 444.218 218.482 444.071 218.051 444.071C217.62 444.071 217.202 444.218 216.866 444.487L216.732 444.63L213.429 448.262C213.306 448.407 213.213 448.576 213.157 448.757C213.101 448.939 213.081 449.13 213.1 449.319Z" fill="white"/>
<path opacity="0.1" d="M214.978 448.252C213.952 447.667 213.131 448.139 213.131 449.278C213.166 449.92 213.351 450.546 213.672 451.104C213.992 451.661 214.44 452.136 214.978 452.489C216.004 453.074 216.825 452.592 216.825 451.412C216.782 450.778 216.594 450.163 216.273 449.614C215.953 449.066 215.509 448.6 214.978 448.252Z" fill="black"/>
<path d="M332.116 379.5C332.348 379.392 332.605 379.348 332.859 379.373C333.114 379.398 333.357 379.492 333.563 379.643C334.157 380.027 334.653 380.546 335.01 381.158C335.366 381.769 335.573 382.456 335.615 383.162C335.644 383.415 335.603 383.67 335.499 383.901C335.394 384.132 335.228 384.331 335.02 384.476L313.474 396.89C313.643 396.735 313.774 396.544 313.857 396.33C313.941 396.117 313.975 395.887 313.956 395.659C313.917 394.949 313.711 394.258 313.354 393.643C312.998 393.028 312.501 392.506 311.904 392.119C311.713 391.984 311.492 391.896 311.261 391.862C311.029 391.828 310.792 391.85 310.57 391.924L332.116 379.5Z" fill="#FAFAFA"/>
<path d="M331.521 380.813C331.563 381.521 331.77 382.209 332.127 382.822C332.483 383.435 332.979 383.956 333.573 384.342C333.768 384.521 334.014 384.633 334.276 384.662C334.538 384.691 334.803 384.635 335.031 384.504C335.26 384.372 335.441 384.171 335.548 383.93C335.654 383.689 335.682 383.42 335.625 383.163C335.584 382.456 335.376 381.769 335.02 381.158C334.663 380.546 334.168 380.028 333.573 379.643C333.379 379.467 333.135 379.356 332.874 379.327C332.613 379.298 332.35 379.352 332.122 379.482C331.894 379.612 331.713 379.811 331.605 380.05C331.497 380.289 331.468 380.556 331.521 380.813Z" fill="#F5F5F5"/>
<path d="M336.046 372.164H336.118L336.2 372.112L344.685 367.218L344.89 367.105C345.465 366.881 346.088 366.805 346.7 366.882C347.313 366.959 347.897 367.187 348.399 367.547C349.898 368.531 351.143 369.856 352.035 371.412C352.926 372.968 353.438 374.712 353.529 376.504C353.598 377.15 353.492 377.803 353.223 378.395C352.954 378.986 352.532 379.495 352 379.869L343.413 384.824H343.361C342.778 385.069 342.142 385.161 341.514 385.09C340.885 385.02 340.285 384.791 339.77 384.424C338.272 383.436 337.028 382.11 336.136 380.552C335.245 378.994 334.733 377.249 334.64 375.457C334.577 374.834 334.673 374.205 334.919 373.629C335.164 373.053 335.552 372.549 336.046 372.164Z" fill="white"/>
<path opacity="0.05" d="M336.046 372.164H336.118L336.2 372.112L344.685 367.218L344.89 367.105C345.465 366.881 346.088 366.805 346.7 366.882C347.313 366.959 347.897 367.187 348.399 367.547C349.898 368.531 351.143 369.856 352.035 371.412C352.926 372.968 353.438 374.712 353.529 376.504C353.598 377.15 353.492 377.803 353.223 378.395C352.954 378.986 352.532 379.495 352 379.869L343.413 384.824H343.361C342.778 385.069 342.142 385.161 341.514 385.09C340.885 385.02 340.285 384.791 339.77 384.424C338.272 383.436 337.028 382.11 336.136 380.552C335.245 378.994 334.733 377.249 334.64 375.457C334.577 374.834 334.673 374.205 334.919 373.629C335.164 373.053 335.552 372.549 336.046 372.164Z" fill="black"/>
<path opacity="0.1" d="M339.832 372.4C336.98 370.748 334.702 372.092 334.702 375.385C334.794 377.177 335.307 378.923 336.198 380.48C337.089 382.038 338.334 383.364 339.832 384.353C342.694 386.004 345.013 384.66 345.013 381.367C344.916 379.57 344.396 377.821 343.495 376.263C342.595 374.705 341.34 373.381 339.832 372.4Z" fill="black"/>
<path d="M210.751 451.351L214.26 449.237C214.367 449.179 214.489 449.152 214.611 449.161C214.733 449.171 214.85 449.215 214.947 449.288C215.227 449.465 215.459 449.706 215.626 449.992C215.792 450.278 215.886 450.6 215.901 450.93C215.911 451.048 215.891 451.166 215.842 451.273C215.794 451.381 215.719 451.475 215.624 451.545L212.126 453.659C211.923 453.766 211.698 453.822 211.469 453.823C211.113 453.823 210.771 453.682 210.519 453.43C210.267 453.177 210.125 452.836 210.125 452.479C210.125 452.253 210.183 452.031 210.292 451.834C210.402 451.637 210.56 451.47 210.751 451.351Z" fill="#455A64"/>
<path d="M210.546 451.505L210.73 451.351C210.834 451.32 210.943 451.313 211.05 451.33C211.157 451.348 211.258 451.39 211.346 451.453C211.624 451.631 211.854 451.873 212.019 452.159C212.183 452.444 212.276 452.766 212.29 453.095C212.302 453.21 212.284 453.327 212.237 453.433C212.19 453.539 212.116 453.631 212.023 453.7H211.951H211.879C211.743 453.755 211.596 453.779 211.449 453.772C211.092 453.772 210.75 453.63 210.498 453.378C210.246 453.126 210.104 452.784 210.104 452.428C210.126 452.075 210.284 451.743 210.546 451.505Z" fill="#263238"/>
<path d="M142.82 460.718L139.239 458.666C138.643 458.279 138.146 457.756 137.79 457.141C137.433 456.526 137.227 455.836 137.187 455.126V189.833C137.226 189.123 137.432 188.433 137.789 187.818C138.145 187.203 138.642 186.68 139.239 186.294L303.809 91.2758C304.444 90.9508 305.148 90.7812 305.861 90.7812C306.575 90.7812 307.278 90.9508 307.913 91.2758L311.494 93.3278C312.09 93.7152 312.586 94.2375 312.943 94.8525C313.299 95.4675 313.506 96.1578 313.546 96.8675V362.16C313.508 362.87 313.302 363.561 312.945 364.177C312.588 364.792 312.091 365.314 311.494 365.7L146.903 460.718C146.271 461.041 145.571 461.21 144.861 461.21C144.151 461.21 143.452 461.041 142.82 460.718Z" fill="white"/>
<path opacity="0.4" d="M313.474 96.5496C313.341 95.5236 312.448 95.1029 311.422 95.698L146.903 190.716C146.303 191.095 145.806 191.617 145.456 192.234L137.782 187.812C138.131 187.194 138.628 186.673 139.228 186.294L303.809 91.2759C304.444 90.9492 305.147 90.7788 305.861 90.7788C306.575 90.7788 307.278 90.9492 307.913 91.2759L311.504 93.3279C312.044 93.6924 312.5 94.1686 312.839 94.7245C313.179 95.2803 313.396 95.9028 313.474 96.5496Z" fill="white"/>
<path opacity="0.15" d="M146.544 460.882C146.503 460.89 146.461 460.89 146.421 460.882L146.216 460.954H146.133C146.01 460.954 145.887 461.015 145.754 461.046C144.94 461.2 144.101 461.132 143.322 460.851C143.167 460.793 143.017 460.724 142.871 460.646L139.28 458.594C138.685 458.205 138.19 457.682 137.834 457.067C137.478 456.453 137.27 455.763 137.228 455.054V189.833C137.251 189.11 137.456 188.405 137.823 187.781L145.497 192.203C145.118 192.822 144.909 193.53 144.892 194.255V459.548C144.87 459.933 144.982 460.314 145.21 460.625C145.336 460.785 145.507 460.903 145.701 460.965C145.894 461.027 146.102 461.03 146.298 460.974C146.383 460.952 146.465 460.921 146.544 460.882Z" fill="black"/>
<path d="M262.113 140.124L261.815 139.939L258.419 137.99C257.184 137.301 255.842 136.826 254.448 136.584C253.864 136.451 253.34 136.297 252.879 136.143C252.366 135.975 251.866 135.773 251.381 135.538L251.627 135.22L247.81 132.993C247.488 132.814 247.143 132.679 246.784 132.593C245.338 132.234 243.173 133.075 241.018 132.829C240.234 132.752 239.476 132.504 238.799 132.102C238.121 131.699 237.541 131.152 237.099 130.5C235.785 128.735 234.995 125.647 233.836 123.082L234.862 121.594C234.759 121.53 234.653 121.472 234.544 121.42L231.025 119.368C230.431 119.018 229.754 118.834 229.065 118.834C227.75 118.904 226.476 119.318 225.372 120.035C216.948 124.908 216.661 136.451 213.624 144.064C210.587 151.677 206.288 154.047 203.949 157.32C201.609 160.593 201.445 163.014 196.264 170.155C191.083 177.296 190.877 179.04 190.877 180.415V191.055L194.715 193.271L263.682 153.431L262.113 140.124ZM198.87 181.164C197.977 181.667 197.239 180.979 197.239 179.594C197.23 178.932 197.373 178.276 197.655 177.677C197.938 177.078 198.353 176.551 198.87 176.137C199.763 175.624 200.491 176.332 200.491 177.717C200.498 178.373 200.356 179.023 200.076 179.617C199.795 180.211 199.382 180.733 198.87 181.143V181.164ZM229.168 151.297C228.733 151.614 228.23 151.826 227.7 151.915C227.169 152.005 226.625 151.969 226.111 151.812C225.596 151.655 225.125 151.38 224.735 151.009C224.345 150.638 224.047 150.182 223.863 149.676C221.185 150.189 219.195 147.624 219.195 143.171C219.195 137.939 221.955 132.121 225.351 130.151C225.786 129.834 226.29 129.623 226.821 129.535C227.352 129.446 227.896 129.482 228.411 129.64C228.926 129.799 229.397 130.075 229.786 130.447C230.176 130.818 230.473 131.276 230.655 131.783C233.333 131.249 235.314 133.835 235.314 138.277C235.314 143.489 232.574 149.307 229.168 151.277V151.297ZM252.078 150.435C251.175 150.959 250.447 150.261 250.447 148.876C250.431 148.212 250.57 147.554 250.853 146.954C251.136 146.353 251.556 145.827 252.078 145.418C252.981 144.895 253.71 145.593 253.71 146.978C253.722 147.638 253.581 148.292 253.298 148.888C253.015 149.484 252.598 150.007 252.078 150.415V150.435Z" fill="#455A64"/>
<path opacity="0.5" d="M198.562 183.042L191.144 178.763C190.975 179.297 190.892 179.855 190.898 180.415V191.055L194.735 193.271L198.562 191.055V183.042Z" fill="#37474F"/>
<path opacity="0.5" d="M206.185 169.765L210.023 160.91L203.928 157.34C202.143 159.813 201.62 161.813 199.219 165.743L206.185 169.765Z" fill="#37474F"/>
<path opacity="0.5" d="M221.524 152.066L222.016 149.481C220.324 148.773 219.195 146.485 219.195 143.15C219.195 138.708 221.185 133.855 223.863 131.28L218.549 128.202C216.291 133.332 215.471 139.488 213.603 144.074C213.213 145.1 212.793 145.951 212.372 146.772L221.524 152.066Z" fill="#37474F"/>
<path d="M262.113 140.124L261.815 139.939C260.686 139.415 259.497 139.029 258.275 138.79C256.27 138.438 254.402 137.535 252.879 136.184C252.493 135.835 252.074 135.526 251.627 135.261C251.308 135.071 250.962 134.933 250.601 134.85C248.282 134.286 244.055 136.82 241.018 132.88C240.982 132.844 240.951 132.802 240.926 132.757C238.802 129.905 238.022 123.523 234.841 121.645C234.739 121.581 234.633 121.523 234.523 121.471C233.21 120.855 231.507 120.968 229.168 122.302C220.744 127.176 220.457 138.718 217.42 146.331C214.383 153.944 210.094 156.314 207.755 159.587C205.416 162.86 205.262 165.281 200.07 172.422C194.879 179.563 194.694 181.318 194.694 182.682V193.332L263.662 153.493V142.802C263.714 142.25 263.593 141.695 263.315 141.215C263.037 140.735 262.617 140.354 262.113 140.124ZM202.666 183.38C201.763 183.903 201.035 183.205 201.035 181.81C201.022 181.149 201.163 180.493 201.446 179.895C201.729 179.297 202.147 178.773 202.666 178.363C203.569 177.84 204.287 178.547 204.287 179.933C204.301 180.593 204.162 181.248 203.88 181.846C203.599 182.444 203.184 182.969 202.666 183.38ZM229.137 151.307C228.702 151.624 228.2 151.836 227.669 151.925C227.138 152.015 226.594 151.979 226.08 151.822C225.565 151.665 225.094 151.39 224.704 151.019C224.314 150.648 224.016 150.192 223.832 149.686C223.23 148.335 222.943 146.865 222.991 145.387C222.991 140.165 225.741 134.337 229.147 132.377C229.607 132.102 230.11 131.904 230.635 131.793C233.313 131.259 235.293 133.845 235.293 138.287C235.313 143.489 232.574 149.306 229.168 151.276L229.137 151.307ZM255.905 152.6C255.002 153.123 254.274 152.425 254.274 151.051C254.259 150.389 254.399 149.733 254.682 149.134C254.965 148.536 255.384 148.012 255.905 147.603C256.798 147.08 257.526 147.778 257.526 149.163C257.539 149.822 257.4 150.475 257.118 151.071C256.837 151.667 256.422 152.191 255.905 152.6Z" fill="#37474F"/>
<path d="M235.313 138.236C235.313 143.469 232.574 149.286 229.157 151.256C228.723 151.573 228.22 151.785 227.69 151.874C227.159 151.963 226.615 151.928 226.1 151.771C225.586 151.613 225.115 151.339 224.725 150.968C224.335 150.597 224.036 150.141 223.853 149.635C224.376 149.519 224.878 149.321 225.341 149.05C228.737 147.08 231.497 141.263 231.497 136.03C231.541 134.556 231.254 133.09 230.655 131.741C233.333 131.228 235.313 133.804 235.313 138.236Z" fill="#263238"/>
<path d="M202.666 183.38C201.763 183.893 201.035 183.195 201.035 181.82C201.022 181.157 201.163 180.5 201.446 179.901C201.729 179.301 202.146 178.775 202.666 178.363C203.559 177.839 204.287 178.558 204.287 179.933C204.298 180.593 204.158 181.247 203.877 181.845C203.596 182.442 203.182 182.967 202.666 183.38Z" fill="#263238"/>
<path d="M255.905 152.6C255.002 153.113 254.274 152.425 254.274 151.04C254.262 150.377 254.402 149.72 254.685 149.121C254.968 148.521 255.386 147.995 255.905 147.583C256.798 147.07 257.526 147.778 257.526 149.163C257.537 149.821 257.396 150.474 257.115 151.07C256.834 151.665 256.42 152.189 255.905 152.6Z" fill="#263238"/>
<path d="M157.584 215.535L300.793 132.849C301.173 132.657 301.593 132.557 302.019 132.557C302.445 132.557 302.865 132.657 303.245 132.849L304.63 133.65C304.986 133.883 305.282 134.197 305.494 134.566C305.706 134.935 305.829 135.348 305.851 135.773V354.25C305.83 354.675 305.709 355.09 305.497 355.459C305.284 355.828 304.987 356.142 304.63 356.374L161.421 439.059C161.041 439.251 160.621 439.351 160.195 439.351C159.769 439.351 159.349 439.251 158.969 439.059L157.584 438.259C157.225 438.027 156.927 437.714 156.713 437.345C156.499 436.976 156.375 436.561 156.353 436.135V217.658C156.377 217.233 156.501 216.819 156.715 216.45C156.929 216.081 157.226 215.767 157.584 215.535Z" fill="#F5F5F5"/>
<path d="M305.81 135.404C305.656 134.901 305.184 134.737 304.63 135.065L161.421 217.751C161.052 217.969 160.75 218.285 160.549 218.664L156.711 216.458C156.919 216.081 157.219 215.763 157.584 215.535L300.793 132.849C301.173 132.657 301.593 132.557 302.019 132.557C302.445 132.557 302.865 132.657 303.245 132.849L304.63 133.65C304.934 133.848 305.195 134.106 305.397 134.407C305.6 134.709 305.74 135.048 305.81 135.404Z" fill="#FAFAFA"/>
<path d="M161.123 439.192C160.977 439.245 160.826 439.287 160.672 439.315H160.436C160.187 439.341 159.936 439.341 159.687 439.315C159.534 439.285 159.383 439.244 159.236 439.192L158.959 439.059L157.584 438.269C157.228 438.035 156.933 437.721 156.721 437.352C156.508 436.983 156.386 436.57 156.363 436.145V217.658C156.37 217.234 156.49 216.82 156.712 216.458L160.549 218.664C160.331 219.031 160.207 219.447 160.19 219.875V438.351C160.19 439.018 160.6 439.346 161.123 439.192Z" fill="#E0E0E0"/>
<path d="M273.593 163.794L269.777 161.588C269.178 161.294 268.516 161.151 267.849 161.17C267.182 161.19 266.53 161.372 265.95 161.7C261.497 163.66 259.568 164.553 257.27 165.517L255.608 166.184C254.705 166.543 252.909 166.235 253.463 163.106L259.383 147.172H259.291L255.546 145.007C255.356 144.888 255.143 144.811 254.92 144.782C254.807 144.782 254.664 144.782 254.51 144.782C252.088 144.72 251.432 129.094 251.381 128.612L251.206 128.52L247.502 126.386C246.859 126.02 246.128 125.836 245.389 125.852C244.151 125.909 242.944 126.261 241.87 126.878C236.052 129.956 230.173 138.995 228.737 147.131C227.834 152.261 222.673 160.161 219.687 163.075C216.702 165.989 216.497 168.411 216.497 168.411L214.178 181.564L213.429 185.781C212.885 188.92 209.663 191.937 209.663 191.937L197.649 200.822C190.128 207.06 188.005 213.37 186.568 221.167V221.229C186.568 221.506 186.568 221.691 186.702 221.763C186.721 221.775 186.745 221.782 186.768 221.782C186.792 221.782 186.815 221.775 186.835 221.763L188.374 220.89L271.028 173.222C271.223 173.09 271.389 172.92 271.518 172.723C271.646 172.525 271.735 172.305 271.777 172.073C272.249 169.231 273.624 163.865 273.624 163.865L273.593 163.794ZM249.698 139.652C248.805 144.648 245.204 150.23 241.623 152.107C239.151 153.4 237.345 152.6 236.74 150.322C236.295 150.496 235.814 150.555 235.341 150.494C234.867 150.433 234.417 150.254 234.031 149.973C232.882 149.07 243.409 130.992 244.291 131.392C244.701 131.609 245.057 131.915 245.333 132.288C245.608 132.661 245.796 133.091 245.881 133.547C248.836 132.654 250.488 135.158 249.698 139.652Z" fill="#455A64"/>
<path opacity="0.5" d="M198.562 209.605L192.539 206.126C189.051 210.723 187.645 215.555 186.609 221.168V221.229C186.609 221.506 186.609 221.691 186.743 221.763C186.762 221.776 186.786 221.782 186.809 221.782C186.833 221.782 186.856 221.776 186.876 221.763L191.626 218.008L198.562 209.605Z" fill="#37474F"/>
<path opacity="0.5" d="M213.029 187.002L221.524 191.896L225.351 169.765L217.697 165.343C217.088 166.218 216.678 167.216 216.497 168.267L214.178 181.42L213.429 185.637C213.345 186.105 213.21 186.562 213.029 187.002Z" fill="#37474F"/>
<path opacity="0.5" d="M232.759 136.42C230.823 139.686 229.462 143.261 228.737 146.988C228.127 149.629 227.116 152.162 225.741 154.498L233.015 158.705L236.637 150.343C236.205 150.499 235.742 150.546 235.288 150.482C234.834 150.418 234.402 150.243 234.031 149.973C233.436 149.501 235.939 144.505 238.617 139.806L232.759 136.42Z" fill="#37474F"/>
<path d="M273.645 163.824H273.594C272.993 163.541 272.334 163.404 271.67 163.425C271.007 163.447 270.358 163.626 269.777 163.947C264.318 166.358 262.667 167.148 259.424 168.431C258.563 168.78 256.808 168.503 257.27 165.548C257.265 165.48 257.265 165.411 257.27 165.343L258.019 161.136L260.071 149.676C260.071 149.676 260.543 147.87 259.353 147.193H259.26C258.961 147.055 258.635 146.984 258.306 146.987C257.609 146.904 256.94 146.664 256.348 146.285C255.757 145.907 255.258 145.4 254.89 144.802C254.25 143.85 253.807 142.779 253.587 141.653C253.367 140.528 253.374 139.369 253.607 138.246C254.479 133.331 253.525 129.884 251.35 128.602L251.175 128.499C249.77 127.75 247.882 127.873 245.676 129.032C239.848 132.11 233.969 141.15 232.543 149.286C231.63 154.416 226.469 162.326 223.484 165.23C220.498 168.133 220.303 170.565 220.303 170.565L218.056 183.646L217.317 187.853C216.763 190.993 213.542 194.009 213.542 194.009L201.538 203.017C196.747 206.831 193.288 212.064 191.657 217.966C191.657 217.966 187.153 221.465 186.876 221.742L188.415 220.87L271.306 173.222C271.306 173.222 272.249 172.699 272.465 172.566C272.68 172.432 276.015 169.282 276.015 169.282C275.83 166.594 275.03 164.655 273.645 163.824ZM249.698 139.652C248.805 144.648 245.204 150.23 241.623 152.107C239.151 153.4 237.345 152.6 236.74 150.322C236.469 149.043 236.469 147.722 236.74 146.444C237.632 141.437 241.244 135.866 244.824 133.998C245.153 133.818 245.496 133.667 245.85 133.547C248.836 132.654 250.488 135.158 249.698 139.652Z" fill="#37474F"/>
<path d="M249.698 139.652C248.805 144.648 245.204 150.23 241.623 152.107C239.151 153.4 237.345 152.6 236.74 150.322C237.092 150.206 237.435 150.061 237.766 149.891C241.357 148.014 244.947 142.432 245.84 137.425C246.109 136.147 246.109 134.826 245.84 133.547C248.836 132.654 250.488 135.158 249.698 139.652Z" fill="#263238"/>
<path d="M246.24 133.762C246.576 133.742 246.911 133.809 247.213 133.956C247.515 134.104 247.774 134.327 247.964 134.604C249.452 136.717 248.026 142.093 247.41 143.838C246.558 146.228 240.997 151.851 239.469 151.851C238.962 151.767 238.478 151.581 238.046 151.304C237.614 151.027 237.242 150.665 236.955 150.24C236.703 149.008 236.703 147.737 236.955 146.505C237.827 141.56 241.398 136.061 244.917 134.193C245.23 134.028 245.556 133.887 245.891 133.773H246.23M246.23 133.537H245.85C245.496 133.657 245.153 133.808 244.824 133.988C241.244 135.855 237.642 141.427 236.74 146.433C236.469 147.712 236.469 149.033 236.74 150.312C237.048 150.774 237.449 151.167 237.917 151.467C238.385 151.767 238.91 151.968 239.458 152.056C241.121 152.056 246.712 146.382 247.605 143.848C248.498 141.314 250.437 133.475 246.21 133.475L246.23 133.537Z" fill="#263238"/>
<path d="M186.835 221.773L271.254 173.243L272.424 172.597C272.629 172.474 275.964 169.303 275.964 169.303L191.606 217.997C191.606 217.997 186.496 221.958 186.835 221.773Z" fill="#263238"/>
<path d="M175.518 255.805V257.724C175.518 258.75 176.257 259.191 177.16 258.668L288.85 194.173C289.326 193.863 289.723 193.445 290.008 192.953C290.293 192.461 290.459 191.909 290.492 191.342V189.413C290.492 188.387 289.753 187.945 288.85 188.469L177.16 252.973C176.683 253.283 176.286 253.701 176.001 254.193C175.716 254.685 175.55 255.237 175.518 255.805Z" fill="#E0E0E0"/>
<path d="M175.518 267.41V269.328C175.518 270.354 176.257 270.795 177.16 270.272L288.85 205.767C289.327 205.457 289.724 205.04 290.009 204.548C290.294 204.056 290.46 203.503 290.492 202.936V201.007C290.492 199.981 289.753 199.55 288.85 200.063L177.16 264.578C176.683 264.888 176.286 265.306 176.001 265.798C175.716 266.29 175.55 266.842 175.518 267.41Z" fill="#E0E0E0"/>
<path d="M175.518 278.941V280.85C175.518 281.876 176.257 282.317 177.16 281.794L288.85 217.31C289.326 216.999 289.723 216.581 290.008 216.089C290.293 215.597 290.459 215.045 290.492 214.478V212.549C290.492 211.523 289.753 211.082 288.85 211.605L177.16 276.11C176.683 276.42 176.286 276.837 176.001 277.329C175.716 277.821 175.55 278.374 175.518 278.941Z" fill="#E0E0E0"/>
<path d="M175.518 304.499V306.418C175.518 307.444 176.257 307.885 177.16 307.362L288.85 242.888C289.327 242.578 289.724 242.16 290.009 241.668C290.294 241.176 290.46 240.624 290.492 240.056V238.127C290.492 237.101 289.753 236.67 288.85 237.183L177.16 301.668C176.683 301.978 176.286 302.395 176.001 302.887C175.716 303.379 175.55 303.932 175.518 304.499Z" fill="#E0E0E0"/>
<path d="M175.518 316.093V318.022C175.518 319.048 176.257 319.479 177.16 318.966L288.85 254.461C289.327 254.151 289.724 253.733 290.009 253.242C290.294 252.75 290.46 252.197 290.492 251.63V249.701C290.492 248.675 289.753 248.234 288.85 248.757L177.16 313.261C176.684 313.572 176.287 313.99 176.002 314.482C175.717 314.974 175.551 315.526 175.518 316.093Z" fill="#E0E0E0"/>
<path d="M175.518 327.636V329.554C175.518 330.58 176.257 331.021 177.16 330.498L288.85 265.994C289.327 265.684 289.724 265.266 290.009 264.774C290.294 264.282 290.46 263.729 290.492 263.162V261.233C290.492 260.207 289.753 259.776 288.85 260.289L177.16 324.804C176.683 325.114 176.286 325.532 176.001 326.024C175.716 326.516 175.55 327.068 175.518 327.636Z" fill="#E0E0E0"/>
<path d="M175.518 353.183V355.112C175.518 356.138 176.257 356.569 177.16 356.056L288.85 291.551C289.327 291.241 289.724 290.823 290.009 290.331C290.294 289.839 290.46 289.287 290.492 288.719V286.791C290.492 285.765 289.753 285.323 288.85 285.847L177.16 350.351C176.684 350.662 176.287 351.08 176.002 351.572C175.717 352.064 175.551 352.616 175.518 353.183Z" fill="#E0E0E0"/>
<path d="M175.518 364.787V366.706C175.518 367.732 176.257 368.173 177.16 367.65L288.85 303.145C289.327 302.837 289.724 302.421 290.009 301.931C290.294 301.441 290.46 300.89 290.492 300.323V298.395C290.492 297.369 289.753 296.927 288.85 297.451L177.16 361.955C176.683 362.265 176.286 362.683 176.001 363.175C175.716 363.667 175.55 364.219 175.518 364.787Z" fill="#E0E0E0"/>
<path d="M175.518 376.319V378.248C175.518 379.274 176.257 379.705 177.16 379.192L288.85 314.708C289.327 314.398 289.724 313.98 290.009 313.488C290.294 312.996 290.46 312.444 290.492 311.876V309.947C290.492 308.921 289.753 308.48 288.85 309.003L177.16 373.488C176.684 373.798 176.287 374.216 176.002 374.708C175.717 375.2 175.551 375.752 175.518 376.319Z" fill="#E0E0E0"/>
<path d="M233.015 377.868L290.522 344.677V345.785L233.015 378.976V377.868Z" fill="#E0E0E0"/>
<path d="M246.394 360.632C248.785 359.031 251.452 356.333 251.022 353.142C250.765 351.203 249.185 350.454 247.4 351.141C243.901 352.485 241.695 357.749 240.474 360.929C239.448 363.71 238.043 368.953 242.218 369.845C247.112 370.871 250.898 363.689 252.006 359.955C252.16 359.431 251.309 359.144 251.063 359.616C250.632 360.468 247.749 366.09 250.919 365.382C252.048 365.136 252.694 363.381 253.104 362.489C253.822 360.888 254.182 358.662 255.31 357.287L254.479 356.907C254.53 358.385 254.479 359.39 255.505 360.539C255.583 360.646 255.7 360.718 255.831 360.739C255.961 360.76 256.095 360.729 256.203 360.652C257.824 359.144 257.937 356.692 259.722 355.327L258.994 354.979C258.994 355.45 258.778 356.795 258.747 357.42C258.747 357.718 259.147 357.913 259.383 357.821C259.615 357.773 259.831 357.666 260.011 357.512C260.19 357.358 260.327 357.16 260.409 356.938L259.63 356.651C260.307 360.273 263.395 356.651 264.452 355.276C267.53 351.172 269.725 346.771 269.808 341.517C269.808 341.097 269.018 340.881 269.007 341.384C268.935 345.426 267.171 349.13 266.032 352.947C264.811 357.051 263.795 361.247 262.954 365.474L263.682 365.741C263.914 362.75 264.678 359.824 265.94 357.102C266.735 354.678 268.064 352.462 269.828 350.618L269.151 350.362C269.33 351.416 269.276 352.498 268.992 353.529C268.709 354.561 268.202 355.518 267.509 356.333C267.294 356.61 267.776 357.133 267.992 356.856C269.12 355.44 270.977 354.989 272.188 353.614C273.326 352.069 274.338 350.436 275.215 348.73L274.661 348.453C274.589 351.901 277.841 346.524 278.282 345.95L277.749 345.745C277.964 346.452 278.252 346.924 279.052 346.935C280.642 346.935 281.237 344.616 282.438 344.349C282.438 344.349 282.961 344.79 283.146 344.811C283.807 344.908 284.482 344.782 285.064 344.452C286.406 343.584 287.49 342.372 288.204 340.943C288.388 340.615 287.763 340.204 287.557 340.563C286.767 341.897 284.305 345.437 282.52 343.703C282.407 343.6 282.171 343.498 282.048 343.641C281.566 344.236 278.806 347.396 278.293 345.693C278.231 345.488 277.933 345.262 277.769 345.488C277.349 346.042 277.01 346.658 276.62 347.242C276.405 347.561 275.204 349.582 275.245 348.556C275.245 348.309 274.866 348.022 274.691 348.279C273.573 349.992 272.752 352.239 271.193 353.634C270.033 354.66 268.515 355.05 267.509 356.292L267.992 356.815C268.767 355.942 269.337 354.906 269.662 353.785C269.987 352.663 270.058 351.483 269.869 350.331C269.854 350.26 269.822 350.195 269.775 350.14C269.728 350.086 269.668 350.044 269.6 350.018C269.533 349.993 269.46 349.984 269.389 349.994C269.318 350.004 269.25 350.031 269.192 350.074C267.273 351.839 266.196 354.322 265.242 356.702C263.962 359.481 263.184 362.465 262.944 365.516C262.944 365.834 263.59 366.193 263.672 365.782C264.539 361.221 265.666 356.713 267.048 352.28C268.176 348.71 269.705 345.273 269.777 341.476L268.977 341.343C268.901 345.274 267.662 349.094 265.416 352.321C264.842 353.214 264.236 354.106 263.58 354.948C263.292 355.327 260.748 358.652 260.42 356.723C260.368 356.446 259.825 356.056 259.64 356.435L258.901 357.092L259.537 357.482C259.589 356.651 259.753 355.871 259.794 355.03C259.794 354.712 259.301 354.507 259.065 354.691C257.249 356.076 257.116 358.528 255.485 360.037L256.182 360.15C255.628 359.221 255.357 358.152 255.403 357.072C255.403 356.712 254.848 356.364 254.571 356.692C253.32 358.19 252.93 360.58 252.109 362.325C251.658 363.279 250.057 365.823 250.57 363.115C250.91 361.992 251.396 360.919 252.017 359.924L251.073 359.585C250.108 362.848 247.533 367.793 244.014 368.819C239.52 370.163 240.3 364.592 241.121 362.109C242.097 359.216 243.546 356.505 245.409 354.086C245.751 353.604 246.139 353.157 246.569 352.752C247.482 351.931 247.749 351.726 249.021 352.455C250.293 353.183 250.355 353.583 250.047 354.958C249.859 355.641 249.575 356.293 249.205 356.897C248.393 358.137 247.372 359.226 246.189 360.119C246.025 360.252 246.261 360.693 246.446 360.56L246.394 360.632Z" fill="#455A64"/>
<path d="M384.268 296.63C380.554 295.748 376.46 298.395 374.07 304.222C371.679 310.05 366.888 324.948 365.862 328.846C365.41 330.591 378.666 346.042 378.174 345.816C378.03 345.745 382.493 338.275 382.493 338.275L376.06 328.374L380.164 317.632L384.268 296.63Z" fill="#B16668"/>
<path d="M375.67 434.935C375.167 435.13 375.034 436.084 374.962 438.013C374.901 439.46 374.593 441.973 376.286 442.476C377.979 442.979 380.451 442.722 381.539 441.368C382.848 439.544 384.249 437.787 385.735 436.105C387.408 434.299 389.213 432.626 389.891 430.102C390.506 427.825 389.993 426.84 388.444 426.173C386.3 425.27 382.944 428.225 381.262 428.707C379.836 429.097 376.173 434.75 375.67 434.935Z" fill="#263238"/>
<path d="M375.67 433.17V435.509C376.549 436.072 377.564 436.384 378.607 436.413C379.65 436.442 380.682 436.186 381.59 435.673C381.693 435.448 382.206 432.318 382.206 432.318L375.67 433.17Z" fill="#B16668"/>
<path d="M393.092 447.38C392.686 448.634 392.344 449.908 392.066 451.197C391.768 452.612 391.358 454.983 391.86 456.039C392.363 457.096 394.282 457.794 397.288 457.773C399.227 457.773 402.254 459.076 404.326 460.236C406.409 461.257 408.764 461.584 411.047 461.169C413.714 460.851 416.484 459.302 416.915 458.204C417.346 457.106 416.792 456.563 410.503 453.885C410.441 453.885 403.875 450.889 400.828 447.534L393.092 447.38Z" fill="#263238"/>
<path d="M393.092 444.846C393.092 444.846 393.092 446.58 393.092 447.575C393.092 448.57 394.261 450.048 397.298 449.945C399.432 449.863 400.92 449.288 400.828 447.534V445.01L393.092 444.846Z" fill="#B16668"/>
<path d="M373.362 400.707C373.865 396.598 374.825 392.558 376.224 388.662C376.224 388.662 374.901 378.299 374.172 368.347C372.808 350.505 373.905 344.677 377.414 336.675C377.414 336.675 407.343 333.596 408.256 346.083C409.395 361.576 407.886 391.514 407.476 396.983C407.066 402.451 406.553 404.924 404.624 416.354C403.146 425.054 400.869 445.01 400.869 445.01C399.665 445.621 398.329 445.925 396.98 445.897C395.631 445.868 394.309 445.507 393.133 444.846C393.133 444.846 390.691 419.934 390.947 413.625C391.128 408.956 391.918 404.33 393.297 399.866C393.297 399.866 391.44 374.616 390.906 370.594C390.906 370.594 389.962 378.607 389.552 384.076C389.141 389.544 387.5 394.777 385.94 404.945C384.566 413.758 382.011 433.467 382.011 433.467C378.04 435.622 375.67 433.19 375.67 433.19C375.67 433.19 372.295 408.351 373.362 400.707Z" fill="white"/>
<g opacity="0.35">
<path d="M373.362 400.707C373.865 396.598 374.825 392.558 376.224 388.662C376.224 388.662 374.901 378.299 374.172 368.347C372.808 350.505 373.905 344.677 377.414 336.675C377.414 336.675 407.343 333.596 408.256 346.083C409.395 361.576 407.886 391.514 407.476 396.983C407.066 402.451 406.553 404.924 404.624 416.354C403.146 425.054 400.869 445.01 400.869 445.01C399.665 445.621 398.329 445.925 396.98 445.897C395.631 445.868 394.309 445.507 393.133 444.846C393.133 444.846 390.691 419.934 390.947 413.625C391.128 408.956 391.918 404.33 393.297 399.866C393.297 399.866 391.44 374.616 390.906 370.594C390.906 370.594 389.962 378.607 389.552 384.076C389.141 389.544 387.5 394.777 385.94 404.945C384.566 413.758 382.011 433.467 382.011 433.467C378.04 435.622 375.67 433.19 375.67 433.19C375.67 433.19 372.295 408.351 373.362 400.707Z" fill="black"/>
</g>
<path d="M399.566 292.598L398.16 304.161L387.992 303.248L389.152 290.413L399.566 292.598Z" fill="#B16668"/>
<path d="M376.83 302.396C377.948 299.318 381.754 295.963 385.663 296.692L388.536 297.215C388.618 299.882 393.666 301.257 398.653 299.647C400.151 300.077 401.536 300.519 402.757 300.96C406.337 302.242 407.774 308.142 407.887 318.135C407.999 328.128 409.026 352.886 409.026 352.886L404.788 354.23L402.839 346.976L402.049 355.666C397.291 356.776 392.339 356.751 387.592 355.594C376.84 353.245 373.495 347.448 373.495 347.448C374.81 340.738 377.424 334.349 381.19 328.641C375.814 314.308 375.178 306.941 376.83 302.396Z" fill="#EBEBEB"/>
<path d="M407.127 277.905C407.736 276.524 407.984 275.011 407.85 273.507C407.715 272.004 407.202 270.559 406.358 269.307C402.941 263.952 396.365 263.039 388.567 265.132C385.845 265.965 383.447 267.619 381.701 269.867C379.955 272.114 378.945 274.847 378.81 277.69C378.43 283.405 394.384 287.622 394.015 291.541L407.127 277.905Z" fill="#263238"/>
<path d="M407.466 280.081C407.466 280.081 409.631 283.548 409.323 283.908C408.787 284.24 408.196 284.476 407.579 284.605L407.466 280.081Z" fill="#9A4A4D"/>
<path d="M400.869 269.092C403.023 270.282 406.758 272.478 407.517 280.583C408.297 288.894 406.368 291.726 405.209 292.783C404.429 293.501 400.479 293.655 398.447 292.967C395.903 292.095 390.404 289.202 387.91 284.852C384.976 279.722 384.525 273.001 388.136 270.488C389.967 269.196 392.095 268.39 394.322 268.146C396.549 267.902 398.802 268.227 400.869 269.092Z" fill="#B16668"/>
<path d="M401.505 269.451C401.505 269.451 403.208 277.064 400.787 281.763C400.787 281.763 399.535 278.778 396.97 279.558C394.405 280.337 394.538 283.754 396.498 285.549C396.999 286.063 397.634 286.424 398.331 286.591C399.029 286.758 399.759 286.724 400.438 286.493C399.574 288.648 398.278 290.603 396.631 292.239C396.631 292.239 389.049 295.614 382.493 288.207C376.532 281.486 377.64 269.739 386.761 266.999C395.882 264.26 401.505 269.451 401.505 269.451Z" fill="#263238"/>
<path d="M379.887 270.241C380.246 270.549 380.468 270.987 380.504 271.458C380.541 271.929 380.389 272.395 380.082 272.755L377.373 270.426C377.526 270.248 377.712 270.102 377.921 269.996C378.13 269.89 378.358 269.827 378.592 269.81C378.825 269.793 379.06 269.822 379.282 269.896C379.505 269.97 379.71 270.087 379.887 270.241Z" fill="#263238"/>
<path d="M428.52 319.315C429.997 317.632 430.572 313.877 432.521 311.312C434.47 308.747 435.209 306.869 435.989 307.988C437.015 309.475 434.696 312.441 435.209 312.738C435.722 313.036 437.651 316.945 437.846 319.12C438.041 321.295 432.285 326.753 432.285 326.753L428.52 319.315Z" fill="#B16668"/>
<path d="M435.045 312.4C435.045 312.4 442.001 311.805 443.017 312.4C444.032 312.995 443.725 316.011 443.017 317.858C442.309 319.705 438.759 320.936 435.465 323.132C435.465 322.803 435.045 312.4 435.045 312.4Z" fill="#B16668"/>
<path d="M401.895 300.683C404.88 301.709 407.497 302.93 410.287 308.172C413.868 314.913 420.393 328.108 420.393 328.108L428.519 319.315C428.519 319.315 429.699 317.653 431.895 321.285C434.091 324.917 433.126 325.922 433.126 325.922C433.126 325.922 423.677 338.583 421.943 340.194C420.209 341.805 417.356 340.553 415.489 338.019C413.622 335.485 401.895 320.802 401.895 320.802C401.895 320.802 395.482 312.369 401.895 300.683Z" fill="#B16668"/>
<path opacity="0.2" d="M390.906 370.574L390.332 364.53C387.075 364.046 383.961 362.867 381.2 361.073C381.2 361.073 383.15 364.151 388.485 365.608L389.039 373.303L389.367 385.922L390.906 370.574Z" fill="black"/>
<path d="M369.596 299.082C370.982 299.086 372.354 298.817 373.636 298.29C374.917 297.763 376.082 296.988 377.063 296.01C378.045 295.032 378.824 293.871 379.356 292.591C379.888 291.312 380.163 289.941 380.164 288.555V272.56C378.957 272.168 377.674 272.067 376.42 272.266C375.166 272.466 373.977 272.958 372.951 273.705C371.924 274.451 371.089 275.43 370.513 276.562C369.937 277.693 369.637 278.944 369.637 280.214L369.596 299.082Z" fill="#263238"/>
<path d="M408.112 328.61C408.112 328.61 402.274 321.079 400.407 318.053L408.317 334.756L408.112 328.61Z" fill="#E0E0E0"/>
<path d="M459.3 266.763C457.083 273.298 452.353 292.792 452.353 292.792C452.353 292.792 443.335 304.786 440.852 307.074C439.477 308.347 436.368 310.635 436.368 310.635L438.954 312.543C438.954 312.543 443.263 311.23 443.622 313.569C448.115 309.954 452.365 306.047 456.345 301.873C457.349 300.824 458.057 299.529 458.397 298.117L462.244 281.568C462.244 281.568 462.244 268.23 464.296 266.486C466.348 264.742 465.538 260.792 465.538 260.792C464.132 260.833 461.044 261.643 459.3 266.763Z" fill="#FFA8A7"/>
<path d="M465.609 260.135C466.238 261.9 466.999 263.615 467.887 265.265C468.79 266.815 461.885 294.67 461.423 296.743C460.962 298.815 447.572 310.891 447.572 310.891C445.153 309.868 443.231 307.938 442.217 305.515L451.881 292.936C451.881 292.936 454.888 279.742 456.468 273.689C458.048 267.635 459.73 260.792 465.609 260.135Z" fill="white"/>
<path opacity="0.1" d="M465.609 260.135C466.238 261.9 466.999 263.615 467.887 265.265C468.79 266.815 461.885 294.67 461.423 296.743C460.962 298.815 447.572 310.891 447.572 310.891C445.153 309.868 443.231 307.938 442.217 305.515L451.881 292.936C451.881 292.936 454.888 279.742 456.468 273.689C458.048 267.635 459.73 260.792 465.609 260.135Z" fill="black"/>
<path d="M493.886 391.042H487.217V402.472H493.886V391.042Z" fill="#FFA8A7"/>
<path d="M466.594 393.813L459.925 394.049L459.597 381.952L466.594 381.727V393.813Z" fill="#FFA8A7"/>
<path d="M492.952 309.486C492.952 315.857 493.393 352.916 493.393 352.916C493.547 354.743 495.312 358.046 495.445 364.613C495.64 374.196 494.163 396.757 494.163 396.757C493.011 397.323 491.748 397.628 490.465 397.653C489.181 397.678 487.908 397.421 486.735 396.901C486.735 396.901 481.492 364.992 480.302 355.502C479.276 347.232 475.654 325.142 475.654 325.142L470.524 353.111C471.298 356.591 471.577 360.162 471.355 363.72C471.037 368.101 466.974 390.068 466.974 390.068C465.812 390.726 464.519 391.12 463.188 391.223C461.856 391.326 460.518 391.134 459.269 390.663C459.269 390.663 458.869 356.179 458.797 352.157C458.704 347.571 460.705 308.101 460.705 308.101L492.952 309.486Z" fill="#37474F"/>
<path d="M487.217 399.179V398.225C486.858 398.225 486.642 398.574 486.499 399.425C486.404 400.061 486.274 400.691 486.109 401.313C485.815 402.481 485.427 403.624 484.949 404.73C484.006 407.059 483.215 407.92 481.051 410.639C480.317 411.393 479.632 412.191 478.999 413.03C478.598 413.748 478.455 415.739 479.142 416.2C481.656 417.883 485.483 417.924 488.192 417.134C489.2 416.851 490.106 416.285 490.802 415.503C491.498 414.721 491.956 413.756 492.121 412.722C492.224 412.106 492.183 411.47 492.255 410.855C492.493 409.447 493.067 408.116 493.927 406.976C494.426 406.318 494.856 405.61 495.209 404.863C495.763 403.498 495.322 401.949 494.963 400.584C494.655 399.405 494.317 398.112 493.937 398.225V398.943C492.987 399.695 491.804 400.094 490.592 400.071C489.577 400.113 487.207 399.918 487.217 399.179Z" fill="#263238"/>
<path d="M459.854 391.987C459.505 391.987 459.228 392.489 458.458 393.32C457.316 394.47 455.992 395.423 454.539 396.142C452.035 397.394 447.182 399.312 444.977 400.307C443.602 400.923 443.674 402.585 445.089 403.529C446.505 404.473 449.942 405.15 454.057 404.237C456.293 403.734 459.187 401.662 461.064 401.775C462.942 401.887 466.369 401.857 467.733 400.913C469.098 399.969 468.554 397.968 468.164 396.244C467.744 394.367 467.22 391.422 466.594 391.556V392.202C465.794 393.423 461.649 393.915 459.895 393.023L459.854 391.987Z" fill="#263238"/>
<path d="M475.664 325.142C472.209 324.075 469.029 322.265 466.348 319.838C466.348 319.838 468.144 323.203 473.53 326.322L470.945 351.203L475.664 325.142Z" fill="#263238"/>
<path d="M481.379 260.587C483.657 261.141 488.233 261.89 489.259 266.414C490.49 271.842 490.89 283.672 490.89 283.672L491.311 309.999C486.714 313.344 469.837 315.129 460.161 308.101C460.161 308.101 461.352 276.5 461.352 271.575C461.352 266.65 464.081 260.741 471.612 260.289L481.379 260.587Z" fill="#F5F5F5"/>
<path d="M471.735 259.796C469.659 261.535 468.157 263.859 467.425 266.465C466.502 270.446 466.399 314.903 466.399 314.903C466.399 314.903 461.68 314.031 459.474 312.297C459.474 312.297 459.751 277.208 460.202 271.4C460.89 262.608 460.818 260.114 471.765 259.14L471.735 259.796Z" fill="white"/>
<path d="M483.369 259.14C483.369 259.14 477.08 263.008 477.008 278.408C476.947 291.746 476.505 314.903 476.505 314.903C476.505 314.903 486.919 316.431 493.516 312.492C493.516 312.492 494.306 280.214 494.173 275.217C494.029 269.492 492.696 262.095 490.859 261.356C488.421 260.432 485.918 259.691 483.369 259.14Z" fill="white"/>
<path d="M506.762 294.496C500.504 268.907 495.876 260.371 488.294 260.474C486.068 263.121 486.683 271.144 490.192 276.007C490.192 276.007 498.021 292.505 499.262 298.374C500.36 303.504 501.602 310.019 501.53 314.451C501.504 315.235 501.194 315.983 500.658 316.555C499.231 318.104 499.221 319.356 498.298 321.069C497.569 322.403 496.779 322.906 497.005 323.213C497.304 323.531 497.711 323.725 498.146 323.757C498.581 323.79 499.012 323.658 499.355 323.388C500.022 322.901 500.62 322.325 501.13 321.674C500.884 323.316 500.411 324.914 499.724 326.425C498.113 330.047 498.503 331.893 503.397 330.601C506.475 329.79 508.383 327.246 508.835 319.879C509.06 317.169 509.088 314.446 508.917 311.733C508.25 304.756 507.778 298.62 506.762 294.496Z" fill="#FFA8A7"/>
<path d="M486.971 260.053C486.971 260.053 492.008 259.827 494.737 262.587C497.467 265.347 501.15 271.154 504.72 283.846C508.291 296.537 509.389 305.812 509.563 312.953C509.563 312.953 505.09 315.005 500.965 312.666C500.965 312.666 499.139 301.616 497.518 295.737C495.897 289.858 489.854 277.474 489.854 277.474C489.854 277.474 484.077 268.887 486.971 260.053Z" fill="white"/>
<path opacity="0.1" d="M486.971 260.053C486.971 260.053 492.008 259.827 494.737 262.587C497.467 265.347 501.15 271.154 504.72 283.846C508.291 296.537 509.389 305.812 509.563 312.953C509.563 312.953 505.09 315.005 500.965 312.666C500.965 312.666 499.139 301.616 497.518 295.737C495.897 289.858 489.854 277.474 489.854 277.474C489.854 277.474 484.077 268.887 486.971 260.053Z" fill="black"/>
<path opacity="0.1" d="M484.077 267.563L481.194 271.124L482.641 275.187L478.855 284.893L483.41 275.187L481.82 271.349L484.077 267.563Z" fill="black"/>
<path opacity="0.1" d="M463.763 266.414L464.388 270.097L461.895 273.35L465.363 284.266L462.675 273.473L464.973 270.436L463.763 266.414Z" fill="black"/>
<path d="M479.646 240.137C480.457 235.136 477.062 230.425 472.061 229.613C467.061 228.802 462.349 232.197 461.538 237.198C460.726 242.198 464.122 246.909 469.122 247.721C474.122 248.533 478.834 245.137 479.646 240.137Z" fill="#263238"/>
<path d="M486.437 245.176C486.437 245.176 484.949 252.163 484.385 253.312C483.986 254.016 483.333 254.541 482.559 254.779L482.661 249.865L486.437 245.176Z" fill="#263238"/>
<path d="M484.57 235.173C485.092 235.114 485.621 235.176 486.115 235.354C486.61 235.532 487.057 235.821 487.422 236.199C488.643 237.45 487.966 241.329 486.396 245.197L483.595 245.515L484.57 235.173Z" fill="#263238"/>
<path d="M482.764 245.504C483.328 245.832 484.129 244.755 484.816 244.037C485.087 243.719 485.435 243.476 485.826 243.331C486.218 243.186 486.64 243.145 487.053 243.211C487.465 243.277 487.854 243.448 488.181 243.708C488.508 243.967 488.762 244.307 488.92 244.694C490.069 247.115 487.894 250.316 486.15 250.85C483.072 251.814 482.621 249.824 482.621 249.824L482.395 261.222C480.271 263.941 475.51 267.143 472.945 266.681C470.893 266.322 470.452 262.864 472.412 260.597V257.252C471.055 257.468 469.679 257.536 468.308 257.457C466.051 257.108 464.635 255.333 463.947 252.891C462.85 248.972 462.429 245.812 463.362 238.096C464.388 229.642 474.218 229.56 479.522 232.895C484.826 236.229 482.764 245.504 482.764 245.504Z" fill="#FFA8A7"/>
<path d="M482.764 246.448C483.051 246.448 484.129 244.673 484.816 244.037C485.781 243.155 484.529 235.173 484.529 235.173C484.864 234.471 484.979 233.684 484.861 232.915C484.742 232.146 484.394 231.431 483.862 230.863C482.538 229.406 480.692 227.621 474.628 228.339C470.339 228.842 465.671 230.176 461.895 228.339C461.546 229.57 461.573 230.877 461.971 232.093C462.37 233.308 463.122 234.377 464.132 235.162C465.678 235.93 467.364 236.377 469.088 236.476C472.403 236.726 475.736 236.664 479.04 236.291C480.066 236.147 480.302 237.153 480.866 239.913C481.441 242.324 481.851 246.428 482.764 246.448Z" fill="#263238"/>
<path d="M484.57 235.798L487.966 233.972C487.857 233.743 487.703 233.539 487.513 233.371C487.323 233.203 487.101 233.076 486.86 232.996C486.62 232.917 486.365 232.887 486.113 232.908C485.86 232.929 485.615 233.002 485.391 233.12C484.94 233.38 484.605 233.8 484.452 234.297C484.3 234.795 484.342 235.331 484.57 235.798Z" fill="#263238"/>
<path d="M472.432 257.252C474.751 256.81 477.024 256.157 479.224 255.303C480.259 254.763 481.107 253.922 481.656 252.892C481.391 253.923 480.92 254.89 480.271 255.734C478.988 257.375 472.432 258.586 472.432 258.586V257.252Z" fill="#F28F8F"/>
<path d="M473.643 244.242C473.643 244.514 473.751 244.775 473.943 244.968C474.136 245.16 474.397 245.268 474.669 245.268C474.941 245.268 475.202 245.16 475.394 244.968C475.587 244.775 475.695 244.514 475.695 244.242C475.695 243.97 475.587 243.709 475.394 243.517C475.202 243.324 474.941 243.216 474.669 243.216C474.397 243.216 474.136 243.324 473.943 243.517C473.751 243.709 473.643 243.97 473.643 244.242Z" fill="#263238"/>
<path d="M474.71 240.436L476.865 241.626C477.018 241.329 477.051 240.985 476.957 240.664C476.864 240.343 476.651 240.07 476.362 239.902C476.219 239.825 476.062 239.778 475.901 239.763C475.739 239.748 475.576 239.766 475.422 239.816C475.267 239.866 475.125 239.946 475.002 240.053C474.88 240.16 474.781 240.29 474.71 240.436Z" fill="#263238"/>
<path d="M472.884 251.209L470.585 252.071C470.634 252.226 470.713 252.37 470.819 252.493C470.925 252.617 471.054 252.718 471.2 252.79C471.346 252.862 471.505 252.903 471.667 252.912C471.83 252.921 471.992 252.896 472.145 252.84C472.455 252.716 472.705 252.477 472.843 252.173C472.98 251.869 472.995 251.524 472.884 251.209Z" fill="#F28F8F"/>
<path d="M464.645 241.277L466.615 239.759C466.522 239.626 466.403 239.513 466.266 239.427C466.128 239.341 465.975 239.284 465.815 239.259C465.655 239.234 465.491 239.242 465.334 239.282C465.177 239.322 465.03 239.393 464.901 239.492C464.639 239.7 464.466 240.002 464.418 240.333C464.37 240.665 464.452 241.003 464.645 241.277Z" fill="#263238"/>
<path d="M465.25 243.914C465.25 244.186 465.358 244.447 465.551 244.64C465.743 244.832 466.004 244.94 466.276 244.94C466.548 244.94 466.809 244.832 467.002 244.64C467.194 244.447 467.302 244.186 467.302 243.914C467.302 243.642 467.194 243.381 467.002 243.189C466.809 242.996 466.548 242.888 466.276 242.888C466.004 242.888 465.743 242.996 465.551 243.189C465.358 243.381 465.25 243.642 465.25 243.914Z" fill="#263238"/>
<path d="M470.391 243.001L470.062 249.065L466.892 247.987L470.391 243.001Z" fill="#F28F8F"/>
<path d="M469.293 266.024C469.908 267.502 471.057 268.076 473.12 268.333C474.163 268.397 475.209 268.249 476.193 267.896C477.178 267.543 478.08 266.994 478.845 266.281L476.28 263.726L473.007 266.178L472.73 263.439L469.293 266.024Z" fill="white"/>
<path opacity="0.1" d="M469.293 266.024C469.908 267.502 471.057 268.076 473.12 268.333C474.163 268.397 475.209 268.249 476.193 267.896C477.178 267.543 478.08 266.994 478.845 266.281L476.28 263.726L473.007 266.178L472.73 263.439L469.293 266.024Z" fill="black"/>
<path d="M470.914 265.224C470.611 266.111 470.496 267.051 470.575 267.984C470.673 268.815 470.992 269.605 471.498 270.272C471.824 270.482 472.193 270.613 472.578 270.656C472.962 270.698 473.351 270.651 473.715 270.518C474.379 269.948 474.912 269.241 475.279 268.446C475.645 267.651 475.836 266.787 475.838 265.912L473.007 266.23L470.914 265.224Z" fill="white"/>
<path d="M471.478 270.272C471.478 270.272 468.123 288.74 467.99 290.258C467.856 291.777 469.908 297.051 471.191 297.092C472.473 297.133 474.977 292.341 475.007 290.936C475.038 289.53 473.694 270.467 473.694 270.467L471.478 270.272Z" fill="white"/>
<path opacity="0.1" d="M473.715 270.518C473.356 270.677 472.963 270.737 472.573 270.694C472.184 270.651 471.813 270.505 471.499 270.272V270.57C471.819 270.825 472.196 270.999 472.597 271.078C472.999 271.157 473.414 271.137 473.807 271.021L473.715 270.518Z" fill="black"/>
<path d="M473.007 266.23L482.446 259.048V256.914C482.446 256.914 484.642 257.745 485.134 261.613C483.62 264.967 481.032 267.722 477.778 269.441L475.798 265.912L473.007 266.23Z" fill="#E0E0E0"/>
<path d="M472.432 257.888C471.198 258.083 470.092 258.758 469.354 259.766C468.41 261.315 468.626 267.276 468.626 267.276L470.883 265.224L472.935 266.25C472.74 264.27 472.35 260.658 472.35 260.658L472.432 257.888Z" fill="#E0E0E0"/>
<path d="M435.568 323.193C436.45 321.955 436.965 320.493 437.056 318.976C437.323 317.037 442.637 314.954 442.812 316.401C442.986 317.847 443.468 319.048 441.786 320.802C440.103 322.557 438.041 324.496 435.568 323.193Z" fill="#FFA8A7"/>
<path d="M435.845 310.666C434.573 312.307 433.793 315.498 433.116 316.575C432.439 317.653 431.638 318.627 433.116 318.781C434.593 318.935 436.738 316.103 437.538 314.359C437.848 313.669 438.32 313.064 438.913 312.595C439.146 312.408 439.405 312.255 439.682 312.143C438.995 311.907 439.354 309.137 438.872 308.757C438.872 308.757 436.368 309.783 435.845 310.666Z" fill="#FFA8A7"/>
</svg>
