<svg width="630" height="612" viewBox="0 0 630 612" fill="none" xmlns="http://www.w3.org/2000/svg">
<path d="M534.89 469.339H498.458V469.614H534.89V469.339Z" fill="#EBEBEB"/>
<path d="M404.342 472.331H394.783V472.606H404.342V472.331Z" fill="#EBEBEB"/>
<path d="M497.358 459.131H476.249V459.406H497.358V459.131Z" fill="#EBEBEB"/>
<path d="M145.215 460.979H97.7061V461.254H145.215V460.979Z" fill="#EBEBEB"/>
<path d="M161.979 460.979H155.016V461.254H161.979V460.979Z" fill="#EBEBEB"/>
<path d="M287.665 465.621H184.617V465.896H287.665V465.621Z" fill="#EBEBEB"/>
<path d="M300.7 402.58H88.312C86.6462 402.58 85.0486 401.918 83.8707 400.74C82.6928 399.562 82.031 397.965 82.031 396.299V97.726C82.0455 96.0697 82.7137 94.4862 83.89 93.3202C85.0663 92.1541 86.6557 91.4999 88.312 91.5H300.7C302.366 91.5 303.963 92.1617 305.141 93.3397C306.319 94.5176 306.981 96.1152 306.981 97.781V396.299C306.981 397.965 306.319 399.562 305.141 400.74C303.963 401.918 302.366 402.58 300.7 402.58ZM88.312 91.72C86.72 91.7229 85.1941 92.3566 84.0683 93.4823C82.9426 94.608 82.3089 96.134 82.306 97.726V396.299C82.3089 397.891 82.9426 399.417 84.0683 400.543C85.1941 401.668 86.72 402.302 88.312 402.305H300.7C302.292 402.302 303.818 401.668 304.944 400.543C306.069 399.417 306.703 397.891 306.706 396.299V97.726C306.703 96.134 306.069 94.608 304.944 93.4823C303.818 92.3566 302.292 91.7229 300.7 91.72H88.312Z" fill="#EBEBEB"/>
<path d="M538.641 402.58H326.231C324.566 402.577 322.97 401.914 321.793 400.737C320.616 399.56 319.953 397.964 319.95 396.299V97.726C319.967 96.0706 320.636 94.4888 321.812 93.3234C322.988 92.1579 324.575 91.5028 326.231 91.5H538.641C540.293 91.5057 541.877 92.1625 543.049 93.3279C544.22 94.4933 544.885 96.0735 544.9 97.726V396.299C544.9 397.961 544.241 399.555 543.068 400.733C541.895 401.91 540.303 402.574 538.641 402.58ZM326.231 91.72C324.639 91.7229 323.113 92.3566 321.987 93.4823C320.862 94.608 320.228 96.134 320.225 97.726V396.299C320.228 397.891 320.862 399.417 321.987 400.543C323.113 401.668 324.639 402.302 326.231 402.305H538.641C540.233 402.302 541.759 401.668 542.885 400.543C544.01 399.417 544.644 397.891 544.647 396.299V97.726C544.644 96.134 544.01 94.608 542.885 93.4823C541.759 92.3566 540.233 91.7229 538.641 91.72H326.231Z" fill="#EBEBEB"/>
<path d="M590 451.64H40V451.915H590V451.64Z" fill="#EBEBEB"/>
<path d="M147.47 141.352H145.49V295.759H147.47V141.352Z" fill="#E0E0E0"/>
<path d="M270.725 141.352H268.745V295.759H270.725V141.352Z" fill="#E0E0E0"/>
<path d="M278.48 151.065H137.735L134.765 144.135H281.45L278.48 151.065Z" fill="#EBEBEB"/>
<path d="M278.48 160.58H137.735L134.765 153.65H281.45L278.48 160.58Z" fill="#EBEBEB"/>
<path d="M278.48 170.095H137.735L134.765 163.165H281.45L278.48 170.095Z" fill="#EBEBEB"/>
<path d="M278.48 179.61H137.735L134.765 172.68H281.45L278.48 179.61Z" fill="#EBEBEB"/>
<path d="M278.48 189.125H137.735L134.765 182.195H281.45L278.48 189.125Z" fill="#EBEBEB"/>
<path d="M278.48 198.64H137.735L134.765 191.71H281.45L278.48 198.64Z" fill="#EBEBEB"/>
<path d="M278.48 208.155H137.735L134.765 201.225H281.45L278.48 208.155Z" fill="#EBEBEB"/>
<path d="M278.48 217.67H137.735L134.765 210.74H281.45L278.48 217.67Z" fill="#EBEBEB"/>
<path d="M278.48 227.174H137.735L134.765 220.244H281.45L278.48 227.174Z" fill="#EBEBEB"/>
<path d="M278.48 236.689H137.735L134.765 229.759H281.45L278.48 236.689Z" fill="#EBEBEB"/>
<path d="M278.48 246.204H137.735L134.765 239.274H281.45L278.48 246.204Z" fill="#EBEBEB"/>
<path d="M278.48 255.719H137.735L134.765 248.789H281.45L278.48 255.719Z" fill="#EBEBEB"/>
<path d="M278.48 265.234H137.735L134.765 258.304H281.45L278.48 265.234Z" fill="#EBEBEB"/>
<path d="M278.48 274.749H137.735L134.765 267.819H281.45L278.48 274.749Z" fill="#EBEBEB"/>
<path d="M278.48 284.264H137.735L134.765 277.334H281.45L278.48 284.264Z" fill="#EBEBEB"/>
<path d="M278.48 293.779H137.735L134.765 286.849H281.45L278.48 293.779Z" fill="#EBEBEB"/>
<path d="M281.45 293.779H134.765V297.739H281.45V293.779Z" fill="#E0E0E0"/>
<path d="M286.565 135.456H129.65V144.696H286.565V135.456Z" fill="#E0E0E0"/>
<path d="M131.3 228.472C130.877 228.472 130.471 228.304 130.172 228.005C129.873 227.706 129.705 227.3 129.705 226.877V172.977C129.705 172.767 129.746 172.56 129.826 172.366C129.907 172.173 130.024 171.997 130.172 171.849C130.32 171.701 130.496 171.583 130.69 171.503C130.883 171.423 131.09 171.382 131.3 171.382C131.723 171.382 132.129 171.55 132.428 171.849C132.727 172.148 132.895 172.554 132.895 172.977V226.877C132.895 227.086 132.854 227.294 132.774 227.487C132.693 227.681 132.576 227.857 132.428 228.005C132.28 228.153 132.104 228.27 131.91 228.35C131.717 228.431 131.509 228.472 131.3 228.472Z" fill="#E0E0E0"/>
<path d="M131.839 142.848H130.684V174.858H131.839V142.848Z" fill="#E0E0E0"/>
<path d="M310.457 200.125H315.341C316.143 200.125 316.913 200.444 317.48 201.011C318.047 201.578 318.366 202.348 318.366 203.15V345.149H307.421V203.15C307.421 202.752 307.5 202.358 307.652 201.99C307.805 201.622 308.029 201.288 308.311 201.007C308.593 200.726 308.928 200.503 309.296 200.352C309.664 200.201 310.059 200.124 310.457 200.125Z" fill="#E6E6E6"/>
<path d="M313.823 200.125H310.809C309.912 200.125 309.052 200.48 308.417 201.113C307.782 201.746 307.424 202.605 307.421 203.502V345.149H310.435V203.502C310.438 202.605 310.796 201.746 311.431 201.113C312.066 200.48 312.926 200.125 313.823 200.125Z" fill="#F0F0F0"/>
<path d="M321.545 335.788H304.319V451.915H321.545V335.788Z" fill="#EBEBEB"/>
<path d="M298.192 447.218H327.672C328.786 447.218 329.855 447.66 330.643 448.448C331.431 449.237 331.874 450.305 331.874 451.42V451.904H293.99V451.42C293.99 450.305 294.433 449.237 295.221 448.448C296.009 447.66 297.078 447.218 298.192 447.218Z" fill="#E6E6E6"/>
<path d="M476.062 394.55H503.837C506.231 394.547 508.527 393.595 510.22 391.902C511.913 390.209 512.865 387.913 512.868 385.519V344.907C512.868 344.469 512.694 344.05 512.385 343.74C512.075 343.431 511.656 343.257 511.218 343.257C510.78 343.257 510.361 343.431 510.051 343.74C509.742 344.05 509.568 344.469 509.568 344.907V385.519C509.568 387.039 508.964 388.497 507.889 389.571C506.815 390.646 505.357 391.25 503.837 391.25H476.062V394.55Z" fill="#E0E0E0"/>
<path d="M468.12 433.468V395.65L465.92 394.957C464.703 394.573 463.639 393.812 462.884 392.784C462.128 391.755 461.72 390.513 461.718 389.237H482.673C482.673 390.513 482.265 391.757 481.51 392.785C480.754 393.814 479.689 394.575 478.471 394.957L476.271 395.65V433.468L493.662 441.3V444.6L472.179 437.087L450.696 444.6V441.3L468.12 433.468Z" fill="#E0E0E0"/>
<path d="M444.8 391.25H499.591C500.372 391.25 501.146 391.096 501.868 390.797C502.59 390.498 503.246 390.059 503.799 389.507C504.352 388.954 504.79 388.298 505.089 387.576C505.388 386.854 505.542 386.08 505.542 385.299C505.539 383.722 504.911 382.212 503.795 381.098C502.679 379.984 501.167 379.359 499.591 379.359H444.8C443.225 379.359 441.714 379.985 440.6 381.099C439.486 382.213 438.86 383.723 438.86 385.299C438.859 386.08 439.011 386.853 439.309 387.575C439.607 388.297 440.044 388.953 440.596 389.506C441.148 390.059 441.803 390.497 442.524 390.797C443.246 391.096 444.019 391.25 444.8 391.25Z" fill="#F0F0F0"/>
<path d="M509.238 359.196L512.197 316.912C512.306 315.343 511.788 313.795 510.757 312.607C509.726 311.419 508.266 310.689 506.697 310.576C505.126 310.464 503.575 310.981 502.385 312.012C501.195 313.043 500.463 314.505 500.35 316.076L497.391 358.36C497.282 359.93 497.8 361.48 498.83 362.669C499.861 363.859 501.321 364.592 502.891 364.707C504.463 364.816 506.014 364.297 507.204 363.264C508.394 362.231 509.125 360.768 509.238 359.196Z" fill="#EBEBEB"/>
<path d="M489.9 446.921C489.9 447.665 490.121 448.393 490.534 449.011C490.947 449.63 491.535 450.112 492.222 450.397C492.91 450.682 493.666 450.756 494.396 450.611C495.126 450.466 495.796 450.107 496.322 449.581C496.848 449.055 497.207 448.385 497.352 447.655C497.497 446.925 497.422 446.169 497.138 445.482C496.853 444.794 496.371 444.207 495.752 443.793C495.133 443.38 494.406 443.159 493.662 443.159C493.168 443.159 492.679 443.256 492.222 443.446C491.766 443.635 491.351 443.912 491.002 444.261C490.653 444.61 490.375 445.025 490.186 445.482C489.997 445.938 489.9 446.427 489.9 446.921Z" fill="#E0E0E0"/>
<path d="M446.934 446.921C446.934 447.665 447.155 448.393 447.568 449.011C447.981 449.63 448.569 450.112 449.256 450.397C449.944 450.682 450.7 450.756 451.43 450.611C452.16 450.466 452.83 450.107 453.356 449.581C453.882 449.055 454.241 448.385 454.386 447.655C454.531 446.925 454.456 446.169 454.172 445.482C453.887 444.794 453.405 444.207 452.786 443.793C452.167 443.38 451.44 443.159 450.696 443.159C449.698 443.159 448.741 443.556 448.036 444.261C447.33 444.967 446.934 445.923 446.934 446.921Z" fill="#E0E0E0"/>
<path d="M150.407 394.55H122.632C120.236 394.55 117.938 393.599 116.242 391.905C114.547 390.212 113.593 387.915 113.59 385.519V344.907C113.59 344.469 113.764 344.05 114.073 343.74C114.383 343.431 114.802 343.257 115.24 343.257C115.678 343.257 116.097 343.431 116.407 343.74C116.716 344.05 116.89 344.469 116.89 344.907V385.519C116.893 387.04 117.499 388.497 118.576 389.572C119.652 390.646 121.111 391.25 122.632 391.25H150.407V394.55Z" fill="#E0E0E0"/>
<path d="M158.349 433.468V395.65L160.549 394.957C161.765 394.573 162.827 393.812 163.581 392.783C164.335 391.754 164.741 390.512 164.74 389.237H143.84C143.842 390.513 144.25 391.755 145.006 392.784C145.761 393.812 146.825 394.573 148.042 394.957L150.242 395.65V433.468L132.807 441.3V444.6L154.29 437.087L175.773 444.6V441.3L158.349 433.468Z" fill="#E0E0E0"/>
<path d="M181.68 391.25H126.9C125.324 391.247 123.813 390.619 122.699 389.503C121.585 388.387 120.96 386.875 120.96 385.299C120.96 383.723 121.586 382.213 122.7 381.099C123.814 379.985 125.325 379.359 126.9 379.359H181.68C183.256 379.359 184.768 379.984 185.884 381.098C187 382.212 187.628 383.722 187.631 385.299C187.631 386.877 187.004 388.391 185.888 389.507C184.772 390.623 183.258 391.25 181.68 391.25Z" fill="#F0F0F0"/>
<path d="M117.22 359.196L114.261 316.912C114.152 315.343 114.67 313.795 115.701 312.607C116.732 311.419 118.192 310.689 119.761 310.576C121.332 310.464 122.883 310.981 124.073 312.012C125.263 313.043 125.995 314.505 126.108 316.076L129.1 358.371C129.209 359.941 128.691 361.491 127.661 362.68C126.63 363.87 125.17 364.603 123.6 364.718C122.818 364.776 122.032 364.68 121.288 364.434C120.543 364.187 119.855 363.796 119.262 363.283C118.669 362.77 118.184 362.145 117.833 361.443C117.483 360.742 117.274 359.978 117.22 359.196Z" fill="#EBEBEB"/>
<path d="M136.558 446.921C136.558 447.666 136.337 448.393 135.923 449.012C135.509 449.631 134.921 450.113 134.233 450.398C133.545 450.682 132.788 450.756 132.058 450.61C131.328 450.464 130.658 450.105 130.132 449.577C129.606 449.05 129.249 448.379 129.105 447.648C128.961 446.918 129.037 446.161 129.323 445.474C129.61 444.787 130.094 444.2 130.714 443.788C131.334 443.376 132.062 443.157 132.807 443.159C133.3 443.159 133.789 443.257 134.245 443.446C134.701 443.635 135.115 443.912 135.463 444.262C135.812 444.611 136.088 445.026 136.276 445.482C136.463 445.939 136.559 446.428 136.558 446.921Z" fill="#E0E0E0"/>
<path d="M179.524 446.921C179.524 447.666 179.303 448.393 178.889 449.012C178.475 449.631 177.887 450.113 177.199 450.398C176.511 450.682 175.754 450.756 175.024 450.61C174.294 450.464 173.624 450.105 173.098 449.577C172.572 449.05 172.215 448.379 172.071 447.648C171.927 446.918 172.003 446.161 172.29 445.474C172.576 444.787 173.06 444.2 173.68 443.788C174.3 443.376 175.028 443.157 175.773 443.159C176.267 443.159 176.755 443.257 177.211 443.446C177.667 443.635 178.081 443.912 178.429 444.262C178.778 444.611 179.054 445.026 179.242 445.482C179.429 445.939 179.525 446.428 179.524 446.921Z" fill="#E0E0E0"/>
<path d="M268.448 451.915H246.998L244.798 411.237H270.648L268.448 451.915Z" fill="#EBEBEB"/>
<path d="M251.948 451.915H243.148V450.1L251.948 449V451.915Z" fill="#E0E0E0"/>
<path d="M248.065 407.937H267.381C268.256 407.937 269.096 408.285 269.714 408.904C270.333 409.522 270.681 410.362 270.681 411.237H244.787C244.787 410.362 245.135 409.522 245.754 408.904C246.372 408.285 247.212 407.937 248.087 407.937H248.065Z" fill="#E0E0E0"/>
<path d="M224.448 346.414H190.106V342.3L224.448 340.1V346.414Z" fill="#E0E0E0"/>
<path d="M275.224 350.605H173.661V364.663H275.224V350.605Z" fill="#F0F0F0"/>
<path d="M296.278 346.414H152.97V354.796H296.278V346.414Z" fill="#FAFAFA"/>
<path d="M282.968 451.915H289.436L278.238 354.796H270.648L282.968 451.915Z" fill="#E6E6E6"/>
<path d="M178.6 354.796H171.01L159.801 451.915H166.28L178.6 354.796Z" fill="#E6E6E6"/>
<path d="M259.219 344.324C256.286 329.76 253.352 315.189 250.419 300.61C250.001 298.531 246.811 299.411 247.229 301.49L255.6 343.114H237.45C237.012 343.114 236.593 343.288 236.283 343.597C235.974 343.907 235.8 344.326 235.8 344.764C235.8 345.202 235.974 345.621 236.283 345.931C236.593 346.24 237.012 346.414 237.45 346.414H257.613C257.867 346.412 258.117 346.352 258.345 346.239C258.572 346.126 258.771 345.962 258.926 345.761C259.081 345.559 259.188 345.325 259.238 345.076C259.289 344.827 259.283 344.57 259.219 344.324Z" fill="#E0E0E0"/>
<path d="M238.671 332.598L244.325 251.77C246.413 253.26 248.083 255.262 249.175 257.583C250.268 259.904 250.745 262.466 250.562 265.025L246.701 320.3C246.529 322.866 245.7 325.345 244.294 327.499C242.888 329.652 240.951 331.408 238.671 332.598Z" fill="#FAFAFA"/>
<path d="M282.726 322.918H273.53C271.768 322.918 270.34 324.346 270.34 326.108V343.224C270.34 344.986 271.768 346.414 273.53 346.414H282.726C284.488 346.414 285.916 344.986 285.916 343.224V326.108C285.916 324.346 284.488 322.918 282.726 322.918Z" fill="#F5F5F5"/>
<path d="M276.5 314.173C274.069 314.173 272.1 314.778 272.1 315.515C272.1 316.252 274.08 315.251 276.5 315.251C276.811 315.234 277.124 315.234 277.435 315.251V320.575H278.821V315.46C280.075 315.691 280.911 315.944 280.911 315.46C280.9 314.8 278.931 314.173 276.5 314.173Z" fill="#E0E0E0"/>
<path d="M280.614 318.903H275.653V323.864H280.614V318.903Z" fill="#F0F0F0"/>
<path d="M351.245 364.674H452.808V350.616H351.245V364.674Z" fill="#F0F0F0"/>
<path d="M330.191 354.807H473.499V346.425H330.191V354.807Z" fill="#FAFAFA"/>
<path d="M343.501 451.915H337.022L348.22 354.796H355.81L343.501 451.915Z" fill="#E6E6E6"/>
<path d="M447.869 354.796H455.459L466.657 451.915H460.178L447.869 354.796Z" fill="#E6E6E6"/>
<path d="M405.563 103.006H403.11V179.159H405.563V103.006Z" fill="#E0E0E0"/>
<path d="M373.751 193.833L404.353 146.346L434.944 193.833H373.751Z" fill="#E0E0E0"/>
<path d="M205.473 103.006H203.02V164.199H205.473V103.006Z" fill="#E0E0E0"/>
<path d="M173.661 191.831L204.252 144.344L234.843 191.831H173.661Z" fill="#FAFAFA"/>
<path d="M309.698 497.081C427.489 497.081 522.977 491.506 522.977 484.629C522.977 477.752 427.489 472.177 309.698 472.177C191.907 472.177 96.4189 477.752 96.4189 484.629C96.4189 491.506 191.907 497.081 309.698 497.081Z" fill="#F5F5F5"/>
<path d="M421.381 478.073C421.381 477.952 421.381 477.842 421.293 477.721C421.205 477.6 421.194 477.358 421.139 477.182L420.952 476.665L420.754 476.214L401.328 433.226L397.918 425.669L395.234 419.74H335.614L336.637 425.669L337.946 433.226L344.766 472.617C344.766 472.76 344.766 472.892 344.821 473.035C344.832 473.17 344.832 473.306 344.821 473.442V473.541C344.821 473.673 344.821 473.805 344.821 473.948L344.7 474.3C344.675 474.449 344.638 474.596 344.59 474.74C344.567 474.842 344.534 474.941 344.491 475.037V475.125V475.202C344.439 475.319 344.38 475.433 344.315 475.543C344.252 475.673 344.179 475.799 344.095 475.917L344.029 476.016L343.82 476.28C343.727 476.398 343.628 476.512 343.523 476.621C343.341 476.81 343.142 476.984 342.929 477.138C342.76 477.264 342.58 477.375 342.39 477.468C342.27 477.545 342.14 477.608 342.005 477.655C341.869 477.716 341.73 477.767 341.587 477.809H341.532C341.405 477.848 341.277 477.881 341.147 477.908C340.825 477.975 340.497 478.008 340.168 478.007H313.955C313.705 478.005 313.456 478.042 313.218 478.117C313.059 478.171 312.905 478.238 312.756 478.315C312.4 478.509 312.095 478.784 311.865 479.118C311.775 479.253 311.698 479.397 311.634 479.547C311.501 479.86 311.434 480.197 311.436 480.537V483.353C311.434 483.693 311.501 484.03 311.634 484.343C311.698 484.493 311.775 484.636 311.865 484.772C312.095 485.105 312.4 485.38 312.756 485.575C312.905 485.652 313.059 485.718 313.218 485.773C313.456 485.848 313.705 485.885 313.955 485.883H418.906C419.452 485.884 419.985 485.719 420.435 485.41C420.585 485.314 420.721 485.199 420.842 485.069C420.968 484.944 421.082 484.808 421.183 484.662C421.279 484.52 421.36 484.369 421.425 484.211C421.566 483.861 421.637 483.488 421.634 483.111V480.185C421.625 479.474 421.54 478.766 421.381 478.073Z" fill="#263238"/>
<path opacity="0.2" d="M311.436 480.691V483.518C311.435 483.85 311.499 484.18 311.626 484.488C311.752 484.795 311.939 485.075 312.174 485.31C312.409 485.545 312.689 485.732 312.996 485.858C313.304 485.985 313.633 486.049 313.966 486.048H418.906C419.633 486.045 420.329 485.756 420.844 485.243C421.358 484.73 421.65 484.035 421.656 483.309V480.372C421.656 479.598 421.567 478.827 421.392 478.073C421.241 477.416 421.027 476.775 420.754 476.159L395.223 419.696H335.614L344.766 472.573C344.824 472.881 344.85 473.194 344.843 473.508C344.817 474.758 344.301 475.947 343.406 476.82C342.51 477.692 341.308 478.178 340.058 478.172H313.966C313.634 478.17 313.306 478.234 312.999 478.36C312.692 478.486 312.413 478.672 312.178 478.906C311.943 479.14 311.756 479.418 311.629 479.724C311.502 480.031 311.436 480.359 311.436 480.691Z" fill="white"/>
<path d="M424.12 476.17L398.6 419.696H395.223L420.743 476.17C421.341 477.49 421.652 478.922 421.656 480.372V483.298C421.656 484.027 421.366 484.727 420.851 485.242C420.335 485.758 419.635 486.048 418.906 486.048H422.283C422.644 486.048 423.001 485.977 423.334 485.838C423.667 485.7 423.969 485.497 424.224 485.242C424.478 484.986 424.68 484.683 424.817 484.349C424.954 484.016 425.023 483.658 425.022 483.298V480.372C425.022 478.923 424.715 477.491 424.12 476.17Z" fill="#263238"/>
<path opacity="0.3" d="M395.223 419.696H335.614L337.957 433.193H401.317L395.223 419.696Z" fill="black"/>
<path d="M512.725 232.553L498.425 396.453L496.687 416.319C496.432 418.838 495.262 421.176 493.399 422.891C491.536 424.606 489.11 425.579 486.578 425.625H232.214C231.023 425.644 229.842 425.41 228.749 424.938C227.655 424.466 226.675 423.767 225.873 422.886C225.071 422.006 224.465 420.965 224.096 419.833C223.727 418.701 223.603 417.503 223.733 416.319L225.471 396.453L239.771 232.553C240.026 230.035 241.197 227.698 243.06 225.985C244.923 224.272 247.349 223.301 249.88 223.258H504.2C506.2 223.236 508.145 223.913 509.7 225.172C509.911 225.341 510.109 225.525 510.294 225.722C510.872 226.292 511.358 226.949 511.735 227.669C512.002 228.149 512.212 228.658 512.362 229.187C512.696 230.275 512.819 231.418 512.725 232.553Z" fill="#263238"/>
<path d="M225.482 396.453L223.7 416.319C223.572 417.504 223.697 418.702 224.068 419.834C224.438 420.966 225.045 422.007 225.848 422.887C226.651 423.767 227.632 424.466 228.725 424.938C229.819 425.41 231.001 425.644 232.192 425.625H486.534C489.066 425.579 491.492 424.606 493.355 422.891C495.218 421.176 496.388 418.838 496.643 416.319L498.381 396.453H225.482Z" fill="white"/>
<path opacity="0.6" d="M225.482 396.453L223.7 416.319C223.572 417.504 223.697 418.702 224.068 419.834C224.438 420.966 225.045 422.007 225.848 422.887C226.651 423.767 227.632 424.466 228.725 424.938C229.819 425.41 231.001 425.644 232.192 425.625H486.534C489.066 425.579 491.492 424.606 493.355 422.891C495.218 421.176 496.388 418.838 496.643 416.319L498.381 396.453H225.482Z" fill="white"/>
<path d="M489.416 390.832H235.437C234.792 390.844 234.151 390.718 233.559 390.463C232.966 390.207 232.434 389.829 231.999 389.352C231.564 388.876 231.236 388.312 231.036 387.698C230.836 387.085 230.769 386.435 230.839 385.794L244.127 233.917C244.265 232.547 244.901 231.276 245.915 230.345C246.929 229.414 248.25 228.888 249.627 228.868H503.584C504.23 228.856 504.872 228.982 505.465 229.238C506.059 229.494 506.591 229.873 507.026 230.351C507.461 230.829 507.79 231.395 507.989 232.009C508.188 232.624 508.254 233.275 508.182 233.917L494.894 385.794C494.754 387.158 494.12 388.424 493.111 389.352C492.101 390.28 490.787 390.807 489.416 390.832Z" fill="white"/>
<path d="M509.865 223.258H504.2C505.39 223.237 506.571 223.469 507.665 223.94C508.758 224.411 509.739 225.11 510.541 225.989C511.343 226.868 511.949 227.909 512.318 229.04C512.687 230.172 512.811 231.37 512.681 232.553L496.643 416.319C496.388 418.838 495.218 421.176 493.355 422.891C491.492 424.606 489.066 425.579 486.534 425.625H492.155C494.688 425.579 497.116 424.607 498.981 422.892C500.845 421.177 502.017 418.839 502.275 416.319L518.346 232.553C518.478 231.369 518.355 230.171 517.987 229.038C517.619 227.906 517.013 226.865 516.21 225.985C515.407 225.105 514.426 224.407 513.332 223.937C512.238 223.466 511.056 223.235 509.865 223.258Z" fill="#263238"/>
<g opacity="0.2">
<path d="M509.865 223.258H504.2C505.39 223.237 506.571 223.469 507.665 223.94C508.758 224.411 509.739 225.11 510.541 225.989C511.343 226.868 511.949 227.909 512.318 229.04C512.687 230.172 512.811 231.37 512.681 232.553L496.643 416.319C496.388 418.838 495.218 421.176 493.355 422.891C491.492 424.606 489.066 425.579 486.534 425.625H492.155C494.688 425.579 497.116 424.607 498.981 422.892C500.845 421.177 502.017 418.839 502.275 416.319L518.346 232.553C518.478 231.369 518.355 230.171 517.987 229.038C517.619 227.906 517.013 226.865 516.21 225.985C515.407 225.105 514.426 224.407 513.332 223.937C512.238 223.466 511.056 223.235 509.865 223.258Z" fill="white"/>
</g>
<g opacity="0.1">
<path d="M330.532 228.868H320.764L286.345 390.832H296.113L330.532 228.868Z" fill="white"/>
<path d="M276.467 390.832L310.897 228.868H274.19L239.76 390.832H276.467Z" fill="white"/>
</g>
<path opacity="0.2" d="M403.517 480.713V483.397C403.517 484.098 403.239 484.771 402.744 485.267C402.25 485.764 401.578 486.045 400.877 486.048H313.977C313.306 486.048 312.662 485.781 312.188 485.307C311.714 484.832 311.447 484.189 311.447 483.518V480.702C311.447 480.031 311.714 479.387 312.188 478.913C312.662 478.438 313.306 478.172 313.977 478.172H340.08C340.409 478.172 340.737 478.139 341.059 478.073H400.888C401.586 478.076 402.255 478.355 402.748 478.85C403.24 479.345 403.517 480.014 403.517 480.713Z" fill="white"/>
<path opacity="0.2" d="M421.392 478.073H341.092C342.146 477.85 343.094 477.278 343.783 476.45C344.472 475.621 344.861 474.585 344.887 473.508H419.379L421.392 478.073Z" fill="black"/>
<path opacity="0.3" d="M497.347 255.609H375.115V396.431H497.347V255.609Z" fill="black"/>
<path d="M490.901 240.748H368.9V390.271H490.901V240.748Z" fill="white"/>
<path d="M490.901 240.748H368.9V249.592H490.901V240.748Z" fill="#263238"/>
<path opacity="0.1" d="M490.901 249.592H402.725V390.271H490.901V249.592Z" fill="black"/>
<path opacity="0.1" d="M431.842 252.958H407.07V281.602H431.842V252.958Z" fill="black"/>
<path opacity="0.1" d="M487.931 252.958H436.55V264.75H487.931V252.958Z" fill="black"/>
<path opacity="0.1" d="M487.931 269.81H436.55V333.412H487.931V269.81Z" fill="black"/>
<path opacity="0.1" d="M487.931 338.461H436.55V386.058H487.931V338.461Z" fill="black"/>
<path d="M436.561 292.547H402.45V303.503H436.561V292.547Z" fill="white"/>
<path d="M403.011 269.81H368.9V280.766H403.011V269.81Z" fill="white"/>
<path d="M487.931 348.889H436.55V354.576H487.931V348.889Z" fill="black"/>
<path d="M441.72 257.732L442.787 255.565L443.854 257.732L446.241 258.073L444.514 259.767L444.921 262.143L442.787 261.021L440.653 262.143L441.06 259.767L439.322 258.084L441.72 257.732Z" fill="white"/>
<path d="M451.444 257.732L452.511 255.565L453.589 257.732L455.976 258.073L454.249 259.767L454.656 262.143L452.522 261.021L450.377 262.143L450.784 259.767L449.057 258.084L451.444 257.732Z" fill="white"/>
<path d="M461.179 257.732L462.246 255.565L463.313 257.732L465.7 258.073L463.973 259.767L464.391 262.143L462.246 261.021L460.112 262.143L460.519 259.767L458.792 258.084L461.179 257.732Z" fill="white"/>
<path d="M470.903 257.732L471.97 255.565L473.048 257.732L475.435 258.073L473.708 259.767L474.115 262.143L471.981 261.021L469.847 262.143L470.243 259.767L468.516 258.084L470.903 257.732Z" fill="black"/>
<path d="M480.638 257.732L481.705 255.565L482.772 257.732L485.159 258.073L483.443 259.767L483.85 262.143L481.705 261.021L479.571 262.143L479.978 259.767L478.251 258.084L480.638 257.732Z" fill="black"/>
<path d="M460.42 275.42H440.213V276.52H460.42V275.42Z" fill="#263238"/>
<path d="M456.163 284.891H440.213V285.991H456.163V284.891Z" fill="#263238"/>
<path d="M456.163 293.174H440.213V294.274H456.163V293.174Z" fill="#263238"/>
<path d="M456.163 301.446H440.213V302.546H456.163V301.446Z" fill="#263238"/>
<path d="M456.163 309.718H440.213V310.818H456.163V309.718Z" fill="#263238"/>
<path d="M456.163 318.001H440.213V319.101H456.163V318.001Z" fill="#263238"/>
<path d="M456.163 326.273H440.213V327.373H456.163V326.273Z" fill="#263238"/>
<path d="M474.313 284.891H458.363V285.991H474.313V284.891Z" fill="#263238"/>
<path d="M474.313 293.174H458.363V294.274H474.313V293.174Z" fill="#263238"/>
<path d="M474.313 301.446H458.363V302.546H474.313V301.446Z" fill="#263238"/>
<path d="M474.313 309.718H458.363V310.818H474.313V309.718Z" fill="#263238"/>
<path d="M474.313 318.001H458.363V319.101H474.313V318.001Z" fill="#263238"/>
<path d="M474.313 326.273H458.363V327.373H474.313V326.273Z" fill="#263238"/>
<path d="M474.313 278.577H440.213V279.677H474.313V278.577Z" fill="#263238"/>
<path d="M474.313 343.906H440.213V345.006H474.313V343.906Z" fill="#263238"/>
<path d="M431.842 284.891H407.07V285.991H431.842V284.891Z" fill="#263238"/>
<path d="M431.842 308.992H407.07V310.092H431.842V308.992Z" fill="#263238"/>
<path d="M431.842 318.21H407.07V319.31H431.842V318.21Z" fill="#263238"/>
<path d="M431.842 327.417H407.07V328.517H431.842V327.417Z" fill="#263238"/>
<path d="M431.842 336.635H407.07V337.735H431.842V336.635Z" fill="#263238"/>
<path d="M431.842 345.853H407.07V346.953H431.842V345.853Z" fill="#263238"/>
<path d="M431.842 355.06H407.07V356.16H431.842V355.06Z" fill="#263238"/>
<path d="M431.842 364.278H407.07V365.378H431.842V364.278Z" fill="#263238"/>
<path d="M431.842 373.485H407.07V374.585H431.842V373.485Z" fill="#263238"/>
<path d="M419.456 288.444H407.07V289.544H419.456V288.444Z" fill="#263238"/>
<path d="M398.754 255.015H373.168V256.115H398.754V255.015Z" fill="#263238"/>
<path d="M398.754 262.121H373.168V263.221H398.754V262.121Z" fill="#263238"/>
<path d="M398.754 288.444H373.168V289.544H398.754V288.444Z" fill="#263238"/>
<path d="M407.114 281.459V277.972C414.868 275.2 423.328 275.111 431.138 277.719L431.886 277.972V281.459H407.114Z" fill="white"/>
<path d="M418.268 280.513C420.226 280.289 422.017 279.3 423.251 277.763C423.426 277.508 423.508 277.201 423.484 276.893C423.46 276.584 423.331 276.294 423.119 276.069C421.359 273.99 421.04 269.359 421.062 266.631L419.082 269.172L416.387 272.637C416.574 273.066 416.75 273.495 416.893 273.935C417.001 274.249 417.078 274.573 417.124 274.903C417.236 275.505 417.163 276.128 416.913 276.688C416.664 277.247 416.25 277.718 415.727 278.038C415.525 278.172 415.364 278.358 415.261 278.577C415.158 278.797 415.117 279.04 415.143 279.281C415.169 279.522 415.261 279.751 415.409 279.943C415.556 280.135 415.754 280.283 415.98 280.37C416.719 280.604 417.505 280.653 418.268 280.513Z" fill="#F7978D"/>
<path opacity="0.2" d="M416.387 272.637C416.574 273.066 416.75 273.495 416.893 273.935C417.001 274.249 417.078 274.574 417.124 274.903C417.794 274.58 418.369 274.089 418.793 273.478C419.217 272.867 419.476 272.156 419.544 271.416C419.511 270.987 419.433 270.563 419.313 270.151L416.387 272.637Z" fill="black"/>
<path d="M413.901 266.257C413.77 266.486 413.581 266.676 413.353 266.808C413.125 266.94 412.866 267.009 412.603 267.009C412.34 267.009 412.081 266.94 411.853 266.808C411.625 266.676 411.436 266.486 411.305 266.257C412.24 264.299 411.536 264.112 411.481 262.649C411.386 261.802 411.523 260.945 411.877 260.17C412.232 259.395 412.791 258.731 413.494 258.249H415.001C420.424 259.371 413.901 266.257 413.901 266.257Z" fill="#263238"/>
<path d="M422.624 261.571C422.456 260.889 422.156 260.247 421.741 259.681C421.325 259.115 420.802 258.637 420.201 258.273C419.601 257.91 418.934 257.668 418.24 257.562C417.546 257.456 416.838 257.487 416.156 257.655C411.943 258.579 410.183 264.365 410.315 268.072C410.336 269.141 410.677 270.179 411.294 271.053C411.696 271.618 412.205 272.098 412.792 272.466C413.38 272.833 414.034 273.082 414.718 273.196C415.401 273.311 416.101 273.289 416.776 273.133C417.451 272.976 418.089 272.688 418.653 272.285C421.095 270.591 421.513 268.248 422.569 264.321C422.823 263.424 422.842 262.477 422.624 261.571Z" fill="#F7978D"/>
<path d="M412.163 268.402C413.517 268.13 414.896 268.009 416.277 268.039C416.161 268.598 415.846 269.096 415.391 269.44C414.936 269.784 414.371 269.95 413.802 269.909C413.406 269.937 413.015 269.808 412.713 269.551C412.411 269.294 412.221 268.929 412.185 268.534C412.185 268.534 412.174 268.446 412.163 268.402Z" fill="#263238"/>
<path d="M414.473 269.095C413.871 269.068 413.279 269.255 412.801 269.623C413.092 269.82 413.44 269.916 413.791 269.898C414.391 269.93 414.981 269.742 415.452 269.37C415.165 269.173 414.821 269.076 414.473 269.095Z" fill="#FF5652"/>
<path d="M412.306 268.369C412.338 268.488 412.402 268.597 412.491 268.682C412.58 268.767 412.691 268.827 412.812 268.853C413.711 268.832 414.605 268.729 415.485 268.545C415.629 268.523 415.764 268.463 415.878 268.373C415.992 268.282 416.08 268.163 416.134 268.028C414.851 268.031 413.57 268.145 412.306 268.369Z" fill="white"/>
<path d="M421.172 269.524C421.172 269.524 419.423 265.564 419.566 264.277C419.602 263.511 419.866 262.772 420.325 262.157C420.783 261.541 421.415 261.077 422.14 260.823L423.614 261.131C430.027 263.782 421.172 269.524 421.172 269.524Z" fill="#263238"/>
<path d="M413.142 267.203C412.871 267.226 412.598 267.188 412.344 267.093C412.089 266.998 411.858 266.848 411.668 266.653C412.479 265.934 413.189 265.109 413.78 264.2L413.142 267.203Z" fill="#FF5652"/>
<path d="M422.536 265.3C421.524 265.146 420.446 266.4 420.006 267.302C419.566 268.204 419.852 269.282 420.919 269.04C421.767 268.81 422.51 268.293 423.02 267.577C423.669 266.653 423.537 265.443 422.536 265.3Z" fill="#F7978D"/>
<path d="M416.112 264.112C415.892 264.112 415.661 264.343 415.606 264.64C415.551 264.937 415.672 265.223 415.881 265.256C416.09 265.289 416.288 265.058 416.376 264.739C416.464 264.42 416.321 264.2 416.112 264.112Z" fill="#263238"/>
<path d="M412.493 263.309C412.284 263.309 412.053 263.496 411.987 263.826C411.921 264.156 412.042 264.442 412.251 264.475C412.46 264.508 412.691 264.277 412.757 263.947C412.823 263.617 412.702 263.342 412.493 263.309Z" fill="#263238"/>
<path d="M413.296 262.055C413.269 262.068 413.239 262.076 413.208 262.076C413.178 262.076 413.147 262.068 413.12 262.055C412.885 261.976 412.635 261.952 412.389 261.984C412.143 262.016 411.908 262.105 411.701 262.242C411.666 262.277 411.619 262.296 411.569 262.296C411.52 262.296 411.472 262.277 411.437 262.242C411.406 262.203 411.389 262.154 411.389 262.104C411.389 262.054 411.406 262.006 411.437 261.967C411.693 261.792 411.986 261.678 412.293 261.634C412.6 261.59 412.913 261.618 413.208 261.714C413.255 261.731 413.294 261.766 413.316 261.811C413.339 261.856 413.343 261.908 413.329 261.956C413.325 261.991 413.314 262.025 413.296 262.055Z" fill="#263238"/>
<path d="M417.234 263.639C417.168 263.636 417.105 263.609 417.058 263.562C416.923 263.357 416.742 263.184 416.531 263.059C416.319 262.933 416.082 262.857 415.837 262.836C415.812 262.837 415.786 262.834 415.762 262.825C415.738 262.816 415.716 262.803 415.698 262.785C415.679 262.768 415.664 262.747 415.654 262.723C415.644 262.7 415.639 262.674 415.639 262.649C415.642 262.6 415.662 262.554 415.697 262.52C415.731 262.485 415.777 262.465 415.826 262.462C416.135 262.48 416.435 262.568 416.704 262.721C416.973 262.873 417.203 263.086 417.377 263.342C417.41 263.38 417.429 263.429 417.429 263.479C417.429 263.53 417.41 263.579 417.377 263.617C417.356 263.631 417.333 263.639 417.308 263.643C417.283 263.647 417.258 263.646 417.234 263.639Z" fill="#263238"/>
<path d="M412.449 260.35C412.25 259.635 412.187 258.888 412.262 258.15C412.375 257.781 412.564 257.44 412.818 257.15C413.073 256.86 413.385 256.627 413.736 256.467C414.841 256.108 416.03 256.108 417.135 256.467C417.402 256.508 417.659 256.597 417.894 256.731C418.014 256.797 418.115 256.894 418.185 257.012C418.254 257.13 418.291 257.265 418.29 257.402C418.272 257.539 418.217 257.668 418.132 257.776C418.047 257.884 417.934 257.968 417.806 258.018C417.553 258.139 415.606 258.601 414.726 258.92C413.862 259.205 413.081 259.696 412.449 260.35Z" fill="#263238"/>
<path d="M424.846 258.216C425.556 258.881 426.05 259.745 426.261 260.695C426.473 261.644 426.394 262.636 426.034 263.54C425.725 264.177 425.384 264.797 425.011 265.399L422.283 263.529C421.04 262.865 420.073 261.782 419.555 260.471C419.274 259.781 418.761 259.212 418.103 258.862C417.446 258.512 416.687 258.404 415.958 258.557C415.584 258.634 415.067 258.711 414.858 258.359C414.649 258.007 415.243 257.259 415.661 256.94C417.3 255.488 420.325 254.707 424.846 258.216Z" fill="#263238"/>
<path opacity="0.2" d="M419.5 260.284C418.488 258.524 417.201 258.359 415.496 258.623C415.508 258.412 415.564 258.206 415.658 258.017C415.753 257.827 415.885 257.659 416.046 257.523C417.388 256.423 419.214 259.008 419.5 260.284Z" fill="black"/>
<path d="M414.748 258.337C414.617 258.481 414.522 258.654 414.473 258.843C414.345 259.333 414.318 259.844 414.394 260.346C414.469 260.847 414.646 261.327 414.913 261.758C414.474 261.272 414.161 260.687 414 260.053C413.866 259.663 413.795 259.255 413.791 258.843C413.799 258.431 413.964 258.037 414.253 257.743C414.396 257.604 414.575 257.51 414.771 257.471C414.966 257.432 415.168 257.45 415.353 257.523C415.573 257.633 415.947 258.051 415.683 258.249C415.419 258.447 415.1 257.985 414.748 258.337Z" fill="#263238"/>
<path opacity="0.3" d="M412.306 225.436V337.031H290.085V196.209H405.882V225.436H412.306Z" fill="black"/>
<path d="M405.882 181.337H283.881V330.86H405.882V181.337Z" fill="white"/>
<path d="M405.871 181.337H283.87V190.181H405.871V181.337Z" fill="#263238"/>
<path opacity="0.1" d="M405.882 190.181H317.706V330.86H405.882V190.181Z" fill="black"/>
<path opacity="0.1" d="M346.801 193.547H322.04V222.191H346.801V193.547Z" fill="black"/>
<path opacity="0.1" d="M402.912 193.547H351.531V205.339H402.912V193.547Z" fill="black"/>
<path opacity="0.1" d="M402.912 210.399H351.531V274.001H402.912V210.399Z" fill="black"/>
<path opacity="0.1" d="M402.912 279.05H351.531V326.647H402.912V279.05Z" fill="black"/>
<path d="M351.531 233.147H317.42V244.103H351.531V233.147Z" fill="white"/>
<path d="M317.981 210.399H283.87V221.355H317.981V210.399Z" fill="white"/>
<path d="M402.912 289.478H351.531V295.165H402.912V289.478Z" fill="black"/>
<path d="M356.69 198.321L357.757 196.154L358.824 198.321L361.211 198.673L359.484 200.356L359.902 202.732L357.757 201.61L355.623 202.743L356.03 200.356L354.303 198.673L356.69 198.321Z" fill="white"/>
<path d="M366.425 198.321L367.481 196.154L368.559 198.321L370.946 198.673L369.219 200.356L369.626 202.732L367.492 201.61L365.358 202.743L365.765 200.356L364.027 198.673L366.425 198.321Z" fill="white"/>
<path d="M376.149 198.321L377.216 196.154L378.283 198.321L380.681 198.673L378.954 200.356L379.361 202.732L377.216 201.61L375.082 202.743L375.489 200.356L373.762 198.673L376.149 198.321Z" fill="white"/>
<path d="M385.884 198.321L386.951 196.154L388.018 198.321L390.405 198.673L388.678 200.356L389.096 202.732L386.951 201.61L384.817 202.743L385.224 200.356L383.486 198.673L385.884 198.321Z" fill="black"/>
<path d="M395.608 198.321L396.675 196.154L397.753 198.321L400.14 198.673L398.413 200.356L398.82 202.732L396.686 201.61L394.541 202.743L394.948 200.356L393.221 198.673L395.608 198.321Z" fill="black"/>
<path d="M375.39 216.009H355.183V217.109H375.39V216.009Z" fill="#263238"/>
<path d="M371.133 225.491H355.183V226.591H371.133V225.491Z" fill="#263238"/>
<path d="M371.133 233.763H355.183V234.863H371.133V233.763Z" fill="#263238"/>
<path d="M371.133 242.035H355.183V243.135H371.133V242.035Z" fill="#263238"/>
<path d="M371.133 250.318H355.183V251.418H371.133V250.318Z" fill="#263238"/>
<path d="M371.133 258.59H355.183V259.69H371.133V258.59Z" fill="#263238"/>
<path d="M371.133 266.873H355.183V267.973H371.133V266.873Z" fill="#263238"/>
<path d="M389.283 225.491H373.333V226.591H389.283V225.491Z" fill="#263238"/>
<path d="M389.283 233.763H373.333V234.863H389.283V233.763Z" fill="#263238"/>
<path d="M389.283 242.035H373.333V243.135H389.283V242.035Z" fill="#263238"/>
<path d="M389.283 250.318H373.333V251.418H389.283V250.318Z" fill="#263238"/>
<path d="M389.283 258.59H373.333V259.69H389.283V258.59Z" fill="#263238"/>
<path d="M389.283 266.873H373.333V267.973H389.283V266.873Z" fill="#263238"/>
<path d="M389.283 219.166H355.183V220.266H389.283V219.166Z" fill="#263238"/>
<path d="M389.283 284.506H355.183V285.606H389.283V284.506Z" fill="#263238"/>
<path d="M346.812 225.491H322.04V226.591H346.812V225.491Z" fill="#263238"/>
<path d="M346.812 249.581H322.04V250.681H346.812V249.581Z" fill="#263238"/>
<path d="M346.812 258.799H322.04V259.899H346.812V258.799Z" fill="#263238"/>
<path d="M346.812 268.017H322.04V269.117H346.812V268.017Z" fill="#263238"/>
<path d="M346.812 277.224H322.04V278.324H346.812V277.224Z" fill="#263238"/>
<path d="M346.812 286.442H322.04V287.542H346.812V286.442Z" fill="#263238"/>
<path d="M346.812 295.66H322.04V296.76H346.812V295.66Z" fill="#263238"/>
<path d="M346.812 304.867H322.04V305.967H346.812V304.867Z" fill="#263238"/>
<path d="M346.812 314.085H322.04V315.185H346.812V314.085Z" fill="#263238"/>
<path d="M334.426 229.044H322.04V230.144H334.426V229.044Z" fill="#263238"/>
<path d="M313.724 195.604H288.138V196.704H313.724V195.604Z" fill="#263238"/>
<path d="M313.724 202.721H288.138V203.821H313.724V202.721Z" fill="#263238"/>
<path d="M313.724 229.044H288.138V230.144H313.724V229.044Z" fill="#263238"/>
<path d="M322.106 222.092V218.605C329.856 215.833 338.312 215.744 346.119 218.352L346.867 218.605V222.092H322.106Z" fill="#263238"/>
<path d="M338.243 209.552L335.636 211.62L332.105 214.436C332.306 214.847 332.432 215.29 332.479 215.745C332.592 216.235 332.524 216.751 332.288 217.195C332.051 217.64 331.662 217.984 331.192 218.165C330.708 218.286 330.092 220.563 333.007 220.871C333.843 221.014 334.699 220.984 335.522 220.782C336.346 220.579 337.118 220.209 337.792 219.694C338.463 219.078 338.672 218.715 338.276 217.824C337.11 215.316 337.583 212.082 338.243 209.552Z" fill="#DD8C6A"/>
<path opacity="0.2" d="M332.963 213.743L335.251 211.653C335.246 211.737 335.246 211.822 335.251 211.906C335.28 212.272 335.28 212.64 335.251 213.006C335.069 213.694 334.723 214.328 334.242 214.853C333.761 215.378 333.16 215.778 332.49 216.02V215.756C332.435 215.332 332.324 214.918 332.16 214.524V214.458L332.963 213.743Z" fill="black"/>
<path d="M331.159 207.704C329.916 203.975 330.598 202.072 329.168 200.004C328.31 199.454 326.451 200.895 327.067 203.942C327.683 206.989 331.159 207.704 331.159 207.704Z" fill="#263238"/>
<path d="M338.892 204.976C338.485 209.024 338.408 211.4 336.274 213.347C333.051 216.284 328.134 214.106 327.353 210.047C326.638 206.34 327.474 200.356 331.522 199.047C332.943 198.578 334.492 198.692 335.828 199.364C337.165 200.037 338.18 201.213 338.65 202.633C338.897 203.388 338.98 204.187 338.892 204.976Z" fill="#DD8C6A"/>
<path d="M338.815 208.606L337.055 208.705L336.714 206.01L335.086 204.712L334.624 200.499C334.624 200.499 338.342 200.499 339.772 200.499C340.278 200.499 341.796 202.116 341.972 202.699C342.18 203.542 342.151 204.426 341.887 205.254C341.622 206.081 341.134 206.819 340.476 207.385C339.966 207.849 339.41 208.258 338.815 208.606Z" fill="#263238"/>
<path d="M338.87 202.171C337.836 202.71 336.549 202.116 335.438 201.808C334.332 201.463 333.208 201.176 332.072 200.95C331.076 200.744 330.04 200.909 329.157 201.412C328.73 201.675 328.412 202.085 328.265 202.564C328.117 203.044 328.149 203.561 328.354 204.019C327.733 203.694 327.2 203.223 326.803 202.645C326.406 202.068 326.155 201.402 326.074 200.706C325.993 200.01 326.083 199.304 326.336 198.651C326.59 197.998 326.999 197.416 327.529 196.957C328.544 196.143 329.803 195.694 331.104 195.681C332.395 195.674 333.682 195.811 334.943 196.088C336.626 196.385 339.046 196.363 340.597 197.078C342.148 197.793 342.005 200.532 338.87 202.171Z" fill="#263238"/>
<path d="M340.421 208.166C340.168 209.039 339.605 209.79 338.837 210.278C337.836 210.894 336.967 209.849 337.055 208.705C337.143 207.561 337.924 206.285 339.013 206.142C340.102 205.999 340.718 207.077 340.421 208.166Z" fill="#DD8C6A"/>
<path d="M332.468 206.241C332.468 206.582 332.292 206.857 332.072 206.868C331.852 206.879 331.687 206.615 331.665 206.274C331.643 205.933 331.852 205.647 332.072 205.647C332.292 205.647 332.468 205.9 332.468 206.241Z" fill="#263238"/>
<path d="M328.64 206.362C328.64 206.703 328.464 206.989 328.244 206.989C328.024 206.989 327.837 206.725 327.837 206.395C327.837 206.065 328.024 205.779 328.244 205.768C328.464 205.757 328.64 206.021 328.64 206.362Z" fill="#263238"/>
<path d="M329.872 206.571C329.586 207.486 329.179 208.359 328.662 209.167C328.869 209.289 329.102 209.363 329.341 209.384C329.581 209.405 329.822 209.372 330.048 209.288L329.872 206.571Z" fill="#FF5652"/>
<path d="M330.4 211.268C330.792 211.268 331.18 211.19 331.541 211.037C331.902 210.883 332.229 210.659 332.501 210.377C332.518 210.356 332.527 210.33 332.525 210.303C332.523 210.276 332.51 210.251 332.49 210.234C332.47 210.216 332.443 210.208 332.416 210.21C332.389 210.212 332.364 210.224 332.347 210.245C332.047 210.548 331.683 210.779 331.28 210.92C330.878 211.061 330.449 211.108 330.026 211.059C330.013 211.056 329.999 211.055 329.986 211.057C329.973 211.059 329.96 211.064 329.949 211.071C329.938 211.079 329.928 211.088 329.92 211.099C329.913 211.11 329.908 211.123 329.905 211.136C329.902 211.163 329.909 211.191 329.925 211.214C329.942 211.236 329.966 211.252 329.993 211.257C330.128 211.272 330.264 211.276 330.4 211.268Z" fill="#263238"/>
<path d="M333.216 205.02C333.248 205.028 333.283 205.028 333.315 205.02C333.334 205.002 333.349 204.981 333.36 204.958C333.37 204.934 333.375 204.908 333.375 204.883C333.375 204.857 333.37 204.831 333.36 204.807C333.349 204.784 333.334 204.763 333.315 204.745C333.126 204.497 332.878 204.299 332.594 204.171C332.31 204.042 331.998 203.986 331.687 204.008C331.634 204.014 331.584 204.04 331.549 204.081C331.515 204.122 331.497 204.174 331.5 204.228C331.503 204.254 331.511 204.279 331.523 204.302C331.536 204.325 331.553 204.346 331.573 204.362C331.594 204.378 331.617 204.39 331.642 204.398C331.668 204.405 331.694 204.407 331.72 204.404C331.964 204.393 332.206 204.44 332.428 204.542C332.65 204.643 332.845 204.796 332.996 204.987C333.024 205.015 333.061 205.034 333.101 205.04C333.14 205.046 333.181 205.039 333.216 205.02Z" fill="#263238"/>
<path d="M328.618 204.162C328.627 204.13 328.627 204.095 328.618 204.063C328.615 204.037 328.607 204.012 328.595 203.989C328.582 203.966 328.565 203.946 328.545 203.929C328.524 203.913 328.501 203.901 328.476 203.893C328.45 203.886 328.424 203.884 328.398 203.887C328.086 203.902 327.784 203.995 327.517 204.156C327.25 204.317 327.027 204.542 326.869 204.811C326.855 204.834 326.847 204.86 326.843 204.886C326.84 204.912 326.842 204.939 326.849 204.965C326.856 204.991 326.868 205.015 326.885 205.035C326.902 205.056 326.922 205.073 326.946 205.086C326.994 205.11 327.05 205.114 327.101 205.097C327.152 205.081 327.195 205.045 327.221 204.998C327.347 204.788 327.524 204.612 327.735 204.487C327.947 204.362 328.186 204.292 328.431 204.283C328.471 204.284 328.51 204.273 328.543 204.251C328.576 204.23 328.603 204.199 328.618 204.162Z" fill="#263238"/>
<path opacity="0.3" d="M361.068 255.939H238.836V396.761H361.068V255.939Z" fill="black"/>
<path d="M354.622 241.067H232.621V390.59H354.622V241.067Z" fill="white"/>
<path d="M354.622 241.067H232.621V249.911H354.622V241.067Z" fill="#263238"/>
<path opacity="0.1" d="M354.633 249.922H266.457V390.601H354.633V249.922Z" fill="black"/>
<path opacity="0.1" d="M295.552 253.288H270.791V281.932H295.552V253.288Z" fill="black"/>
<path opacity="0.1" d="M351.663 253.288H300.282V265.08H351.663V253.288Z" fill="black"/>
<path opacity="0.1" d="M351.663 270.129H300.282V333.731H351.663V270.129Z" fill="black"/>
<path opacity="0.1" d="M351.663 338.791H300.282V386.388H351.663V338.791Z" fill="black"/>
<path d="M300.282 292.877H266.171V303.833H300.282V292.877Z" fill="white"/>
<path d="M266.732 270.129H232.621V281.085H266.732V270.129Z" fill="white"/>
<path d="M351.663 349.208H300.282V354.895H351.663V349.208Z" fill="black"/>
<path d="M305.441 258.062L306.508 255.895L307.575 258.062L309.973 258.403L308.235 260.086L308.653 262.473L306.508 261.351L304.374 262.473L304.781 260.097L303.054 258.414L305.441 258.062Z" fill="white"/>
<path d="M315.176 258.062L316.243 255.895L317.31 258.062L319.697 258.403L317.97 260.086L318.377 262.473L316.243 261.351L314.109 262.473L314.516 260.097L312.778 258.414L315.176 258.062Z" fill="white"/>
<path d="M324.9 258.062L325.967 255.895L327.034 258.062L329.432 258.403L327.705 260.086L328.112 262.473L325.978 261.351L323.833 262.473L324.24 260.097L322.513 258.414L324.9 258.062Z" fill="white"/>
<path d="M334.635 258.062L335.702 255.895L336.769 258.062L339.156 258.403L337.429 260.086L337.836 262.473L335.702 261.351L333.568 262.473L333.975 260.097L332.248 258.414L334.635 258.062Z" fill="white"/>
<path d="M344.359 258.062L345.426 255.895L346.504 258.062L348.891 258.403L347.164 260.086L347.571 262.473L345.437 261.351L343.303 262.473L343.699 260.097L341.972 258.414L344.359 258.062Z" fill="black"/>
<path d="M324.141 275.75H303.934V276.85H324.141V275.75Z" fill="#263238"/>
<path d="M319.884 285.221H303.934V286.321H319.884V285.221Z" fill="#263238"/>
<path d="M319.884 293.504H303.934V294.604H319.884V293.504Z" fill="#263238"/>
<path d="M319.884 301.776H303.934V302.876H319.884V301.776Z" fill="#263238"/>
<path d="M319.884 310.048H303.934V311.148H319.884V310.048Z" fill="#263238"/>
<path d="M319.884 318.331H303.934V319.431H319.884V318.331Z" fill="#263238"/>
<path d="M319.884 326.603H303.934V327.703H319.884V326.603Z" fill="#263238"/>
<path d="M338.045 285.221H322.095V286.321H338.045V285.221Z" fill="#263238"/>
<path d="M338.045 293.504H322.095V294.604H338.045V293.504Z" fill="#263238"/>
<path d="M338.045 301.776H322.095V302.876H338.045V301.776Z" fill="#263238"/>
<path d="M338.045 310.048H322.095V311.148H338.045V310.048Z" fill="#263238"/>
<path d="M338.045 318.331H322.095V319.431H338.045V318.331Z" fill="#263238"/>
<path d="M338.045 326.603H322.095V327.703H338.045V326.603Z" fill="#263238"/>
<path d="M338.034 278.907H303.934V280.007H338.034V278.907Z" fill="#263238"/>
<path d="M338.034 344.236H303.934V345.336H338.034V344.236Z" fill="#263238"/>
<path d="M295.563 285.221H270.791V286.321H295.563V285.221Z" fill="#263238"/>
<path d="M295.563 309.322H270.791V310.422H295.563V309.322Z" fill="#263238"/>
<path d="M295.563 318.54H270.791V319.64H295.563V318.54Z" fill="#263238"/>
<path d="M295.563 327.747H270.791V328.847H295.563V327.747Z" fill="#263238"/>
<path d="M295.563 336.965H270.791V338.065H295.563V336.965Z" fill="#263238"/>
<path d="M295.563 346.172H270.791V347.272H295.563V346.172Z" fill="#263238"/>
<path d="M295.563 355.39H270.791V356.49H295.563V355.39Z" fill="#263238"/>
<path d="M295.563 364.608H270.791V365.708H295.563V364.608Z" fill="#263238"/>
<path d="M295.563 373.815H270.791V374.915H295.563V373.815Z" fill="#263238"/>
<path d="M283.177 288.774H270.791V289.874H283.177V288.774Z" fill="#263238"/>
<path d="M262.475 255.345H236.889V256.445H262.475V255.345Z" fill="#263238"/>
<path d="M262.475 262.451H236.889V263.551H262.475V262.451Z" fill="#263238"/>
<path d="M262.475 288.774H236.889V289.874H262.475V288.774Z" fill="#263238"/>
<path d="M270.791 281.932V278.434C278.547 275.673 287.003 275.584 294.815 278.181L295.563 278.434V281.932H270.791Z" fill="white"/>
<path d="M281.01 256.896C280.221 256.675 279.392 256.642 278.588 256.798C277.784 256.955 277.027 257.297 276.379 257.798C275.08 258.806 274.08 260.148 273.486 261.681C273.259 262.076 273.14 262.523 273.14 262.979C273.14 263.434 273.259 263.882 273.486 264.277C274.069 265.014 275.191 264.97 276.137 264.86C277.6 262.088 279.338 259.558 281.01 256.896Z" fill="#263238"/>
<path d="M280.141 273.616C280.845 275.31 281.241 277.202 279.041 278.72C278.588 279.033 278.254 279.491 278.095 280.018C277.864 280.876 278.161 281.844 281.34 280.854C285.938 279.424 286.246 276.641 286.246 276.641C284.288 275.486 284.046 270.723 284.222 268.061L280.141 273.616Z" fill="#FFB573"/>
<path opacity="0.2" d="M283.1 271.823C283.1 272.989 281.582 274.452 280.548 274.925C280.448 274.472 280.305 274.03 280.119 273.605L282.561 270.305C282.846 270.767 283.03 271.284 283.1 271.823Z" fill="black"/>
<path d="M286.774 261.659C286.555 260.935 286.196 260.261 285.716 259.676C285.236 259.091 284.646 258.606 283.979 258.249C283.312 257.893 282.581 257.671 281.828 257.598C281.075 257.524 280.315 257.599 279.591 257.82C275.29 259.096 274.091 265.3 274.586 269.183C275.147 273.528 280.174 275.266 283.705 272.296C286.07 270.316 286.268 268.523 286.939 264.321C287.088 263.433 287.032 262.522 286.774 261.659Z" fill="#FFB573"/>
<path d="M277.16 267.885C276.935 267.917 276.707 267.901 276.489 267.839C276.271 267.776 276.068 267.668 275.895 267.522C276.506 266.864 277.021 266.124 277.424 265.322L277.16 267.885Z" fill="#ED893E"/>
<path d="M280.394 268.49C280.411 268.47 280.42 268.445 280.42 268.418C280.42 268.392 280.411 268.367 280.394 268.347C280.385 268.337 280.374 268.33 280.361 268.324C280.349 268.319 280.336 268.316 280.322 268.316C280.309 268.316 280.296 268.319 280.284 268.324C280.271 268.33 280.26 268.337 280.251 268.347C279.959 268.662 279.596 268.903 279.193 269.051C278.789 269.198 278.356 269.247 277.93 269.194C277.903 269.196 277.878 269.207 277.858 269.225C277.838 269.243 277.825 269.267 277.82 269.293C277.819 269.319 277.828 269.344 277.844 269.364C277.86 269.384 277.883 269.398 277.908 269.403C278.073 269.414 278.238 269.414 278.403 269.403C279.16 269.37 279.875 269.042 280.394 268.49Z" fill="#263238"/>
<path d="M277.105 258.326C277.878 258.273 278.648 258.454 279.316 258.847C279.983 259.239 280.516 259.825 280.845 260.526C281.109 261.212 281.3 261.923 281.417 262.649C281.535 263.38 281.851 264.065 282.33 264.629C282.577 264.901 282.903 265.088 283.263 265.164C283.623 265.239 283.997 265.198 284.332 265.047C284.531 265.693 284.899 266.275 285.398 266.731C285.897 267.187 286.509 267.502 287.17 267.643C286.224 269.018 285.047 270.459 284.101 271.834C284.442 272.934 284.475 273.11 284.816 274.177C285.995 273.8 287.087 273.194 288.031 272.394C288.975 271.593 289.752 270.614 290.316 269.513C291.416 267.313 291.658 264.552 289.568 264.486C290.305 263.001 288.952 259.888 287.841 258.656C286.808 257.73 285.578 257.05 284.244 256.669C282.91 256.288 281.507 256.215 280.141 256.456C278.941 256.705 277.867 257.367 277.105 258.326Z" fill="#263238"/>
<path d="M287.94 267.291C287.977 266.925 287.868 266.559 287.638 266.273C287.407 265.987 287.073 265.803 286.708 265.762C285.608 265.674 284.849 266.939 284.629 267.852C284.409 268.765 284.959 269.766 285.993 269.414C286.767 269.143 287.404 268.578 287.764 267.841C287.862 267.672 287.922 267.485 287.94 267.291Z" fill="#FFB573"/>
<path d="M281.219 263.243C281.251 263.251 281.285 263.251 281.318 263.243C281.355 263.202 281.376 263.149 281.376 263.094C281.376 263.04 281.355 262.987 281.318 262.946C281.078 262.638 280.765 262.394 280.409 262.235C280.052 262.075 279.662 262.006 279.272 262.033C279.245 262.036 279.219 262.044 279.195 262.057C279.171 262.07 279.15 262.088 279.134 262.11C279.117 262.132 279.105 262.157 279.099 262.183C279.092 262.21 279.091 262.237 279.096 262.264C279.099 262.29 279.107 262.315 279.119 262.338C279.132 262.361 279.149 262.382 279.169 262.398C279.19 262.414 279.213 262.426 279.238 262.434C279.264 262.441 279.29 262.443 279.316 262.44C279.637 262.428 279.957 262.491 280.249 262.625C280.541 262.759 280.798 262.959 280.999 263.21C281.029 263.236 281.065 263.252 281.104 263.258C281.143 263.264 281.183 263.259 281.219 263.243Z" fill="#263238"/>
<path d="M274.85 263.463C274.884 263.454 274.915 263.435 274.938 263.408C275.135 263.154 275.389 262.95 275.679 262.812C275.97 262.675 276.289 262.607 276.61 262.616C276.637 262.619 276.665 262.617 276.692 262.609C276.718 262.601 276.743 262.588 276.764 262.571C276.786 262.553 276.804 262.532 276.817 262.508C276.83 262.483 276.838 262.457 276.841 262.429C276.842 262.373 276.822 262.319 276.785 262.276C276.749 262.234 276.698 262.206 276.643 262.198C276.253 262.183 275.865 262.261 275.511 262.426C275.158 262.59 274.848 262.837 274.608 263.144C274.571 263.177 274.548 263.222 274.543 263.27C274.538 263.319 274.551 263.368 274.58 263.408C274.608 263.447 274.651 263.475 274.699 263.485C274.747 263.495 274.797 263.487 274.839 263.463H274.85Z" fill="#263238"/>
<path d="M280.207 264.288C280.207 264.662 279.976 264.97 279.723 264.959C279.47 264.948 279.283 264.629 279.305 264.244C279.327 263.859 279.536 263.573 279.778 263.573C280.02 263.573 280.218 263.903 280.207 264.288Z" fill="#263238"/>
<path d="M276.379 264.607C276.379 264.97 276.159 265.256 275.917 265.245C275.675 265.234 275.51 264.937 275.521 264.563C275.532 264.189 275.741 263.914 275.983 263.925C276.225 263.936 276.401 264.2 276.379 264.607Z" fill="#263238"/>
<path d="M276.082 263.947L275.224 263.661C275.224 263.661 275.642 264.365 276.082 263.947Z" fill="#263238"/>
<path d="M279.888 263.606L278.986 263.298C278.986 263.298 279.426 264.035 279.888 263.606Z" fill="#263238"/>
<path d="M139.704 306C131.19 306 131.19 298.707 131.19 298.707L203.515 220.959L203.889 219.276L208.036 223.137C208.004 223.196 207.967 223.251 207.926 223.302C207.695 223.731 144.5 306 139.704 306Z" fill="#263238"/>
<g opacity="0.5">
<path opacity="0.4" d="M248.593 203.194C239.1 217.868 223.205 229.132 213.206 223.907C213.257 223.859 213.295 223.798 213.316 223.731L207.816 220.739C204.131 217.439 202.052 212.588 201.524 206.89C200.688 198.09 203.471 187.442 209.543 177.575C220.246 160.173 237.692 152.44 245.744 157.247C247.06 158.033 248.331 158.892 249.55 159.821H249.605C250.67 160.521 251.682 161.301 252.63 162.153C253.079 162.593 253.484 163.076 253.84 163.594C255.891 166.584 257.057 170.092 257.206 173.714C257.954 182.25 255.127 193.129 248.593 203.194Z" fill="white"/>
</g>
<path opacity="0.2" d="M257.217 173.505L207.827 220.475C204.142 217.175 202.063 212.324 201.524 206.626V206.538L253.818 163.385C255.875 166.374 257.052 169.88 257.217 173.505Z" fill="white"/>
<path d="M252.355 204.69C264.356 185.308 262.86 162.593 248.956 153.991C235.052 145.389 214.075 154.167 202.063 173.538C190.37 192.436 191.481 214.447 204.362 223.533C204.714 223.808 205.077 224.028 205.462 224.27C206.965 225.204 208.58 225.943 210.269 226.47C223.832 230.826 241.652 221.971 252.355 204.69ZM212.095 222.818C211.325 222.606 210.586 222.295 209.895 221.894C209.787 221.85 209.684 221.795 209.587 221.729L209.125 221.432L208.993 221.344C208.332 220.924 207.709 220.446 207.134 219.914C198.598 212.148 199.434 193.514 209.543 177.311C220.312 159.942 237.934 152.253 245.359 156.642C246.567 157.363 247.735 158.148 248.857 158.996C249.432 159.394 249.963 159.851 250.441 160.36C257.041 167.257 255.006 184.219 245.106 200.202C235.206 216.185 221.225 225.48 212.095 222.818Z" fill="#263238"/>
<g opacity="0.4">
<path opacity="0.4" d="M248.56 202.908C239.056 217.615 223.172 228.879 213.173 223.632C213.224 223.584 213.262 223.523 213.283 223.456L212.106 222.807C221.214 225.48 235.338 216.075 245.172 200.224C255.006 184.373 257.14 167.312 250.496 160.404C250.279 160.167 250.047 159.943 249.803 159.733C250.804 160.393 251.753 161.129 252.641 161.933C253.088 162.364 253.49 162.84 253.84 163.352C255.878 166.346 257.051 169.844 257.228 173.461C257.899 181.975 255.083 192.876 248.56 202.908Z" fill="black"/>
</g>
<path d="M110.95 374.926C111.379 377.808 114.25 379.59 116.967 380.712C121.825 382.726 126.993 383.891 132.246 384.155C136.226 370.039 139.001 355.61 140.54 341.024C127.571 349.076 108.695 359.834 110.95 374.926Z" fill="#263238"/>
<path opacity="0.2" d="M110.95 374.926C111.379 377.808 114.25 379.59 116.967 380.712C121.825 382.726 126.993 383.891 132.246 384.155C136.226 370.039 139.001 355.61 140.54 341.024C127.571 349.076 108.695 359.834 110.95 374.926Z" fill="black"/>
<path d="M176.62 200.752C177.027 200.686 177.467 201.126 177.588 201.753C177.709 202.38 177.478 202.974 177.06 203.04C176.642 203.106 176.213 202.677 176.092 202.039C175.971 201.401 176.202 200.829 176.62 200.752Z" fill="#263238"/>
<path d="M177.731 209.112C178.268 209.152 178.806 209.074 179.31 208.884C179.813 208.694 180.269 208.397 180.646 208.012C179.084 206.59 177.719 204.966 176.587 203.183L177.731 209.112Z" fill="#B74D3C"/>
<path d="M173.375 198.915C173.677 198.542 174.065 198.246 174.505 198.055C174.946 197.863 175.426 197.781 175.905 197.815H176.037C176.137 197.815 176.234 197.776 176.305 197.706C176.377 197.637 176.419 197.541 176.422 197.441C176.423 197.391 176.415 197.34 176.397 197.293C176.379 197.246 176.352 197.202 176.317 197.166C176.282 197.129 176.241 197.099 176.195 197.079C176.148 197.058 176.099 197.047 176.048 197.045C175.454 196.978 174.853 197.054 174.294 197.266C173.735 197.479 173.235 197.821 172.836 198.266C172.804 198.298 172.779 198.336 172.762 198.377C172.745 198.419 172.737 198.463 172.737 198.508C172.734 198.558 172.741 198.608 172.758 198.656C172.775 198.703 172.801 198.746 172.835 198.783C172.868 198.82 172.909 198.85 172.955 198.871C173.001 198.891 173.05 198.903 173.1 198.904C173.187 198.941 173.285 198.945 173.375 198.915Z" fill="#263238"/>
<path d="M168.403 237.195C157.568 237.085 156.028 231.156 156.028 231.156C159.328 228.076 159.603 222.29 159.02 217.12C159.865 218.361 160.936 219.432 162.177 220.277C163.309 221.08 164.597 221.636 165.958 221.909C167.318 222.182 168.721 222.165 170.075 221.861C170.122 221.871 170.171 221.871 170.218 221.861C170.185 221.961 170.163 222.064 170.152 222.169C169.415 226.294 169.899 230.716 174.211 232.069C174.2 232.058 180.338 237.316 168.403 237.195Z" fill="#CB7A63"/>
<path d="M170.548 220.299C170.408 220.799 170.298 221.305 170.218 221.817C170.171 221.827 170.122 221.827 170.075 221.817C168.721 222.122 167.318 222.138 165.958 221.865C164.597 221.592 163.309 221.036 162.177 220.233C160.936 219.389 159.865 218.318 159.02 217.076C158.877 215.767 158.668 214.491 158.448 213.314L170.108 220.002L170.548 220.299Z" fill="#CB7A63"/>
<path d="M152.717 232.08C152.717 232.08 154.532 226.833 157.117 225.216C159.702 223.599 171.043 225.568 172.803 226.316C174.563 227.064 176.279 231.178 176.279 231.178L152.717 232.08Z" fill="#263238"/>
<path opacity="0.5" d="M152.717 232.08C152.717 232.08 154.532 226.833 157.117 225.216C159.702 223.599 171.043 225.568 172.803 226.316C174.563 227.064 176.279 231.178 176.279 231.178L152.717 232.08Z" fill="white"/>
<path d="M178.49 211.62C178.418 213.48 177.876 215.291 176.914 216.884C175.953 218.476 174.602 219.799 172.99 220.728H172.924C172.094 221.237 171.188 221.609 170.24 221.828C170.193 221.838 170.144 221.838 170.097 221.828C168.743 222.133 167.34 222.149 165.98 221.876C164.619 221.603 163.331 221.047 162.199 220.244C160.958 219.4 159.887 218.329 159.042 217.087C156.974 214.139 156.171 210.234 154.763 204.734C154.287 202.956 154.273 201.086 154.722 199.3C155.171 197.515 156.067 195.874 157.327 194.531C158.587 193.189 160.168 192.19 161.921 191.629C163.675 191.068 165.542 190.964 167.347 191.325C175.531 192.997 178.809 204.305 178.49 211.62Z" fill="#CB7A63"/>
<path opacity="0.2" d="M172.902 220.739C172.072 221.248 171.166 221.619 170.218 221.839L170.614 217.021C170.614 217.021 172.33 220.739 172.902 220.739Z" fill="black"/>
<path d="M152.717 201.896C151.617 204.096 149.153 206.593 148.108 208.782C147.433 209.888 147.111 211.174 147.184 212.467C147.282 213.14 147.64 213.747 148.181 214.158C148.722 214.569 149.403 214.752 150.077 214.667C148.977 216.229 149.791 218.803 151.474 219.87C152.343 220.39 153.365 220.594 154.367 220.447C155.369 220.301 156.29 219.814 156.974 219.067C158.074 220.255 158.899 221.135 160.571 221.157C161.389 221.166 162.2 221.009 162.955 220.697C163.711 220.385 164.397 219.925 164.971 219.342C165.727 220.149 166.712 220.705 167.794 220.935C168.876 221.165 170.002 221.059 171.021 220.629C171.986 220.172 172.764 219.396 173.224 218.433C173.685 217.469 173.8 216.377 173.551 215.338C172.952 213.523 172.673 211.617 172.726 209.706C172.726 209.706 175.091 206.23 174.123 204.129L173.089 197.529C171.244 196.13 168.967 195.422 166.654 195.527C164.348 195.637 162.078 196.143 159.944 197.023C156.963 198.2 154.004 199.19 152.717 201.896Z" fill="#263238"/>
<path d="M170.702 201.5C172.957 202.215 174.079 205.603 174.134 207.737C174.2 210.091 172.594 211.543 170.57 209.937C169.051 208.688 167.981 206.977 167.523 205.064C167.017 202.776 168.436 200.829 170.702 201.5Z" fill="#CB7A63"/>
<path d="M149.318 480.13C148.218 480.075 147.184 479.866 146.887 479.36C146.805 479.225 146.77 479.068 146.786 478.911C146.802 478.754 146.868 478.607 146.975 478.491C147.052 478.375 147.152 478.277 147.27 478.203C147.387 478.129 147.519 478.081 147.657 478.062C149.098 477.754 151.903 479.591 152.057 479.668C152.089 479.691 152.114 479.723 152.128 479.761C152.141 479.798 152.144 479.839 152.134 479.877C152.127 479.919 152.105 479.957 152.073 479.985C152.041 480.013 152 480.029 151.958 480.031C151.083 480.141 150.199 480.174 149.318 480.13ZM148.13 478.425C148.002 478.409 147.873 478.409 147.745 478.425C147.659 478.436 147.576 478.466 147.502 478.511C147.428 478.557 147.365 478.617 147.316 478.689C147.162 478.931 147.195 479.041 147.316 479.129C147.657 479.69 149.802 479.811 151.397 479.69C150.417 479.059 149.321 478.629 148.174 478.425H148.13Z" fill="white"/>
<path d="M151.903 480.009H151.815C150.836 479.492 148.988 477.589 149.241 476.621C149.241 476.39 149.483 476.126 150.044 476.093C150.245 476.082 150.445 476.111 150.634 476.179C150.823 476.247 150.997 476.353 151.144 476.489C152.189 477.446 152.145 479.723 152.145 479.789C152.14 479.825 152.128 479.859 152.109 479.889C152.09 479.919 152.065 479.945 152.035 479.965C151.998 479.996 151.951 480.012 151.903 480.009ZM150.154 476.5H150C149.637 476.5 149.593 476.665 149.582 476.709C149.439 477.281 150.682 478.777 151.661 479.47C151.654 478.512 151.346 477.581 150.781 476.808C150.695 476.71 150.591 476.63 150.474 476.574C150.356 476.517 150.229 476.484 150.099 476.478L150.154 476.5Z" fill="white"/>
<path d="M162.243 460.836L153.817 460.385L152.772 479.855L161.242 480.306L162.243 460.836Z" fill="#CB7A63"/>
<path d="M150.803 479.426C144.72 482.638 142.938 482.726 136.14 483.826C134.655 484.068 135.26 487.632 138.747 487.819C144.522 488.138 145.149 487.896 150.066 488.16C154.279 488.391 159.108 488.842 162.452 489.073C162.554 489.09 162.658 489.09 162.76 489.073C163.094 489.027 163.397 488.851 163.602 488.583C163.808 488.316 163.901 487.978 163.86 487.643L162.903 480.042C162.878 479.879 162.798 479.728 162.676 479.616C162.554 479.504 162.397 479.437 162.232 479.426L152.959 478.931C152.209 478.9 151.464 479.071 150.803 479.426Z" fill="#263238"/>
<path opacity="0.2" d="M162.254 460.847L161.627 472.606L153.168 472.155L153.817 460.396L162.254 460.847Z" fill="black"/>
<path d="M173.969 291.062C173.969 291.062 173.254 347.239 171.351 373.716C169.569 398.378 164.058 470.263 164.058 470.263L149.758 469.482C149.758 469.482 146.755 395.628 146.458 370.482C146.194 346.656 145.028 289.984 145.028 289.984L173.969 291.062Z" fill="white"/>
<path d="M173.969 291.062C173.969 291.062 173.254 347.239 171.351 373.716C169.569 398.378 164.058 470.263 164.058 470.263L149.758 469.482C149.758 469.482 146.755 395.628 146.458 370.482C146.194 346.656 145.028 289.984 145.028 289.984L173.969 291.062Z" fill="#263238"/>
<path opacity="0.6" d="M173.969 291.062C173.969 291.062 173.254 347.239 171.351 373.716C169.569 398.378 164.058 470.263 164.058 470.263L149.758 469.482C149.758 469.482 146.755 395.628 146.458 370.482C146.194 346.656 145.028 289.984 145.028 289.984L173.969 291.062Z" fill="white"/>
<path d="M166.643 465.368L165.675 470.582L148.262 469.647C148.262 469.647 147.976 463.718 148.042 463.718L166.643 465.368Z" fill="#263238"/>
<g opacity="0.5">
<path d="M166.643 465.368L165.675 470.582L148.262 469.647C148.262 469.647 147.976 463.718 148.042 463.718L166.643 465.368Z" fill="white"/>
</g>
<path d="M236.449 478.557C236.35 477.457 236.394 476.412 236.845 476.005C236.964 475.9 237.112 475.834 237.269 475.816C237.427 475.799 237.586 475.83 237.725 475.906C237.846 475.964 237.954 476.045 238.043 476.145C238.131 476.245 238.199 476.362 238.242 476.489C238.759 477.831 237.373 480.988 237.307 481.142C237.292 481.182 237.265 481.215 237.229 481.237C237.193 481.259 237.151 481.268 237.109 481.263C237.069 481.26 237.03 481.245 236.999 481.219C236.967 481.194 236.944 481.159 236.933 481.12C236.7 480.281 236.538 479.423 236.449 478.557ZM237.967 477.028C237.978 476.9 237.978 476.771 237.967 476.643C237.945 476.562 237.905 476.488 237.85 476.425C237.794 476.362 237.725 476.312 237.648 476.28C237.384 476.17 237.263 476.28 237.208 476.335C236.702 476.786 236.889 478.909 237.263 480.449C237.72 479.365 237.97 478.204 238 477.028H237.967Z" fill="white"/>
<path d="M236.9 481.065C236.895 481.04 236.895 481.013 236.9 480.988C237.263 479.888 238.891 477.688 239.859 477.688C240.09 477.688 240.387 477.831 240.486 478.359C240.529 478.559 240.53 478.765 240.49 478.966C240.451 479.166 240.371 479.356 240.255 479.525C239.485 480.746 237.219 481.197 237.131 481.219C237.097 481.225 237.061 481.223 237.029 481.211C236.996 481.2 236.967 481.179 236.944 481.153C236.919 481.13 236.904 481.099 236.9 481.065ZM240.101 478.623V478.491C240.101 478.139 239.881 478.128 239.837 478.139C239.254 478.139 237.956 479.646 237.428 480.757C238.382 480.547 239.252 480.057 239.925 479.349C240.078 479.135 240.155 478.875 240.145 478.612L240.101 478.623Z" fill="white"/>
<path d="M230.718 462.035L222.589 463.52L228.87 482.605L237.065 481.109L230.718 462.035Z" fill="#CB7A63"/>
<path d="M238.946 479.8C241.41 482.187 242.708 483.408 249.352 484.728C250.815 485.014 249.847 488.567 246.36 488.644C240.596 488.776 243.753 488.435 238.836 488.545C234.634 488.633 229.805 488.941 226.461 489.073C226.348 489.09 226.233 489.09 226.12 489.073C225.962 489.04 225.813 488.975 225.681 488.882C225.549 488.79 225.436 488.672 225.35 488.536C225.264 488.4 225.206 488.248 225.18 488.089C225.153 487.93 225.159 487.767 225.196 487.61L226.89 480.02C226.925 479.853 227.016 479.703 227.148 479.595C227.28 479.487 227.445 479.428 227.616 479.426L236.856 479.217C237.226 479.17 237.601 479.197 237.96 479.297C238.319 479.397 238.654 479.568 238.946 479.8Z" fill="#263238"/>
<path opacity="0.2" d="M230.729 462.046L233.985 471.847L225.823 473.343L222.589 463.52L230.729 462.046Z" fill="black"/>
<path opacity="0.3" d="M173.727 328C172.627 347.03 171.67 369.8 170.889 382.461C170.889 383.077 170.801 383.704 170.779 384.386C167.259 364.3 161.979 331.586 171.714 328.209C172.369 328.029 173.049 327.958 173.727 328Z" fill="black"/>
<path d="M148.9 293.669C148.9 293.669 150.792 313.238 153.839 321.829C158.151 333.984 163.53 337.9 167.666 345.171C174.959 357.986 179.018 368.997 183.935 379.194C199.335 411.094 220.653 467.271 220.653 467.271L236.053 466.171L181.504 292.734L148.9 293.669Z" fill="#263238"/>
<path opacity="0.6" d="M148.9 293.669C148.9 293.669 150.792 313.238 153.839 321.829C158.151 333.984 163.53 337.9 167.666 345.171C174.959 357.986 179.018 368.997 183.935 379.194C199.335 411.094 220.653 467.271 220.653 467.271L236.053 466.171L181.504 292.734L148.9 293.669Z" fill="white"/>
<path d="M238.781 462.904L238.968 468.195L221.071 470.868C221.071 470.868 219.454 465.148 219.52 465.148L238.781 462.904Z" fill="#263238"/>
<g opacity="0.5">
<path d="M238.781 462.904L238.968 468.195L221.071 470.868C221.071 470.868 219.454 465.148 219.52 465.148L238.781 462.904Z" fill="white"/>
</g>
<path d="M153.542 279.127C152.794 280.997 151.034 284.726 148.339 286.926C148.037 287.176 147.674 287.34 147.287 287.402C146.9 287.463 146.504 287.421 146.139 287.278C146.139 287.278 141.398 284.352 141.024 283.032C141.008 282.953 141.008 282.87 141.024 282.79L142.201 277.29L142.344 277.235C143.202 276.949 147.844 275.53 149.802 276.322L152.871 277.554C153.029 277.599 153.174 277.679 153.297 277.787C153.42 277.896 153.517 278.03 153.582 278.181C153.646 278.332 153.676 278.495 153.669 278.659C153.662 278.822 153.619 278.983 153.542 279.127Z" fill="#CB7A63"/>
<path d="M145.809 245.28L129.716 260.955L142.377 277.279L142.234 277.334L141.057 282.834C141.041 282.914 141.041 282.996 141.057 283.076C140.259 283.371 139.398 283.451 138.56 283.307C138.56 283.307 114.547 263.804 115.9 260.438C117.189 257.774 118.659 255.201 120.3 252.738L120.465 252.485C122.588 248.965 135.942 228.978 145.985 229.088C153.927 229.154 153.498 238.295 145.809 245.28Z" fill="white"/>
<path opacity="0.5" d="M145.809 245.28L129.716 260.955L142.377 277.279L142.234 277.334L141.057 282.834C141.041 282.914 141.041 282.996 141.057 283.076C140.259 283.371 139.398 283.451 138.56 283.307C138.56 283.307 114.25 266.62 115.9 260.438C116.362 258.667 118.474 255.554 120.3 252.738L120.465 252.485C122.588 248.965 135.942 228.978 145.985 229.088C153.927 229.154 153.498 238.295 145.809 245.28Z" fill="black"/>
<path d="M141.068 283.032C141.052 282.952 141.052 282.87 141.068 282.79L142.245 277.29L142.388 277.235L142.784 277.4C142.784 277.4 144.06 281.888 141.068 283.032Z" fill="#263238"/>
<path d="M220.554 375.806C195.826 381.823 198.268 361.506 164.278 374.706C154.268 378.6 148.449 368.546 143.037 366.896C132.246 363.596 120.245 364.608 110.741 370.691C117.595 342.926 128.665 316.375 143.565 291.964C144.346 286.222 146.634 274.078 140.419 240.11C139.319 233.873 145.743 228.527 152.068 228.197L156.061 227.9C162.099 227.616 168.148 227.679 174.178 228.087C176.191 228.285 178.149 228.593 179.887 228.923C182.144 229.346 184.219 230.444 185.838 232.073C187.456 233.701 188.542 235.783 188.951 238.042C190.026 244.151 190.395 250.363 190.051 256.555C189.809 263.012 189.061 271.449 187.521 283.109C187.136 286.035 186.696 289.17 186.201 292.536C186.201 292.536 202.415 331.465 220.554 375.806Z" fill="white"/>
<path opacity="0.5" d="M220.554 375.806C195.826 381.823 198.268 361.506 164.278 374.706C154.268 378.6 148.449 368.546 143.037 366.896C132.246 363.596 120.245 364.608 110.741 370.691C117.595 342.926 128.665 316.375 143.565 291.964C144.346 286.222 146.634 274.078 140.419 240.11C139.319 233.873 145.743 228.527 152.068 228.197L156.061 227.9C162.099 227.616 168.148 227.679 174.178 228.087C176.191 228.285 178.149 228.593 179.887 228.923C182.144 229.346 184.219 230.444 185.838 232.073C187.456 233.701 188.542 235.783 188.951 238.042C190.026 244.151 190.395 250.363 190.051 256.555C189.809 263.012 189.061 271.449 187.521 283.109C187.136 286.035 186.696 289.17 186.201 292.536C186.201 292.536 202.415 331.465 220.554 375.806Z" fill="black"/>
<path opacity="0.2" d="M190.051 256.577C189.809 263.034 189.061 271.471 187.521 283.131C186.575 272.923 184.892 262.902 178.842 242.431L189.842 245.94C190.062 249.339 190.095 252.958 190.051 256.577Z" fill="black"/>
<path d="M184.584 212.137C184.46 211.806 184.235 211.521 183.941 211.324C183.647 211.127 183.299 211.026 182.945 211.037C180.624 210.85 179.414 210.674 177.247 211.532C177.084 211.587 176.939 211.686 176.829 211.818C176.767 211.953 176.737 212.099 176.741 212.247C176.741 213.534 176.664 214.821 176.62 216.097C176.564 216.383 176.603 216.679 176.733 216.939C176.862 217.2 177.074 217.41 177.335 217.538C178.523 218.374 184.144 221.234 184.144 221.234C185.244 221.355 187.62 219.232 188.61 218.671L184.584 212.137Z" fill="#CB7A63"/>
<path d="M182.615 221.377L188.929 217.989C188.929 217.989 205.297 238.889 206.265 240.572C213.965 254.135 203.383 253.772 200.38 251.902C193.483 247.623 194.154 241.441 191.448 236.029L182.615 221.377Z" fill="white"/>
<g opacity="0.5">
<path d="M182.615 221.377L188.929 217.989C188.929 217.989 205.297 238.889 206.265 240.572C213.965 254.135 203.383 253.772 200.38 251.902C193.483 247.623 194.154 241.441 191.448 236.029L182.615 221.377Z" fill="black"/>
</g>
<path d="M186.608 231.805C193.739 237.113 201.218 241.938 208.993 246.248L209.378 247.865C209.569 248.649 209.548 249.469 209.318 250.243C209.087 251.016 208.656 251.714 208.067 252.265C207.479 252.817 206.754 253.202 205.968 253.382C205.182 253.562 204.362 253.53 203.592 253.288L201.678 252.694C201.678 252.694 176.62 245.841 176.07 238.625C172.737 234.5 178.941 224.787 186.608 231.805Z" fill="white"/>
<path opacity="0.5" d="M186.608 231.805C193.739 237.113 201.218 241.938 208.993 246.248L209.378 247.865C209.569 248.649 209.548 249.469 209.318 250.243C209.087 251.016 208.656 251.714 208.067 252.265C207.479 252.817 206.754 253.202 205.968 253.382C205.182 253.562 204.362 253.53 203.592 253.288L201.678 252.694C201.678 252.694 176.62 245.841 176.07 238.625C172.737 234.5 178.941 224.787 186.608 231.805Z" fill="black"/>
<path d="M176.499 195.736L173.001 196.572L150.264 201.995C150.207 201.826 150.163 201.654 150.132 201.478C149.884 200.457 149.704 199.421 149.593 198.376C149.516 197.65 149.461 196.924 149.45 196.176C149.318 188.476 153.069 181.876 158.998 180.479C164.927 179.082 171.23 183.218 174.596 190.17C174.893 190.786 175.168 191.446 175.421 192.106C175.811 193.106 176.13 194.131 176.378 195.175C176.4 195.406 176.466 195.582 176.499 195.736Z" fill="#263238"/>
<path opacity="0.5" d="M176.4 195.736L172.902 196.594L150.165 202.017C150.165 201.863 150.077 201.676 150.033 201.5C149.789 200.479 149.612 199.443 149.505 198.398L175.3 192.161C175.69 193.161 176.009 194.186 176.257 195.23C176.4 195.406 176.4 195.582 176.4 195.736Z" fill="black"/>
<path d="M184.914 195.912C184.992 196.239 185.004 196.578 184.95 196.909C184.896 197.24 184.776 197.558 184.598 197.842C184.42 198.127 184.187 198.373 183.912 198.567C183.638 198.761 183.328 198.898 183 198.97L147.14 207.539C146.485 207.695 145.795 207.584 145.222 207.231C144.649 206.879 144.239 206.313 144.082 205.658C143.998 205.328 143.981 204.984 144.034 204.648C144.087 204.311 144.208 203.989 144.39 203.7C144.749 203.141 145.315 202.746 145.963 202.6L181.856 194.02C182.181 193.943 182.518 193.931 182.848 193.985C183.177 194.039 183.493 194.157 183.777 194.332C184.061 194.508 184.308 194.738 184.503 195.009C184.698 195.28 184.838 195.587 184.914 195.912Z" fill="#263238"/>
</svg>
