<svg width="21" height="16" viewBox="0 0 21 16" fill="none" xmlns="http://www.w3.org/2000/svg">
<path d="M20.5797 1.9351C19.8338 2.25898 19.0446 2.47235 18.237 2.56848C19.0857 2.07187 19.724 1.28291 20.0321 0.349582C19.2297 0.818446 18.3533 1.14742 17.4404 1.32242C17.056 0.919844 16.5937 0.599583 16.0816 0.381104C15.5694 0.162625 15.0182 0.0504923 14.4614 0.0515207C12.2069 0.0515207 10.3825 1.84817 10.3825 4.06293C10.3809 4.371 10.4162 4.67815 10.4877 4.97782C8.87109 4.90208 7.28809 4.48998 5.83999 3.76787C4.39189 3.04577 3.11057 2.02956 2.07801 0.784255C1.71576 1.3945 1.52419 2.09078 1.5233 2.80031C1.5233 4.19126 2.24952 5.42077 3.34609 6.14108C2.6964 6.12568 2.06003 5.95384 1.49099 5.64017V5.68985C1.49099 7.63553 2.89951 9.25417 4.76373 9.62261C4.41316 9.71599 4.05191 9.76331 3.68911 9.76336C3.43167 9.76381 3.17482 9.73885 2.92229 9.68884C3.44055 11.2826 4.94891 12.4418 6.73565 12.4749C5.28379 13.593 3.50129 14.1973 1.6683 14.1929C1.34294 14.1924 1.01788 14.1731 0.694763 14.1349C2.55947 15.3248 4.72704 15.9542 6.93947 15.9481C14.4527 15.9481 18.5573 9.83373 18.5573 4.53072C18.5573 4.35685 18.5527 4.18298 18.5444 4.01325C19.3411 3.44696 20.0303 2.74323 20.5797 1.9351V1.9351Z" fill="white"/>
</svg>
